<?xml version="1.0" encoding="UTF-8" standalone="no"?>
<!-- Created with Inkscape (http://www.inkscape.org/) -->

<svg
   width="20"
   height="20"
   viewBox="0 0 5.2916665 5.2916668"
   version="1.1"
   id="svg5"
   inkscape:version="1.1.2 (0a00cf5339, 2022-02-04)"
   sodipodi:docname="icon-menu-reload.svg"
   xmlns:inkscape="http://www.inkscape.org/namespaces/inkscape"
   xmlns:sodipodi="http://sodipodi.sourceforge.net/DTD/sodipodi-0.dtd"
   xmlns="http://www.w3.org/2000/svg"
   xmlns:svg="http://www.w3.org/2000/svg">
  <sodipodi:namedview
     id="namedview7"
     pagecolor="#ffffff"
     bordercolor="#666666"
     borderopacity="1.0"
     inkscape:pageshadow="2"
     inkscape:pageopacity="0.0"
     inkscape:pagecheckerboard="0"
     inkscape:document-units="mm"
     showgrid="false"
     units="px"
     width="20px"
     showguides="true"
     inkscape:guide-bbox="true"
     inkscape:zoom="24.858361"
     inkscape:cx="5.6319079"
     inkscape:cy="12.671793"
     inkscape:window-width="1871"
     inkscape:window-height="1056"
     inkscape:window-x="49"
     inkscape:window-y="24"
     inkscape:window-maximized="1"
     inkscape:current-layer="layer1">
    <sodipodi:guide
       position="-1.6284762,4.7807723"
       orientation="0,-1"
       id="guide888" />
    <sodipodi:guide
       position="-1.0962944,0.69361621"
       orientation="0,-1"
       id="guide890" />
    <sodipodi:guide
       position="0.59604356,2.8223433"
       orientation="1,0"
       id="guide892" />
    <sodipodi:guide
       position="4.6725558,2.8010561"
       orientation="1,0"
       id="guide894" />
  </sodipodi:namedview>
  <defs
     id="defs2" />
  <g
     inkscape:label="Layer 1"
     inkscape:groupmode="layer"
     id="layer1">
    <path
       id="path1056"
       style="fill:#000000;stroke-width:0.813044"
       d="M 9.9570312 3.375 A 6.2634166 6.2797708 0 0 0 3.6933594 9.6542969 A 6.2634166 6.2797708 0 0 0 9.9570312 15.933594 A 6.2634166 6.2797708 0 0 0 12.193359 15.503906 L 11.529297 13.646484 A 4.265639 4.2767768 0 0 1 9.9609375 13.947266 A 4.265639 4.2767768 0 0 1 5.6953125 9.6699219 A 4.265639 4.2767768 0 0 1 9.9609375 5.3925781 A 4.265639 4.2767768 0 0 1 14.212891 9.3945312 L 12.308594 9.3847656 L 14.957031 13.519531 L 17.660156 9.4140625 L 16.203125 9.40625 A 6.2634166 6.2797708 0 0 0 9.9570312 3.375 z "
       transform="scale(0.26458333)" />
  </g>
</svg>
