<?xml version="1.0" encoding="UTF-8" standalone="no"?>
<!-- Created with Inkscape (http://www.inkscape.org/) -->

<svg
   width="34"
   height="8"
   viewBox="0 0 8.9958331 2.1166666"
   version="1.1"
   id="svg5"
   inkscape:version="1.2.1 (9c6d41e, 2022-07-14)"
   sodipodi:docname="iconbar-lock.svg"
   xmlns:inkscape="http://www.inkscape.org/namespaces/inkscape"
   xmlns:sodipodi="http://sodipodi.sourceforge.net/DTD/sodipodi-0.dtd"
   xmlns="http://www.w3.org/2000/svg"
   xmlns:svg="http://www.w3.org/2000/svg">
  <sodipodi:namedview
     id="namedview7"
     pagecolor="#ffffff"
     bordercolor="#000000"
     borderopacity="0.25"
     inkscape:showpageshadow="2"
     inkscape:pageopacity="0.0"
     inkscape:pagecheckerboard="true"
     inkscape:deskcolor="#d1d1d1"
     inkscape:document-units="mm"
     showgrid="false"
     inkscape:zoom="23.275377"
     inkscape:cx="18.087784"
     inkscape:cy="8.3994343"
     inkscape:window-width="1381"
     inkscape:window-height="847"
     inkscape:window-x="59"
     inkscape:window-y="25"
     inkscape:window-maximized="1"
     inkscape:current-layer="layer1" />
  <defs
     id="defs2" />
  <g
     inkscape:label="Layer 1"
     inkscape:groupmode="layer"
     id="layer1">
    <path
       id="path263"
       style="fill:#666666;stroke-width:0.323648"
       d="M 2.9372846,0.02276482 A 0.94066871,0.92645972 0 0 0 1.996811,0.94932994 0.94066871,0.92645972 0 0 0 2.9372846,1.8755922 0.94066871,0.92645972 0 0 0 3.8780604,0.94932994 0.94066871,0.92645972 0 0 0 2.9372846,0.02276482 Z m 0.00664,0.45328371 A 0.4686724,0.46989503 0 0 1 3.4126589,0.94599696 0.4686724,0.46989503 0 0 1 2.9439331,1.4156425 0.4686724,0.46989503 0 0 1 2.4755096,0.94599696 0.4686724,0.46989503 0 0 1 2.9439331,0.47604853 Z" />
    <rect
       style="fill:#666666;stroke-width:0.173164"
       id="rect429"
       width="2.728205"
       height="0.53427351"
       x="3.4341862"
       y="0.64170277"
       ry="0.26713675" />
    <rect
       style="fill:#666666;stroke-width:0.111541"
       id="rect483-2"
       width="0.35239297"
       height="0.82350117"
       x="5.4076028"
       y="1.0480914"
       ry="0"
       rx="0" />
    <rect
       style="fill:#666666;stroke-width:0.113326"
       id="rect483-2-5"
       width="0.36376047"
       height="0.82350117"
       x="4.786881"
       y="1.0540414"
       ry="0"
       rx="0" />
  </g>
</svg>
