<?xml version="1.0" encoding="UTF-8" standalone="no"?>
<svg
   xmlns:dc="http://purl.org/dc/elements/1.1/"
   xmlns:cc="http://creativecommons.org/ns#"
   xmlns:rdf="http://www.w3.org/1999/02/22-rdf-syntax-ns#"
   xmlns:svg="http://www.w3.org/2000/svg"
   xmlns="http://www.w3.org/2000/svg"
   xmlns:sodipodi="http://sodipodi.sourceforge.net/DTD/sodipodi-0.dtd"
   xmlns:inkscape="http://www.inkscape.org/namespaces/inkscape"
   sodipodi:docname="logo.svg"
   inkscape:version="1.0 (6e3e5246a0, 2020-05-07)"
   id="svg867"
   version="1.1"
   viewBox="0 0 90 15"
   height="1.5cm"
   width="9cm">
  <defs
     id="defs861" />
  <sodipodi:namedview
     units="cm"
     inkscape:window-maximized="1"
     inkscape:window-y="27"
     inkscape:window-x="41"
     inkscape:window-height="1025"
     inkscape:window-width="1879"
     showgrid="false"
     inkscape:document-rotation="0"
     inkscape:current-layer="layer1"
     inkscape:document-units="mm"
     inkscape:cy="131.30343"
     inkscape:cx="138.81239"
     inkscape:zoom="2.8"
     inkscape:pageshadow="2"
     inkscape:pageopacity="0.0"
     borderopacity="1.0"
     bordercolor="#666666"
     pagecolor="#ffffff"
     id="base" />
  <metadata
     id="metadata864">
    <rdf:RDF>
      <cc:Work
         rdf:about="">
        <dc:format>image/svg+xml</dc:format>
        <dc:type
           rdf:resource="http://purl.org/dc/dcmitype/StillImage" />
        <dc:title></dc:title>
      </cc:Work>
    </rdf:RDF>
  </metadata>
  <g
     id="layer1"
     inkscape:groupmode="layer"
     inkscape:label="Layer 1">
    <g
       transform="matrix(0.50527211,0,0,0.50527211,-35.235642,-43.37386)"
       id="g1517">
      <g
         id="g939"
         transform="matrix(0.70731552,0,0,0.70731552,66.852487,-22.862519)">
        <path
           d="m 33.486328,153.24414 c -2.860309,-0.21334 -5.757383,0.69485 -8.330078,2.53125 -1.365236,0.97451 -2.518787,2.16081 -3.496094,3.62695 a 1.991122,1.991122 0 0 0 -0.265625,0.3418 1.991122,1.991122 0 0 0 -0.0039,0.004 l -3.486328,5.6914 H 9.9785156 a 1.991122,1.991122 0 0 0 -0.7324218,3.8418 c 0.8790482,0.34794 1.6642522,0.65604 2.1660152,0.95508 0.816822,0.4868 1.289804,0.95967 1.490235,1.45508 0.174314,0.43085 0.1898,1.06863 -0.28711,2.02734 L 4.6992188,186.3457 a 1.991122,1.991122 0 0 0 2.9765624,2.57422 c 0.7435214,-0.63157 1.3193289,-1.17656 1.9003907,-1.58594 1.8599191,-1.31036 3.7913321,-2.09474 6.1132811,-1.87695 a 1.991122,1.991122 0 0 0 1.876953,-0.93164 l 5.988282,-9.64453 c 0.0095,1.59153 0.378354,3.14121 1.109374,4.53516 6.78e-4,0.001 0.0013,0.003 0.002,0.004 a 1.991122,1.991122 0 0 0 0.01172,0.0215 c 0.758486,1.41031 1.859722,2.59241 3.210938,3.4414 1.380098,0.86715 2.974232,1.32032 4.613281,1.32031 0.435813,10e-6 0.873137,-0.0286 1.310547,-0.0859 0.575557,-0.0739 1.124671,-0.22254 1.699219,-0.41407 0.64365,-0.21454 1.261353,-0.49711 1.84375,-0.84179 0.653592,-0.38681 1.255351,-0.87644 1.830078,-1.45117 a 1.991122,1.991122 0 0 0 0.01563,-0.0176 1.991122,1.991122 0 0 0 0.314453,-0.42188 c 0.156463,-0.17802 0.282133,-0.38106 0.425781,-0.57031 v 1.19336 c -0.0021,1.27583 1.159721,2.43763 2.435547,2.43555 h 2.074219 c 1.275826,0.002 2.437616,-1.15972 2.435547,-2.43555 v -6.94531 c 0,-0.0988 0.0074,-0.20697 0.01563,-0.31836 0.0087,-0.054 0.03962,-0.21167 0.09766,-0.4375 0.05729,-0.19997 0.123856,-0.37272 0.203125,-0.53125 0.01461,-0.0292 0.109413,-0.18467 0.296875,-0.38867 0.136148,-0.14817 0.282628,-0.26769 0.478516,-0.38086 a 1.991122,1.991122 0 0 0 0.03516,-0.0215 c 0.111922,-0.067 0.410381,-0.20003 0.857422,-0.30859 a 1.991122,1.991122 0 0 0 0.03125,-0.008 c 0.227086,-0.0584 0.562111,-0.0675 0.857422,-0.0957 v 9.43555 c -0.0021,1.27583 1.15972,2.43763 2.435546,2.43555 h 2.072266 c 1.275828,0.002 2.437617,-1.15972 2.435547,-2.43555 v -6.94531 c 0,-0.0792 0.0072,-0.18928 0.01563,-0.30469 0.0076,-0.0492 0.04009,-0.21952 0.09961,-0.45117 0.05729,-0.19998 0.123861,-0.37273 0.203125,-0.53125 0.01896,-0.0379 0.110491,-0.18797 0.294922,-0.38867 0.132373,-0.14406 0.28189,-0.26613 0.480469,-0.38086 a 1.991122,1.991122 0 0 0 0.03516,-0.0215 c 0.115404,-0.0691 0.409252,-0.20023 0.855469,-0.30859 a 1.991122,1.991122 0 0 0 0.03125,-0.008 c 0.219305,-0.0564 0.547179,-0.0634 0.832031,-0.0918 v 9.43164 c -0.0021,1.27583 1.159721,2.43763 2.435547,2.43555 h 2.09961 c 0.777482,0.001 1.404161,-0.48379 1.859374,-1.10938 0.45525,0.62524 1.080208,1.11065 1.857422,1.10938 h 2.09961 c 1.275826,0.002 2.437616,-1.15972 2.435547,-2.43555 v -6.77344 c 0,0.0554 0.04883,-0.3158 0.318359,-0.84961 0.002,-0.004 0.0018,-0.002 0.0039,-0.006 a 1.991122,1.991122 0 0 0 0.01172,-0.0234 c 0.275777,-0.53931 0.614659,-0.99066 1.050781,-1.39649 a 1.991122,1.991122 0 0 0 0.01367,-0.0117 l 0.002,-0.002 c 0.05569,-0.0521 -0.01802,-0.004 0.02344,-0.0371 8.06e-4,0.003 0.0031,0.007 0.0039,0.01 1.39e-4,5.6e-4 -1.38e-4,0.001 0,0.002 0.0082,0.0332 0.02884,0.0704 0.03516,0.10352 0.0032,0.0166 0.0063,0.0323 0.0098,0.0488 a 1.991122,1.991122 0 0 0 0,0.006 c 0.04109,0.19175 0.06641,0.40983 0.06641,0.66406 v 8.26758 c -0.0021,1.27585 1.159702,2.43764 2.435547,2.43555 h 2.113281 c 1.275845,0.002 2.437646,-1.1597 2.435547,-2.43555 v -1.41211 c 0.716127,1.06557 1.588048,2.01333 2.679688,2.69922 1.380099,0.86715 2.974233,1.32032 4.613281,1.32031 0.435814,10e-6 0.873137,-0.0286 1.310547,-0.0859 0.575559,-0.0739 1.124672,-0.22254 1.699218,-0.41407 0.643649,-0.21454 1.261354,-0.49711 1.84375,-0.84179 0.653588,-0.38681 1.25535,-0.87644 1.830079,-1.45117 a 1.991122,1.991122 0 0 0 0.01563,-0.0176 1.991122,1.991122 0 0 0 0.314453,-0.42188 c 0.468444,-0.53298 0.921033,-1.08066 1.27539,-1.70703 v -0.002 c 0.40192,-0.70906 0.250237,-1.52777 -0.117187,-2.25 0.54853,-0.48738 0.93884,-1.13343 0.898437,-1.86914 l -0.05078,-0.96289 -0.002,-0.0566 a 1.991122,1.991122 0 0 0 -0.0039,-0.0801 c -0.114744,-1.35608 -0.540146,-2.64466 -1.181641,-3.82813 a 1.991122,1.991122 0 0 0 -0.185547,-0.41015 c -9.5e-4,-0.002 -0.003,-0.002 -0.0039,-0.004 -0.782958,-1.30259 -1.864688,-2.38884 -3.167969,-3.16601 -1.335374,-0.79632 -2.858982,-1.20899 -4.419922,-1.20899 -1.63917,0 -3.235042,0.46177 -4.61914,1.33594 -1.354766,0.85564 -2.459838,2.04113 -3.226563,3.45508 -4.07e-4,7.4e-4 -0.0015,0.001 -0.002,0.002 -2.55e-4,4.7e-4 2.55e-4,0.001 0,0.002 -0.0085,0.0155 -0.01116,0.0333 -0.01953,0.0488 -0.242854,-0.74807 -0.533764,-1.481 -0.976563,-2.12305 -0.587608,-0.85202 -1.392428,-1.5339 -2.314453,-1.99804 -0.687779,-0.35259 -1.459172,-0.42161 -2.21875,-0.51563 a 1.991122,1.991122 0 0 0 -0.884765,-0.20703 c -1.028861,0 -1.956766,0.3726 -2.816407,0.86524 -0.444561,-0.39587 -0.979858,-0.67888 -1.576171,-0.67774 h -2.355469 a 1.991122,1.991122 0 0 0 -0.0039,0 c -0.106072,2.3e-4 -0.197966,0.0692 -0.302734,0.084 0.03152,-0.19495 0.123047,-0.37387 0.123047,-0.57422 0,-1.05712 -0.446883,-2.07759 -1.207031,-2.79883 -0.741649,-0.7118 -1.741141,-1.09961 -2.746094,-1.09961 -1.007828,0 -2.011851,0.38211 -2.761719,1.08789 a 1.991122,1.991122 0 0 0 -0.02539,0.0234 c -3.92e-4,3.8e-4 3.91e-4,0.002 0,0.002 -0.749806,0.72771 -1.177735,1.74357 -1.177735,2.78516 0,0.32575 0.11579,0.62864 0.197266,0.93945 L 58.9375,165.81445 c -0.418758,-0.29435 -0.931588,-0.45104 -1.443359,-0.4414 a 1.991122,1.991122 0 0 0 -0.01367,0 c -0.256753,0.006 -0.511951,0.0545 -0.753907,0.14062 -0.484451,0.17221 -0.80069,0.54129 -1.230468,0.78516 -0.444036,-0.39598 -0.974349,-0.68542 -1.570313,-0.68555 h -2.330078 -0.0039 c -0.635112,-1.6e-4 -1.207372,0.32404 -1.660156,0.76758 l -0.8125,-0.56641 c -0.418756,-0.29435 -0.93159,-0.45104 -1.44336,-0.4414 a 1.991122,1.991122 0 0 0 -0.01367,0 c -0.256753,0.006 -0.51195,0.0545 -0.753906,0.14062 -0.484874,0.17236 -0.800658,0.54104 -1.230469,0.78516 -0.430454,-0.38387 -0.94264,-0.65355 -1.519531,-0.66797 l 0.277344,-0.16992 a 1.991122,1.991122 0 0 0 0.763672,-2.54492 c -2.820749,-6.01626 -7.121989,-9.32945 -11.712891,-9.67188 z m -0.753906,10.2207 c 0.494025,0.1039 0.969002,0.36035 1.445312,0.74805 0.436334,0.35515 0.898133,1.18604 1.351563,1.80664 -0.953614,-0.35104 -1.943358,-0.59375 -2.972656,-0.59375 -1.301411,0 -2.544355,0.36809 -3.707032,0.92578 l 0.640625,-1.03125 a 1.991122,1.991122 0 0 0 0.02539,-0.043 c 0.347925,-0.59268 0.979825,-1.39215 1.650391,-1.65234 0.558875,-0.21685 1.07238,-0.26405 1.566406,-0.16016 z m 6.734375,5.0293 c 0.03856,0.20601 0.04156,0.41851 0.132812,0.60742 -0.124768,-0.16871 -0.251182,-0.33476 -0.386718,-0.49414 a 1.991122,1.991122 0 0 0 0.253906,-0.11328 z m -19.175781,0.21094 c -0.09841,0.0585 -0.06973,0.18415 -0.361328,0.34765 -0.290157,0.1627 -0.381279,0.0734 -0.482422,0.12696 a 1.991122,1.991122 0 0 0 0.396484,-0.28516 1.991122,1.991122 0 0 0 0.447266,-0.18945 z m 51.953125,0.15625 c 0.0026,0.0176 0.0039,0.0358 0.002,0.0273 -0.0044,-0.0319 0.0035,0.009 -0.002,-0.0273 z m -25.22461,4.94922 -0.01367,0.0547 a 1.991122,1.991122 0 0 0 0.0078,-0.0391 c 0.0015,-0.006 0.0046,-0.01 0.0059,-0.0156 z m 9.81836,0 -0.01367,0.0547 a 1.991122,1.991122 0 0 0 0.0078,-0.0391 c 0.0015,-0.006 0.0046,-0.01 0.0059,-0.0156 z m -40.746094,1.84765 c 0.217611,-0.39173 0.495748,-0.7738 -0.06055,0.10742 l -0.0078,-0.006 a 1.991122,1.991122 0 0 0 0.06836,-0.10157 z"
           transform="translate(0.02428702,1.0108667)"
           inkscape:original="M 33.337891 155.23047 C 30.987599 155.05517 28.569434 155.78547 26.3125 157.39648 C 24.994871 158.33701 23.97374 159.36496 23.085938 160.79492 L 23.087891 160.78906 L 19.279297 167.00586 A 0.8874378 0.8874378 0 0 1 18.523438 167.42969 L 9.9785156 167.42969 C 10.831338 167.76725 11.703796 168.09162 12.431641 168.52539 C 13.442286 169.12771 14.318042 169.88247 14.748047 170.94531 C 15.178052 172.00816 15.06361 173.28778 14.388672 174.63086 A 0.8874378 0.8874378 0 0 1 14.347656 174.70312 L 6.3867188 187.40234 C 7.0733192 186.81912 7.6943111 186.22512 8.4296875 185.70703 C 10.533112 184.22511 12.985635 183.2036 15.875 183.47461 L 27.798828 164.26953 C 28.2239 163.54543 29.063439 162.30572 30.445312 161.76953 C 32.253349 161.068 34.041319 161.53472 35.433594 162.66797 C 36.622393 163.63559 37.603564 165.09237 38.53125 166.73828 L 43.396484 163.76172 C 40.777262 158.17529 37.090487 155.51037 33.337891 155.23047 z M 63.0625 163.21484 C 62.538463 163.21484 62.044116 163.40585 61.666016 163.76172 A 0.44068568 0.44068568 0 0 0 61.662109 163.76562 C 61.292413 164.12411 61.087891 164.60913 61.087891 165.12305 C 61.087891 165.63039 61.296725 166.10829 61.667969 166.45703 C 62.040521 166.807 62.533455 166.99219 63.0625 166.99219 C 63.577728 166.99219 64.061858 166.8044 64.431641 166.45703 C 64.809231 166.11012 65.025391 165.63151 65.025391 165.12305 C 65.025391 164.60663 64.813722 164.12062 64.435547 163.76367 C 64.066426 163.40674 63.578783 163.21484 63.0625 163.21484 z M 47.712891 167.36328 A 0.44068568 0.44068568 0 0 0 47.576172 167.38867 C 46.527565 167.761 45.601457 168.4109 44.75 169.21094 C 44.69048 168.76609 44.67332 168.30719 44.521484 167.89258 A 0.44068568 0.44068568 0 0 0 44.107422 167.60352 L 41.773438 167.60352 A 0.44068568 0.44068568 0 0 0 41.380859 168.24609 C 41.486645 168.45178 41.637131 169.01504 41.75 169.83984 A 0.44068568 0.44068568 0 0 0 41.751953 169.84375 C 41.873957 170.67164 41.931641 171.40679 41.931641 172.04688 L 41.931641 181.59766 A 0.44068568 0.44068568 0 0 0 42.373047 182.03906 L 44.455078 182.03906 A 0.44068568 0.44068568 0 0 0 44.896484 181.59766 L 44.896484 174.64844 C 44.896484 174.47674 44.903882 174.29679 44.919922 174.10938 C 44.942632 173.9385 44.994392 173.6845 45.078125 173.36523 L 45.078125 173.36328 C 45.078802 173.36028 45.079378 173.36042 45.080078 173.35742 C 45.170538 173.03847 45.284948 172.74455 45.421875 172.4707 C 45.548668 172.21712 45.7512 171.93188 46.033203 171.625 C 46.305013 171.3292 46.619053 171.07713 46.982422 170.86719 A 0.44068568 0.44068568 0 0 0 46.988281 170.86328 C 47.337141 170.65396 47.809119 170.46976 48.400391 170.32617 A 0.44068568 0.44068568 0 0 0 48.40625 170.32617 C 48.986754 170.17689 49.642944 170.09961 50.376953 170.09961 A 0.44068568 0.44068568 0 0 0 50.628906 169.29688 L 47.974609 167.44336 A 0.44068568 0.44068568 0 0 0 47.712891 167.36328 z M 57.53125 167.36328 A 0.44068568 0.44068568 0 0 0 57.394531 167.38867 C 56.346035 167.76096 55.41844 168.41083 54.566406 169.21094 C 54.507506 168.76623 54.491827 168.30761 54.339844 167.89258 A 0.44068568 0.44068568 0 0 0 53.925781 167.60352 L 51.591797 167.60352 A 0.44068568 0.44068568 0 0 0 51.199219 168.24609 C 51.304339 168.45049 51.453447 169.01438 51.566406 169.83984 A 0.44068568 0.44068568 0 0 0 51.568359 169.84375 C 51.690461 170.6723 51.75 171.40765 51.75 172.04688 L 51.75 181.59766 A 0.44068568 0.44068568 0 0 0 52.191406 182.03906 L 54.271484 182.03906 A 0.44068568 0.44068568 0 0 0 54.712891 181.59766 L 54.712891 174.64844 C 54.712891 174.48037 54.722091 174.30063 54.738281 174.11133 C 54.760891 173.94045 54.812541 173.6853 54.896484 173.36523 L 54.896484 173.36328 C 54.897161 173.36028 54.897738 173.36042 54.898438 173.35742 C 54.988898 173.03847 55.103306 172.74455 55.240234 172.4707 C 55.367704 172.21576 55.568246 171.93119 55.849609 171.625 C 56.12078 171.32989 56.436873 171.07744 56.800781 170.86719 A 0.44068568 0.44068568 0 0 0 56.806641 170.86328 C 57.156043 170.65363 57.62573 170.46971 58.216797 170.32617 A 0.44068568 0.44068568 0 0 0 58.222656 170.32617 C 58.802945 170.17695 59.461304 170.09961 60.195312 170.09961 A 0.44068568 0.44068568 0 0 0 60.447266 169.29688 L 57.792969 167.44336 A 0.44068568 0.44068568 0 0 0 57.53125 167.36328 z M 32.556641 167.41602 C 31.277629 167.41602 30.080194 167.76308 29 168.44531 C 27.924929 169.1243 27.070959 170.04012 26.458984 171.16992 C 25.846949 172.29105 25.537109 173.5161 25.537109 174.82031 C 25.537109 176.13176 25.836761 177.36476 26.429688 178.49414 A 0.44068568 0.44068568 0 0 0 26.431641 178.49805 C 27.034708 179.61938 27.880096 180.52675 28.947266 181.19727 C 30.019439 181.87094 31.215785 182.21289 32.501953 182.21289 C 32.85058 182.21289 33.202128 182.18948 33.558594 182.14258 C 33.947426 182.09268 34.384658 181.98051 34.882812 181.81445 C 35.392612 181.64452 35.879603 181.42198 36.341797 181.14844 C 36.817835 180.86671 37.294759 180.48454 37.777344 180.00195 A 0.44068568 0.44068568 0 0 0 37.779297 179.99805 C 38.270238 179.49767 38.696354 178.92364 39.060547 178.2793 A 0.44068568 0.44068568 0 0 0 38.886719 177.67383 L 37.074219 176.69922 A 0.44068568 0.44068568 0 0 0 36.486328 176.86328 C 36.001555 177.68238 35.417445 178.28703 34.730469 178.69922 C 34.039978 179.10452 33.306339 179.30273 32.501953 179.30273 C 31.493166 179.30273 30.631837 178.94077 29.837891 178.16406 L 29.835938 178.16211 C 29.163531 177.49588 28.802081 176.67118 28.632812 175.7168 L 39.144531 175.7168 A 0.44068568 0.44068568 0 0 0 39.583984 175.25195 L 39.53125 174.22461 A 0.44068568 0.44068568 0 0 0 39.53125 174.21094 C 39.428106 172.99196 39.062427 171.85819 38.441406 170.83203 L 38.441406 170.83008 C 37.819213 169.79357 36.986201 168.95942 35.957031 168.3457 C 34.922153 167.72858 33.77788 167.41602 32.556641 167.41602 z M 73.947266 167.41602 C 73.136401 167.41602 72.324484 167.74028 71.525391 168.33008 C 71.067942 168.66771 70.664459 169.05593 70.291016 169.4707 C 70.283016 169.3866 70.286121 169.22951 70.275391 169.1582 C 70.233741 168.8199 70.134959 168.41387 69.980469 167.91406 A 0.44068568 0.44068568 0 0 0 69.558594 167.60352 L 67.199219 167.60352 A 0.44068568 0.44068568 0 0 0 66.820312 168.26758 C 66.926385 168.4479 67.083733 168.99883 67.1875 169.82031 A 0.44068568 0.44068568 0 0 0 67.189453 169.82617 C 67.302843 170.64608 67.357422 171.3871 67.357422 172.04688 L 67.357422 181.59766 A 0.44068568 0.44068568 0 0 0 67.798828 182.03906 L 69.90625 182.03906 A 0.44068568 0.44068568 0 0 0 70.347656 181.59766 L 70.347656 174.82031 C 70.347656 174.37519 70.515923 173.77287 70.896484 173.03711 A 0.44068568 0.44068568 0 0 0 70.898438 173.03516 C 71.275964 172.29688 71.763971 171.64921 72.367188 171.08789 A 0.44068568 0.44068568 0 0 0 72.369141 171.08594 C 72.961066 170.5269 73.469721 170.30078 73.894531 170.30078 C 74.287274 170.30078 74.587074 170.38848 74.835938 170.55664 A 0.44068568 0.44068568 0 0 0 74.841797 170.56055 C 75.103247 170.73014 75.290584 170.94819 75.427734 171.24414 A 0.44068568 0.44068568 0 0 0 75.429688 171.25 C 75.583641 171.57411 75.692069 171.90144 75.755859 172.23633 A 0.44068568 0.44068568 0 0 0 75.757812 172.24609 C 75.830803 172.58669 75.867188 172.94713 75.867188 173.32812 L 75.867188 181.59961 A 0.44068568 0.44068568 0 0 0 76.308594 182.04102 L 78.429688 182.04102 A 0.44068568 0.44068568 0 0 0 78.871094 181.59961 L 78.871094 173.32812 C 78.871094 172.56355 78.777384 171.84036 78.587891 171.1582 L 78.589844 171.1582 C 78.400033 170.46538 78.111846 169.83599 77.726562 169.27734 C 77.329654 168.70183 76.796387 168.24369 76.150391 167.91992 C 75.495468 167.58253 74.753568 167.41797 73.947266 167.41797 L 73.947266 167.41602 z M 88.208984 167.41602 C 86.929972 167.41602 85.732538 167.76308 84.652344 168.44531 C 83.577274 169.1243 82.723304 170.04012 82.111328 171.16992 C 81.499293 172.29105 81.189453 173.5161 81.189453 174.82031 C 81.189453 176.13176 81.489104 177.36476 82.082031 178.49414 A 0.44068568 0.44068568 0 0 0 82.083984 178.49805 C 82.68705 179.61938 83.532439 180.52675 84.599609 181.19727 C 85.671782 181.87094 86.868131 182.21289 88.154297 182.21289 C 88.502926 182.21289 88.854471 182.18948 89.210938 182.14258 C 89.599771 182.09268 90.037001 181.98051 90.535156 181.81445 C 91.044955 181.64452 91.531946 181.42198 91.994141 181.14844 C 92.470177 180.86671 92.947102 180.48454 93.429688 180.00195 A 0.44068568 0.44068568 0 0 0 93.431641 179.99805 C 93.922582 179.49767 94.348697 178.92364 94.712891 178.2793 A 0.44068568 0.44068568 0 0 0 94.539062 177.67383 L 92.726562 176.69922 A 0.44068568 0.44068568 0 0 0 92.138672 176.86328 C 91.653899 177.68238 91.069789 178.28703 90.382812 178.69922 C 89.692323 179.10452 88.958685 179.30273 88.154297 179.30273 C 87.145512 179.30273 86.28418 178.94077 85.490234 178.16406 L 85.488281 178.16211 C 84.815874 177.49588 84.454423 176.67118 84.285156 175.7168 L 94.796875 175.7168 A 0.44068568 0.44068568 0 0 0 95.236328 175.25195 L 95.183594 174.22461 A 0.44068568 0.44068568 0 0 0 95.183594 174.21094 C 95.080451 172.99196 94.714771 171.85819 94.09375 170.83203 L 94.09375 170.83008 C 93.471557 169.79357 92.638545 168.95942 91.609375 168.3457 C 90.574498 167.72858 89.430223 167.41602 88.208984 167.41602 z M 61.982422 167.62891 A 0.44068568 0.44068568 0 0 0 61.541016 168.07031 L 61.541016 181.59766 A 0.44068568 0.44068568 0 0 0 61.982422 182.03906 L 64.089844 182.03906 A 0.44068568 0.44068568 0 0 0 64.53125 181.59766 L 64.53125 168.07031 A 0.44068568 0.44068568 0 0 0 64.089844 167.62891 L 61.982422 167.62891 z M 32.556641 170.32617 C 33.420473 170.32617 34.178345 170.59953 34.892578 171.17578 A 0.44068568 0.44068568 0 0 0 34.894531 171.17578 C 35.455209 171.62307 35.830695 172.20159 36.111328 172.85938 L 29.001953 172.85938 C 29.297392 172.20057 29.67886 171.62241 30.232422 171.17578 C 30.956778 170.59836 31.712971 170.32617 32.556641 170.32617 z M 88.208984 170.32617 C 89.072816 170.32617 89.830689 170.59953 90.544922 171.17578 A 0.44068568 0.44068568 0 0 0 90.546875 171.17578 C 91.107553 171.62307 91.483039 172.20159 91.763672 172.85938 L 84.654297 172.85938 C 84.949737 172.20057 85.331204 171.62241 85.884766 171.17578 C 86.609123 170.59836 87.365314 170.32617 88.208984 170.32617 z "
           inkscape:radius="1.9909229"
           sodipodi:type="inkscape:offset"
           style="fill:#000000;fill-rule:evenodd;stroke:none;stroke-width:0.264583px;stroke-linecap:butt;stroke-linejoin:miter;stroke-opacity:1"
           id="path941" />
        <path
           id="path941-7"
           style="fill:#808080;fill-rule:evenodd;stroke:none;stroke-width:0.264583px;stroke-linecap:butt;stroke-linejoin:miter;stroke-opacity:1"
           d="m 33.338239,156.12341 c -2.35029,-0.1753 -4.768456,0.555 -7.02539,2.16601 -1.317629,0.94053 -2.338759,1.96848 -3.226562,3.39844 l 0.002,-0.006 -3.808594,6.2168 a 0.88743782,0.88743782 0 0 1 -0.755859,0.42383 H 9.9788654 c 0.8528216,0.33756 1.7252796,0.66193 2.4531246,1.0957 1.010645,0.60232 1.886401,1.35708 2.316406,2.41992 0.430005,1.06285 0.315563,2.34247 -0.359375,3.68555 a 0.88743782,0.88743782 0 0 1 -0.04102,0.0723 l -7.960936,12.69922 c 0.6866,-0.58322 1.307592,-1.17722 2.0429678,-1.69531 2.1034242,-1.48192 4.5559472,-2.50343 7.4453122,-2.23242 l 11.923829,-19.20508 c 0.425071,-0.7241 1.264609,-1.96381 2.646483,-2.5 1.808038,-0.70153 3.596006,-0.23481 4.988283,0.89844 1.1888,0.96762 2.16997,2.4244 3.097655,4.07031 l 4.865235,-2.97656 c -2.619222,-5.58643 -6.305997,-8.25135 -10.058593,-8.53125 z m 29.723763,7.98522 c -0.524039,0 -1.018387,0.19101 -1.396487,0.54688 a 0.44068569,0.44068569 0 0 0 -0.0039,0.004 c -0.369694,0.35849 -0.574217,0.84351 -0.574217,1.35743 0,0.50734 0.208833,0.98524 0.580077,1.33398 0.372552,0.34997 0.865487,0.53516 1.394532,0.53516 0.515228,0 0.999358,-0.18779 1.369139,-0.53516 0.37759,-0.34691 0.593752,-0.82552 0.593752,-1.33398 0,-0.51642 -0.21167,-1.00243 -0.589847,-1.35938 -0.36912,-0.35693 -0.856763,-0.54883 -1.373044,-0.54883 z m -15.349612,4.14844 a 0.44068569,0.44068569 0 0 0 -0.136718,0.0254 c -1.048607,0.37233 -1.974715,1.02223 -2.82617,1.82227 -0.05952,-0.44485 -0.07668,-0.90375 -0.228518,-1.31836 a 0.44068569,0.44068569 0 0 0 -0.414063,-0.28907 h -2.333985 a 0.44068569,0.44068569 0 0 0 -0.392575,0.64258 c 0.105786,0.20569 0.25627,0.76895 0.369139,1.59375 a 0.44068569,0.44068569 0 0 0 0.0021,0.004 c 0.122005,0.82789 0.179687,1.56304 0.179687,2.20312 v 9.55079 a 0.44068569,0.44068569 0 0 0 0.441407,0.4414 h 2.082032 a 0.44068569,0.44068569 0 0 0 0.441405,-0.4414 v -6.94922 c 0,-0.1717 0.0074,-0.35165 0.02344,-0.53907 0.0227,-0.17087 0.07447,-0.42487 0.158202,-0.74414 v -0.002 c 7.94e-4,-0.003 0.0013,-0.003 0.0021,-0.006 0.09046,-0.31895 0.204869,-0.61287 0.341797,-0.88672 0.126791,-0.25358 0.329324,-0.53882 0.611327,-0.8457 0.271809,-0.2958 0.585849,-0.54787 0.94922,-0.75781 a 0.44068569,0.44068569 0 0 0 0.0059,-0.004 c 0.348858,-0.20932 0.820835,-0.39352 1.412107,-0.53711 a 0.44068569,0.44068569 0 0 0 0.0059,0 c 0.580503,-0.14928 1.236694,-0.22656 1.970704,-0.22656 a 0.44068569,0.44068569 0 0 0 0.251952,-0.80274 l -2.654298,-1.85351 a 0.44068569,0.44068569 0 0 0 -0.261718,-0.0801 z m 9.81836,0 a 0.44068569,0.44068569 0 0 0 -0.136718,0.0254 c -1.048496,0.37229 -1.976091,1.02216 -2.828126,1.82227 -0.0589,-0.44471 -0.07458,-0.90333 -0.226563,-1.31836 a 0.44068569,0.44068569 0 0 0 -0.414062,-0.28907 h -2.333985 a 0.44068569,0.44068569 0 0 0 -0.392578,0.64258 c 0.105121,0.2044 0.25423,0.76829 0.367188,1.59375 a 0.44068569,0.44068569 0 0 0 0.0021,0.004 c 0.122103,0.82855 0.181642,1.5639 0.181642,2.20312 v 9.55079 a 0.44068569,0.44068569 0 0 0 0.441404,0.4414 h 2.08008 a 0.44068569,0.44068569 0 0 0 0.441405,-0.4414 v -6.94922 c 0,-0.16807 0.0092,-0.34781 0.0254,-0.53711 0.02262,-0.17088 0.07426,-0.42603 0.158205,-0.7461 v -0.002 c 7.93e-4,-0.003 0.0013,-0.003 0.0021,-0.006 0.09046,-0.31895 0.204867,-0.61287 0.341797,-0.88672 0.127468,-0.25494 0.328012,-0.53951 0.609375,-0.8457 0.271169,-0.29511 0.587264,-0.54756 0.951172,-0.75781 a 0.44068569,0.44068569 0 0 0 0.0059,-0.004 c 0.349401,-0.20965 0.819089,-0.39357 1.410155,-0.53711 a 0.44068569,0.44068569 0 0 0 0.0059,0 c 0.58029,-0.14922 1.238647,-0.22656 1.972657,-0.22656 a 0.44068569,0.44068569 0 0 0 0.251952,-0.80274 l -2.654541,-1.8535 a 0.44068569,0.44068569 0 0 0 -0.261718,-0.0801 z m -24.974609,0.0527 c -1.279012,0 -2.476446,0.34707 -3.55664,1.0293 -1.075072,0.67899 -1.929042,1.59481 -2.541016,2.72461 -0.612036,1.12113 -0.921875,2.34618 -0.921875,3.65039 0,1.31145 0.299652,2.54445 0.892577,3.67383 a 0.44068569,0.44068569 0 0 0 0.002,0.004 c 0.603067,1.12133 1.448455,2.02869 2.515625,2.69921 1.072173,0.67367 2.26852,1.01563 3.554688,1.01563 0.348628,0 0.700174,-0.0234 1.056639,-0.0703 0.388832,-0.0499 0.826064,-0.16207 1.324219,-0.32813 0.509799,-0.16993 0.996791,-0.39247 1.458984,-0.66601 0.476038,-0.28173 0.952963,-0.6639 1.435547,-1.14649 a 0.44068569,0.44068569 0 0 0 0.0021,-0.004 c 0.490942,-0.50038 0.917059,-1.07441 1.28125,-1.71875 a 0.44068569,0.44068569 0 0 0 -0.173826,-0.60547 l -1.812502,-0.97461 a 0.44068569,0.44068569 0 0 0 -0.587888,0.16406 c -0.484775,0.8191 -1.068885,1.42375 -1.755863,1.83594 -0.690491,0.4053 -1.424127,0.60351 -2.228513,0.60351 -1.008787,0 -1.870117,-0.36196 -2.664063,-1.13867 l -0.002,-0.002 c -0.672523,-0.66622 -1.033974,-1.49092 -1.203242,-2.4453 h 10.51172 a 0.44068569,0.44068569 0 0 0 0.439451,-0.46485 l -0.05273,-1.02734 a 0.44068569,0.44068569 0 0 0 0,-0.0137 c -0.103145,-1.21898 -0.468823,-2.35275 -1.089846,-3.37891 v -0.002 c -0.622191,-1.03651 -1.455203,-1.87066 -2.484374,-2.48438 -1.034878,-0.61712 -2.17915,-0.92969 -3.40039,-0.92969 z m 41.390626,0 c -0.810866,0 -1.622782,0.32427 -2.421877,0.91407 -0.457448,0.33763 -0.86093,0.72585 -1.234373,1.14062 -0.008,-0.0841 -0.0049,-0.24119 -0.01564,-0.3125 -0.04165,-0.3383 -0.140431,-0.74433 -0.294921,-1.24414 a 0.44068569,0.44068569 0 0 0 -0.421875,-0.31055 h -2.359375 a 0.44068569,0.44068569 0 0 0 -0.378907,0.66407 c 0.106074,0.18032 0.263422,0.73125 0.367189,1.55273 a 0.44068569,0.44068569 0 0 0 0.0021,0.006 c 0.11339,0.81991 0.167968,1.56092 0.167968,2.2207 v 9.55079 a 0.44068569,0.44068569 0 0 0 0.441407,0.4414 h 2.107422 a 0.44068569,0.44068569 0 0 0 0.441404,-0.4414 v -6.77735 c 0,-0.44512 0.168267,-1.04744 0.548828,-1.7832 a 0.44068569,0.44068569 0 0 0 0.0021,-0.002 c 0.377526,-0.73828 0.865534,-1.38595 1.46875,-1.94727 a 0.44068569,0.44068569 0 0 0 0.0021,-0.002 c 0.591926,-0.55904 1.100582,-0.78516 1.525392,-0.78516 0.392742,0 0.692544,0.0877 0.941406,0.25586 a 0.44068569,0.44068569 0 0 0 0.0059,0.004 c 0.261451,0.16959 0.448789,0.38764 0.585938,0.68359 a 0.44068569,0.44068569 0 0 0 0.0021,0.004 c 0.153953,0.32411 0.262382,0.65143 0.326171,0.98632 a 0.44068569,0.44068569 0 0 0 0.0021,0.01 c 0.07299,0.3406 0.109376,0.70103 0.109376,1.08203 v 8.27149 a 0.44068569,0.44068569 0 0 0 0.441405,0.4414 h 2.121095 a 0.44068569,0.44068569 0 0 0 0.441405,-0.4414 v -8.27147 c 0,-0.76458 -0.09371,-1.48776 -0.283202,-2.16992 h 0.0021 c -0.189812,-0.69282 -0.477998,-1.32221 -0.863282,-1.88086 -0.396907,-0.57551 -0.930174,-1.03365 -1.576171,-1.35742 -0.654923,-0.33739 -1.396822,-0.50196 -2.203124,-0.50196 z m 14.261719,0 c -1.279014,0 -2.476447,0.34707 -3.556643,1.0293 -1.075068,0.67899 -1.929037,1.59481 -2.541013,2.72461 -0.612037,1.12113 -0.921877,2.34618 -0.921877,3.65039 0,1.31145 0.299651,2.54445 0.89258,3.67383 a 0.44068569,0.44068569 0 0 0 0.0021,0.004 c 0.603065,1.12133 1.448454,2.02869 2.515624,2.69921 1.072174,0.67367 2.268522,1.01563 3.554688,1.01563 0.348628,0 0.700175,-0.0234 1.05664,-0.0703 0.388834,-0.0499 0.826063,-0.16207 1.324218,-0.32813 0.509799,-0.16993 0.996791,-0.39247 1.458987,-0.66601 0.476036,-0.28173 0.95296,-0.6639 1.435544,-1.14649 a 0.44068569,0.44068569 0 0 0 0.0021,-0.004 c 0.490942,-0.50038 0.917056,-1.07441 1.28125,-1.71875 a 0.44068569,0.44068569 0 0 0 -0.173921,-0.60544 l -1.812499,-0.97461 a 0.44068569,0.44068569 0 0 0 -0.587891,0.16406 c -0.484775,0.8191 -1.068882,1.42375 -1.75586,1.83594 -0.690491,0.4053 -1.424127,0.60351 -2.228516,0.60351 -1.008785,0 -1.870115,-0.36196 -2.664061,-1.13867 l -0.0021,-0.002 c -0.672406,-0.66623 -1.033859,-1.49093 -1.203126,-2.44531 h 10.511734 a 0.44068569,0.44068569 0 0 0 0.439455,-0.46485 l -0.05273,-1.02734 a 0.44068569,0.44068569 0 0 0 0,-0.0137 c -0.103142,-1.21898 -0.46882,-2.35275 -1.089842,-3.37891 v -0.002 c -0.622192,-1.03651 -1.455206,-1.87066 -2.484374,-2.48438 -1.034878,-0.61712 -2.179153,-0.92969 -3.400391,-0.92969 z m -26.226563,0.21289 a 0.44068569,0.44068569 0 0 0 -0.441407,0.44141 v 13.52735 a 0.44068569,0.44068569 0 0 0 0.441407,0.4414 h 2.107422 a 0.44068569,0.44068569 0 0 0 0.441407,-0.4414 v -13.52735 a 0.44068569,0.44068569 0 0 0 -0.441407,-0.44141 z m -29.425782,2.69727 c 0.863831,0 1.621703,0.27336 2.335938,0.84961 a 0.44068569,0.44068569 0 0 0 0.0021,0 c 0.560676,0.44729 0.936162,1.02581 1.216795,1.68359 h -7.10949 c 0.295439,-0.65881 0.676906,-1.23696 1.230468,-1.68359 0.724355,-0.57742 1.480548,-0.84961 2.324218,-0.84961 z m 55.652345,0 c 0.86383,0 1.621703,0.27336 2.335935,0.84961 a 0.44068569,0.44068569 0 0 0 0.0021,0 c 0.560678,0.44729 0.936164,1.02581 1.216797,1.68359 h -7.109375 c 0.295442,-0.65881 0.676907,-1.23696 1.230468,-1.68359 0.724358,-0.57742 1.480551,-0.84961 2.32422,-0.84961 z" />
      </g>
      <g
         aria-label="applikasi nusantara"
         transform="matrix(1.1115701,0,0,0.89962838,60.724371,41.918987)"
         id="text949"
         style="font-style:normal;font-variant:normal;font-weight:normal;font-stretch:normal;font-size:6.01898px;line-height:1.25;font-family:Purisa;-inkscape-font-specification:Purisa;letter-spacing:0px;word-spacing:0px;fill:#000000;fill-opacity:1;stroke:none;stroke-width:0.150474">
        <path
           d="m 28.576172,74.619141 c -0.04473,8.36e-4 -0.0851,0.04121 -0.08594,0.08594 v 4.388672 c 8.37e-4,0.04473 0.04121,0.0851 0.08594,0.08594 h 0.263672 c 0.04473,-8.37e-4 0.0851,-0.04121 0.08594,-0.08594 v -4.388672 c -8.36e-4,-0.04473 -0.04121,-0.0851 -0.08594,-0.08594 z m 2.492187,0 c -0.04473,8.36e-4 -0.0851,0.04121 -0.08594,0.08594 v 4.388672 c 8.36e-4,0.04473 0.04121,0.0851 0.08594,0.08594 h 0.263672 c 0.04473,-8.37e-4 0.0851,-0.04121 0.08594,-0.08594 v -1.386719 l 0.173828,-0.152343 1.369141,1.595703 c 0.01644,0.01869 0.04151,0.02939 0.06641,0.0293 h 0.341797 a 0.03577612,0.03577612 0 0 0 0.002,0 c 0.03231,-8.89e-4 0.06254,-0.02147 0.07617,-0.05078 0.01363,-0.02931 0.0084,-0.06456 -0.01172,-0.08984 a 0.03577612,0.03577612 0 0 0 0,-0.002 l -1.521485,-1.77539 1.19336,-1.082031 a 0.03577612,0.03577612 0 0 0 0,-0.002 c 0.02576,-0.02371 0.03619,-0.0631 0.02344,-0.0957 -0.01276,-0.0326 -0.04702,-0.05476 -0.08203,-0.05469 h -0.394531 -0.002 c -0.02073,-4.59e-4 -0.04257,0.0064 -0.05859,0.01953 l -1.175781,1.064453 v -2.40625 c -8.36e-4,-0.04473 -0.04121,-0.0851 -0.08594,-0.08594 z m -1.148437,0.453125 c -0.06894,-3.88e-4 -0.212177,0.141697 -0.166016,0.09766 a 0.03577612,0.03577612 0 0 0 -0.0332,0.0098 c -0.05919,0.06176 -0.0918,0.142504 -0.0918,0.228515 0,0.08742 0.03255,0.168658 0.0918,0.230469 0,0 0.002,0.002 0.002,0.002 0.06182,0.05924 0.143048,0.0918 0.230469,0.0918 0.08717,0 0.16954,-0.03087 0.230469,-0.0918 a 0.03577612,0.03577612 0 0 0 0,-0.002 0.03577612,0.03577612 0 0 0 0.0078,-0.01172 c 0.0531,-0.0603 0.08398,-0.136227 0.08398,-0.21875 0,-0.08563 -0.03263,-0.166726 -0.09375,-0.228515 -0.05642,-0.05887 -0.131446,-0.0874 -0.210938,-0.0918 -0.0164,-0.0099 -0.03344,-0.01524 -0.05078,-0.01563 z m 9.78125,0 c -0.06894,-3.88e-4 -0.212177,0.141697 -0.166016,0.09766 a 0.03577612,0.03577612 0 0 0 -0.0332,0.0098 c -0.05919,0.06176 -0.0918,0.142503 -0.0918,0.228515 0,0.08742 0.03255,0.168658 0.0918,0.230469 0,0 0.002,0.002 0.002,0.002 0.06182,0.05924 0.143048,0.0918 0.230469,0.0918 0.08717,0 0.16954,-0.03087 0.230469,-0.0918 a 0.03577612,0.03577612 0 0 0 0,-0.002 c 0.0033,-0.0035 0.0047,-0.0081 0.0078,-0.01172 0.05365,-0.06119 0.08203,-0.137725 0.08203,-0.21875 0,-0.08563 -0.03263,-0.166726 -0.09375,-0.228515 -0.05565,-0.05807 -0.129635,-0.08724 -0.208985,-0.0918 -0.0164,-0.0099 -0.03344,-0.01524 -0.05078,-0.01563 z m -9.921875,0.123046 c 6.51e-4,0.0013 0.002,0.0065 0.002,0.0078 a 0.03577612,0.03577612 0 0 0 -0.002,-0.0078 z m 9.78125,0 c 6.51e-4,0.0013 0.002,0.0065 0.002,0.0078 a 0.03577612,0.03577612 0 0 0 -0.002,-0.0078 z m 18.615234,0.126954 c -0.04473,8.36e-4 -0.0851,0.04121 -0.08594,0.08594 v 0.619141 h -0.175782 c -0.04473,8.36e-4 -0.0851,0.04121 -0.08594,0.08594 V 76.375 c 8.36e-4,0.04473 0.0412,0.0851 0.08594,0.08594 h 0.175782 v 2.632812 c 8.36e-4,0.04473 0.0412,0.0851 0.08594,0.08594 h 0.265625 c 0.04473,-8.36e-4 0.0851,-0.04121 0.08594,-0.08594 v -2.632812 h 0.648437 c 0.03619,-1.37e-4 0.07042,-0.02431 0.08203,-0.05859 l 0.08789,-0.261719 a 0.03577612,0.03577612 0 0 0 0.002,-0.002 c 0.0076,-0.02577 0.0022,-0.05452 -0.01367,-0.07617 -0.01592,-0.02165 -0.04344,-0.03473 -0.07031,-0.03516 h -0.736328 v -0.619141 c -8.36e-4,-0.04473 -0.0412,-0.0851 -0.08594,-0.08594 z m -38.902343,0.652343 c -0.198917,0 -0.391968,0.0499 -0.572266,0.148438 -0.182489,0.09973 -0.334885,0.249114 -0.460938,0.443359 -0.02415,0.03749 -0.01495,0.09343 0.02148,0.119141 a 0.03577612,0.03577612 0 0 0 0.002,0 l 0.208984,0.136719 c 0.03797,0.02616 0.0953,0.01479 0.121094,-0.02344 0.09121,-0.129167 0.195936,-0.223613 0.314453,-0.289062 0.12239,-0.06659 0.241614,-0.09961 0.365235,-0.09961 0.213357,0 0.397148,0.08546 0.564453,0.263672 0.148642,0.156631 0.231174,0.362362 0.253906,0.625 -0.100558,2.14e-4 -0.187143,0.0021 -0.253906,0.0039 -0.07004,2.7e-5 -0.163211,0.0019 -0.283203,0.0078 -0.121692,0.006 -0.226478,0.01506 -0.310547,0.02734 -0.08365,0.01036 -0.179401,0.02729 -0.289063,0.05078 -0.107245,0.02114 -0.197677,0.04775 -0.277344,0.08008 a 0.03577612,0.03577612 0 0 0 -0.01367,0.002 c -0.0777,0.0315 -0.158532,0.07204 -0.242187,0.123047 -0.08521,0.0513 -0.156812,0.114052 -0.212891,0.183594 -0.05427,0.06782 -0.09701,0.149275 -0.130859,0.240234 -0.0328,0.09402 -0.04883,0.195884 -0.04883,0.304688 0,0.107439 0.01956,0.214837 0.06055,0.318359 0.04115,0.101767 0.101212,0.198026 0.179687,0.287109 0.08079,0.09171 0.188612,0.164033 0.31836,0.21875 a 0.03577612,0.03577612 0 0 0 0.0078,0.0059 c 0.137998,0.0539 0.293911,0.07617 0.460938,0.07617 0.236482,0 0.461488,-0.0696 0.669921,-0.205078 0.141663,-0.09117 0.263057,-0.205208 0.375,-0.330079 v 0.0059 c 0,0.157538 0.0179,0.299175 0.05664,0.421875 0.01161,0.03428 0.04584,0.05846 0.08203,0.05859 h 0.283204 a 0.03577612,0.03577612 0 0 0 0.002,0 c 0.02898,-9.5e-4 0.0553,-0.01621 0.07031,-0.04102 0.01501,-0.02481 0.0165,-0.05787 0.0039,-0.08398 a 0.03577612,0.03577612 0 0 0 0,-0.002 c -0.03836,-0.07209 -0.06445,-0.191849 -0.06445,-0.353515 v -1.314453 c 0,0 0,-0.002 0,-0.002 -0.0041,-0.215001 -0.04045,-0.412717 -0.113281,-0.59375 -0.07016,-0.17951 -0.163077,-0.329286 -0.283203,-0.447265 -0.116706,-0.116707 -0.25126,-0.208212 -0.400391,-0.271485 a 0.03577612,0.03577612 0 0 0 -0.0039,0 c -0.147339,-0.06466 -0.30183,-0.0957 -0.460937,-0.0957 z m 15.552734,0 c -0.198916,0 -0.391966,0.0499 -0.572266,0.148438 -0.182487,0.09973 -0.334885,0.249114 -0.460937,0.443359 -0.02415,0.03749 -0.01495,0.09343 0.02148,0.119141 a 0.03577612,0.03577612 0 0 0 0.002,0 l 0.208985,0.136719 c 0.03797,0.02616 0.0953,0.01479 0.121093,-0.02344 0.09121,-0.129167 0.195937,-0.223613 0.314454,-0.289062 0.122389,-0.06659 0.241615,-0.09961 0.365234,-0.09961 0.213359,0 0.397147,0.08546 0.564453,0.263672 0.148642,0.156631 0.231175,0.362362 0.253906,0.625 -0.1003,2.15e-4 -0.185259,0.0021 -0.251953,0.0039 -0.07006,2.7e-5 -0.165111,0.0019 -0.285156,0.0078 -0.121739,0.006 -0.224719,0.01508 -0.308594,0.02734 -0.08354,0.01033 -0.18114,0.02724 -0.291016,0.05078 -0.107246,0.02114 -0.197678,0.04775 -0.277343,0.08008 a 0.03577612,0.03577612 0 0 0 -0.01367,0.002 c -0.0777,0.0315 -0.158532,0.07204 -0.242188,0.123047 -0.08519,0.0513 -0.156808,0.114047 -0.21289,0.183594 -0.05427,0.06782 -0.09702,0.149271 -0.13086,0.240234 -0.0328,0.09402 -0.04883,0.195884 -0.04883,0.304688 0,0.107438 0.01957,0.214836 0.06055,0.318359 0.04115,0.101767 0.101212,0.198026 0.179688,0.287109 0.08128,0.09226 0.190781,0.164171 0.320312,0.21875 a 0.03577612,0.03577612 0 0 0 0.0078,0.0059 c 0.137725,0.0538 0.291949,0.07617 0.458984,0.07617 0.236482,0 0.461488,-0.0696 0.669922,-0.205078 0.141662,-0.09117 0.263057,-0.205208 0.375,-0.330079 v 0.0059 c 0,0.157538 0.0179,0.299175 0.05664,0.421875 0.01161,0.03428 0.04584,0.05846 0.08203,0.05859 h 0.283203 a 0.03577612,0.03577612 0 0 0 0.002,0 c 0.02898,-9.5e-4 0.0553,-0.01621 0.07031,-0.04102 0.01501,-0.02481 0.01651,-0.05787 0.0039,-0.08398 a 0.03577612,0.03577612 0 0 0 0,-0.002 c -0.03836,-0.07213 -0.06445,-0.19185 -0.06445,-0.353515 v -1.314453 c 0,0 0,-0.002 0,-0.002 -0.0041,-0.215001 -0.04045,-0.412717 -0.113282,-0.59375 -0.07016,-0.179509 -0.163075,-0.329286 -0.283203,-0.447265 -0.116706,-0.116707 -0.251259,-0.208212 -0.40039,-0.271485 a 0.03577612,0.03577612 0 0 0 -0.0039,0 c -0.14734,-0.06466 -0.301828,-0.0957 -0.460937,-0.0957 z m 2.976562,0 c -0.218603,0 -0.416124,0.07034 -0.578125,0.212891 -0.163845,0.146131 -0.24414,0.351206 -0.24414,0.589844 0,0.129951 0.02657,0.250685 0.08789,0.357422 0.0589,0.100351 0.137402,0.185737 0.230469,0.25 a 0.03577612,0.03577612 0 0 0 0.002,0 0.03577612,0.03577612 0 0 0 0.01172,0.0059 c 0.08539,0.05485 0.176322,0.107674 0.277344,0.154297 0.102264,0.04719 0.20624,0.0934 0.308594,0.138672 0.09894,0.04377 0.185492,0.09028 0.263671,0.138672 a 0.03577612,0.03577612 0 0 0 0.002,0 c 0.07222,0.04367 0.129892,0.09929 0.175782,0.169922 5.05e-4,7.77e-4 0.0015,0.0012 0.002,0.002 a 0.03577612,0.03577612 0 0 0 0,0.002 c 0.04363,0.06626 0.06641,0.139679 0.06641,0.230468 0,0.171179 -0.05718,0.297341 -0.181641,0.40625 -0.126802,0.109191 -0.266654,0.16211 -0.429687,0.16211 -0.152726,0 -0.277593,-0.04981 -0.392578,-0.150391 -0.108642,-0.09695 -0.179437,-0.240459 -0.205078,-0.449219 -0.0057,-0.04599 -0.05372,-0.08264 -0.09961,-0.07617 l -0.261718,0.03906 c -0.04358,0.0072 -0.07703,0.05178 -0.07227,0.0957 0.01863,0.15943 0.0587,0.303311 0.125,0.431641 0.06534,0.126468 0.145559,0.231488 0.242187,0.310547 0.09324,0.07629 0.197234,0.135091 0.308594,0.175781 0.111528,0.03861 0.228972,0.05664 0.34961,0.05664 0.275683,0 0.525556,-0.09008 0.734375,-0.271485 0.211735,-0.18607 0.318359,-0.437499 0.318359,-0.730469 10e-7,-0.128938 -0.01976,-0.248598 -0.06641,-0.357421 -0.04529,-0.105683 -0.106695,-0.197456 -0.183594,-0.267579 -0.07112,-0.06484 -0.149901,-0.124257 -0.240234,-0.179687 a 0.03577612,0.03577612 0 0 0 -0.0078,-0.002 c -0.08588,-0.05344 -0.17459,-0.10031 -0.265625,-0.136719 -0.08559,-0.03424 -0.171641,-0.07313 -0.255859,-0.113281 a 0.03577612,0.03577612 0 0 0 -0.0078,0 c -0.07875,-0.03874 -0.149772,-0.08006 -0.21289,-0.117188 -0.05727,-0.03368 -0.09939,-0.07176 -0.132813,-0.121093 -0.0324,-0.04783 -0.04883,-0.09673 -0.04883,-0.154297 -10e-7,-0.122806 0.03541,-0.203777 0.107422,-0.269532 0.07734,-0.06911 0.162468,-0.103515 0.273437,-0.103515 0.09318,0 0.178278,0.03031 0.263672,0.0918 0.08115,0.05681 0.141187,0.137308 0.177735,0.253906 a 0.03577612,0.03577612 0 0 0 0,0.002 c 0.01412,0.04449 0.06727,0.07008 0.111328,0.05469 l 0.24414,-0.08594 c 0.04181,-0.01551 0.06646,-0.06694 0.05273,-0.109375 -0.06552,-0.202891 -0.178047,-0.363176 -0.337891,-0.472656 -0.156252,-0.109158 -0.329354,-0.164063 -0.511719,-0.164063 z m 12.308594,0 c -0.218604,0 -0.416126,0.07034 -0.578125,0.212891 -0.163845,0.146131 -0.244141,0.351206 -0.244141,0.589844 0,0.129951 0.02657,0.250685 0.08789,0.357422 0.0589,0.100351 0.137399,0.185737 0.230469,0.25 a 0.03577612,0.03577612 0 0 0 0.002,0 0.03577612,0.03577612 0 0 0 0.01172,0.0059 c 0.08539,0.05485 0.176322,0.107674 0.277344,0.154297 0.102265,0.04719 0.20624,0.0934 0.308593,0.138672 0.09894,0.04377 0.185493,0.09028 0.263672,0.138672 a 0.03577612,0.03577612 0 0 0 0.002,0 c 0.07222,0.04367 0.129892,0.09929 0.175782,0.169922 5.04e-4,7.77e-4 0.0015,0.0012 0.002,0.002 a 0.03577612,0.03577612 0 0 0 0,0.002 c 0.04363,0.06626 0.06641,0.139679 0.06641,0.230468 0,0.171179 -0.05718,0.297341 -0.181641,0.40625 -0.126803,0.109191 -0.266654,0.16211 -0.429687,0.16211 -0.152727,0 -0.277593,-0.04981 -0.392578,-0.150391 -0.108643,-0.09695 -0.179438,-0.240459 -0.205079,-0.449219 -0.0057,-0.04599 -0.05372,-0.08264 -0.09961,-0.07617 l -0.261719,0.03906 c -0.04358,0.0072 -0.07703,0.05178 -0.07227,0.0957 0.01863,0.15943 0.0587,0.303311 0.125,0.431641 0.06534,0.126468 0.145559,0.231488 0.242187,0.310547 0.09324,0.07629 0.197233,0.135091 0.308594,0.175781 0.111528,0.03861 0.228972,0.05664 0.349609,0.05664 0.275696,0 0.523815,-0.09026 0.732422,-0.271485 0.211512,-0.185875 0.320312,-0.437085 0.320313,-0.730469 0,-0.128938 -0.01976,-0.248598 -0.06641,-0.357421 -0.04529,-0.105683 -0.106696,-0.197456 -0.183594,-0.267579 -0.07112,-0.06484 -0.149901,-0.124257 -0.240235,-0.179687 a 0.03577612,0.03577612 0 0 0 -0.0078,-0.002 c -0.08588,-0.05344 -0.17459,-0.100309 -0.265625,-0.136719 -0.0856,-0.03424 -0.171642,-0.07313 -0.25586,-0.113281 a 0.03577612,0.03577612 0 0 0 -0.0078,0 c -0.07932,-0.03897 -0.15234,-0.08042 -0.214844,-0.117188 -0.05667,-0.03332 -0.09668,-0.07064 -0.130859,-0.121093 -0.0324,-0.04783 -0.04883,-0.09673 -0.04883,-0.154297 0,-0.122807 0.03541,-0.203777 0.107422,-0.269532 0.07734,-0.06911 0.162467,-0.103515 0.273437,-0.103515 0.09318,0 0.17828,0.03031 0.263672,0.0918 0.08115,0.05681 0.141187,0.137308 0.177734,0.253906 a 0.03577612,0.03577612 0 0 0 0,0.002 c 0.01412,0.04449 0.06727,0.07008 0.111328,0.05469 l 0.244141,-0.08594 c 0.04181,-0.01551 0.06646,-0.06694 0.05273,-0.109375 -0.06552,-0.202891 -0.178047,-0.363176 -0.337891,-0.472656 -0.156254,-0.109158 -0.329356,-0.164063 -0.511719,-0.164063 z m 2.759766,0 c -0.198917,0 -0.391968,0.0499 -0.572266,0.148438 -0.182487,0.09973 -0.334886,0.249114 -0.460937,0.443359 -0.02415,0.03749 -0.01495,0.09343 0.02148,0.119141 a 0.03577612,0.03577612 0 0 0 0.002,0 l 0.208984,0.136719 c 0.03797,0.02616 0.0953,0.01479 0.121094,-0.02344 0.09121,-0.129167 0.195936,-0.223613 0.314453,-0.289062 0.122389,-0.06659 0.241615,-0.09961 0.365235,-0.09961 0.213358,0 0.397147,0.08546 0.564453,0.263672 0.148637,0.156631 0.23117,0.362361 0.253906,0.625 -0.09954,2.37e-4 -0.185702,0.0021 -0.251953,0.0039 -0.07006,2.7e-5 -0.165112,0.0019 -0.285156,0.0078 -0.121739,0.006 -0.224718,0.01508 -0.308594,0.02734 -0.08354,0.01033 -0.18114,0.02724 -0.291016,0.05078 -0.107245,0.02114 -0.197678,0.04775 -0.277343,0.08008 a 0.03577612,0.03577612 0 0 0 -0.01367,0.002 c -0.0777,0.0315 -0.158531,0.07204 -0.242188,0.123047 -0.08519,0.0513 -0.156809,0.114047 -0.21289,0.183594 -0.05424,0.06782 -0.09701,0.149268 -0.13086,0.240234 -0.0328,0.09402 -0.04883,0.195884 -0.04883,0.304688 0,0.107441 0.01958,0.214839 0.06055,0.318359 0.04115,0.101767 0.101212,0.198026 0.179688,0.287109 0.08128,0.09226 0.190779,0.164171 0.320312,0.21875 a 0.03577612,0.03577612 0 0 0 0.0078,0.0059 c 0.137727,0.0538 0.291951,0.07617 0.458985,0.07617 0.236482,0 0.461487,-0.0696 0.669922,-0.205078 0.141661,-0.09117 0.263057,-0.205208 0.375,-0.330079 v 0.0059 c 0,0.157538 0.0179,0.299175 0.05664,0.421875 0.01161,0.03428 0.04584,0.05846 0.08203,0.05859 h 0.283203 a 0.03577612,0.03577612 0 0 0 0.002,0 c 0.02898,-9.5e-4 0.0553,-0.01621 0.07031,-0.04102 0.01501,-0.02481 0.01651,-0.05787 0.0039,-0.08398 a 0.03577612,0.03577612 0 0 0 0,-0.002 c -0.03836,-0.07213 -0.06445,-0.19185 -0.06445,-0.353515 v -1.314453 c 0,0 0,-0.002 0,-0.002 -0.0041,-0.215001 -0.04045,-0.412717 -0.113281,-0.59375 -0.07016,-0.179511 -0.163079,-0.329286 -0.283203,-0.447265 -0.116707,-0.116707 -0.251259,-0.208212 -0.40039,-0.271485 a 0.03577612,0.03577612 0 0 0 -0.0039,0 c -0.147339,-0.06466 -0.301829,-0.0957 -0.460937,-0.0957 z m 7.701172,0 c -0.198916,0 -0.391968,0.0499 -0.572266,0.148438 -0.182487,0.09973 -0.334885,0.249114 -0.460938,0.443359 -0.02415,0.03749 -0.01495,0.09343 0.02148,0.119141 a 0.03577612,0.03577612 0 0 0 0.002,0 l 0.207031,0.136719 c 0.03797,0.02616 0.0953,0.01479 0.121094,-0.02344 0.09092,-0.12873 0.197571,-0.223437 0.316406,-0.289062 0.12239,-0.06659 0.241616,-0.09961 0.365235,-0.09961 0.213374,0 0.394971,0.08521 0.5625,0.263672 0.148798,0.156794 0.23086,0.362707 0.253906,0.625 -0.09954,2.37e-4 -0.185702,0.0021 -0.251953,0.0039 -0.07004,2.7e-5 -0.16321,0.0019 -0.283203,0.0078 -0.121691,0.006 -0.226479,0.01506 -0.310547,0.02734 -0.08354,0.01033 -0.181141,0.02724 -0.291016,0.05078 -0.107376,0.02118 -0.196301,0.04793 -0.275391,0.08008 a 0.03577612,0.03577612 0 0 0 -0.01367,0.002 c -0.07719,0.0313 -0.159949,0.07172 -0.244141,0.123047 -0.08577,0.05165 -0.155542,0.114898 -0.210938,0.183594 -0.05353,0.06691 -0.09855,0.148154 -0.132812,0.240234 -0.03319,0.09515 -0.04687,0.197033 -0.04687,0.304688 0,0.106258 0.01722,0.213856 0.05859,0.318359 0.04153,0.102734 0.103684,0.19862 0.18164,0.287109 0.08079,0.09171 0.188612,0.164033 0.31836,0.21875 a 0.03577612,0.03577612 0 0 0 0.0078,0.0059 c 0.137726,0.0538 0.29195,0.07617 0.458985,0.07617 0.236482,0 0.461489,-0.0696 0.669922,-0.205078 0.141623,-0.09114 0.264241,-0.20502 0.376953,-0.330079 v 0.0059 c 0,0.157538 0.0179,0.299176 0.05664,0.421875 0.01161,0.03428 0.04584,0.05846 0.08203,0.05859 h 0.28125 a 0.03577612,0.03577612 0 0 0 0.002,0 c 0.02898,-9.5e-4 0.0553,-0.01621 0.07031,-0.04102 0.01501,-0.02481 0.01651,-0.05787 0.0039,-0.08398 a 0.03577612,0.03577612 0 0 0 0,-0.002 c -0.03787,-0.0712 -0.0625,-0.191202 -0.0625,-0.353515 v -1.314453 c 0,0 0,-0.002 0,-0.002 -0.0041,-0.215001 -0.04045,-0.412717 -0.113281,-0.59375 -0.07037,-0.18005 -0.165399,-0.329648 -0.285156,-0.447265 -0.116695,-0.11669 -0.251256,-0.20821 -0.400391,-0.271485 a 0.03577612,0.03577612 0 0 0 -0.0039,0 c -0.147045,-0.06455 -0.299869,-0.0957 -0.458984,-0.0957 z m 5.019531,0 c -0.198917,0 -0.391967,0.0499 -0.572266,0.148438 -0.182487,0.09973 -0.334885,0.249114 -0.460937,0.443359 -0.02415,0.03749 -0.01495,0.09343 0.02148,0.119141 a 0.03577612,0.03577612 0 0 0 0.002,0 l 0.208985,0.136719 c 0.03797,0.02616 0.0953,0.01479 0.121093,-0.02344 0.09121,-0.129167 0.195937,-0.223613 0.314453,-0.289062 0.12239,-0.06659 0.241615,-0.09961 0.365235,-0.09961 0.213373,0 0.394969,0.08521 0.5625,0.263672 0.148793,0.156794 0.230857,0.362706 0.253906,0.625 -0.09954,2.37e-4 -0.185702,0.0021 -0.251953,0.0039 -0.07003,2.7e-5 -0.163209,0.0019 -0.283203,0.0078 -0.121691,0.006 -0.226478,0.01506 -0.310547,0.02734 -0.08354,0.01033 -0.18114,0.02724 -0.291016,0.05078 -0.107376,0.02118 -0.196301,0.04793 -0.27539,0.08008 a 0.03577612,0.03577612 0 0 0 -0.01367,0.002 c -0.0777,0.0315 -0.158532,0.07204 -0.242188,0.123047 -0.08519,0.0513 -0.15681,0.114047 -0.21289,0.183594 -0.05427,0.06782 -0.09702,0.14927 -0.13086,0.240234 -0.0328,0.09402 -0.04883,0.195885 -0.04883,0.304688 0,0.107439 0.01957,0.214836 0.06055,0.318359 0.04115,0.101767 0.101212,0.198026 0.179688,0.287109 0.08079,0.09171 0.188611,0.164033 0.318359,0.21875 a 0.03577612,0.03577612 0 0 0 0.0078,0.0059 c 0.137727,0.0538 0.291951,0.07617 0.458985,0.07617 0.236482,0 0.461488,-0.0696 0.669922,-0.205078 0.14162,-0.09114 0.264241,-0.20502 0.376953,-0.330079 v 0.0059 c 0,0.157538 0.0179,0.299175 0.05664,0.421875 0.01161,0.03428 0.04584,0.05846 0.08203,0.05859 h 0.28125 a 0.03577612,0.03577612 0 0 0 0.002,0 c 0.02898,-9.5e-4 0.0553,-0.01621 0.07031,-0.04102 0.01501,-0.02481 0.0165,-0.05787 0.0039,-0.08398 a 0.03577612,0.03577612 0 0 0 0,-0.002 c -0.03788,-0.0712 -0.0625,-0.191202 -0.0625,-0.353515 v -1.314453 c 0,0 0,-0.002 0,-0.002 -0.0041,-0.215001 -0.04045,-0.412717 -0.113282,-0.59375 -0.07016,-0.179509 -0.163075,-0.329286 -0.283203,-0.447265 -0.117066,-0.117066 -0.253474,-0.208329 -0.402343,-0.271485 a 0.03577612,0.03577612 0 0 0 -0.0039,0 c -0.147044,-0.06455 -0.299869,-0.0957 -0.458984,-0.0957 z m -42.794922,0.0059 c -0.245135,0 -0.485795,0.0902 -0.716797,0.267578 -0.124618,0.09458 -0.221445,0.199176 -0.302734,0.308594 v -0.05078 c 0,-0.140877 -0.01711,-0.278709 -0.05664,-0.416015 -0.01047,-0.03549 -0.04699,-0.06192 -0.08398,-0.0625 h -0.283203 c -0.02953,-1.41e-4 -0.05845,0.01605 -0.07422,0.04102 -0.01577,0.02497 -0.01868,0.05738 -0.0059,0.08398 a 0.03577612,0.03577612 0 0 0 0.002,0 c 0.03948,0.0758 0.06641,0.194125 0.06641,0.353515 v 4.060547 c 8.35e-4,0.04473 0.04121,0.0851 0.08594,0.08594 h 0.263672 c 0.04473,-8.36e-4 0.0851,-0.04121 0.08594,-0.08594 v -1.908203 c 0.0798,0.11063 0.17387,0.216617 0.296875,0.308594 0.231243,0.169303 0.474902,0.255859 0.722656,0.255859 0.265193,0 0.513093,-0.07443 0.734375,-0.222656 0.220121,-0.147439 0.393789,-0.346174 0.517578,-0.59375 0.125855,-0.249648 0.185547,-0.520068 0.185547,-0.806641 0,-0.284697 -0.05969,-0.551253 -0.185547,-0.798828 -0.1237,-0.247399 -0.297147,-0.448056 -0.517578,-0.595703 -0.221452,-0.15042 -0.469197,-0.224609 -0.734375,-0.224609 z m 3.574219,0 c -0.245135,0 -0.485798,0.0902 -0.716797,0.267578 -0.124619,0.09458 -0.221445,0.199176 -0.302735,0.308594 v -0.05078 c 0,-0.140877 -0.01711,-0.278709 -0.05664,-0.416015 -0.01047,-0.03549 -0.04699,-0.06192 -0.08398,-0.0625 h -0.283204 c -0.02953,-1.41e-4 -0.05845,0.01605 -0.07422,0.04102 -0.01577,0.02497 -0.01868,0.05738 -0.0059,0.08398 a 0.03577612,0.03577612 0 0 0 0.002,0 c 0.03948,0.0758 0.06641,0.194125 0.06641,0.353515 v 4.060547 c 8.35e-4,0.04473 0.04121,0.0851 0.08594,0.08594 h 0.263672 c 0.04473,-8.36e-4 0.0851,-0.04121 0.08594,-0.08594 v -1.908203 c 0.0798,0.11063 0.17387,0.216617 0.296876,0.308594 0.231242,0.169303 0.474901,0.255859 0.722656,0.255859 0.265193,0 0.513093,-0.07443 0.734375,-0.222656 0.220334,-0.147583 0.392008,-0.346518 0.515625,-0.59375 0.125681,-0.249306 0.187498,-0.519653 0.1875,-0.806641 0,-0.285116 -0.06183,-0.551596 -0.1875,-0.798828 -0.123528,-0.247055 -0.29498,-0.447913 -0.515625,-0.595703 -0.221452,-0.15042 -0.469196,-0.224609 -0.734375,-0.224609 z m 17.898437,0 c -0.20831,0 -0.414961,0.0976 -0.617187,0.28125 -0.120851,0.109638 -0.216415,0.241181 -0.302735,0.378906 v -0.134766 c 0,-0.140878 -0.01711,-0.278709 -0.05664,-0.416015 -0.01047,-0.03549 -0.04699,-0.06192 -0.08398,-0.0625 h -0.283203 a 0.03577612,0.03577612 0 0 0 -0.002,0 c -0.02898,9.49e-4 -0.0553,0.01621 -0.07031,0.04102 -0.01501,0.02481 -0.01651,0.05787 -0.0039,0.08398 0.03926,0.07534 0.06445,0.193841 0.06445,0.353515 v 2.587891 c 8.37e-4,0.04473 0.04121,0.0851 0.08594,0.08594 h 0.263672 c 0.04473,-8.37e-4 0.0851,-0.04121 0.08594,-0.08594 v -1.494141 c 0,-0.09599 0.02793,-0.213381 0.08398,-0.353515 a 0.03577612,0.03577612 0 0 0 0,-0.0059 c 0.05777,-0.138562 0.131893,-0.27056 0.216797,-0.392578 v -0.002 c 0.08602,-0.122341 0.188325,-0.224698 0.302734,-0.308594 a 0.03577612,0.03577612 0 0 0 0.002,-0.002 l 0.002,-0.002 c 0.113169,-0.08031 0.215221,-0.117187 0.306641,-0.117187 0.107433,0 0.192655,0.02557 0.265625,0.07422 a 0.03577612,0.03577612 0 0 0 0.002,0 0.03577612,0.03577612 0 0 0 0.002,0.002 c 0.07527,0.04805 0.129871,0.112199 0.167969,0.193359 0.042,0.08945 0.07155,0.180127 0.08984,0.273437 a 0.03577612,0.03577612 0 0 0 0,0.002 c 0.02033,0.09426 0.0332,0.191783 0.0332,0.292968 v 1.839844 c 8.36e-4,0.04473 0.0412,0.0851 0.08594,0.08594 h 0.257813 c 0.04473,-8.37e-4 0.0851,-0.04121 0.08594,-0.08594 v -1.839844 c 0,-0.227579 -0.03089,-0.435405 -0.09766,-0.621094 -0.06544,-0.187876 -0.173198,-0.345205 -0.324219,-0.466796 h -0.002 c -0.153331,-0.124332 -0.344939,-0.185547 -0.560547,-0.185547 z m 12.025391,0 c -0.208311,0 -0.414962,0.0976 -0.617188,0.28125 -0.120317,0.109154 -0.215494,0.24016 -0.300781,0.376953 v -0.132813 c 0,-0.141731 -0.01929,-0.279492 -0.05859,-0.416015 -0.01047,-0.03549 -0.04699,-0.06192 -0.08398,-0.0625 h -0.28125 c -0.02953,-1.41e-4 -0.05845,0.01605 -0.07422,0.04102 -0.01577,0.02497 -0.01868,0.05738 -0.0059,0.08398 a 0.03577612,0.03577612 0 0 0 0.002,0 c 0.03901,0.07491 0.06445,0.193468 0.06445,0.353515 v 2.587891 c 8.36e-4,0.04473 0.0412,0.0851 0.08594,0.08594 h 0.265625 c 0.04473,-8.37e-4 0.0851,-0.04121 0.08594,-0.08594 v -1.494141 c 0,-0.09599 0.02793,-0.213381 0.08398,-0.353515 a 0.03577612,0.03577612 0 0 0 0,-0.0059 c 0.05776,-0.138561 0.131892,-0.270559 0.216796,-0.392578 v -0.002 c 0.08634,-0.122812 0.186743,-0.224952 0.300782,-0.308594 a 0.03577612,0.03577612 0 0 0 0.002,-0.002 l 0.002,-0.002 c 0.113171,-0.08031 0.215225,-0.117187 0.30664,-0.117187 0.107437,0 0.192655,0.02557 0.265626,0.07422 a 0.03577612,0.03577612 0 0 0 0.002,0 0.03577612,0.03577612 0 0 0 0.002,0.002 c 0.07526,0.04805 0.129872,0.112204 0.167968,0.193359 0.04241,0.09033 0.0737,0.181197 0.0918,0.273437 a 0.03577612,0.03577612 0 0 0 0,0.002 c 0.0201,0.09319 0.03125,0.190728 0.03125,0.292968 v 1.839844 c 8.37e-4,0.04473 0.04121,0.0851 0.08594,0.08594 h 0.259765 c 0.04473,-8.36e-4 0.0851,-0.04121 0.08594,-0.08594 v -1.839844 c 10e-7,-0.22758 -0.03089,-0.435405 -0.09766,-0.621094 -0.06563,-0.18842 -0.175455,-0.345459 -0.326172,-0.466796 h -0.002 c -0.153331,-0.124332 -0.344941,-0.185547 -0.560547,-0.185547 z m 7.496094,0 c -0.0065,6.51e-4 -0.02214,0.0033 -0.02344,0.0039 -0.180335,0.07001 -0.354393,0.190411 -0.52539,0.359375 -0.06696,0.06616 -0.118981,0.131783 -0.166016,0.197266 v -0.03516 c 0,-0.140877 -0.01711,-0.278709 -0.05664,-0.416015 -0.01047,-0.03549 -0.04699,-0.06192 -0.08398,-0.0625 h -0.283203 c -0.02953,-1.41e-4 -0.05845,0.01605 -0.07422,0.04102 -0.01577,0.02497 -0.01868,0.05738 -0.0059,0.08398 a 0.03577612,0.03577612 0 0 0 0.002,0 c 0.03948,0.0758 0.06641,0.194125 0.06641,0.353515 v 2.587891 c 8.36e-4,0.04473 0.0412,0.0851 0.08594,0.08594 h 0.263672 c 0.04473,-8.36e-4 0.0851,-0.04121 0.08594,-0.08594 V 77.5625 c 0,-0.198696 0.05096,-0.389913 0.154297,-0.578125 0.106064,-0.191661 0.239054,-0.341494 0.398437,-0.455078 0.161195,-0.113568 0.314907,-0.167969 0.466797,-0.167969 0.03645,-6.67e-4 0.07116,-0.02575 0.08203,-0.06055 0.01087,-0.0348 -0.0017,-0.07635 -0.03125,-0.09766 l -0.294922,-0.208984 a 0.03577612,0.03577612 0 0 0 -0.002,0 c -0.01631,-0.01055 -0.03535,-0.01542 -0.05469,-0.01367 z m -33.96875,0.04687 c -0.04473,8.35e-4 -0.0851,0.04121 -0.08594,0.08594 v 2.980469 c 8.36e-4,0.04473 0.0412,0.0851 0.08594,0.08594 h 0.263672 c 0.04473,-8.37e-4 0.0851,-0.04121 0.08594,-0.08594 v -2.980469 c -8.36e-4,-0.04473 -0.04121,-0.0851 -0.08594,-0.08594 z m 9.779296,0 c -0.04473,8.36e-4 -0.0851,0.04121 -0.08594,0.08594 v 2.980469 c 8.36e-4,0.04473 0.0412,0.0851 0.08594,0.08594 h 0.265626 c 0.04473,-8.37e-4 0.0851,-0.04121 0.08594,-0.08594 v -2.980469 c -8.36e-4,-0.04473 -0.0412,-0.0851 -0.08594,-0.08594 z m 6.548829,0 c -0.04473,8.35e-4 -0.0851,0.04121 -0.08594,0.08594 v 1.841797 c 0,0.341865 0.108676,0.645979 0.330078,0.894531 0.224027,0.247059 0.509868,0.373047 0.832031,0.373047 0.323995,0 0.608178,-0.12618 0.832032,-0.373047 0.223354,-0.248404 0.333984,-0.552324 0.333984,-0.894531 v -1.841797 c -8.36e-4,-0.04473 -0.0412,-0.0851 -0.08594,-0.08594 h -0.263672 c -0.04473,8.36e-4 -0.0851,0.04121 -0.08594,0.08594 v 1.841797 c 0,0.236032 -0.07567,0.428493 -0.226562,0.59375 -0.149347,0.163743 -0.313267,0.240235 -0.515625,0.240234 -0.200344,0 -0.360741,-0.07561 -0.501953,-0.238281 C 46.571575,78.387998 46.500002,78.19415 46.5,77.955078 v -1.841797 c -8.36e-4,-0.04473 -0.0412,-0.0851 -0.08594,-0.08594 z m -23.353516,0.388672 c 0.27356,0 0.502291,0.111219 0.708984,0.34375 0.206,0.231749 0.310548,0.505455 0.310547,0.839843 0,0.331711 -0.104892,0.608177 -0.310547,0.84375 -0.206688,0.23437 -0.435429,0.345703 -0.708984,0.345703 -0.277941,0 -0.508514,-0.109914 -0.712891,-0.34375 -0.204075,-0.233492 -0.306641,-0.510977 -0.30664,-0.845703 0,-0.334719 0.102603,-0.608233 0.30664,-0.839843 0.204442,-0.232069 0.435107,-0.34375 0.712891,-0.34375 z m 3.574219,0 c 0.27356,0 0.50229,0.111219 0.708984,0.34375 0.205999,0.231749 0.310547,0.505455 0.310547,0.839843 0,0.331711 -0.104892,0.608177 -0.310547,0.84375 -0.206689,0.23437 -0.43543,0.345703 -0.708984,0.345703 -0.277942,0 -0.508513,-0.109914 -0.712891,-0.34375 -0.204075,-0.233492 -0.30664,-0.510977 -0.306641,-0.845703 0,-0.334719 0.102605,-0.608233 0.306641,-0.839843 0.204443,-0.232069 0.435107,-0.34375 0.712891,-0.34375 z m -6.269532,1.246093 v 0.447266 c -0.09852,0.17493 -0.243757,0.331741 -0.441406,0.472656 -0.199941,0.142552 -0.397916,0.212891 -0.603515,0.212891 -0.202373,0 -0.343345,-0.052 -0.441407,-0.148438 -0.104824,-0.103076 -0.152343,-0.207222 -0.152343,-0.324218 0,-0.06514 0.01284,-0.122581 0.03516,-0.175782 0.02525,-0.05514 0.0565,-0.09947 0.09375,-0.136718 a 0.03577612,0.03577612 0 0 0 0,-0.002 l 0.002,-0.002 c 0.03603,-0.03708 0.08716,-0.07395 0.152344,-0.107421 a 0.03577612,0.03577612 0 0 0 0.002,-0.002 0.03577612,0.03577612 0 0 0 0.002,0 c 0.07035,-0.03692 0.135894,-0.06618 0.199219,-0.08789 0.06324,-0.02349 0.1441,-0.04562 0.238281,-0.06445 0.09808,-0.01923 0.183024,-0.03354 0.253906,-0.04102 0.07083,-0.0093 0.16043,-0.01767 0.263672,-0.02344 0,0 0.002,0 0.002,0 a 0.03577612,0.03577612 0 0 0 0.002,0 c 0.106578,-0.0078 0.190461,-0.01178 0.25,-0.01367 0.03823,-0.0012 0.09021,-0.0029 0.142578,-0.0039 z m 15.552735,0 v 0.447266 c -0.09852,0.17493 -0.243757,0.331741 -0.441406,0.472656 -0.199942,0.142552 -0.397917,0.212891 -0.603516,0.212891 -0.202372,0 -0.343345,-0.052 -0.441406,-0.148438 -0.104824,-0.103076 -0.152344,-0.207222 -0.152344,-0.324218 0,-0.06514 0.01284,-0.122581 0.03516,-0.175782 0.02525,-0.05514 0.05649,-0.09947 0.09375,-0.136718 a 0.03577612,0.03577612 0 0 0 0,-0.002 l 0.002,-0.002 c 0.03603,-0.03708 0.08716,-0.07395 0.152344,-0.107421 a 0.03577612,0.03577612 0 0 0 0.002,-0.002 0.03577612,0.03577612 0 0 0 0.002,0 c 0.06984,-0.03664 0.137364,-0.06602 0.201172,-0.08789 0.06377,-0.02369 0.142356,-0.04566 0.236328,-0.06445 0.09808,-0.01923 0.183025,-0.03354 0.253907,-0.04102 0.07084,-0.0093 0.160431,-0.01767 0.263671,-0.02344 0,0 0.002,0 0.002,0 a 0.03577612,0.03577612 0 0 0 0.002,0 c 0.106577,-0.0078 0.190461,-0.01178 0.25,-0.01367 0.03823,-0.0012 0.09021,-0.0029 0.142578,-0.0039 z m 18.044922,0 v 0.447266 c -0.09852,0.17493 -0.243758,0.331741 -0.441407,0.472656 -0.199941,0.142552 -0.397916,0.212891 -0.603515,0.212891 -0.202395,0 -0.341016,-0.05163 -0.439453,-0.148438 -0.105152,-0.103397 -0.154297,-0.208067 -0.154297,-0.324218 0,-0.06514 0.01284,-0.122581 0.03516,-0.175782 0.02468,-0.05383 0.05757,-0.09858 0.0957,-0.136718 a 0.03577612,0.03577612 0 0 0 0,-0.002 l 0.002,-0.002 c 0.03684,-0.03798 0.08574,-0.07422 0.150391,-0.107421 a 0.03577612,0.03577612 0 0 0 0.002,-0.002 0.03577612,0.03577612 0 0 0 0.002,0 c 0.06984,-0.03664 0.137367,-0.06602 0.201172,-0.08789 0.06325,-0.02349 0.1441,-0.04562 0.238281,-0.06445 0.09808,-0.01923 0.183025,-0.03354 0.253907,-0.04102 0.07097,-0.0094 0.158551,-0.01767 0.261718,-0.02344 0,0 0.002,0 0.002,0 a 0.03577612,0.03577612 0 0 0 0.002,0 c 0.106576,-0.0078 0.190459,-0.01178 0.25,-0.01367 0.03823,-0.0012 0.09021,-0.0029 0.142578,-0.0039 z m 7.701172,0 v 0.447266 c -0.09852,0.17493 -0.243758,0.331741 -0.441407,0.472656 -0.199728,0.142399 -0.399879,0.212891 -0.605468,0.212891 -0.202396,0 -0.341015,-0.05163 -0.439454,-0.148438 -0.104823,-0.103076 -0.152342,-0.207222 -0.152343,-0.324218 0,-0.06514 0.01284,-0.122581 0.03516,-0.175782 0.02525,-0.05514 0.0565,-0.09947 0.09375,-0.136718 a 0.03577612,0.03577612 0 0 0 0,-0.002 l 0.002,-0.002 c 0.03684,-0.03798 0.08574,-0.07422 0.150391,-0.107421 a 0.03577612,0.03577612 0 0 0 0.002,-0.002 0.03577612,0.03577612 0 0 0 0.002,0 c 0.06984,-0.03664 0.137366,-0.06602 0.201172,-0.08789 0.06325,-0.02349 0.144099,-0.04562 0.238281,-0.06445 0.09808,-0.01923 0.183024,-0.03354 0.253906,-0.04102 0.07097,-0.0094 0.158551,-0.01767 0.261719,-0.02344 0,0 0.002,0 0.002,0 a 0.03577612,0.03577612 0 0 0 0.002,0 c 0.1065,-0.0078 0.192355,-0.01178 0.251953,-0.01367 0.03823,-0.0012 0.09021,-0.0029 0.142579,-0.0039 z m 5.019531,0 v 0.447266 c -0.09852,0.17493 -0.243757,0.331741 -0.441406,0.472656 -0.199729,0.142399 -0.39988,0.212891 -0.605469,0.212891 -0.202395,0 -0.341016,-0.05163 -0.439453,-0.148438 -0.104825,-0.103076 -0.152344,-0.207222 -0.152344,-0.324218 0,-0.06514 0.01283,-0.122581 0.03516,-0.175782 0.02525,-0.05514 0.05649,-0.09947 0.09375,-0.136718 a 0.03577612,0.03577612 0 0 0 0,-0.002 l 0.002,-0.002 c 0.03684,-0.03798 0.08574,-0.07422 0.150391,-0.107421 a 0.03577612,0.03577612 0 0 0 0.002,-0.002 0.03577612,0.03577612 0 0 0 0.002,0 c 0.06984,-0.03664 0.137367,-0.06602 0.201172,-0.08789 0.06325,-0.02349 0.1441,-0.04562 0.238281,-0.06445 0.09808,-0.01923 0.183025,-0.03354 0.253907,-0.04102 0.07097,-0.0094 0.158551,-0.01767 0.261718,-0.02344 0,0 0.002,0 0.002,0 a 0.03577612,0.03577612 0 0 0 0.002,0 c 0.106498,-0.0078 0.192353,-0.01178 0.251953,-0.01367 0.03823,-0.0012 0.09021,-0.0029 0.142578,-0.0039 z"
           id="path1011"
           style="font-style:normal;font-variant:normal;font-weight:normal;font-stretch:normal;font-family:Sawasdee;-inkscape-font-specification:Sawasdee;fill:#000000;stroke-width:0.150474"
           sodipodi:type="inkscape:offset"
           inkscape:radius="0.035772543"
           inkscape:original="M 28.576172 74.654297 A 0.05175741 0.05175741 0 0 0 28.525391 74.705078 L 28.525391 79.09375 A 0.05175741 0.05175741 0 0 0 28.576172 79.144531 L 28.839844 79.144531 A 0.05175741 0.05175741 0 0 0 28.890625 79.09375 L 28.890625 74.705078 A 0.05175741 0.05175741 0 0 0 28.839844 74.654297 L 28.576172 74.654297 z M 31.068359 74.654297 A 0.05175741 0.05175741 0 0 0 31.017578 74.705078 L 31.017578 79.09375 A 0.05175741 0.05175741 0 0 0 31.068359 79.144531 L 31.332031 79.144531 A 0.05175741 0.05175741 0 0 0 31.382812 79.09375 L 31.382812 77.691406 L 31.595703 77.503906 L 32.988281 79.126953 A 0.05175741 0.05175741 0 0 0 33.027344 79.144531 L 33.369141 79.144531 A 0.05175741 0.05175741 0 0 0 33.408203 79.060547 L 31.863281 77.257812 L 33.083984 76.152344 A 0.05175741 0.05175741 0 0 0 33.048828 76.0625 L 32.652344 76.0625 A 0.05175741 0.05175741 0 0 0 32.617188 76.074219 L 31.382812 77.191406 L 31.382812 74.705078 A 0.05175741 0.05175741 0 0 0 31.332031 74.654297 L 31.068359 74.654297 z M 29.953125 75.119141 C 29.860605 75.061021 29.747331 75.261454 29.746094 75.205078 C 29.692914 75.260568 29.664063 75.331117 29.664062 75.408203 C 29.664062 75.486883 29.692914 75.557797 29.746094 75.613281 A 0.05175741 0.05175741 0 0 0 29.748047 75.615234 C 29.803537 75.668414 29.87445 75.697266 29.953125 75.697266 C 30.031795 75.697266 30.104203 75.669234 30.158203 75.615234 A 0.05175741 0.05175741 0 0 0 30.158203 75.613281 C 30.211383 75.557791 30.240234 75.486878 30.240234 75.408203 C 30.240234 75.331663 30.21106 75.260492 30.15625 75.205078 C 30.1022 75.148678 30.030213 75.119141 29.953125 75.119141 z M 39.734375 75.119141 C 39.641855 75.061021 39.528581 75.261454 39.527344 75.205078 C 39.474164 75.260568 39.445312 75.331117 39.445312 75.408203 C 39.445312 75.486883 39.474164 75.557797 39.527344 75.613281 A 0.05175741 0.05175741 0 0 0 39.529297 75.615234 C 39.584787 75.668414 39.6557 75.697266 39.734375 75.697266 C 39.813045 75.697266 39.885453 75.669234 39.939453 75.615234 A 0.05175741 0.05175741 0 0 0 39.939453 75.613281 C 39.993143 75.557251 40.019531 75.485867 40.019531 75.408203 C 40.019531 75.331663 39.990357 75.260492 39.935547 75.205078 C 39.882017 75.149218 39.811466 75.119141 39.734375 75.119141 z M 58.175781 75.357422 A 0.05175741 0.05175741 0 0 0 58.125 75.408203 L 58.125 76.0625 L 57.914062 76.0625 A 0.05175741 0.05175741 0 0 0 57.863281 76.113281 L 57.863281 76.375 A 0.05175741 0.05175741 0 0 0 57.914062 76.425781 L 58.125 76.425781 L 58.125 79.09375 A 0.05175741 0.05175741 0 0 0 58.175781 79.144531 L 58.441406 79.144531 A 0.05175741 0.05175741 0 0 0 58.492188 79.09375 L 58.492188 76.425781 L 59.175781 76.425781 A 0.05175741 0.05175741 0 0 0 59.224609 76.390625 L 59.3125 76.128906 A 0.05175741 0.05175741 0 0 0 59.263672 76.0625 L 58.492188 76.0625 L 58.492188 75.408203 A 0.05175741 0.05175741 0 0 0 58.441406 75.357422 L 58.175781 75.357422 z M 19.273438 76.009766 C 19.080537 76.009766 18.894161 76.058426 18.71875 76.154297 C 18.542044 76.250867 18.392938 76.39577 18.269531 76.585938 A 0.05175741 0.05175741 0 0 0 18.283203 76.65625 L 18.492188 76.792969 A 0.05175741 0.05175741 0 0 0 18.564453 76.779297 C 18.658533 76.645703 18.76668 76.546963 18.890625 76.478516 C 19.017358 76.409566 19.143475 76.375 19.273438 76.375 C 19.496388 76.375 19.690773 76.46468 19.863281 76.648438 C 20.025641 76.819524 20.112846 77.046636 20.130859 77.333984 L 20.107422 77.333984 C 19.999018 77.333984 19.90862 77.335991 19.837891 77.337891 C 19.768491 77.337917 19.676101 77.339803 19.556641 77.345703 C 19.435768 77.351703 19.332441 77.360997 19.25 77.373047 C 19.1675 77.383197 19.07262 77.400318 18.962891 77.423828 C 18.852012 77.445688 18.756769 77.472579 18.677734 77.505859 L 18.677734 77.503906 C 18.602164 77.534546 18.523697 77.574826 18.441406 77.625 C 18.358606 77.67467 18.289677 77.732671 18.236328 77.798828 C 18.185128 77.862818 18.144198 77.940971 18.111328 78.029297 C 18.079978 78.119167 18.064453 78.216979 18.064453 78.322266 C 18.064453 78.425251 18.083687 78.527529 18.123047 78.626953 C 18.162577 78.724723 18.220857 78.818003 18.296875 78.904297 C 18.375165 78.993177 18.479781 79.063707 18.609375 79.117188 A 0.05175741 0.05175741 0 0 0 18.609375 79.119141 C 18.742069 79.170971 18.892875 79.193359 19.056641 79.193359 C 19.286153 79.193359 19.503738 79.126279 19.707031 78.994141 C 19.870693 78.888814 20.011112 78.754235 20.136719 78.603516 L 20.136719 78.699219 C 20.136719 78.854081 20.154096 78.991212 20.191406 79.109375 A 0.05175741 0.05175741 0 0 0 20.240234 79.144531 L 20.523438 79.144531 A 0.05175741 0.05175741 0 0 0 20.568359 79.070312 C 20.525539 78.989838 20.5 78.864569 20.5 78.699219 L 20.5 77.384766 A 0.05175741 0.05175741 0 0 0 20.5 77.382812 C 20.496 77.171492 20.45972 76.979344 20.388672 76.802734 C 20.319962 76.626924 20.229166 76.481002 20.113281 76.367188 C 19.999663 76.253569 19.869456 76.164971 19.724609 76.103516 L 19.722656 76.103516 C 19.579386 76.040356 19.428465 76.009766 19.273438 76.009766 z M 34.826172 76.009766 C 34.633272 76.009766 34.446896 76.058426 34.271484 76.154297 C 34.09478 76.250867 33.945673 76.39577 33.822266 76.585938 A 0.05175741 0.05175741 0 0 0 33.835938 76.65625 L 34.044922 76.792969 A 0.05175741 0.05175741 0 0 0 34.117188 76.779297 C 34.211267 76.645703 34.319414 76.546963 34.443359 76.478516 C 34.570091 76.409566 34.69621 76.375 34.826172 76.375 C 35.049124 76.375 35.243507 76.46468 35.416016 76.648438 C 35.578375 76.819524 35.665581 77.046636 35.683594 77.333984 L 35.660156 77.333984 C 35.551752 77.333984 35.463282 77.335991 35.392578 77.337891 C 35.323158 77.337917 35.228869 77.339803 35.109375 77.345703 C 34.988475 77.351703 34.887009 77.361007 34.804688 77.373047 C 34.722257 77.383177 34.62548 77.400288 34.515625 77.423828 C 34.404744 77.445688 34.309502 77.472579 34.230469 77.505859 L 34.230469 77.503906 C 34.154899 77.534546 34.076432 77.574826 33.994141 77.625 C 33.911351 77.67467 33.842413 77.732668 33.789062 77.798828 C 33.737862 77.862818 33.696922 77.940971 33.664062 78.029297 C 33.632712 78.119167 33.617188 78.216979 33.617188 78.322266 C 33.617188 78.425251 33.636421 78.527528 33.675781 78.626953 C 33.715311 78.724723 33.773591 78.818003 33.849609 78.904297 C 33.928209 78.993517 34.034647 79.063779 34.164062 79.117188 A 0.05175741 0.05175741 0 0 0 34.164062 79.119141 C 34.296586 79.170911 34.445609 79.193359 34.609375 79.193359 C 34.838887 79.193359 35.056473 79.126279 35.259766 78.994141 C 35.423427 78.888814 35.563847 78.754235 35.689453 78.603516 L 35.689453 78.699219 C 35.689453 78.854081 35.706831 78.991212 35.744141 79.109375 A 0.05175741 0.05175741 0 0 0 35.792969 79.144531 L 36.076172 79.144531 A 0.05175741 0.05175741 0 0 0 36.121094 79.070312 C 36.078284 78.989812 36.052734 78.864569 36.052734 78.699219 L 36.052734 77.384766 A 0.05175741 0.05175741 0 0 0 36.052734 77.382812 C 36.048734 77.171492 36.012454 76.979344 35.941406 76.802734 C 35.872696 76.626925 35.781902 76.481002 35.666016 76.367188 C 35.552398 76.253569 35.422191 76.164971 35.277344 76.103516 L 35.275391 76.103516 C 35.13212 76.040356 34.9812 76.009766 34.826172 76.009766 z M 37.802734 76.009766 C 37.591829 76.009766 37.403732 76.077846 37.248047 76.214844 C 37.092115 76.353918 37.015625 76.546612 37.015625 76.777344 C 37.015625 76.902302 37.041789 77.01655 37.099609 77.117188 C 37.156059 77.213368 37.229798 77.294318 37.318359 77.355469 A 0.05175741 0.05175741 0 0 0 37.320312 77.355469 C 37.407022 77.411929 37.501692 77.463825 37.605469 77.511719 C 37.707579 77.558839 37.809948 77.605199 37.912109 77.650391 C 38.012383 77.694751 38.1019 77.741661 38.181641 77.791016 C 38.258991 77.837786 38.322084 77.898371 38.371094 77.974609 A 0.05175741 0.05175741 0 0 0 38.371094 77.976562 C 38.418364 78.048343 38.443359 78.129623 38.443359 78.226562 C 38.443359 78.406021 38.381049 78.545482 38.25 78.660156 C 38.117468 78.77428 37.967698 78.830078 37.796875 78.830078 C 37.636305 78.830078 37.50135 78.777268 37.380859 78.671875 C 37.264714 78.568233 37.190441 78.413986 37.164062 78.199219 A 0.05175741 0.05175741 0 0 0 37.105469 78.154297 L 36.84375 78.193359 A 0.05175741 0.05175741 0 0 0 36.800781 78.25 C 36.819021 78.406058 36.857911 78.546113 36.921875 78.669922 C 36.985335 78.792754 37.063953 78.893235 37.15625 78.96875 C 37.24652 79.04261 37.345543 79.099363 37.453125 79.138672 C 37.560578 79.175872 37.67394 79.193359 37.791016 79.193359 C 38.058901 79.193359 38.299271 79.105759 38.501953 78.929688 C 38.706305 78.750106 38.808594 78.510954 38.808594 78.226562 C 38.808595 78.101446 38.788541 77.986407 38.744141 77.882812 C 38.700471 77.78092 38.642787 77.694994 38.570312 77.628906 C 38.501033 77.565746 38.422632 77.507521 38.333984 77.453125 L 38.333984 77.455078 C 38.247204 77.400588 38.157618 77.352886 38.066406 77.316406 C 37.980006 77.281846 37.893434 77.243576 37.808594 77.203125 L 37.806641 77.203125 C 37.724501 77.162945 37.651232 77.122395 37.585938 77.083984 C 37.524817 77.048034 37.477859 77.004984 37.441406 76.951172 C 37.405646 76.898382 37.386719 76.841904 37.386719 76.777344 C 37.386718 76.647192 37.426809 76.55265 37.505859 76.480469 C 37.588929 76.406239 37.684295 76.369141 37.802734 76.369141 C 37.903623 76.369141 37.997554 76.401747 38.087891 76.466797 C 38.175781 76.528327 38.238934 76.617694 38.277344 76.740234 A 0.05175741 0.05175741 0 0 0 38.34375 76.773438 L 38.587891 76.6875 A 0.05175741 0.05175741 0 0 0 38.619141 76.623047 C 38.555581 76.426234 38.44778 76.272664 38.294922 76.167969 C 38.144184 76.062664 37.977897 76.009766 37.802734 76.009766 z M 50.111328 76.009766 C 49.900422 76.009766 49.712325 76.077846 49.556641 76.214844 C 49.400709 76.353918 49.324219 76.546612 49.324219 76.777344 C 49.324219 76.902302 49.350383 77.01655 49.408203 77.117188 C 49.464653 77.213368 49.53839 77.294318 49.626953 77.355469 A 0.05175741 0.05175741 0 0 0 49.628906 77.355469 C 49.715616 77.411929 49.810285 77.463825 49.914062 77.511719 C 50.016174 77.558839 50.118542 77.605199 50.220703 77.650391 C 50.320975 77.694751 50.410493 77.741661 50.490234 77.791016 C 50.567584 77.837786 50.630678 77.898371 50.679688 77.974609 A 0.05175741 0.05175741 0 0 0 50.679688 77.976562 C 50.726957 78.048343 50.751953 78.129623 50.751953 78.226562 C 50.751953 78.406021 50.689643 78.545482 50.558594 78.660156 C 50.426062 78.77428 50.276292 78.830078 50.105469 78.830078 C 49.944899 78.830078 49.809944 78.777268 49.689453 78.671875 C 49.573307 78.568233 49.499034 78.413986 49.472656 78.199219 A 0.05175741 0.05175741 0 0 0 49.414062 78.154297 L 49.152344 78.193359 A 0.05175741 0.05175741 0 0 0 49.109375 78.25 C 49.127615 78.406058 49.166505 78.546113 49.230469 78.669922 C 49.293929 78.792754 49.372547 78.893235 49.464844 78.96875 C 49.555114 79.04261 49.654137 79.099363 49.761719 79.138672 C 49.869172 79.175872 49.982534 79.193359 50.099609 79.193359 C 50.367496 79.193359 50.606041 79.105649 50.808594 78.929688 C 51.012815 78.75022 51.117187 78.511201 51.117188 78.226562 C 51.117188 78.101446 51.097134 77.986407 51.052734 77.882812 C 51.009064 77.78092 50.95138 77.694994 50.878906 77.628906 C 50.809626 77.565746 50.731226 77.507521 50.642578 77.453125 L 50.642578 77.455078 C 50.555788 77.400588 50.466211 77.352886 50.375 77.316406 C 50.2886 77.281846 50.202027 77.243576 50.117188 77.203125 L 50.115234 77.203125 C 50.032794 77.162805 49.957498 77.122175 49.892578 77.083984 C 49.831828 77.048264 49.786885 77.005614 49.75 76.951172 C 49.71424 76.898382 49.695312 76.841903 49.695312 76.777344 C 49.695312 76.647191 49.735402 76.55265 49.814453 76.480469 C 49.897523 76.406239 49.992888 76.369141 50.111328 76.369141 C 50.212217 76.369141 50.306149 76.401747 50.396484 76.466797 C 50.484374 76.528327 50.547528 76.617694 50.585938 76.740234 A 0.05175741 0.05175741 0 0 0 50.652344 76.773438 L 50.896484 76.6875 A 0.05175741 0.05175741 0 0 0 50.927734 76.623047 C 50.864174 76.426234 50.756374 76.272664 50.603516 76.167969 C 50.452777 76.062664 50.286489 76.009766 50.111328 76.009766 z M 52.871094 76.009766 C 52.678193 76.009766 52.491817 76.058426 52.316406 76.154297 C 52.139702 76.250867 51.990594 76.39577 51.867188 76.585938 A 0.05175741 0.05175741 0 0 0 51.880859 76.65625 L 52.089844 76.792969 A 0.05175741 0.05175741 0 0 0 52.162109 76.779297 C 52.256189 76.645703 52.364336 76.546963 52.488281 76.478516 C 52.615013 76.409566 52.741131 76.375 52.871094 76.375 C 53.094045 76.375 53.288429 76.46468 53.460938 76.648438 C 53.623292 76.819524 53.710497 77.046635 53.728516 77.333984 L 53.707031 77.333984 C 53.598627 77.333984 53.50823 77.335991 53.4375 77.337891 C 53.36808 77.337917 53.273791 77.339803 53.154297 77.345703 C 53.033397 77.351703 52.931931 77.361007 52.849609 77.373047 C 52.767179 77.383177 52.670402 77.400288 52.560547 77.423828 C 52.449667 77.445688 52.354425 77.472579 52.275391 77.505859 L 52.275391 77.503906 C 52.199821 77.534546 52.121355 77.574826 52.039062 77.625 C 51.956272 77.67467 51.887335 77.732668 51.833984 77.798828 C 51.782804 77.862818 51.741854 77.940969 51.708984 78.029297 C 51.677634 78.119157 51.662109 78.216979 51.662109 78.322266 C 51.662109 78.425251 51.681353 78.527528 51.720703 78.626953 C 51.760233 78.724723 51.818513 78.818003 51.894531 78.904297 C 51.973131 78.993517 52.079568 79.063779 52.208984 79.117188 A 0.05175741 0.05175741 0 0 0 52.208984 79.119141 C 52.341509 79.170911 52.490532 79.193359 52.654297 79.193359 C 52.883809 79.193359 53.101394 79.126279 53.304688 78.994141 C 53.468348 78.888814 53.608769 78.754235 53.734375 78.603516 L 53.734375 78.699219 C 53.734375 78.854081 53.751753 78.991212 53.789062 79.109375 A 0.05175741 0.05175741 0 0 0 53.837891 79.144531 L 54.121094 79.144531 A 0.05175741 0.05175741 0 0 0 54.166016 79.070312 C 54.123206 78.989812 54.097656 78.864569 54.097656 78.699219 L 54.097656 77.384766 A 0.05175741 0.05175741 0 0 0 54.097656 77.382812 C 54.093656 77.171492 54.057376 76.979344 53.986328 76.802734 C 53.917618 76.626924 53.826821 76.481002 53.710938 76.367188 C 53.597319 76.253569 53.467113 76.164971 53.322266 76.103516 L 53.320312 76.103516 C 53.177042 76.040356 53.026121 76.009766 52.871094 76.009766 z M 60.572266 76.009766 C 60.379366 76.009766 60.192989 76.058426 60.017578 76.154297 C 59.840874 76.250867 59.691766 76.39577 59.568359 76.585938 A 0.05175741 0.05175741 0 0 0 59.582031 76.65625 L 59.789062 76.792969 A 0.05175741 0.05175741 0 0 0 59.861328 76.779297 C 59.955228 76.645968 60.065318 76.547068 60.189453 76.478516 C 60.316186 76.409566 60.442304 76.375 60.572266 76.375 C 60.795218 76.375 60.98752 76.46454 61.160156 76.648438 C 61.322636 76.819649 61.411486 77.046801 61.429688 77.333984 L 61.40625 77.333984 C 61.297846 77.333984 61.207449 77.335991 61.136719 77.337891 C 61.067319 77.337917 60.97493 77.339803 60.855469 77.345703 C 60.734597 77.351703 60.631268 77.360997 60.548828 77.373047 C 60.466398 77.383177 60.369621 77.400288 60.259766 77.423828 C 60.148801 77.445718 60.055297 77.472709 59.976562 77.505859 L 59.976562 77.503906 C 59.901292 77.534426 59.82089 77.574636 59.738281 77.625 C 59.655151 77.67487 59.588083 77.733194 59.535156 77.798828 C 59.484396 77.862278 59.441316 77.940315 59.408203 78.029297 C 59.376623 78.119837 59.363281 78.217653 59.363281 78.322266 C 59.363281 78.424549 59.380332 78.526953 59.419922 78.626953 C 59.459682 78.725303 59.519984 78.818348 59.595703 78.904297 C 59.673993 78.993177 59.778609 79.063707 59.908203 79.117188 A 0.05175741 0.05175741 0 0 0 59.908203 79.119141 C 60.040727 79.170911 60.18975 79.193359 60.353516 79.193359 C 60.583028 79.193359 60.800614 79.126279 61.003906 78.994141 C 61.167464 78.888881 61.309382 78.754303 61.435547 78.603516 L 61.435547 78.699219 C 61.435547 78.854081 61.452924 78.991213 61.490234 79.109375 A 0.05175741 0.05175741 0 0 0 61.539062 79.144531 L 61.820312 79.144531 A 0.05175741 0.05175741 0 0 0 61.865234 79.070312 C 61.822684 78.990323 61.798828 78.864965 61.798828 78.699219 L 61.798828 77.384766 A 0.05175741 0.05175741 0 0 0 61.798828 77.382812 C 61.794828 77.171492 61.758548 76.979344 61.6875 76.802734 C 61.61866 76.626605 61.525822 76.480787 61.410156 76.367188 C 61.296548 76.253585 61.166333 76.164972 61.021484 76.103516 L 61.019531 76.103516 C 60.876439 76.040426 60.727294 76.009766 60.572266 76.009766 z M 65.591797 76.009766 C 65.398896 76.009766 65.21252 76.058426 65.037109 76.154297 C 64.860405 76.250867 64.711298 76.39577 64.587891 76.585938 A 0.05175741 0.05175741 0 0 0 64.601562 76.65625 L 64.810547 76.792969 A 0.05175741 0.05175741 0 0 0 64.882812 76.779297 C 64.976893 76.645703 65.085039 76.546963 65.208984 76.478516 C 65.335716 76.409566 65.461834 76.375 65.591797 76.375 C 65.814748 76.375 66.00705 76.46454 66.179688 76.648438 C 66.342162 76.819649 66.431013 77.0468 66.449219 77.333984 L 66.425781 77.333984 C 66.317377 77.333984 66.22698 77.335991 66.15625 77.337891 C 66.08686 77.337917 65.994462 77.339803 65.875 77.345703 C 65.754128 77.351703 65.6508 77.360997 65.568359 77.373047 C 65.485929 77.383177 65.389152 77.400288 65.279297 77.423828 C 65.168332 77.445718 65.074829 77.472709 64.996094 77.505859 L 64.996094 77.503906 C 64.920524 77.534546 64.842057 77.574826 64.759766 77.625 C 64.676976 77.67467 64.608037 77.732668 64.554688 77.798828 C 64.503488 77.862818 64.462547 77.940971 64.429688 78.029297 C 64.398337 78.119167 64.382813 78.216979 64.382812 78.322266 C 64.382812 78.425251 64.402046 78.527528 64.441406 78.626953 C 64.480936 78.724723 64.539216 78.818003 64.615234 78.904297 C 64.693524 78.993177 64.79814 79.063707 64.927734 79.117188 A 0.05175741 0.05175741 0 0 0 64.927734 79.119141 C 65.060259 79.170911 65.209282 79.193359 65.373047 79.193359 C 65.602559 79.193359 65.820145 79.126279 66.023438 78.994141 C 66.186993 78.888881 66.328914 78.754303 66.455078 78.603516 L 66.455078 78.699219 C 66.455078 78.854081 66.472456 78.991212 66.509766 79.109375 A 0.05175741 0.05175741 0 0 0 66.558594 79.144531 L 66.839844 79.144531 A 0.05175741 0.05175741 0 0 0 66.884766 79.070312 C 66.842216 78.990323 66.818359 78.864965 66.818359 78.699219 L 66.818359 77.384766 A 0.05175741 0.05175741 0 0 0 66.818359 77.382812 C 66.814359 77.171492 66.778079 76.979344 66.707031 76.802734 C 66.638321 76.626925 66.547527 76.481002 66.431641 76.367188 C 66.317807 76.253354 66.185718 76.164903 66.041016 76.103516 L 66.039062 76.103516 C 65.895971 76.040426 65.746825 76.009766 65.591797 76.009766 z M 22.796875 76.015625 C 22.560624 76.015625 22.327789 76.103635 22.101562 76.277344 C 21.947098 76.394571 21.828545 76.523236 21.742188 76.662109 L 21.742188 76.505859 C 21.742188 76.368107 21.724137 76.233654 21.685547 76.099609 A 0.05175741 0.05175741 0 0 0 21.636719 76.0625 L 21.353516 76.0625 A 0.05175741 0.05175741 0 0 0 21.306641 76.136719 C 21.349961 76.219899 21.376953 76.342527 21.376953 76.505859 L 21.376953 80.566406 A 0.05175741 0.05175741 0 0 0 21.427734 80.617188 L 21.691406 80.617188 A 0.05175741 0.05175741 0 0 0 21.742188 80.566406 L 21.742188 78.552734 C 21.827137 78.69475 21.943156 78.823433 22.095703 78.9375 C 22.32207 79.103233 22.557517 79.1875 22.796875 79.1875 C 23.055394 79.1875 23.296073 79.11515 23.511719 78.970703 C 23.726752 78.826672 23.896351 78.633077 24.017578 78.390625 C 24.140801 78.146198 24.199219 77.881235 24.199219 77.599609 C 24.199219 77.319892 24.140799 77.058802 24.017578 76.816406 C 23.896402 76.574055 23.726938 76.378531 23.511719 76.234375 C 23.295974 76.087831 23.055392 76.015625 22.796875 76.015625 z M 26.371094 76.015625 C 26.134843 76.015625 25.902005 76.103635 25.675781 76.277344 C 25.521317 76.394571 25.402764 76.523236 25.316406 76.662109 L 25.316406 76.505859 C 25.316406 76.368107 25.298356 76.233654 25.259766 76.099609 A 0.05175741 0.05175741 0 0 0 25.210938 76.0625 L 24.927734 76.0625 A 0.05175741 0.05175741 0 0 0 24.880859 76.136719 C 24.924179 76.219899 24.951172 76.342527 24.951172 76.505859 L 24.951172 80.566406 A 0.05175741 0.05175741 0 0 0 25.001953 80.617188 L 25.265625 80.617188 A 0.05175741 0.05175741 0 0 0 25.316406 80.566406 L 25.316406 78.552734 C 25.401356 78.69475 25.517374 78.823433 25.669922 78.9375 C 25.896288 79.103233 26.131735 79.1875 26.371094 79.1875 C 26.629613 79.1875 26.870292 79.11515 27.085938 78.970703 C 27.301095 78.826588 27.46872 78.632872 27.589844 78.390625 C 27.712964 78.1464 27.773436 77.88148 27.773438 77.599609 C 27.773438 77.319645 27.712958 77.0586 27.589844 76.816406 C 27.468771 76.57426 27.301282 76.378614 27.085938 76.234375 C 26.870193 76.087831 26.629612 76.015625 26.371094 76.015625 z M 44.269531 76.015625 C 44.072558 76.015625 43.873761 76.109265 43.675781 76.289062 C 43.528721 76.422477 43.413726 76.584497 43.314453 76.759766 L 43.314453 76.505859 C 43.314453 76.368106 43.296402 76.233654 43.257812 76.099609 A 0.05175741 0.05175741 0 0 0 43.208984 76.0625 L 42.925781 76.0625 A 0.05175741 0.05175741 0 0 0 42.880859 76.136719 C 42.924169 76.219839 42.949219 76.342527 42.949219 76.505859 L 42.949219 79.09375 A 0.05175741 0.05175741 0 0 0 43 79.144531 L 43.263672 79.144531 A 0.05175741 0.05175741 0 0 0 43.314453 79.09375 L 43.314453 77.599609 C 43.314453 77.496923 43.343271 77.375212 43.400391 77.232422 L 43.398438 77.232422 C 43.457808 77.088796 43.533195 76.952287 43.621094 76.826172 C 43.709484 76.700165 43.813718 76.594285 43.931641 76.507812 L 43.933594 76.505859 C 44.051889 76.421359 44.162085 76.380859 44.263672 76.380859 C 44.376881 76.380859 44.469847 76.408278 44.548828 76.460938 A 0.05175741 0.05175741 0 0 0 44.550781 76.460938 C 44.632841 76.512668 44.693247 76.582307 44.734375 76.669922 C 44.777635 76.762062 44.807352 76.85517 44.826172 76.951172 A 0.05175741 0.05175741 0 0 0 44.826172 76.953125 C 44.846962 77.049515 44.859375 77.149875 44.859375 77.253906 L 44.859375 79.09375 A 0.05175741 0.05175741 0 0 0 44.910156 79.144531 L 45.167969 79.144531 A 0.05175741 0.05175741 0 0 0 45.21875 79.09375 L 45.21875 77.253906 C 45.21875 77.029582 45.188127 76.825526 45.123047 76.644531 C 45.059427 76.461884 44.95502 76.310914 44.808594 76.193359 C 44.661917 76.073923 44.479099 76.015625 44.269531 76.015625 z M 56.294922 76.015625 C 56.097949 76.015625 55.899151 76.109265 55.701172 76.289062 C 55.554014 76.422567 55.440478 76.584556 55.341797 76.759766 L 55.341797 76.505859 C 55.341797 76.367601 55.321663 76.233191 55.283203 76.099609 A 0.05175741 0.05175741 0 0 0 55.234375 76.0625 L 54.953125 76.0625 A 0.05175741 0.05175741 0 0 0 54.90625 76.136719 C 54.94931 76.219399 54.974609 76.342127 54.974609 76.505859 L 54.974609 79.09375 A 0.05175741 0.05175741 0 0 0 55.025391 79.144531 L 55.291016 79.144531 A 0.05175741 0.05175741 0 0 0 55.341797 79.09375 L 55.341797 77.599609 C 55.341797 77.496922 55.370614 77.375212 55.427734 77.232422 L 55.425781 77.232422 C 55.485151 77.088796 55.560538 76.952288 55.648438 76.826172 C 55.737028 76.699885 55.839339 76.594133 55.957031 76.507812 L 55.958984 76.505859 C 56.077281 76.421359 56.187479 76.380859 56.289062 76.380859 C 56.402274 76.380859 56.495237 76.408277 56.574219 76.460938 A 0.05175741 0.05175741 0 0 0 56.576172 76.460938 C 56.658222 76.512668 56.718639 76.58231 56.759766 76.669922 C 56.803266 76.762582 56.834806 76.8558 56.853516 76.951172 A 0.05175741 0.05175741 0 0 0 56.853516 76.953125 C 56.874166 77.048885 56.884766 77.14925 56.884766 77.253906 L 56.884766 79.09375 A 0.05175741 0.05175741 0 0 0 56.935547 79.144531 L 57.195312 79.144531 A 0.05175741 0.05175741 0 0 0 57.246094 79.09375 L 57.246094 77.253906 C 57.246095 77.029582 57.215471 76.825526 57.150391 76.644531 C 57.086661 76.461558 56.980226 76.310766 56.833984 76.193359 C 56.687308 76.073923 56.504488 76.015625 56.294922 76.015625 z M 63.794922 76.015625 A 0.05175741 0.05175741 0 0 0 63.78125 76.017578 C 63.606569 76.085398 63.435965 76.202757 63.267578 76.369141 C 63.170478 76.465081 63.098835 76.559996 63.041016 76.654297 L 63.041016 76.505859 C 63.041016 76.368107 63.022965 76.233654 62.984375 76.099609 A 0.05175741 0.05175741 0 0 0 62.935547 76.0625 L 62.652344 76.0625 A 0.05175741 0.05175741 0 0 0 62.605469 76.136719 C 62.648789 76.219899 62.675781 76.342527 62.675781 76.505859 L 62.675781 79.09375 A 0.05175741 0.05175741 0 0 0 62.726562 79.144531 L 62.990234 79.144531 A 0.05175741 0.05175741 0 0 0 63.041016 79.09375 L 63.041016 77.5625 C 63.041016 77.357715 63.093306 77.159707 63.199219 76.966797 C 63.307569 76.771006 63.443534 76.616794 63.607422 76.5 C 63.773114 76.383264 63.935323 76.326172 64.095703 76.326172 A 0.05175741 0.05175741 0 0 0 64.125 76.232422 L 63.830078 76.023438 A 0.05175741 0.05175741 0 0 0 63.794922 76.015625 z M 29.822266 76.0625 A 0.05175741 0.05175741 0 0 0 29.771484 76.113281 L 29.771484 79.09375 A 0.05175741 0.05175741 0 0 0 29.822266 79.144531 L 30.085938 79.144531 A 0.05175741 0.05175741 0 0 0 30.136719 79.09375 L 30.136719 76.113281 A 0.05175741 0.05175741 0 0 0 30.085938 76.0625 L 29.822266 76.0625 z M 39.601562 76.0625 A 0.05175741 0.05175741 0 0 0 39.550781 76.113281 L 39.550781 79.09375 A 0.05175741 0.05175741 0 0 0 39.601562 79.144531 L 39.867188 79.144531 A 0.05175741 0.05175741 0 0 0 39.917969 79.09375 L 39.917969 76.113281 A 0.05175741 0.05175741 0 0 0 39.867188 76.0625 L 39.601562 76.0625 z M 46.150391 76.0625 A 0.05175741 0.05175741 0 0 0 46.099609 76.113281 L 46.099609 77.955078 C 46.099609 78.28934 46.206168 78.584013 46.421875 78.826172 C 46.639902 79.066614 46.913611 79.1875 47.226562 79.1875 C 47.54139 79.1875 47.81333 79.066495 48.03125 78.826172 C 48.24891 78.584101 48.357422 78.289548 48.357422 77.955078 L 48.357422 76.113281 A 0.05175741 0.05175741 0 0 0 48.306641 76.0625 L 48.042969 76.0625 A 0.05175741 0.05175741 0 0 0 47.992188 76.113281 L 47.992188 77.955078 C 47.992188 78.198746 47.914168 78.401026 47.757812 78.572266 C 47.603211 78.74177 47.426493 78.824219 47.214844 78.824219 C 47.005273 78.824219 46.83218 78.743129 46.685547 78.574219 C 46.538798 78.405177 46.464846 78.201312 46.464844 77.955078 L 46.464844 76.113281 A 0.05175741 0.05175741 0 0 0 46.414062 76.0625 L 46.150391 76.0625 z M 22.796875 76.380859 C 23.080298 76.380859 23.321423 76.498075 23.533203 76.736328 C 23.744604 76.974154 23.851563 77.257759 23.851562 77.599609 C 23.851562 77.938873 23.744108 78.225209 23.533203 78.466797 C 23.321427 78.706936 23.080299 78.824219 22.796875 78.824219 C 22.509345 78.824219 22.266286 78.708613 22.056641 78.46875 C 21.847137 78.229047 21.742187 77.941652 21.742188 77.599609 C 21.742188 77.257568 21.8472 76.974072 22.056641 76.736328 C 22.266288 76.498351 22.509346 76.380859 22.796875 76.380859 z M 26.371094 76.380859 C 26.654517 76.380859 26.895641 76.498075 27.107422 76.736328 C 27.318822 76.974154 27.425781 77.257759 27.425781 77.599609 C 27.425781 77.938873 27.318327 78.225209 27.107422 78.466797 C 26.895645 78.706936 26.654517 78.824219 26.371094 78.824219 C 26.083564 78.824219 25.840505 78.708613 25.630859 78.46875 C 25.421356 78.229047 25.316406 77.941652 25.316406 77.599609 C 25.316406 77.257568 25.421419 76.974072 25.630859 76.736328 C 25.840507 76.498351 26.083565 76.380859 26.371094 76.380859 z M 20.136719 77.626953 L 20.136719 78.121094 C 20.035243 78.303714 19.885105 78.466266 19.681641 78.611328 C 19.477014 78.75722 19.27037 78.830078 19.056641 78.830078 C 18.848084 78.830078 18.695723 78.775998 18.589844 78.671875 C 18.480031 78.563893 18.427734 78.449096 18.427734 78.322266 C 18.427734 78.252676 18.440724 78.1903 18.464844 78.132812 L 18.464844 78.130859 C 18.491874 78.071829 18.526424 78.024352 18.566406 77.984375 A 0.05175741 0.05175741 0 0 0 18.566406 77.982422 C 18.606376 77.940722 18.661926 77.902382 18.730469 77.867188 A 0.05175741 0.05175741 0 0 0 18.730469 77.865234 C 18.803079 77.827014 18.871946 77.797861 18.9375 77.775391 C 19.00288 77.751111 19.083917 77.728134 19.179688 77.708984 C 19.278447 77.689624 19.365036 77.675609 19.4375 77.667969 C 19.51003 77.658469 19.600154 77.650351 19.705078 77.644531 A 0.05175741 0.05175741 0 0 0 19.707031 77.644531 C 19.814068 77.636731 19.896966 77.632769 19.957031 77.630859 C 20.005241 77.629359 20.070699 77.628453 20.136719 77.626953 z M 35.689453 77.626953 L 35.689453 78.121094 C 35.587978 78.303714 35.43784 78.466266 35.234375 78.611328 C 35.029748 78.75722 34.823104 78.830078 34.609375 78.830078 C 34.400819 78.830078 34.248457 78.775998 34.142578 78.671875 C 34.032765 78.563893 33.980469 78.449096 33.980469 78.322266 C 33.980469 78.252676 33.993458 78.1903 34.017578 78.132812 L 34.017578 78.130859 C 34.044608 78.071829 34.079158 78.024352 34.119141 77.984375 A 0.05175741 0.05175741 0 0 0 34.119141 77.982422 C 34.159111 77.940722 34.214661 77.902382 34.283203 77.867188 A 0.05175741 0.05175741 0 0 0 34.283203 77.865234 C 34.355483 77.827184 34.426347 77.797961 34.492188 77.775391 C 34.557877 77.750991 34.636782 77.728114 34.732422 77.708984 C 34.831182 77.689624 34.917771 77.675609 34.990234 77.667969 C 35.062774 77.658469 35.15289 77.650351 35.257812 77.644531 A 0.05175741 0.05175741 0 0 0 35.259766 77.644531 C 35.366803 77.636731 35.449702 77.632769 35.509766 77.630859 C 35.557976 77.629359 35.623433 77.628453 35.689453 77.626953 z M 53.734375 77.626953 L 53.734375 78.121094 C 53.6329 78.303714 53.482761 78.466266 53.279297 78.611328 C 53.07467 78.75722 52.868026 78.830078 52.654297 78.830078 C 52.445741 78.830078 52.295536 78.776198 52.189453 78.671875 C 52.079435 78.563692 52.025391 78.448618 52.025391 78.322266 C 52.025391 78.252676 52.03838 78.1903 52.0625 78.132812 L 52.0625 78.130859 C 52.08921 78.072589 52.12551 78.024883 52.166016 77.984375 A 0.05175741 0.05175741 0 0 0 52.166016 77.982422 C 52.206496 77.940182 52.259926 77.902212 52.328125 77.867188 A 0.05175741 0.05175741 0 0 0 52.328125 77.865234 C 52.400405 77.827184 52.471271 77.797961 52.537109 77.775391 C 52.602499 77.751101 52.683527 77.728134 52.779297 77.708984 C 52.878057 77.689624 52.964646 77.675609 53.037109 77.667969 C 53.109759 77.658369 53.197846 77.650351 53.302734 77.644531 A 0.05175741 0.05175741 0 0 0 53.304688 77.644531 C 53.411724 77.636731 53.494622 77.632769 53.554688 77.630859 C 53.602897 77.629359 53.668355 77.628453 53.734375 77.626953 z M 61.435547 77.626953 L 61.435547 78.121094 C 61.334072 78.303714 61.183933 78.466266 60.980469 78.611328 C 60.775965 78.757132 60.567245 78.830078 60.353516 78.830078 C 60.144959 78.830078 59.994756 78.776198 59.888672 78.671875 C 59.778859 78.563893 59.726563 78.449096 59.726562 78.322266 C 59.726562 78.252676 59.739552 78.1903 59.763672 78.132812 L 59.763672 78.130859 C 59.790702 78.071829 59.825252 78.024352 59.865234 77.984375 A 0.05175741 0.05175741 0 0 0 59.865234 77.982422 C 59.905714 77.940182 59.959144 77.902212 60.027344 77.867188 A 0.05175741 0.05175741 0 0 0 60.027344 77.865234 C 60.099624 77.827184 60.170489 77.797961 60.236328 77.775391 C 60.301718 77.751101 60.382746 77.728134 60.478516 77.708984 C 60.577276 77.689624 60.663864 77.675609 60.736328 77.667969 C 60.808978 77.658369 60.897064 77.650351 61.001953 77.644531 A 0.05175741 0.05175741 0 0 0 61.003906 77.644531 C 61.110898 77.636731 61.195759 77.632769 61.255859 77.630859 C 61.304069 77.629359 61.369527 77.628453 61.435547 77.626953 z M 66.455078 77.626953 L 66.455078 78.121094 C 66.353603 78.303714 66.203465 78.466266 66 78.611328 C 65.795496 78.757132 65.586776 78.830078 65.373047 78.830078 C 65.164491 78.830078 65.014286 78.776198 64.908203 78.671875 C 64.798389 78.563893 64.746094 78.449096 64.746094 78.322266 C 64.746094 78.252676 64.759083 78.1903 64.783203 78.132812 L 64.783203 78.130859 C 64.810233 78.071829 64.844783 78.024352 64.884766 77.984375 A 0.05175741 0.05175741 0 0 0 64.884766 77.982422 C 64.925246 77.940182 64.978676 77.902212 65.046875 77.867188 A 0.05175741 0.05175741 0 0 0 65.046875 77.865234 C 65.119155 77.827184 65.190021 77.797961 65.255859 77.775391 C 65.321249 77.751101 65.402277 77.728134 65.498047 77.708984 C 65.596807 77.689624 65.683396 77.675609 65.755859 77.667969 C 65.828509 77.658369 65.916596 77.650351 66.021484 77.644531 A 0.05175741 0.05175741 0 0 0 66.023438 77.644531 C 66.130428 77.636731 66.21529 77.632769 66.275391 77.630859 C 66.323601 77.629359 66.389058 77.628453 66.455078 77.626953 z " />
      </g>
    </g>
  </g>
</svg>
