<?xml version="1.0" encoding="UTF-8" standalone="no"?>
<svg
   xmlns:dc="http://purl.org/dc/elements/1.1/"
   xmlns:cc="http://creativecommons.org/ns#"
   xmlns:rdf="http://www.w3.org/1999/02/22-rdf-syntax-ns#"
   xmlns:svg="http://www.w3.org/2000/svg"
   xmlns="http://www.w3.org/2000/svg"
   xmlns:sodipodi="http://sodipodi.sourceforge.net/DTD/sodipodi-0.dtd"
   xmlns:inkscape="http://www.inkscape.org/namespaces/inkscape"
   width="32"
   height="32"
   viewBox="0 0 8.4666667 8.4666667"
   version="1.1"
   id="svg8"
   inkscape:version="1.0 (6e3e5246a0, 2020-05-07)"
   sodipodi:docname="icon-contacttype.svg">
  <defs
     id="defs2" />
  <sodipodi:namedview
     id="base"
     pagecolor="#ffffff"
     bordercolor="#666666"
     borderopacity="1.0"
     inkscape:pageopacity="0.0"
     inkscape:pageshadow="2"
     inkscape:zoom="15.839192"
     inkscape:cx="33.335392"
     inkscape:cy="15.143601"
     inkscape:document-units="mm"
     inkscape:current-layer="layer1"
     inkscape:document-rotation="0"
     showgrid="false"
     units="px"
     inkscape:window-width="1879"
     inkscape:window-height="1025"
     inkscape:window-x="41"
     inkscape:window-y="27"
     inkscape:window-maximized="1" />
  <metadata
     id="metadata5">
    <rdf:RDF>
      <cc:Work
         rdf:about="">
        <dc:format>image/svg+xml</dc:format>
        <dc:type
           rdf:resource="http://purl.org/dc/dcmitype/StillImage" />
        <dc:title></dc:title>
      </cc:Work>
    </rdf:RDF>
  </metadata>
  <g
     inkscape:label="Layer 1"
     inkscape:groupmode="layer"
     id="layer1">
    <g
       id="g10"
       transform="matrix(0.02117297,0,0,0.02117297,-0.59843047,1.3885096)" />
    <g
       id="g12"
       transform="matrix(0.02117297,0,0,0.02117297,-0.59843047,1.3885096)" />
    <g
       id="g14"
       transform="matrix(0.02117297,0,0,0.02117297,-0.59843047,1.3885096)" />
    <g
       id="g16"
       transform="matrix(0.02117297,0,0,0.02117297,-0.59843047,1.3885096)" />
    <g
       id="g18"
       transform="matrix(0.02117297,0,0,0.02117297,-0.59843047,1.3885096)" />
    <g
       id="g20"
       transform="matrix(0.02117297,0,0,0.02117297,-0.59843047,1.3885096)" />
    <g
       id="g22"
       transform="matrix(0.02117297,0,0,0.02117297,-0.59843047,1.3885096)" />
    <g
       id="g24"
       transform="matrix(0.02117297,0,0,0.02117297,-0.59843047,1.3885096)" />
    <g
       id="g26"
       transform="matrix(0.02117297,0,0,0.02117297,-0.59843047,1.3885096)" />
    <g
       id="g28"
       transform="matrix(0.02117297,0,0,0.02117297,-0.59843047,1.3885096)" />
    <g
       id="g30"
       transform="matrix(0.02117297,0,0,0.02117297,-0.59843047,1.3885096)" />
    <g
       id="g32"
       transform="matrix(0.02117297,0,0,0.02117297,-0.59843047,1.3885096)" />
    <g
       id="g34"
       transform="matrix(0.02117297,0,0,0.02117297,-0.59843047,1.3885096)" />
    <g
       id="g36"
       transform="matrix(0.02117297,0,0,0.02117297,-0.59843047,1.3885096)" />
    <g
       id="g38"
       transform="matrix(0.02117297,0,0,0.02117297,-0.59843047,1.3885096)" />
    <path
       sodipodi:nodetypes="ccccccccc"
       id="path880"
       d="M 0.29367228,4.5773419 C 0.64360058,3.1306647 1.3777438,1.9183346 2.4667063,0.95695978 3.1511844,0.84787728 3.7613815,0.81476568 4.1766795,0.98098708 4.161523,1.4405205 3.7782278,2.1005929 3.3607858,2.338244 L 2.8675182,2.1361601 C 2.0803814,2.6517871 1.5489558,3.3831787 1.3865111,4.159336 L 1.7251294,4.8263607 C 1.6637716,5.4412033 1.3534329,6.0144853 1.0121565,6.1335113 0.63156278,5.8905398 0.31750318,5.3747583 0.29367228,4.5773419 Z"
       style="fill:#000000;stroke:none;stroke-width:0.264583px;stroke-linecap:butt;stroke-linejoin:miter;stroke-opacity:1" />
    <path
       sodipodi:nodetypes="cccccccccccccccc"
       id="path884"
       d="m 2.3392067,3.2897325 5.751823,-0.00493 -0.021595,4.2889394 -5.7499206,-0.012125 z m 0.4231948,0.7840554 -1.19e-5,3.148011 4.8728649,0.048078 0.024639,-3.1891248 -1.0102203,0.9944937 C 6.5630475,4.8481701 6.4408205,4.6432416 6.1978935,4.4859041 L 6.9334114,3.7648062 3.4968819,3.7869707 4.232951,4.4428243 C 4.0579854,4.5740511 3.8917016,4.7331015 3.7632299,5.0133327 Z"
       style="fill:#000000;stroke:none;stroke-width:0.264583px;stroke-linecap:butt;stroke-linejoin:miter;stroke-opacity:1" />
    <g
       style="font-style:normal;font-weight:normal;font-size:3.12456px;line-height:1.25;font-family:sans-serif;letter-spacing:0px;word-spacing:0px;fill:#000000;fill-opacity:1;stroke:none;stroke-width:0.0781144"
       id="text888"
       transform="matrix(0.99027795,0,0,1.0098175,0,-0.44564488)"
       aria-label="@">
      <path
         id="path890"
         style="font-style:normal;font-variant:normal;font-weight:bold;font-stretch:normal;font-family:sans-serif;-inkscape-font-specification:'sans-serif Bold';stroke-width:0.0781144"
         d="m 4.9081553,6.1357154 q 0,0.1876567 0.079334,0.2959788 0.08086,0.1083222 0.21817,0.1083222 0.1357841,0 0.2166443,-0.1083222 0.08086,-0.1098478 0.08086,-0.2959788 0,-0.1846054 -0.082386,-0.2914019 -0.08086,-0.1083221 -0.2181699,-0.1083221 -0.1342585,0 -0.2151187,0.1083221 Q 4.908155,5.95111 4.9081553,6.1357154 Z M 5.5336776,6.5949403 Q 5.4879076,6.7032624 5.3856882,6.764289 5.2849943,6.82379 5.1492102,6.82379 4.886796,6.82379 4.7220243,6.6346077 4.5587782,6.4438996 4.5587782,6.1387668 q 0,-0.3051328 0.1647717,-0.4958408 0.1647718,-0.190708 0.4256603,-0.190708 0.1357841,0 0.236478,0.061026 0.1022195,0.061027 0.1479894,0.1693487 V 5.4827311 H 5.8525414 V 6.5400164 Q 6.0417237,6.5110288 6.1500459,6.3584623 6.258368,6.2043703 6.258368,5.964841 6.258368,5.8122746 6.214124,5.6795418 6.1698795,5.5452834 6.0798653,5.4339099 5.9349272,5.2477789 5.7167573,5.147085 5.500113,5.0463912 5.2468527,5.0463912 q -0.176977,0 -0.3386974,0.047296 Q 4.7464349,5.1394567 4.6091251,5.2294709 4.3833268,5.378986 4.2566967,5.6169896 4.1315923,5.8534675 4.1315923,6.1296127 q 0,0.227324 0.08086,0.427186 0.082386,0.1983363 0.2364779,0.3509027 0.1525664,0.1495151 0.3493771,0.227324 0.1983363,0.079334 0.4226089,0.079334 0.1922337,0 0.3844674,-0.071706 0.1922337,-0.071706 0.3280178,-0.1937593 l 0.163246,0.2471575 q -0.190708,0.1479895 -0.4165063,0.2257983 -0.2242726,0.079335 -0.4561735,0.079335 -0.2822479,0 -0.5324568,-0.1006939 Q 4.4413021,7.3013228 4.2460171,7.1106148 4.0507321,6.9199067 3.9485126,6.6696978 3.8462931,6.4179632 3.8462931,6.1296127 q 0,-0.2776708 0.1037451,-0.5294054 Q 4.0537834,5.3484727 4.2460171,5.1577647 4.4382507,4.9685823 4.6930367,4.8648372 4.9493482,4.761092 5.2239678,4.761092 q 0.3417487,0 0.6209453,0.1312071 0.2791965,0.1296815 0.4668532,0.3753134 0.1144248,0.1495151 0.1724,0.3249665 0.059501,0.1739257 0.059501,0.3661593 0,0.413455 -0.2486832,0.6423046 -0.2486833,0.2288497 -0.7018055,0.2288497 h -0.059501 z" />
    </g>
  </g>
</svg>
