<?xml version="1.0" encoding="UTF-8" standalone="no"?>
<!-- Created with Inkscape (http://www.inkscape.org/) -->

<svg
   xmlns:dc="http://purl.org/dc/elements/1.1/"
   xmlns:cc="http://creativecommons.org/ns#"
   xmlns:rdf="http://www.w3.org/1999/02/22-rdf-syntax-ns#"
   xmlns:svg="http://www.w3.org/2000/svg"
   xmlns="http://www.w3.org/2000/svg"
   xmlns:sodipodi="http://sodipodi.sourceforge.net/DTD/sodipodi-0.dtd"
   xmlns:inkscape="http://www.inkscape.org/namespaces/inkscape"
   width="48"
   height="48"
   viewBox="0 0 12.7 12.7"
   version="1.1"
   id="svg8"
   inkscape:version="0.92.5 (0.92.5+68)"
   sodipodi:docname="icon-unposting.svg">
  <defs
     id="defs2" />
  <sodipodi:namedview
     id="base"
     pagecolor="#ffffff"
     bordercolor="#666666"
     borderopacity="1.0"
     inkscape:pageopacity="0.0"
     inkscape:pageshadow="2"
     inkscape:zoom="4.0138227"
     inkscape:cx="-27.034194"
     inkscape:cy="5.7778454"
     inkscape:document-units="mm"
     inkscape:current-layer="layer1"
     showgrid="false"
     units="px"
     showguides="true"
     inkscape:window-width="1325"
     inkscape:window-height="747"
     inkscape:window-x="41"
     inkscape:window-y="21"
     inkscape:window-maximized="1"
     inkscape:guide-bbox="true"
     inkscape:snap-grids="false"
     inkscape:snap-to-guides="false"
     inkscape:snap-others="false"
     inkscape:object-nodes="false"
     inkscape:snap-nodes="false"
     inkscape:snap-global="false">
    <sodipodi:guide
       position="-4.0704595,11.680449"
       orientation="0,1"
       id="guide815"
       inkscape:locked="false" />
    <sodipodi:guide
       position="-2.5071671,2.6546475"
       orientation="0,1"
       id="guide817"
       inkscape:locked="false" />
  </sodipodi:namedview>
  <metadata
     id="metadata5">
    <rdf:RDF>
      <cc:Work
         rdf:about="">
        <dc:format>image/svg+xml</dc:format>
        <dc:type
           rdf:resource="http://purl.org/dc/dcmitype/StillImage" />
        <dc:title></dc:title>
      </cc:Work>
    </rdf:RDF>
  </metadata>
  <g
     inkscape:label="Layer 1"
     inkscape:groupmode="layer"
     id="layer1"
     transform="translate(0,-284.3)">
    <path
       style="opacity:1;fill:#ff0000;fill-opacity:1;stroke:none;stroke-width:1.00157475;stroke-miterlimit:4;stroke-dasharray:none;stroke-dashoffset:0;stroke-opacity:1"
       d="M 9.6171875 3.8535156 C 5.2500523 3.8535156 1.734375 7.369193 1.734375 11.736328 L 1.734375 34.126953 C 1.734375 38.494088 5.2500523 42.009766 9.6171875 42.009766 L 34.527344 42.009766 C 38.894479 42.009766 42.410156 38.494088 42.410156 34.126953 L 42.410156 13.929688 L 36.419922 20.888672 L 36.419922 30.230469 C 36.419922 33.171146 34.052006 35.539063 31.111328 35.539062 L 12.736328 35.539062 C 9.7956506 35.539062 7.4277344 33.171146 7.4277344 30.230469 L 7.4277344 15.154297 C 7.4277344 12.213619 9.7956506 9.8457031 12.736328 9.8457031 L 18.470703 9.8457031 L 23.40625 3.8535156 L 9.6171875 3.8535156 z "
       transform="matrix(0.26458333,0,0,0.26458333,0,284.3)"
       id="rect868" />
    <path
       id="path823"
       style="fill:#ff0000;fill-rule:evenodd;stroke:none;stroke-width:0.26458332px;stroke-linecap:butt;stroke-linejoin:miter;stroke-opacity:1"
       d="m 5.5532167,289.21306 c 1.3587288,-1.10779 2.8658708,-2.35379 4.056823,-2.84239 l 0.8978493,0.91147 c -1.2125188,0.92218 -2.6239116,2.22812 -3.5448696,3.44186 l 2.0348372,2.21725 -1.3889914,1.03055 -1.7974502,-1.94771 c -1.3066617,1.44712 -1.3717899,1.41853 -1.8685029,1.94771 l -1.9124166,-1.76985 2.2249342,-1.90585 -2.0457094,-2.37314 1.2691911,-0.98076 z"
       inkscape:connector-curvature="0"
       sodipodi:nodetypes="ccccccccccccc" />
  </g>
</svg>
