<?xml version="1.0" encoding="UTF-8" standalone="no"?>
<svg
   xmlns:dc="http://purl.org/dc/elements/1.1/"
   xmlns:cc="http://creativecommons.org/ns#"
   xmlns:rdf="http://www.w3.org/1999/02/22-rdf-syntax-ns#"
   xmlns:svg="http://www.w3.org/2000/svg"
   xmlns="http://www.w3.org/2000/svg"
   xmlns:sodipodi="http://sodipodi.sourceforge.net/DTD/sodipodi-0.dtd"
   xmlns:inkscape="http://www.inkscape.org/namespaces/inkscape"
   width="32"
   height="32"
   viewBox="0 0 8.4666667 8.4666667"
   version="1.1"
   id="svg8"
   inkscape:version="1.0.1 (0767f8302a, 2020-10-17)"
   sodipodi:docname="icon-accounting.svg">
  <defs
     id="defs2" />
  <sodipodi:namedview
     id="base"
     pagecolor="#7a7a7a"
     bordercolor="#666666"
     borderopacity="1.0"
     inkscape:pageopacity="0"
     inkscape:pageshadow="2"
     inkscape:zoom="8"
     inkscape:cx="-7.267541"
     inkscape:cy="6.1512884"
     inkscape:document-units="mm"
     inkscape:current-layer="layer1"
     inkscape:document-rotation="0"
     showgrid="false"
     inkscape:window-width="1874"
     inkscape:window-height="1016"
     inkscape:window-x="46"
     inkscape:window-y="27"
     inkscape:window-maximized="1"
     units="px"
     inkscape:snap-global="false" />
  <metadata
     id="metadata5">
    <rdf:RDF>
      <cc:Work
         rdf:about="">
        <dc:format>image/svg+xml</dc:format>
        <dc:type
           rdf:resource="http://purl.org/dc/dcmitype/StillImage" />
        <dc:title></dc:title>
      </cc:Work>
    </rdf:RDF>
  </metadata>
  <g
     inkscape:label="Layer 1"
     inkscape:groupmode="layer"
     id="layer1">
    <path
       id="path1712"
       style="color:#000000;font-style:normal;font-variant:normal;font-weight:normal;font-stretch:normal;font-size:medium;line-height:normal;font-family:sans-serif;font-variant-ligatures:normal;font-variant-position:normal;font-variant-caps:normal;font-variant-numeric:normal;font-variant-alternates:normal;font-variant-east-asian:normal;font-feature-settings:normal;font-variation-settings:normal;text-indent:0;text-align:start;text-decoration:none;text-decoration-line:none;text-decoration-style:solid;text-decoration-color:#000000;letter-spacing:normal;word-spacing:normal;text-transform:none;writing-mode:lr-tb;direction:ltr;text-orientation:mixed;dominant-baseline:auto;baseline-shift:baseline;text-anchor:start;white-space:normal;shape-padding:0;shape-margin:0;inline-size:0;clip-rule:nonzero;display:inline;overflow:visible;visibility:visible;opacity:0.94;isolation:auto;mix-blend-mode:normal;color-interpolation:sRGB;color-interpolation-filters:linearRGB;solid-color:#000000;solid-opacity:1;vector-effect:none;fill:#ffffff;fill-opacity:0.72766769;fill-rule:nonzero;stroke:none;stroke-width:2.51339;stroke-linecap:round;stroke-linejoin:miter;stroke-miterlimit:4;stroke-dasharray:none;stroke-dashoffset:0;stroke-opacity:1;color-rendering:auto;image-rendering:auto;shape-rendering:auto;text-rendering:auto;enable-background:accumulate;stop-color:#000000;stop-opacity:1"
       d="M 10.216797 0.67382812 L 10.216797 1.9355469 L 10.216797 17.628906 L 12.734375 17.677734 L 12.734375 17.416016 L 16.46875 17.416016 L 16.46875 17.804688 C 17.287083 18.055992 17.948952 18.377567 18.484375 18.769531 L 18.484375 17.416016 L 22.289062 17.416016 L 22.289062 19.773438 L 19.482422 19.773438 C 19.855206 20.331098 20.067168 20.998123 20.158203 21.763672 L 22.289062 21.763672 L 22.289062 24.033203 L 20.103516 24.033203 C 20.004557 24.819375 19.866373 25.500467 19.677734 26.023438 L 22.289062 26.023438 L 22.289062 28.310547 L 18.484375 28.310547 L 18.484375 27.798828 C 17.916564 28.248172 17.311001 28.405288 16.826172 28.517578 C 16.109725 28.599607 15.150506 28.586339 14.533203 28.310547 L 14.117188 28.310547 L 14.158203 30.828125 L 30.841797 30.828125 L 30.841797 0.67382812 L 10.216797 0.67382812 z M 12.734375 3.1914062 L 28.332031 3.1914062 L 28.332031 8.3964844 L 12.734375 8.3964844 L 12.734375 3.1914062 z M 12.734375 12.681641 L 16.46875 12.681641 L 16.46875 15.423828 L 12.734375 15.423828 L 12.734375 12.681641 z M 18.484375 12.681641 L 22.289062 12.681641 L 22.289062 15.423828 L 18.484375 15.423828 L 18.484375 12.681641 z M 24.304688 12.681641 L 28.332031 12.681641 L 28.332031 15.423828 L 24.304688 15.423828 L 24.304688 12.681641 z M 24.304688 17.416016 L 28.332031 17.416016 L 28.332031 19.773438 L 24.304688 19.773438 L 24.304688 17.416016 z M 24.304688 21.763672 L 28.332031 21.763672 L 28.332031 24.033203 L 24.304688 24.033203 L 24.304688 21.763672 z M 24.304688 26.023438 L 28.332031 26.023438 L 28.332031 28.310547 L 24.304688 28.310547 L 24.304688 26.023438 z "
       transform="scale(0.26458333)" />
    <text
       xml:space="preserve"
       style="font-style:normal;font-weight:normal;font-size:3.77143px;line-height:1.25;font-family:sans-serif;fill:#ffffff;fill-opacity:1;stroke:none;stroke-width:0.264583;"
       x="-0.31076863"
       y="6.9745755"
       id="text1776"
       transform="scale(0.9711775,1.0296779)"><tspan
         sodipodi:role="line"
         id="tspan1774"
         x="-0.31076863"
         y="6.9745755"
         style="font-weight:bold;fill:#ffffff;stroke-width:0.264583;fill-opacity:1;">Rp</tspan></text>
  </g>
</svg>
