<?xml version="1.0" encoding="UTF-8" standalone="no"?>
<svg
   xmlns:dc="http://purl.org/dc/elements/1.1/"
   xmlns:cc="http://creativecommons.org/ns#"
   xmlns:rdf="http://www.w3.org/1999/02/22-rdf-syntax-ns#"
   xmlns:svg="http://www.w3.org/2000/svg"
   xmlns="http://www.w3.org/2000/svg"
   xmlns:sodipodi="http://sodipodi.sourceforge.net/DTD/sodipodi-0.dtd"
   xmlns:inkscape="http://www.inkscape.org/namespaces/inkscape"
   width="32"
   height="32"
   viewBox="0 0 8.4666667 8.4666667"
   version="1.1"
   id="svg8"
   inkscape:version="1.0.1 (0767f8302a, 2020-10-17)"
   sodipodi:docname="icon-orderapprove-white.svg">
  <defs
     id="defs2" />
  <sodipodi:namedview
     id="base"
     pagecolor="#7a7a7a"
     bordercolor="#666666"
     borderopacity="1.0"
     inkscape:pageopacity="0"
     inkscape:pageshadow="2"
     inkscape:zoom="16"
     inkscape:cx="6.1983297"
     inkscape:cy="23.733543"
     inkscape:document-units="mm"
     inkscape:current-layer="layer1"
     inkscape:document-rotation="0"
     showgrid="false"
     inkscape:window-width="1874"
     inkscape:window-height="1016"
     inkscape:window-x="46"
     inkscape:window-y="27"
     inkscape:window-maximized="1"
     units="px"
     inkscape:snap-global="false" />
  <metadata
     id="metadata5">
    <rdf:RDF>
      <cc:Work
         rdf:about="">
        <dc:format>image/svg+xml</dc:format>
        <dc:type
           rdf:resource="http://purl.org/dc/dcmitype/StillImage" />
        <dc:title></dc:title>
      </cc:Work>
    </rdf:RDF>
  </metadata>
  <g
     inkscape:label="Layer 1"
     inkscape:groupmode="layer"
     id="layer1">
    <path
       id="rect4246"
       style="opacity:1;fill:#ffffff;fill-opacity:0.58647883;stroke:none;stroke-width:2.51339;stroke-linecap:round"
       d="M 5.5351562,0.77734375 V 17.357422 L 7.6542969,16.466797 V 2.9511719 H 25.035156 V 25.894531 h -4.980468 l -1.533204,2.464844 h 8.820313 V 0.77734375 Z M 7.6542969,20.896484 5.5351562,21.787109 v 3.191407 l 2.1191407,-0.890625 z"
       transform="scale(0.26458333)"
       sodipodi:nodetypes="cccccccccccccccc" />
    <path
       style="color:#000000;font-style:normal;font-variant:normal;font-weight:normal;font-stretch:normal;font-size:medium;line-height:normal;font-family:sans-serif;font-variant-ligatures:normal;font-variant-position:normal;font-variant-caps:normal;font-variant-numeric:normal;font-variant-alternates:normal;font-variant-east-asian:normal;font-feature-settings:normal;font-variation-settings:normal;text-indent:0;text-align:start;text-decoration:none;text-decoration-line:none;text-decoration-style:solid;text-decoration-color:#000000;letter-spacing:normal;word-spacing:normal;text-transform:none;writing-mode:lr-tb;direction:ltr;text-orientation:mixed;dominant-baseline:auto;baseline-shift:baseline;text-anchor:start;white-space:normal;shape-padding:0;shape-margin:0;inline-size:0;clip-rule:nonzero;display:inline;overflow:visible;visibility:visible;isolation:auto;mix-blend-mode:normal;color-interpolation:sRGB;color-interpolation-filters:linearRGB;solid-color:#000000;solid-opacity:1;vector-effect:none;fill:#ffffff;fill-opacity:1;fill-rule:nonzero;stroke:none;stroke-width:0.365;stroke-linecap:butt;stroke-linejoin:miter;stroke-miterlimit:4;stroke-dasharray:none;stroke-dashoffset:0;stroke-opacity:1;color-rendering:auto;image-rendering:auto;shape-rendering:auto;text-rendering:auto;enable-background:accumulate;stop-color:#000000;stop-opacity:1;opacity:1"
       d="M 8.3066406 4.4746094 C 8.167978 4.4741113 7.9804585 4.4699244 7.796875 4.4941406 L 7.7949219 4.4941406 C 7.0058455 4.6102859 6.4707872 4.9718805 6.015625 5.5195312 C 6.0563175 5.3825331 6.0716465 5.2879486 6.1523438 5.1132812 C 6.1596771 5.101352 6.1742263 5.0837799 6.1816406 5.0722656 C 6.1903145 5.0604544 6.1978376 5.0495247 6.203125 5.0410156 C 6.2039204 5.0404121 6.2070049 5.0371364 6.2070312 5.0371094 C 6.2070707 5.037069 6.2131231 5.02844 6.2148438 5.0253906 C 6.2150527 5.0250202 6.2146147 5.0238438 6.2148438 5.0234375 C 6.2175097 5.0191539 6.2163729 5.0202203 6.2167969 5.0195312 C 6.2290901 4.9976873 6.2538394 4.9533888 6.2539062 4.953125 C 6.2539907 4.9527914 6.2520796 4.8519634 6.2519531 4.8515625 C 6.2518266 4.8511616 6.2230194 4.7954006 6.2226562 4.7949219 C 6.2225448 4.794775 6.1407693 4.7344295 6.140625 4.734375 C 6.1404807 4.7343205 6.041192 4.7265284 6.0410156 4.7265625 C 6.0409291 4.7265792 6.0274948 4.7331484 6.0136719 4.7382812 C 6.0099635 4.7391922 6.0109961 4.7387042 6.0058594 4.7402344 C 5.995859 4.7439516 5.9844533 4.7480021 5.984375 4.7480469 C 5.9838217 4.7482674 5.9829889 4.7478141 5.9824219 4.7480469 C 5.9764546 4.7504961 5.9724957 4.7516671 5.9648438 4.7558594 C 5.9561012 4.7606492 5.936046 4.774982 5.9355469 4.7753906 C 5.9350477 4.7757992 5.9026957 4.8120125 5.9023438 4.8125 C 5.8798648 4.8435998 5.8740514 4.8568909 5.8613281 4.8789062 C 5.8486048 4.9009216 5.8345969 4.9246288 5.8339844 4.9257812 L 5.8320312 4.9296875 L 5.8300781 4.9335938 C 5.8275627 4.9388956 5.8286462 4.9400298 5.8261719 4.9453125 C 5.6507791 5.2339648 5.4737616 5.5005465 5.2753906 5.7441406 C 5.279878 5.7337278 5.2824933 5.7171866 5.2871094 5.7070312 L 5.2871094 5.7050781 L 5.2871094 5.703125 C 5.2981701 5.6773658 5.3301652 5.6038941 5.3554688 5.5195312 C 5.3681205 5.4773498 5.3809941 5.4323568 5.3867188 5.3828125 C 5.3924434 5.3332682 5.3986487 5.2776517 5.3613281 5.2011719 C 5.3102241 5.0964378 5.2493698 5.0982191 5.2167969 5.0898438 C 5.184224 5.0814684 5.1590765 5.0795191 5.1347656 5.078125 C 5.0861439 5.0753368 5.0647903 5.072145 5.0058594 5.0839844 L 4.9960938 5.0859375 L 4.9863281 5.0878906 C 4.7207345 5.172643 4.6078771 5.4052874 4.4726562 5.609375 C 4.4716581 5.5920059 4.4707085 5.5742381 4.4707031 5.5742188 C 4.4706911 5.5741757 4.4297203 5.5000357 4.4296875 5.5 C 4.4296547 5.4999643 4.3789604 5.4609656 4.3789062 5.4609375 C 4.3788521 5.4609094 4.3418731 5.4453329 4.3417969 5.4453125 C 4.3416445 5.4452718 4.3010254 5.4394617 4.3007812 5.4394531 C 4.3002929 5.4394361 4.2742606 5.4404964 4.2675781 5.4414062 L 4.2441406 5.4453125 L 4.2207031 5.4550781 C 4.1185637 5.4982303 4.1107487 5.5193444 4.0195312 5.5410156 L 4.0175781 5.5410156 C 3.8481803 5.5835569 3.6556041 5.6390472 3.4707031 5.6953125 C 3.419636 5.5214372 3.3771633 5.3464238 3.28125 5.1855469 C 3.1580829 4.9789568 2.9504052 4.8031484 2.640625 4.7246094 L 2.6367188 4.7246094 L 2.6328125 4.7226562 C 2.0566376 4.6071363 1.4575999 4.9012177 0.97460938 5.2207031 C 0.49161881 5.5401886 0.13436206 5.8853349 0.03125 6.0019531 L 0.3046875 6.2441406 C 0.35643099 6.1856195 0.72741934 5.8219702 1.1757812 5.5253906 C 1.6228126 5.2296912 2.1574297 5.00398 2.5566406 5.0820312 C 2.7821764 5.1410479 2.885979 5.2322606 2.96875 5.3710938 C 3.0336444 5.4799421 3.0800371 5.6481989 3.1308594 5.8164062 C 2.9522495 5.8682282 2.7429525 5.9166312 2.4492188 6.0917969 L 2.4414062 6.0957031 L 2.4335938 6.1015625 C 2.2752848 6.2207919 2.079934 6.3746402 1.9257812 6.5859375 C 1.7716285 6.7972348 1.6632398 7.0746906 1.6953125 7.40625 C 1.724105 7.7038993 1.8459111 8.0505585 2.078125 8.2714844 C 2.110281 8.3020771 2.1523871 8.3373581 2.2089844 8.3691406 C 2.2655817 8.4009231 2.3401193 8.4341789 2.4394531 8.4199219 C 2.5561191 8.4031774 2.6243188 8.3414999 2.6894531 8.2792969 C 2.7545875 8.2170939 2.812775 8.1440381 2.8671875 8.0703125 C 2.9760125 7.9228613 3.0695099 7.7671509 3.1015625 7.7167969 C 3.4108327 7.2309417 3.5390321 6.6710562 3.4785156 6.0722656 C 3.6366605 6.0221254 3.8017319 5.9777118 3.9609375 5.9355469 C 3.8853697 6.1370609 3.7612756 6.3569738 3.7441406 6.4902344 L 3.7441406 6.4941406 L 3.7441406 6.5 C 3.7330092 6.6486074 3.7186037 6.789355 3.7402344 6.9394531 C 3.761865 7.0895512 3.8273657 7.2442474 3.9511719 7.3847656 C 3.9760893 7.4130481 4.0015334 7.4672404 4.109375 7.5136719 L 4.1875 7.546875 L 4.265625 7.5078125 C 4.6415263 7.315508 4.8382374 6.9789263 4.9667969 6.6445312 C 4.9962926 6.5678103 5.0160875 6.5062676 5.0410156 6.4296875 C 5.1119934 6.4024605 5.1944327 6.3751307 5.2832031 6.3242188 L 5.2910156 6.3203125 L 5.2988281 6.3144531 C 5.3924669 6.2457611 5.399238 6.1511114 5.4726562 6.0703125 C 5.4248895 6.2568566 5.3719235 6.4539722 5.3515625 6.5957031 L 5.3242188 6.7832031 L 5.515625 6.8027344 C 5.5163545 6.8028069 5.5676302 6.8009173 5.5683594 6.8007812 C 5.5690885 6.8006452 5.6003449 6.7930676 5.6132812 6.7871094 C 5.6391539 6.7751928 5.6556359 6.760015 5.6679688 6.7480469 C 5.6926344 6.7241106 5.7029793 6.7078961 5.7109375 6.6933594 C 5.7268539 6.664286 5.7327876 6.6422647 5.7402344 6.6210938 C 5.7551279 6.5787519 5.7683504 6.5370829 5.7773438 6.515625 C 5.8328242 6.3832488 5.8789951 6.2587771 5.9355469 6.1523438 C 6.4080665 5.3108178 6.9020516 4.9968182 7.8457031 4.8574219 C 7.991477 4.8381931 8.1648715 4.8393345 8.3066406 4.8398438 L 8.3066406 4.4746094 z M 4.9335938 5.6132812 C 4.8621375 5.7817651 4.8122111 5.9505896 4.7597656 6.1230469 C 4.7559321 6.1219309 4.7463244 6.1268392 4.7421875 6.125 C 4.6991883 6.0857763 4.6559336 6.0482666 4.6347656 6.0214844 C 4.6205566 6.0035068 4.6186704 5.980915 4.6113281 5.9628906 C 4.6900523 5.8218809 4.8134035 5.7197184 4.9335938 5.6132812 z M 4.2792969 6.0742188 C 4.3019299 6.1346153 4.3153184 6.2046611 4.3496094 6.2480469 C 4.4097014 6.3240767 4.4736677 6.3743952 4.5273438 6.4238281 L 4.5449219 6.4414062 L 4.5683594 6.453125 C 4.5976027 6.4678152 4.6173955 6.4440972 4.6464844 6.4511719 C 4.6393562 6.4709717 4.6324552 6.4942803 4.625 6.5136719 C 4.5305951 6.7592279 4.3789475 6.9273445 4.1894531 7.0683594 C 4.1511138 7.0086018 4.1109963 6.9521811 4.1015625 6.8867188 C 4.0885778 6.7966164 4.0965006 6.6814003 4.1074219 6.5351562 C 4.1230956 6.4132593 4.2144818 6.241695 4.2792969 6.0742188 z M 3.1054688 6.2167969 C 3.1245634 6.6709712 3.0601396 7.099813 2.7929688 7.5195312 C 2.7504133 7.586385 2.6682565 7.7261003 2.5742188 7.8535156 C 2.5271999 7.9172233 2.4777303 7.9772052 2.4375 8.015625 C 2.3972697 8.0540448 2.3625503 8.0623429 2.3886719 8.0585938 C 2.4129985 8.0551022 2.4064495 8.0607644 2.3886719 8.0507812 C 2.3708943 8.0407981 2.3459199 8.020931 2.3300781 8.0058594 C 2.2051516 7.8870056 2.0788863 7.5808726 2.0585938 7.3710938 C 2.0355643 7.133021 2.1052261 6.9590657 2.2207031 6.8007812 C 2.3348301 6.6443473 2.4971143 6.5126193 2.6484375 6.3984375 C 2.8376383 6.2874404 2.956855 6.2660063 3.1054688 6.2167969 z "
       id="path4405" />
    <ellipse
       style="fill:#ffffff;stroke-width:0.600001;stroke-linecap:round;stroke-linejoin:round"
       id="path2144"
       cx="3.2582781"
       cy="1.6067308"
       rx="0.48021185"
       ry="0.48504221" />
    <rect
       style="fill:#ffffff;stroke-width:0.600001;stroke-linecap:round;stroke-linejoin:round"
       id="rect2146"
       width="1.776606"
       height="0.4747358"
       x="4.1660089"
       y="1.3633542" />
    <ellipse
       style="fill:#ffffff;stroke-width:0.600001;stroke-linecap:round;stroke-linejoin:round"
       id="path2144-3"
       cx="3.2897131"
       cy="2.9504378"
       rx="0.48021185"
       ry="0.48504224" />
    <rect
       style="fill:#ffffff;stroke-width:0.600001;stroke-linecap:round;stroke-linejoin:round"
       id="rect2146-5"
       width="1.776606"
       height="0.4747358"
       x="4.197444"
       y="2.7070613" />
    <ellipse
       style="fill:#ffffff;stroke-width:0.600001;stroke-linecap:round;stroke-linejoin:round"
       id="path2144-6"
       cx="3.3241351"
       cy="4.3428364"
       rx="0.48021185"
       ry="0.48504224" />
    <rect
       style="fill:#ffffff;stroke-width:0.600001;stroke-linecap:round;stroke-linejoin:round"
       id="rect2146-2"
       width="1.776606"
       height="0.4747358"
       x="4.2318659"
       y="4.0994596" />
  </g>
</svg>
