<?xml version="1.0" encoding="UTF-8" standalone="no"?>
<svg
   xmlns:dc="http://purl.org/dc/elements/1.1/"
   xmlns:cc="http://creativecommons.org/ns#"
   xmlns:rdf="http://www.w3.org/1999/02/22-rdf-syntax-ns#"
   xmlns:svg="http://www.w3.org/2000/svg"
   xmlns="http://www.w3.org/2000/svg"
   xmlns:sodipodi="http://sodipodi.sourceforge.net/DTD/sodipodi-0.dtd"
   xmlns:inkscape="http://www.inkscape.org/namespaces/inkscape"
   width="32"
   height="32"
   viewBox="0 0 8.4666667 8.4666667"
   version="1.1"
   id="svg8"
   inkscape:version="1.0.1 (3bc2e813f5, 2020-09-07)"
   sodipodi:docname="icon-coamodel-white.svg">
  <defs
     id="defs2" />
  <sodipodi:namedview
     id="base"
     pagecolor="#000000"
     bordercolor="#666666"
     borderopacity="1.0"
     inkscape:pageopacity="0"
     inkscape:pageshadow="2"
     inkscape:zoom="11.2"
     inkscape:cx="39.404872"
     inkscape:cy="31.775989"
     inkscape:document-units="mm"
     inkscape:current-layer="layer1"
     inkscape:document-rotation="0"
     showgrid="false"
     inkscape:window-width="1874"
     inkscape:window-height="1016"
     inkscape:window-x="46"
     inkscape:window-y="27"
     inkscape:window-maximized="1"
     units="px"
     inkscape:snap-global="false" />
  <metadata
     id="metadata5">
    <rdf:RDF>
      <cc:Work
         rdf:about="">
        <dc:format>image/svg+xml</dc:format>
        <dc:type
           rdf:resource="http://purl.org/dc/dcmitype/StillImage" />
        <dc:title></dc:title>
      </cc:Work>
    </rdf:RDF>
  </metadata>
  <g
     inkscape:label="Layer 1"
     inkscape:groupmode="layer"
     id="layer1">
    <path
       style="color:#000000;font-style:normal;font-variant:normal;font-weight:normal;font-stretch:normal;font-size:medium;line-height:normal;font-family:sans-serif;font-variant-ligatures:normal;font-variant-position:normal;font-variant-caps:normal;font-variant-numeric:normal;font-variant-alternates:normal;font-variant-east-asian:normal;font-feature-settings:normal;font-variation-settings:normal;text-indent:0;text-align:start;text-decoration:none;text-decoration-line:none;text-decoration-style:solid;text-decoration-color:#000000;letter-spacing:normal;word-spacing:normal;text-transform:none;writing-mode:lr-tb;direction:ltr;text-orientation:mixed;dominant-baseline:auto;baseline-shift:baseline;text-anchor:start;white-space:normal;shape-padding:0;shape-margin:0;inline-size:0;clip-rule:nonzero;display:inline;overflow:visible;visibility:visible;opacity:1;isolation:auto;mix-blend-mode:normal;color-interpolation:sRGB;color-interpolation-filters:linearRGB;solid-color:#000000;solid-opacity:1;vector-effect:none;fill:#f9f9f9;fill-opacity:1;fill-rule:nonzero;stroke:none;stroke-width:0.299844;stroke-linecap:butt;stroke-linejoin:miter;stroke-miterlimit:4;stroke-dasharray:none;stroke-dashoffset:0;stroke-opacity:1;color-rendering:auto;image-rendering:auto;shape-rendering:auto;text-rendering:auto;enable-background:accumulate;stop-color:#000000;stop-opacity:1"
       d="m 0.90050719,0.50465679 c -0.26759627,0 -0.48632807,0.2187318 -0.48632807,0.4863281 V 1.9968443 c 0,0.2675964 0.2187318,0.4882813 0.48632807,0.4882813 H 3.1016791 c 0.2675963,0 0.4882813,-0.2206849 0.4882812,-0.4882813 V 0.99098489 c 10e-8,-0.2675964 -0.2206849,-0.4863281 -0.4882812,-0.4863281 z m 0,0.2988281 H 3.1016791 c 0.1066693,0 0.1875,0.080831 0.1875,0.1875 V 1.9968443 c 0,0.1066692 -0.080831,0.1875 -0.1875,0.1875 H 0.90050719 c -0.1066692,0 -0.18749997,-0.080831 -0.18749997,-0.1875 V 0.99098489 c 0,-0.1066692 0.0808308,-0.1875 0.18749997,-0.1875 z"
       id="path1612" />
    <g
       aria-label="Rp"
       id="text1675"
       style="font-style:normal;font-weight:normal;font-size:10.5833px;line-height:1.25;font-family:sans-serif;fill:#000000;fill-opacity:1;stroke:none;stroke-width:0.936921"
       transform="matrix(0.27780306,0,0,0.2870638,2.982296,6.2532223)">
      <path
         d="m 6.8227738,1.1474942 q 0.6252828,0 0.8939994,-0.23254324 0.2738842,-0.23254321 0.2738842,-0.76480877 0,-0.52709793 -0.2738842,-0.75447351 Q 7.4480566,-0.83170689 6.8227738,-0.83170689 H 5.9856182 V 1.1474942 Z M 5.9856182,2.5220829 V 5.441792 H 3.9960819 v -7.7152668 h 3.0385646 q 1.5244499,0 2.2324147,0.5115951 0.7131325,0.511595 0.7131325,1.61746717 0,0.76480876 -0.3720691,1.25573333 -0.3669015,0.4909245 -1.1110398,0.7234677 0.4082426,0.093017 0.7286354,0.4237454 0.3255605,0.3255605 0.6562886,0.9921844 L 10.962043,5.441792 H 8.8433158 L 7.9028078,3.5246025 Q 7.6185883,2.9458283 7.3240336,2.7339556 7.0346465,2.5220829 6.5488895,2.5220829 Z"
         style="font-style:normal;font-variant:normal;font-weight:bold;font-stretch:normal;font-family:sans-serif;-inkscape-font-specification:'sans-serif Bold';fill:#ffffff;stroke-width:0.936921"
         id="path1677" />
      <path
         d="M 13.90759,4.6046365 V 7.643201 h -1.850011 v -7.98915098 h 1.850011 v 0.84749079 q 0.382404,-0.50642742 0.84749,-0.74413825 0.465087,-0.24287846 1.069699,-0.24287846 1.069699,0 1.756993,0.85265842 0.687295,0.84749078 0.687295,2.18590608 0,1.3384154 -0.687295,2.1910738 -0.687294,0.8474908 -1.756993,0.8474908 -0.604612,0 -1.069699,-0.2377108 -0.465086,-0.2428785 -0.84749,-0.7493059 z m 1.229895,-3.74652944 q -0.594277,0 -0.91467,0.43924824 -0.315225,0.4340807 -0.315225,1.2557333 0,0.8216527 0.315225,1.260901 0.320393,0.4340806 0.91467,0.4340806 0.594277,0 0.904334,-0.4340806 0.315226,-0.4340807 0.315226,-1.260901 0,-0.8268202 -0.315226,-1.2609009 -0.310057,-0.43408064 -0.904334,-0.43408064 z"
         style="font-style:normal;font-variant:normal;font-weight:bold;font-stretch:normal;font-family:sans-serif;-inkscape-font-specification:'sans-serif Bold';fill:#ffffff;stroke-width:0.936921"
         id="path1679" />
    </g>
    <path
       style="color:#000000;font-style:normal;font-variant:normal;font-weight:normal;font-stretch:normal;font-size:medium;line-height:normal;font-family:sans-serif;font-variant-ligatures:normal;font-variant-position:normal;font-variant-caps:normal;font-variant-numeric:normal;font-variant-alternates:normal;font-variant-east-asian:normal;font-feature-settings:normal;font-variation-settings:normal;text-indent:0;text-align:start;text-decoration:none;text-decoration-line:none;text-decoration-style:solid;text-decoration-color:#000000;letter-spacing:normal;word-spacing:normal;text-transform:none;writing-mode:lr-tb;direction:ltr;text-orientation:mixed;dominant-baseline:auto;baseline-shift:baseline;text-anchor:start;white-space:normal;shape-padding:0;shape-margin:0;inline-size:0;clip-rule:nonzero;display:inline;overflow:visible;visibility:visible;opacity:1;isolation:auto;mix-blend-mode:normal;color-interpolation:sRGB;color-interpolation-filters:linearRGB;solid-color:#000000;solid-opacity:1;vector-effect:none;fill:#f9f9f9;fill-opacity:1;fill-rule:nonzero;stroke:none;stroke-width:0.299844;stroke-linecap:butt;stroke-linejoin:miter;stroke-miterlimit:4;stroke-dasharray:none;stroke-dashoffset:0;stroke-opacity:1;color-rendering:auto;image-rendering:auto;shape-rendering:auto;text-rendering:auto;enable-background:accumulate;stop-color:#000000;stop-opacity:1"
       d="m 4.615819,0.49199819 c -0.2675963,0 -0.4863281,0.2187318 -0.4863281,0.4863282 V 1.9841857 c 0,0.2675964 0.2187318,0.4882813 0.4863281,0.4882813 h 2.2011718 c 0.2675964,0 0.4882814,-0.2206849 0.4882814,-0.4882813 V 0.97832639 c 0,-0.2675965 -0.220685,-0.4863282 -0.4882814,-0.4863282 z m 0,0.2988282 h 2.2011718 c 0.1066694,0 0.1875002,0.080831 0.1875002,0.1875 V 1.9841857 c 0,0.1066692 -0.080831,0.1875 -0.1875002,0.1875 H 4.615819 c -0.1066692,0 -0.1875,-0.080831 -0.1875,-0.1875 V 0.97832639 c 0,-0.1066692 0.080831,-0.1875 0.1875,-0.1875 z"
       id="path1612-3" />
    <path
       style="color:#000000;font-style:normal;font-variant:normal;font-weight:normal;font-stretch:normal;font-size:medium;line-height:normal;font-family:sans-serif;font-variant-ligatures:normal;font-variant-position:normal;font-variant-caps:normal;font-variant-numeric:normal;font-variant-alternates:normal;font-variant-east-asian:normal;font-feature-settings:normal;font-variation-settings:normal;text-indent:0;text-align:start;text-decoration:none;text-decoration-line:none;text-decoration-style:solid;text-decoration-color:#000000;letter-spacing:normal;word-spacing:normal;text-transform:none;writing-mode:lr-tb;direction:ltr;text-orientation:mixed;dominant-baseline:auto;baseline-shift:baseline;text-anchor:start;white-space:normal;shape-padding:0;shape-margin:0;inline-size:0;clip-rule:nonzero;display:inline;overflow:visible;visibility:visible;opacity:1;isolation:auto;mix-blend-mode:normal;color-interpolation:sRGB;color-interpolation-filters:linearRGB;solid-color:#000000;solid-opacity:1;vector-effect:none;fill:#f9f9f9;fill-opacity:1;fill-rule:nonzero;stroke:none;stroke-width:0.299844;stroke-linecap:butt;stroke-linejoin:miter;stroke-miterlimit:4;stroke-dasharray:none;stroke-dashoffset:0;stroke-opacity:1;color-rendering:auto;image-rendering:auto;shape-rendering:auto;text-rendering:auto;enable-background:accumulate;stop-color:#000000;stop-opacity:1"
       d="m 0.86851869,3.0183421 c -0.267596,0 -0.486328,0.2187318 -0.486328,0.4863281 v 1.0058594 c 0,0.2675964 0.218732,0.4882813 0.486328,0.4882813 H 3.0696907 c 0.267596,0 0.488281,-0.2206849 0.488281,-0.4882813 V 3.5046702 c 0,-0.2675964 -0.220685,-0.4863281 -0.488281,-0.4863281 z m 0,0.2988281 H 3.0696907 c 0.106669,0 0.1875,0.080831 0.1875,0.1875 v 1.0058594 c 0,0.1066692 -0.08083,0.1875 -0.1875,0.1875 H 0.86851869 c -0.106669,0 -0.1875,-0.080831 -0.1875,-0.1875 V 3.5046702 c 0,-0.1066692 0.08083,-0.1875 0.1875,-0.1875 z"
       id="path1612-2" />
    <path
       style="color:#000000;font-style:normal;font-variant:normal;font-weight:normal;font-stretch:normal;font-size:medium;line-height:normal;font-family:sans-serif;font-variant-ligatures:normal;font-variant-position:normal;font-variant-caps:normal;font-variant-numeric:normal;font-variant-alternates:normal;font-variant-east-asian:normal;font-feature-settings:normal;font-variation-settings:normal;text-indent:0;text-align:start;text-decoration:none;text-decoration-line:none;text-decoration-style:solid;text-decoration-color:#000000;letter-spacing:normal;word-spacing:normal;text-transform:none;writing-mode:lr-tb;direction:ltr;text-orientation:mixed;dominant-baseline:auto;baseline-shift:baseline;text-anchor:start;white-space:normal;shape-padding:0;shape-margin:0;inline-size:0;clip-rule:nonzero;display:inline;overflow:visible;visibility:visible;opacity:1;isolation:auto;mix-blend-mode:normal;color-interpolation:sRGB;color-interpolation-filters:linearRGB;solid-color:#000000;solid-opacity:1;vector-effect:none;fill:#f9f9f9;fill-opacity:1;fill-rule:nonzero;stroke:none;stroke-width:0.299844;stroke-linecap:butt;stroke-linejoin:miter;stroke-miterlimit:4;stroke-dasharray:none;stroke-dashoffset:0;stroke-opacity:1;color-rendering:auto;image-rendering:auto;shape-rendering:auto;text-rendering:auto;enable-background:accumulate;stop-color:#000000;stop-opacity:1"
       d="m 0.90048149,5.5696864 c -0.26759596,0 -0.48632796,0.2187318 -0.48632796,0.4863281 v 1.0058594 c 0,0.2675964 0.218732,0.4882813 0.48632796,0.4882813 H 3.1016535 c 0.267596,0 0.488281,-0.2206849 0.488281,-0.4882813 V 6.0560145 c 0,-0.2675964 -0.220685,-0.4863281 -0.488281,-0.4863281 z m 0,0.2988281 H 3.1016535 c 0.106669,0 0.1875,0.080831 0.1875,0.1875 v 1.0058594 c 0,0.1066692 -0.08083,0.1875 -0.1875,0.1875 H 0.90048149 c -0.106669,0 -0.18749996,-0.080831 -0.18749996,-0.1875 V 6.0560145 c 0,-0.1066692 0.08083,-0.1875 0.18749996,-0.1875 z"
       id="path1612-0" />
    <path
       style="color:#000000;font-style:normal;font-variant:normal;font-weight:normal;font-stretch:normal;font-size:medium;line-height:normal;font-family:sans-serif;font-variant-ligatures:normal;font-variant-position:normal;font-variant-caps:normal;font-variant-numeric:normal;font-variant-alternates:normal;font-variant-east-asian:normal;font-feature-settings:normal;font-variation-settings:normal;text-indent:0;text-align:start;text-decoration:none;text-decoration-line:none;text-decoration-style:solid;text-decoration-color:#000000;letter-spacing:normal;word-spacing:normal;text-transform:none;writing-mode:lr-tb;direction:ltr;text-orientation:mixed;dominant-baseline:auto;baseline-shift:baseline;text-anchor:start;white-space:normal;shape-padding:0;shape-margin:0;inline-size:0;clip-rule:nonzero;display:inline;overflow:visible;visibility:visible;opacity:1;isolation:auto;mix-blend-mode:normal;color-interpolation:sRGB;color-interpolation-filters:linearRGB;solid-color:#000000;solid-opacity:1;vector-effect:none;fill:#f9f9f9;fill-opacity:1;fill-rule:nonzero;stroke:none;stroke-width:0.299844;stroke-linecap:butt;stroke-linejoin:miter;stroke-miterlimit:4;stroke-dasharray:none;stroke-dashoffset:0;stroke-opacity:1;color-rendering:auto;image-rendering:auto;shape-rendering:auto;text-rendering:auto;enable-background:accumulate;stop-color:#000000;stop-opacity:1"
       d="m 4.5577018,3.0631264 c -0.2675964,0 -0.4863282,0.2187318 -0.4863282,0.4863282 v 1.0058593 c 0,0.2675964 0.2187318,0.4882813 0.4863282,0.4882813 h 2.2011717 c 0.2675964,0 0.4882814,-0.2206849 0.4882814,-0.4882813 V 3.5494546 c 0,-0.2675965 -0.220685,-0.4863282 -0.4882814,-0.4863282 z m 0,0.2988282 h 2.2011717 c 0.1066694,0 0.1875002,0.080831 0.1875002,0.1875 v 1.0058593 c 0,0.1066692 -0.080831,0.1875 -0.1875002,0.1875 H 4.5577018 c -0.1066692,0 -0.1875,-0.080831 -0.1875,-0.1875 V 3.5494546 c 0,-0.1066692 0.080831,-0.1875 0.1875,-0.1875 z"
       id="path1612-3-6" />
  </g>
</svg>
