<?xml version="1.0" encoding="UTF-8" standalone="no"?>
<svg
   xmlns:dc="http://purl.org/dc/elements/1.1/"
   xmlns:cc="http://creativecommons.org/ns#"
   xmlns:rdf="http://www.w3.org/1999/02/22-rdf-syntax-ns#"
   xmlns:svg="http://www.w3.org/2000/svg"
   xmlns="http://www.w3.org/2000/svg"
   xmlns:sodipodi="http://sodipodi.sourceforge.net/DTD/sodipodi-0.dtd"
   xmlns:inkscape="http://www.inkscape.org/namespaces/inkscape"
   width="32"
   height="32"
   viewBox="0 0 8.4666667 8.4666667"
   version="1.1"
   id="svg8"
   inkscape:version="1.0.1 (3bc2e813f5, 2020-09-07)"
   sodipodi:docname="icon-bank-white.svg">
  <defs
     id="defs2" />
  <sodipodi:namedview
     id="base"
     pagecolor="#000000"
     bordercolor="#666666"
     borderopacity="1.0"
     inkscape:pageopacity="0"
     inkscape:pageshadow="2"
     inkscape:zoom="11.2"
     inkscape:cx="15.727785"
     inkscape:cy="25.515422"
     inkscape:document-units="mm"
     inkscape:current-layer="layer1"
     inkscape:document-rotation="0"
     showgrid="false"
     inkscape:window-width="1874"
     inkscape:window-height="1016"
     inkscape:window-x="46"
     inkscape:window-y="27"
     inkscape:window-maximized="1"
     units="px"
     inkscape:snap-global="false" />
  <metadata
     id="metadata5">
    <rdf:RDF>
      <cc:Work
         rdf:about="">
        <dc:format>image/svg+xml</dc:format>
        <dc:type
           rdf:resource="http://purl.org/dc/dcmitype/StillImage" />
        <dc:title></dc:title>
      </cc:Work>
    </rdf:RDF>
  </metadata>
  <g
     inkscape:label="Layer 1"
     inkscape:groupmode="layer"
     id="layer1">
    <rect
       style="fill:#ffffff;stroke:none;stroke-width:0.412931"
       id="rect1384"
       width="1.1532192"
       height="2.7238989"
       x="0.60523629"
       y="3.8853106" />
    <rect
       style="fill:#ffffff;stroke:none;stroke-width:0.416367"
       id="rect1384-1"
       width="1.1532192"
       height="2.7694042"
       x="6.6441245"
       y="3.856595" />
    <rect
       style="fill:#ffffff;stroke:none;stroke-width:0.580287"
       id="rect1384-3-9"
       width="7.4123526"
       height="0.83690095"
       x="0.57400566"
       y="7.3361902" />
    <g
       aria-label="Rp"
       id="text1424"
       style="font-style:normal;font-weight:normal;font-size:10.5833px;line-height:1.25;font-family:sans-serif;fill:#000000;fill-opacity:1;stroke:none;stroke-width:0.264583"
       transform="matrix(0.22842354,0,0,0.22842354,4.0394844,4.5970621)">
      <path
         d="m -3.2371051,2.5156825 q 0.6252829,0 0.8939995,-0.2325432 0.2738842,-0.2325432 0.2738842,-0.7648087 0,-0.52709796 -0.2738842,-0.75447354 Q -2.6118222,0.53648149 -3.2371051,0.53648149 H -4.0742606 V 2.5156825 Z m -0.8371555,1.3745888 v 2.9197091 h -1.9895363 v -7.71526678 h 3.0385645 q 1.5244499,0 2.2324148,0.51159505 0.71313249,0.51159505 0.71313249,1.61746713 0,0.7648088 -0.37206912,1.2557334 -0.3669015,0.4909245 -1.11103977,0.7234677 0.4082425,0.093017 0.72863539,0.4237454 0.32556048,0.3255605 0.6562886,0.9921843 L 0.90216398,6.8099804 H -1.216563 L -2.1570711,4.8927909 Q -2.4412905,4.3140167 -2.7358453,4.102144 -3.0252324,3.8902713 -3.5109893,3.8902713 Z"
         style="font-style:normal;font-variant:normal;font-weight:bold;font-stretch:normal;font-family:sans-serif;-inkscape-font-specification:'sans-serif Bold';fill:#ffffff;stroke-width:0.264583"
         id="path1426" />
      <path
         d="M 3.8477108,5.9728249 V 9.0113894 H 1.9977004 V 1.0222384 H 3.8477108 V 1.8697292 Q 4.2301152,1.3633018 4.6952016,1.1255909 5.160288,0.88271248 5.7649003,0.88271248 q 1.0696988,0 1.7569931,0.85265842 0.6872944,0.8474908 0.6872944,2.1859061 0,1.3384154 -0.6872944,2.1910738 -0.6872943,0.8474908 -1.7569931,0.8474908 -0.6046123,0 -1.0696987,-0.2377109 Q 4.2301152,6.4792523 3.8477108,5.9728249 Z M 5.077606,2.2262954 q -0.5942771,0 -0.91467,0.4392483 -0.3152252,0.4340807 -0.3152252,1.2557333 0,0.8216527 0.3152252,1.260901 0.3203929,0.4340806 0.91467,0.4340806 0.594277,0 0.9043346,-0.4340806 0.3152253,-0.4340807 0.3152253,-1.260901 0,-0.8268203 -0.3152253,-1.2609009 Q 5.671883,2.2262954 5.077606,2.2262954 Z"
         style="font-style:normal;font-variant:normal;font-weight:bold;font-stretch:normal;font-family:sans-serif;-inkscape-font-specification:'sans-serif Bold';fill:#ffffff;stroke-width:0.264583"
         id="path1428" />
    </g>
    <path
       sodipodi:type="star"
       style="fill:#ffffff;stroke:none;stroke-width:0.600001"
       id="path1433"
       sodipodi:sides="3"
       sodipodi:cx="1.4998162"
       sodipodi:cy="2.4617569"
       sodipodi:r1="1.282782"
       sodipodi:r2="0.64139092"
       sodipodi:arg1="0.52359878"
       sodipodi:arg2="1.5707963"
       inkscape:flatsided="true"
       inkscape:rounded="0"
       inkscape:randomized="0"
       d="m 2.6107379,3.1031479 -2.22184349,0 L 1.4998162,1.178975 Z"
       inkscape:transform-center-y="-0.476653"
       transform="matrix(3.4437805,0,0,1.4863106,-0.95080801,-1.3993289)" />
  </g>
</svg>
