<?xml version="1.0" encoding="UTF-8" standalone="no"?>
<svg
   xmlns:dc="http://purl.org/dc/elements/1.1/"
   xmlns:cc="http://creativecommons.org/ns#"
   xmlns:rdf="http://www.w3.org/1999/02/22-rdf-syntax-ns#"
   xmlns:svg="http://www.w3.org/2000/svg"
   xmlns="http://www.w3.org/2000/svg"
   xmlns:sodipodi="http://sodipodi.sourceforge.net/DTD/sodipodi-0.dtd"
   xmlns:inkscape="http://www.inkscape.org/namespaces/inkscape"
   width="32"
   height="32"
   viewBox="0 0 8.4666667 8.4666667"
   version="1.1"
   id="svg8"
   inkscape:version="1.0.1 (0767f8302a, 2020-10-17)"
   sodipodi:docname="icon-budget.svg">
  <defs
     id="defs2" />
  <sodipodi:namedview
     id="base"
     pagecolor="#7a7a7a"
     bordercolor="#666666"
     borderopacity="1.0"
     inkscape:pageopacity="0"
     inkscape:pageshadow="2"
     inkscape:zoom="22.627417"
     inkscape:cx="26.14284"
     inkscape:cy="16.010915"
     inkscape:document-units="mm"
     inkscape:current-layer="layer1"
     inkscape:document-rotation="0"
     showgrid="false"
     inkscape:window-width="1874"
     inkscape:window-height="1016"
     inkscape:window-x="46"
     inkscape:window-y="27"
     inkscape:window-maximized="1"
     units="px"
     inkscape:snap-global="false" />
  <metadata
     id="metadata5">
    <rdf:RDF>
      <cc:Work
         rdf:about="">
        <dc:format>image/svg+xml</dc:format>
        <dc:type
           rdf:resource="http://purl.org/dc/dcmitype/StillImage" />
        <dc:title></dc:title>
      </cc:Work>
    </rdf:RDF>
  </metadata>
  <g
     inkscape:label="Layer 1"
     inkscape:groupmode="layer"
     id="layer1">
    <path
       style="fill:#000000;stroke:none;stroke-width:0.264583px;stroke-linecap:butt;stroke-linejoin:miter;stroke-opacity:1;fill-opacity:0.10934536"
       d="M 2.8291287,1.0621264 7.5602395,1.0712564 7.7105366,7.4729222 6.7556915,7.8687239 5.8407014,6.3860424 2.6875001,6.329152 2.7452003,5.3604196 4.8402965,5.2989707 4.7845411,1.7874468 2.8311971,1.7850252 Z"
       id="path1683" />
    <path
       style="color:#000000;font-style:normal;font-variant:normal;font-weight:normal;font-stretch:normal;font-size:medium;line-height:normal;font-family:sans-serif;font-variant-ligatures:normal;font-variant-position:normal;font-variant-caps:normal;font-variant-numeric:normal;font-variant-alternates:normal;font-variant-east-asian:normal;font-feature-settings:normal;font-variation-settings:normal;text-indent:0;text-align:start;text-decoration:none;text-decoration-line:none;text-decoration-style:solid;text-decoration-color:#000000;letter-spacing:normal;word-spacing:normal;text-transform:none;writing-mode:lr-tb;direction:ltr;text-orientation:mixed;dominant-baseline:auto;baseline-shift:baseline;text-anchor:start;white-space:normal;shape-padding:0;shape-margin:0;inline-size:0;clip-rule:nonzero;display:inline;overflow:visible;visibility:visible;isolation:auto;mix-blend-mode:normal;color-interpolation:sRGB;color-interpolation-filters:linearRGB;solid-color:#000000;solid-opacity:1;vector-effect:none;fill:#ffffff;fill-opacity:1;fill-rule:nonzero;stroke:none;stroke-width:0.365;stroke-linecap:round;stroke-linejoin:miter;stroke-miterlimit:4;stroke-dasharray:none;stroke-dashoffset:0;stroke-opacity:1;color-rendering:auto;image-rendering:auto;shape-rendering:auto;text-rendering:auto;enable-background:accumulate;stop-color:#000000;stop-opacity:1;opacity:0.94"
       d="M 1.3359375 1.5742188 L 1.3359375 1.7578125 L 1.3359375 5.4589844 L 5.0585938 5.4589844 L 5.0585938 1.5742188 L 1.3359375 1.5742188 z M 1.7011719 1.9394531 L 4.6933594 1.9394531 L 4.6933594 5.09375 L 1.7011719 5.09375 L 1.7011719 1.9394531 z "
       id="path1678" />
    <g
       aria-label="%"
       transform="scale(0.88236449,1.1333185)"
       id="text1603"
       style="font-style:normal;font-weight:normal;font-size:2.70732px;line-height:1.25;font-family:sans-serif;fill:#ffffff;fill-opacity:1;stroke:none;stroke-width:0.264583">
      <path
         d="m 4.3051289,3.2368707 q -0.093857,0 -0.1454127,0.08196 -0.051555,0.080638 -0.051555,0.2313384 0,0.1520223 0.050234,0.2339822 0.051555,0.080638 0.1467346,0.080638 0.095179,0 0.1454127,-0.080638 0.050234,-0.08196 0.050234,-0.2339822 0,-0.1507005 -0.051555,-0.2313384 -0.050234,-0.08196 -0.1440908,-0.08196 z m 0,-0.2220848 q 0.2458797,0 0.3873265,0.1427688 0.1414469,0.1427688 0.1414469,0.3926143 0,0.2498454 -0.1414469,0.3952581 -0.1414468,0.1440908 -0.3873265,0.1440908 -0.2458796,0 -0.3886485,-0.1440908 Q 3.7750335,3.8000144 3.7750335,3.550169 q 0,-0.2485235 0.1414469,-0.3912924 Q 4.0592493,3.0147859 4.3051289,3.0147859 Z M 3.0929158,4.0895179 H 2.8007685 L 4.0341325,2.0418427 H 4.3276018 Z M 2.8219194,2.0418427 q 0.2458797,0 0.3860046,0.1440908 0.1414469,0.1427688 0.1414469,0.3926143 0,0.2498454 -0.1414469,0.3939362 -0.1401249,0.1440908 -0.3860046,0.1440908 -0.2458796,0 -0.3873265,-0.1440908 -0.140125,-0.1440908 -0.140125,-0.3939362 0,-0.2498455 0.140125,-0.3926143 0.1414469,-0.1440908 0.3873265,-0.1440908 z m 0,0.2220849 q -0.095179,0 -0.1467346,0.08196 -0.051555,0.08196 -0.051555,0.2326603 0,0.1520223 0.051555,0.2353042 0.051555,0.08196 0.1467346,0.08196 0.095179,0 0.1454127,-0.08196 0.051555,-0.083282 0.051555,-0.2353042 0,-0.1507004 -0.051555,-0.2326603 -0.051555,-0.08196 -0.1454127,-0.08196 z"
         style="font-weight:bold;fill:#ffffff;stroke-width:0.264583"
         id="path1680" />
    </g>
    <path
       id="path1636"
       style="color:#000000;font-style:normal;font-variant:normal;font-weight:normal;font-stretch:normal;font-size:medium;line-height:normal;font-family:sans-serif;font-variant-ligatures:normal;font-variant-position:normal;font-variant-caps:normal;font-variant-numeric:normal;font-variant-alternates:normal;font-variant-east-asian:normal;font-feature-settings:normal;font-variation-settings:normal;text-indent:0;text-align:start;text-decoration:none;text-decoration-line:none;text-decoration-style:solid;text-decoration-color:#000000;letter-spacing:normal;word-spacing:normal;text-transform:none;writing-mode:lr-tb;direction:ltr;text-orientation:mixed;dominant-baseline:auto;baseline-shift:baseline;text-anchor:start;white-space:normal;shape-padding:0;shape-margin:0;inline-size:0;clip-rule:nonzero;display:inline;overflow:visible;visibility:visible;opacity:0.94;isolation:auto;mix-blend-mode:normal;color-interpolation:sRGB;color-interpolation-filters:linearRGB;solid-color:#000000;solid-opacity:1;vector-effect:none;fill:#ffffff;fill-opacity:1;fill-rule:nonzero;stroke:none;stroke-width:2.13543;stroke-linecap:round;stroke-linejoin:miter;stroke-miterlimit:4;stroke-dasharray:none;stroke-dashoffset:0;stroke-opacity:1;color-rendering:auto;image-rendering:auto;shape-rendering:auto;text-rendering:auto;enable-background:accumulate;stop-color:#000000;stop-opacity:1"
       d="M 8.6074219,1.9121094 V 2.9824219 6.3144531 H 10.748047 V 4.0449219 h 17.894531 l 0.228516,21.1796871 c 0.01551,1.237841 -0.152333,2.002102 -0.8125,2.515625 -0.660167,0.513524 -2.183962,0.930125 -5.226563,0.613282 l -0.05078,-0.0078 -12.033203,-0.06641 -2.1406251,2.126953 14.1074221,0.07422 c 3.227533,0.324394 5.296825,0.0023 6.658203,-1.056641 1.376492,-1.07073 1.657297,-2.736357 1.638672,-4.222656 L 30.753906,1.9121094 Z m 0,17.3570746 v 3.724957 l -0.015625,0.810547 h 2.0312501 l 0.125,-0.810547 v -3.724957 z"
       transform="scale(0.26458333)"
       sodipodi:nodetypes="cccccccscccccccccccccccc" />
    <path
       style="color:#000000;font-style:normal;font-variant:normal;font-weight:normal;font-stretch:normal;font-size:medium;line-height:normal;font-family:sans-serif;font-variant-ligatures:normal;font-variant-position:normal;font-variant-caps:normal;font-variant-numeric:normal;font-variant-alternates:normal;font-variant-east-asian:normal;font-feature-settings:normal;font-variation-settings:normal;text-indent:0;text-align:start;text-decoration:none;text-decoration-line:none;text-decoration-style:solid;text-decoration-color:#000000;letter-spacing:normal;word-spacing:normal;text-transform:none;writing-mode:lr-tb;direction:ltr;text-orientation:mixed;dominant-baseline:auto;baseline-shift:baseline;text-anchor:start;white-space:normal;shape-padding:0;shape-margin:0;inline-size:0;clip-rule:nonzero;display:inline;overflow:visible;visibility:visible;opacity:0.94;isolation:auto;mix-blend-mode:normal;color-interpolation:sRGB;color-interpolation-filters:linearRGB;solid-color:#000000;solid-opacity:1;vector-effect:none;fill:#ffffff;fill-opacity:1;fill-rule:nonzero;stroke:none;stroke-width:0.564998;stroke-linecap:round;stroke-linejoin:miter;stroke-miterlimit:4;stroke-dasharray:none;stroke-dashoffset:0;stroke-opacity:1;color-rendering:auto;image-rendering:auto;shape-rendering:auto;text-rendering:auto;enable-background:accumulate;stop-color:#000000;stop-opacity:1"
       d="m 0.8463031,6.0751477 0.0117188,0.296875 C 0.8737167,6.7409937 0.9121385,7.1540051 1.1607562,7.500929 1.409374,7.8478525 1.8663173,8.0628695 2.5279438,8.0595225 l 4.206804,0.03735 0.5468761,-0.5518838 C 7.1838715,7.53178 6.9174941,7.5236523 6.804269,7.4976869 6.6322164,7.4582309 6.5284742,7.3353675 6.4365907,7.1720631 6.29167,6.7502351 6.2872494,6.5466736 6.3186726,6.0926082 Z m 0.6464843,0.5683594 4.2027146,0.015625 c 0.017559,0.3034812 0.03445,0.4659408 0.3261465,0.8422231 l -3.5249803,-0.015625 0.027372,0.00934 C 1.9737062,7.497853 1.7532528,7.3571552 1.6197405,7.1708509 1.5342909,7.0516135 1.2981742,6.6427836 1.4927874,6.6435071 Z"
       id="path1632"
       sodipodi:nodetypes="ccscccscccscccccs" />
    <path
       style="fill:#ffffff;stroke:#ffffff;stroke-width:0.264583px;stroke-linecap:butt;stroke-linejoin:miter;stroke-opacity:1"
       d="m 5.5775632,3.0866297 1.4790253,0.00512"
       id="path1646" />
    <path
       style="fill:#ffffff;stroke:#ffffff;stroke-width:0.264583px;stroke-linecap:butt;stroke-linejoin:miter;stroke-opacity:1"
       d="m 5.5725518,3.7886829 1.4790254,0.00512"
       id="path1646-6" />
    <path
       style="fill:#ffffff;stroke:#ffffff;stroke-width:0.264583px;stroke-linecap:butt;stroke-linejoin:miter;stroke-opacity:1"
       d="m 5.5783143,4.4822969 1.4790254,0.00512"
       id="path1646-2" />
    <path
       style="fill:#ffffff;stroke:#ffffff;stroke-width:0.264583px;stroke-linecap:butt;stroke-linejoin:miter;stroke-opacity:1"
       d="m 5.5603814,5.1828642 1.4790254,0.00512"
       id="path1646-9" />
  </g>
</svg>
