<?xml version="1.0" encoding="UTF-8" standalone="no"?>
<svg
   xmlns:dc="http://purl.org/dc/elements/1.1/"
   xmlns:cc="http://creativecommons.org/ns#"
   xmlns:rdf="http://www.w3.org/1999/02/22-rdf-syntax-ns#"
   xmlns:svg="http://www.w3.org/2000/svg"
   xmlns="http://www.w3.org/2000/svg"
   xmlns:sodipodi="http://sodipodi.sourceforge.net/DTD/sodipodi-0.dtd"
   xmlns:inkscape="http://www.inkscape.org/namespaces/inkscape"
   width="32"
   height="32"
   viewBox="0 0 8.4666667 8.4666667"
   version="1.1"
   id="svg8"
   inkscape:version="1.0.1 (3bc2e813f5, 2020-09-07)"
   sodipodi:docname="icon-budgetcorp-white.svg">
  <defs
     id="defs2" />
  <sodipodi:namedview
     id="base"
     pagecolor="#000000"
     bordercolor="#666666"
     borderopacity="1.0"
     inkscape:pageopacity="0"
     inkscape:pageshadow="2"
     inkscape:zoom="11.2"
     inkscape:cx="13.753834"
     inkscape:cy="23.449026"
     inkscape:document-units="mm"
     inkscape:current-layer="layer1"
     inkscape:document-rotation="0"
     showgrid="false"
     inkscape:window-width="1874"
     inkscape:window-height="1016"
     inkscape:window-x="46"
     inkscape:window-y="27"
     inkscape:window-maximized="1"
     units="px"
     inkscape:snap-global="false" />
  <metadata
     id="metadata5">
    <rdf:RDF>
      <cc:Work
         rdf:about="">
        <dc:format>image/svg+xml</dc:format>
        <dc:type
           rdf:resource="http://purl.org/dc/dcmitype/StillImage" />
        <dc:title></dc:title>
      </cc:Work>
    </rdf:RDF>
  </metadata>
  <g
     inkscape:label="Layer 1"
     inkscape:groupmode="layer"
     id="layer1">
    <path
       id="path2095"
       style="color:#000000;font-style:normal;font-variant:normal;font-weight:normal;font-stretch:normal;font-size:medium;line-height:normal;font-family:sans-serif;font-variant-ligatures:normal;font-variant-position:normal;font-variant-caps:normal;font-variant-numeric:normal;font-variant-alternates:normal;font-variant-east-asian:normal;font-feature-settings:normal;font-variation-settings:normal;text-indent:0;text-align:start;text-decoration:none;text-decoration-line:none;text-decoration-style:solid;text-decoration-color:#000000;letter-spacing:normal;word-spacing:normal;text-transform:none;writing-mode:lr-tb;direction:ltr;text-orientation:mixed;dominant-baseline:auto;baseline-shift:baseline;text-anchor:start;white-space:normal;shape-padding:0;shape-margin:0;inline-size:0;clip-rule:nonzero;display:inline;overflow:visible;visibility:visible;opacity:1;isolation:auto;mix-blend-mode:normal;color-interpolation:sRGB;color-interpolation-filters:linearRGB;solid-color:#000000;solid-opacity:1;vector-effect:none;fill:#ffffff;fill-opacity:1;fill-rule:nonzero;stroke:none;stroke-width:0.264583px;stroke-linecap:butt;stroke-linejoin:miter;stroke-miterlimit:4;stroke-dasharray:none;stroke-dashoffset:0;stroke-opacity:1;color-rendering:auto;image-rendering:auto;shape-rendering:auto;text-rendering:auto;enable-background:accumulate;stop-color:#000000;stop-opacity:1"
       d="m 1.5293653,7.9037468 3.8302571,-0.01964 2.448946,-2.43551 v -0.05478 l 0.01189,-4.80332108 -5.782593,-0.021704 v 0.2645833 l 5.516976,0.020671 -0.01189,4.39921378 h -1.521354 -0.0041 c -0.185402,0.01361 -0.42635,-0.0201 -0.640271,0.08992 -0.10696,0.05501 -0.198914,0.156661 -0.244429,0.296623 -0.04437,0.136443 -0.04995,0.30827 -0.02119,0.529167 v 0.0083 l 0.04289,1.443839 -3.3615526,0.01705 0.00568,-3.5575605 H 1.5345332 Z m 3.8860681,-0.448035 -0.04031,-1.302246 -0.0021,-0.0057 c -0.02816,-0.205594 -0.01514,-0.3427 0.01189,-0.425798 0.02702,-0.0831 0.0599,-0.117299 0.113171,-0.144694 0.106536,-0.05479 0.319697,-0.04437 0.538985,-0.06046 h 1.327051 z"
       sodipodi:nodetypes="cccccccccccssccccccccccccccc" />
    <path
       id="path1540"
       style="color:#000000;font-style:normal;font-variant:normal;font-weight:normal;font-stretch:normal;font-size:medium;line-height:normal;font-family:sans-serif;font-variant-ligatures:normal;font-variant-position:normal;font-variant-caps:normal;font-variant-numeric:normal;font-variant-alternates:normal;font-variant-east-asian:normal;font-feature-settings:normal;font-variation-settings:normal;text-indent:0;text-align:start;text-decoration:none;text-decoration-line:none;text-decoration-style:solid;text-decoration-color:#000000;letter-spacing:normal;word-spacing:normal;text-transform:none;writing-mode:lr-tb;direction:ltr;text-orientation:mixed;dominant-baseline:auto;baseline-shift:baseline;text-anchor:start;white-space:normal;shape-padding:0;shape-margin:0;inline-size:0;clip-rule:nonzero;display:inline;overflow:visible;visibility:visible;opacity:1;isolation:auto;mix-blend-mode:normal;color-interpolation:sRGB;color-interpolation-filters:linearRGB;solid-color:#000000;solid-opacity:1;vector-effect:none;fill:#ffffff;fill-opacity:1;fill-rule:nonzero;stroke:none;stroke-width:0.264583px;stroke-linecap:butt;stroke-linejoin:miter;stroke-miterlimit:4;stroke-dasharray:none;stroke-dashoffset:0;stroke-opacity:1;color-rendering:auto;image-rendering:auto;shape-rendering:auto;text-rendering:auto;enable-background:accumulate;stop-color:#000000;stop-opacity:1"
       d="m -4.5426389,3.4861735 -0.01571,-2.849e-4 -1.635575,-3.29930662 -0.0074,-0.011349 c -0.16447,-0.2029396 -0.336593,-0.3207462 -0.509935,-0.3597263 -0.173343,-0.03898 -0.34283,0.00832 -0.466728,0.1044812 -0.247797,0.1923261 -0.353059,0.5550311 -0.247525,0.8817451 l 0.0016,0.00786 1.620494,3.31658812 -0.01417,0.020289 0.03712,0.026011 0.02341,0.048381 0.03077,-0.010064 1.156432,0.816752 0.02528,-1.4440909 0.02571,-0.017938 -0.02433,-0.049077 z m -1.870891,-3.14919942 1.543996,3.11457152 c -0.135434,-0.054142 -0.270582,-0.1403935 -0.39929,-0.1527395 l 0.01296,-0.00643 -0.901258,-1.8401387 -0.236128,0.1170563 0.895521,1.8285635 c -0.08212,0.1145242 -0.09495,0.3047458 -0.136566,0.4679837 l -1.538796,-3.14829502 c -0.06797,-0.2151994 0.01655,-0.4784711 0.157776,-0.5880859 0.07093,-0.055055 0.146897,-0.077958 0.24447,-0.056016 0.09569,0.021518 0.221438,0.098945 0.357312,0.2635266 z m 1.604115,3.30798112 -0.01479,0.8788431 -0.695104,-0.4911647 c -0.01765,-0.2638881 0.08843,-0.4093037 0.22579,-0.4729942 0.134093,-0.062174 0.317641,-0.04636 0.484105,0.085316 z" />
    <path
       style="fill:none;stroke:#ffffff;stroke-width:0.264583px;stroke-linecap:butt;stroke-linejoin:miter;stroke-opacity:1"
       d="m 4.1086355,1.7076969 h 2.267881"
       id="path1551" />
    <path
       style="fill:none;stroke:#ffffff;stroke-width:0.264583px;stroke-linecap:butt;stroke-linejoin:miter;stroke-opacity:1"
       d="M 4.0975296,3.7651358 H 6.3185874"
       id="path1551-6" />
    <path
       style="fill:none;stroke:#ffffff;stroke-width:0.264583px;stroke-linecap:butt;stroke-linejoin:miter;stroke-opacity:1"
       d="M 4.2287753,3.8754942 V 1.6076132"
       id="path1551-2" />
    <path
       style="fill:none;stroke:#ffffff;stroke-width:0.264583px;stroke-linecap:butt;stroke-linejoin:miter;stroke-opacity:1"
       d="M 6.2580765,3.8679698 V 1.6000888"
       id="path1551-2-9" />
    <path
       style="fill:none;stroke:#ffffff;stroke-width:0.264583px;stroke-linecap:butt;stroke-linejoin:miter;stroke-opacity:1"
       d="m 1.0090034,1.7284779 h 2.267881"
       id="path1551-1" />
    <path
       style="fill:none;stroke:#ffffff;stroke-width:0.264583px;stroke-linecap:butt;stroke-linejoin:miter;stroke-opacity:1"
       d="M 0.99619402,2.3439126 H 3.264075"
       id="path1551-27" />
    <path
       style="fill:none;stroke:#ffffff;stroke-width:0.264583px;stroke-linecap:butt;stroke-linejoin:miter;stroke-opacity:1"
       d="M 0.99537649,2.9300154 H 3.2632575"
       id="path1551-0" />
    <path
       style="fill:none;stroke:#ffffff;stroke-width:0.264583px;stroke-linecap:butt;stroke-linejoin:miter;stroke-opacity:1"
       d="m 1.0155295,3.5446348 h 2.267881"
       id="path1551-9" />
    <g
       aria-label="Rp"
       id="text1739"
       style="font-style:normal;font-weight:normal;font-size:10.5833px;line-height:1.25;font-family:sans-serif;fill:#ffffff;fill-opacity:1;stroke:none;stroke-width:1.67501"
       transform="matrix(0.15795907,0,0,0.15795907,2.9612513,5.0104643)">
      <path
         d="m -0.76691454,3.3475145 q 0.62528284,0 0.89399943,-0.2325432 0.27388422,-0.2325432 0.27388422,-0.7648088 0,-0.5270979 -0.27388422,-0.7544735 Q -0.1416317,1.3683134 -0.76691454,1.3683134 H -1.6040701 V 3.3475145 Z M -1.6040701,4.7221032 v 2.9197091 h -1.9895363 v -7.71526675 h 3.03856456 q 1.5244499,0 2.23241474,0.51159505 0.7131325,0.51159505 0.7131325,1.6174672 0,0.7648087 -0.3720691,1.2557333 Q 1.6515348,3.8022656 0.90739654,4.0348088 1.3156391,4.1278261 1.6360319,4.4585542 1.9615924,4.7841147 2.2923205,5.4507386 l 1.080034,2.1910737 H 1.2536275 L 0.31311946,5.7246228 Q 0.02889998,5.1458486 -0.26565474,4.9339759 -0.55504184,4.7221032 -1.0407988,4.7221032 Z"
         style="font-style:normal;font-variant:normal;font-weight:bold;font-stretch:normal;font-family:sans-serif;-inkscape-font-specification:'sans-serif Bold';fill:#ffffff;stroke-width:1.67501"
         id="path1741" />
      <path
         d="M 6.3179013,6.8046568 V 9.8432213 H 4.4678909 V 1.8540703 H 6.3179013 V 2.7015611 Q 6.7003057,2.1951337 7.1653921,1.9574229 7.6304785,1.7145444 8.2350908,1.7145444 q 1.0696988,0 1.7569932,0.8526584 0.687294,0.8474908 0.687294,2.1859062 0,1.3384153 -0.687294,2.1910737 -0.6872944,0.8474908 -1.7569932,0.8474908 -0.6046123,0 -1.0696987,-0.2377108 Q 6.7003057,7.3110842 6.3179013,6.8046568 Z M 7.5477965,3.0581274 q -0.5942771,0 -0.91467,0.4392483 -0.3152252,0.4340806 -0.3152252,1.2557333 0,0.8216526 0.3152252,1.2609009 0.3203929,0.4340806 0.91467,0.4340806 0.5942771,0 0.9043347,-0.4340806 0.3152252,-0.4340807 0.3152252,-1.2609009 0,-0.8268203 -0.3152252,-1.260901 Q 8.1420736,3.0581274 7.5477965,3.0581274 Z"
         style="font-style:normal;font-variant:normal;font-weight:bold;font-stretch:normal;font-family:sans-serif;-inkscape-font-specification:'sans-serif Bold';fill:#ffffff;stroke-width:1.67501"
         id="path1743" />
    </g>
  </g>
</svg>
