<?xml version="1.0" encoding="UTF-8" standalone="no"?>
<svg
   xmlns:dc="http://purl.org/dc/elements/1.1/"
   xmlns:cc="http://creativecommons.org/ns#"
   xmlns:rdf="http://www.w3.org/1999/02/22-rdf-syntax-ns#"
   xmlns:svg="http://www.w3.org/2000/svg"
   xmlns="http://www.w3.org/2000/svg"
   xmlns:sodipodi="http://sodipodi.sourceforge.net/DTD/sodipodi-0.dtd"
   xmlns:inkscape="http://www.inkscape.org/namespaces/inkscape"
   width="32"
   height="32"
   viewBox="0 0 8.4666667 8.4666667"
   version="1.1"
   id="svg8"
   inkscape:version="1.0.1 (3bc2e813f5, 2020-09-07)"
   sodipodi:docname="icon-periode-white.svg">
  <defs
     id="defs2" />
  <sodipodi:namedview
     id="base"
     pagecolor="#000000"
     bordercolor="#666666"
     borderopacity="1.0"
     inkscape:pageopacity="0"
     inkscape:pageshadow="2"
     inkscape:zoom="11.2"
     inkscape:cx="15.727785"
     inkscape:cy="25.615406"
     inkscape:document-units="mm"
     inkscape:current-layer="layer1"
     inkscape:document-rotation="0"
     showgrid="false"
     inkscape:window-width="1874"
     inkscape:window-height="1016"
     inkscape:window-x="46"
     inkscape:window-y="27"
     inkscape:window-maximized="1"
     units="px"
     inkscape:snap-global="false" />
  <metadata
     id="metadata5">
    <rdf:RDF>
      <cc:Work
         rdf:about="">
        <dc:format>image/svg+xml</dc:format>
        <dc:type
           rdf:resource="http://purl.org/dc/dcmitype/StillImage" />
        <dc:title></dc:title>
      </cc:Work>
    </rdf:RDF>
  </metadata>
  <g
     inkscape:label="Layer 1"
     inkscape:groupmode="layer"
     id="layer1">
    <rect
       style="fill:#ffffff;stroke:none;stroke-width:0.811297"
       id="rect987"
       width="8.2013445"
       height="0.64322507"
       x="0.13687922"
       y="-0.66961759"
       ry="0.32161254"
       transform="rotate(90)" />
    <path
       id="rect987-7-6"
       style="fill:#ffffff;stroke:none;stroke-width:1.26152"
       inkscape:transform-center-x="0.046912511"
       inkscape:transform-center-y="0.10682415"
       d="M 0.13085938,0.05859375 V 11.052734 H 31.972656 V 0.05859375 Z M 12.064453,0.34375 c 0.310246,-0.0170861 0.626134,0.0839594 0.876953,0.30859375 0.501638,0.44926875 0.544972,1.21515925 0.0957,1.71679685 L 7.421875,8.6386719 C 6.9726063,9.1403094 6.2067158,9.1836438 5.7050781,8.734375 c -0.00649,-0.00582 -0.00929,-0.013611 -0.015625,-0.019531 L 3.5449219,6.9003906 C 3.0307777,6.4654901 2.9674432,5.7016441 3.4023438,5.1875 3.6197939,4.930428 3.918877,4.7856199 4.2285156,4.7597656 4.5381543,4.7339116 4.8581623,4.8274716 5.1152344,5.0449219 L 6.4023438,6.1328125 11.224609,0.74804688 C 11.449244,0.49722805 11.754207,0.36083606 12.064453,0.34375 Z M 5.6894531,8.7148438 c -3.7929687,-5.8098959 -1.8964844,-2.9049479 0,0 z"
       transform="scale(0.26458333)"
       sodipodi:nodetypes="cccccssccsccsscccscc" />
    <rect
       style="fill:#ffffff;stroke:none;stroke-width:0.333777"
       id="rect987-7-1"
       width="1.3881559"
       height="0.64322513"
       x="1.3950967"
       y="3.6947629"
       ry="0.32161257" />
    <rect
       style="fill:#ffffff;stroke:none;stroke-width:0.818848"
       id="rect987-9"
       width="8.3547649"
       height="0.64322513"
       x="0.025070215"
       y="-8.461956"
       ry="0.32161257"
       transform="rotate(90)" />
    <rect
       style="fill:#ffffff;stroke:none;stroke-width:0.810554"
       id="rect987-7-8-2"
       width="8.1863604"
       height="0.64322519"
       x="0.09286622"
       y="7.7359934"
       ry="0.3216126" />
    <rect
       style="fill:#ffffff;stroke:none;stroke-width:0.333777"
       id="rect987-7-1-2"
       width="1.3881559"
       height="0.64322519"
       x="3.6108124"
       y="3.6712139"
       ry="0.3216126" />
    <rect
       style="fill:#ffffff;stroke:none;stroke-width:0.333777"
       id="rect987-7-1-8"
       width="1.3881559"
       height="0.64322519"
       x="5.6422009"
       y="3.6647956"
       ry="0.3216126" />
    <rect
       style="fill:#ffffff;stroke:none;stroke-width:0.333777"
       id="rect987-7-1-9"
       width="1.3881559"
       height="0.64322519"
       x="1.4256644"
       y="4.9863887"
       ry="0.3216126" />
    <rect
       style="fill:#ffffff;stroke:none;stroke-width:0.333777"
       id="rect987-7-1-2-7"
       width="1.3881559"
       height="0.64322519"
       x="3.6413798"
       y="4.9628396"
       ry="0.3216126" />
    <rect
       style="fill:#ffffff;stroke:none;stroke-width:0.333777"
       id="rect987-7-1-8-3"
       width="1.3881559"
       height="0.64322519"
       x="5.6727681"
       y="4.9564214"
       ry="0.3216126" />
    <rect
       style="fill:#ffffff;stroke:none;stroke-width:0.333777"
       id="rect987-7-1-6"
       width="1.3881559"
       height="0.64322519"
       x="1.3850423"
       y="6.3176322"
       ry="0.3216126" />
    <rect
       style="fill:#ffffff;stroke:none;stroke-width:0.333777"
       id="rect987-7-1-2-1"
       width="1.3881559"
       height="0.64322519"
       x="3.6007586"
       y="6.2940831"
       ry="0.3216126" />
    <rect
       style="fill:#ffffff;stroke:none;stroke-width:0.333777"
       id="rect987-7-1-8-2"
       width="1.3881559"
       height="0.64322519"
       x="5.6321468"
       y="6.2876649"
       ry="0.3216126" />
  </g>
</svg>
