<?xml version="1.0" encoding="UTF-8" standalone="no"?>
<svg
   xmlns:dc="http://purl.org/dc/elements/1.1/"
   xmlns:cc="http://creativecommons.org/ns#"
   xmlns:rdf="http://www.w3.org/1999/02/22-rdf-syntax-ns#"
   xmlns:svg="http://www.w3.org/2000/svg"
   xmlns="http://www.w3.org/2000/svg"
   xmlns:sodipodi="http://sodipodi.sourceforge.net/DTD/sodipodi-0.dtd"
   xmlns:inkscape="http://www.inkscape.org/namespaces/inkscape"
   width="32"
   height="32"
   viewBox="0 0 8.4666667 8.4666667"
   version="1.1"
   id="svg8"
   inkscape:version="1.0.1 (0767f8302a, 2020-10-17)"
   sodipodi:docname="icon-itemclassmanual-white.svg">
  <defs
     id="defs2" />
  <sodipodi:namedview
     id="base"
     pagecolor="#000000"
     bordercolor="#666666"
     borderopacity="1.0"
     inkscape:pageopacity="0"
     inkscape:pageshadow="2"
     inkscape:zoom="15.839192"
     inkscape:cx="32.561327"
     inkscape:cy="16.439797"
     inkscape:document-units="mm"
     inkscape:current-layer="layer1"
     inkscape:document-rotation="0"
     showgrid="false"
     inkscape:window-width="1874"
     inkscape:window-height="1016"
     inkscape:window-x="46"
     inkscape:window-y="27"
     inkscape:window-maximized="1"
     units="px"
     inkscape:snap-global="false" />
  <metadata
     id="metadata5">
    <rdf:RDF>
      <cc:Work
         rdf:about="">
        <dc:format>image/svg+xml</dc:format>
        <dc:type
           rdf:resource="http://purl.org/dc/dcmitype/StillImage" />
        <dc:title></dc:title>
      </cc:Work>
    </rdf:RDF>
  </metadata>
  <g
     inkscape:label="Layer 1"
     inkscape:groupmode="layer"
     id="layer1">
    <path
       id="path1477"
       style="color:#000000;font-style:normal;font-variant:normal;font-weight:normal;font-stretch:normal;font-size:medium;line-height:normal;font-family:sans-serif;font-variant-ligatures:normal;font-variant-position:normal;font-variant-caps:normal;font-variant-numeric:normal;font-variant-alternates:normal;font-variant-east-asian:normal;font-feature-settings:normal;font-variation-settings:normal;text-indent:0;text-align:start;text-decoration:none;text-decoration-line:none;text-decoration-style:solid;text-decoration-color:#000000;letter-spacing:normal;word-spacing:normal;text-transform:none;writing-mode:lr-tb;direction:ltr;text-orientation:mixed;dominant-baseline:auto;baseline-shift:baseline;text-anchor:start;white-space:normal;shape-padding:0;shape-margin:0;inline-size:0;clip-rule:nonzero;display:inline;overflow:visible;visibility:visible;opacity:1;isolation:auto;mix-blend-mode:normal;color-interpolation:sRGB;color-interpolation-filters:linearRGB;solid-color:#000000;solid-opacity:1;vector-effect:none;fill:#ffffff;fill-opacity:1;fill-rule:nonzero;stroke:none;stroke-width:1.17669px;stroke-linecap:butt;stroke-linejoin:miter;stroke-miterlimit:4;stroke-dasharray:none;stroke-dashoffset:0;stroke-opacity:1;color-rendering:auto;image-rendering:auto;shape-rendering:auto;text-rendering:auto;enable-background:accumulate;stop-color:#000000;stop-opacity:1"
       d="M 15.96875 1.734375 L 0.76171875 7.0488281 L 2.0585938 20.681641 L 16.482422 31.572266 L 19.572266 29.625 L 19.572266 22.402344 C 19.572266 20.716506 20.93135 19.359375 22.617188 19.359375 L 30.867188 19.359375 L 31.138672 8.1347656 L 15.96875 1.734375 z M 15.888672 2.5566406 L 29.792969 8.7207031 L 17.265625 15.074219 L 2.8691406 7.3027344 L 15.888672 2.5566406 z M 1.9667969 8.9472656 L 16.296875 17.175781 L 16.316406 30.052734 L 2.9648438 19.966797 L 1.9667969 8.9472656 z "
       transform="scale(0.26458333)" />
    <path
       id="rect1503-3"
       style="fill:#ffffff;stroke-width:0.964999;stroke-linecap:round;stroke-linejoin:round"
       d="m 6.1241668,5.5625111 h 1.8048197 c 0.261018,0 0.4711516,0.2101336 0.4711516,0.4711516 V 7.893909 c 0,0.2610181 -0.2101336,0.4711517 -0.4711516,0.4711517 H 6.1241668 c -0.261018,0 -0.4711517,-0.2101336 -0.4711517,-0.4711517 V 6.0336627 c 0,-0.261018 0.2101337,-0.4711516 0.4711517,-0.4711516 z" />
    <g
       aria-label="m"
       id="text1522"
       style="font-style:normal;font-weight:normal;font-size:2.2174px;line-height:1.25;font-family:sans-serif;fill:#000000;fill-opacity:1;stroke:none;stroke-width:0.264584">
      <path
         id="path1524"
         style="stroke-width:0.264584"
         d="m 6.8417969,6.2382812 c -0.09664,-1e-7 -0.1840725,0.020353 -0.2597657,0.0625 -0.021366,0.011897 -0.039532,0.029523 -0.058594,0.044922 v -0.00781 A 0.07017227,0.07017227 0 0 0 6.453125,6.2675781 H 6.2519531 a 0.07017227,0.07017227 0 0 0 -0.070312,0.070312 v 1.2128906 a 0.07017227,0.07017227 0 0 0 0.070312,0.070313 H 6.453125 a 0.07017227,0.07017227 0 0 0 0.070312,-0.070313 V 6.8652344 c 0,-0.1057541 0.025433,-0.1788183 0.072266,-0.2324219 a 0.07017227,0.07017227 0 0 0 0,-0.00195 c 0.047047,-0.054416 0.1034067,-0.078125 0.1894531,-0.078125 0.07082,0 0.1051494,0.016833 0.1328126,0.054687 0.027158,0.036687 0.048828,0.1103601 0.048828,0.21875 v 0.7246093 a 0.07017227,0.07017227 0 0 0 0.070312,0.070313 h 0.1992187 a 0.07017227,0.07017227 0 0 0 0.070312,-0.070313 V 6.8652344 c 0,-0.1065484 0.025273,-0.1786348 0.072266,-0.2324219 0.046564,-0.053296 0.1059765,-0.080078 0.1933594,-0.080078 0.069118,0 0.1030336,0.01661 0.1308594,0.054687 0.027593,0.037758 0.048828,0.1111349 0.048828,0.21875 v 0.7246093 a 0.07017227,0.07017227 0 0 0 0.070312,0.070313 h 0.1992188 a 0.07017227,0.07017227 0 0 0 0.070312,-0.070313 V 6.8183594 c 0,-0.1725891 -0.035422,-0.3149178 -0.1171875,-0.4199219 C 7.8931124,6.2929205 7.7695748,6.2382813 7.6269531,6.2382812 7.5222174,6.2382811 7.4266527,6.2627499 7.3457031,6.3125 7.2956221,6.3432788 7.2531601,6.3878792 7.2128906,6.4375 7.1835969,6.3918382 7.1502966,6.3512219 7.1074219,6.3203125 7.0335077,6.2663989 6.9423976,6.2382812 6.8417969,6.2382812 Z" />
    </g>
  </g>
</svg>
