<?xml version="1.0" encoding="UTF-8" standalone="no"?>
<svg
   xmlns:dc="http://purl.org/dc/elements/1.1/"
   xmlns:cc="http://creativecommons.org/ns#"
   xmlns:rdf="http://www.w3.org/1999/02/22-rdf-syntax-ns#"
   xmlns:svg="http://www.w3.org/2000/svg"
   xmlns="http://www.w3.org/2000/svg"
   xmlns:sodipodi="http://sodipodi.sourceforge.net/DTD/sodipodi-0.dtd"
   xmlns:inkscape="http://www.inkscape.org/namespaces/inkscape"
   width="32"
   height="32"
   viewBox="0 0 8.4666667 8.4666667"
   version="1.1"
   id="svg8"
   inkscape:version="1.0.1 (0767f8302a, 2020-10-17)"
   sodipodi:docname="icon-finance-white.svg">
  <defs
     id="defs2">
    <inkscape:path-effect
       effect="powerstroke"
       id="path-effect862"
       is_visible="true"
       lpeversion="1"
       offset_points="0,0.674052"
       sort_points="true"
       interpolator_type="CubicBezierJohan"
       interpolator_beta="0.2"
       start_linecap_type="zerowidth"
       linejoin_type="extrp_arc"
       miter_limit="4"
       scale_width="1"
       end_linecap_type="zerowidth" />
  </defs>
  <sodipodi:namedview
     id="base"
     pagecolor="#7a7a7a"
     bordercolor="#666666"
     borderopacity="1.0"
     inkscape:pageopacity="0"
     inkscape:pageshadow="2"
     inkscape:zoom="16"
     inkscape:cx="33.135512"
     inkscape:cy="20.248753"
     inkscape:document-units="mm"
     inkscape:current-layer="layer1"
     inkscape:document-rotation="0"
     showgrid="true"
     inkscape:window-width="1874"
     inkscape:window-height="1016"
     inkscape:window-x="46"
     inkscape:window-y="27"
     inkscape:window-maximized="1"
     units="px"
     inkscape:snap-global="false"
     showguides="true"
     inkscape:guide-bbox="true"
     inkscape:snap-to-guides="false"
     inkscape:object-nodes="true">
    <inkscape:grid
       type="xygrid"
       id="grid60" />
  </sodipodi:namedview>
  <metadata
     id="metadata5">
    <rdf:RDF>
      <cc:Work
         rdf:about="">
        <dc:format>image/svg+xml</dc:format>
        <dc:type
           rdf:resource="http://purl.org/dc/dcmitype/StillImage" />
        <dc:title></dc:title>
      </cc:Work>
    </rdf:RDF>
  </metadata>
  <g
     inkscape:label="Layer 1"
     inkscape:groupmode="layer"
     id="layer1">
    <g
       aria-label="DOC"
       transform="matrix(0.88595284,0,0,0.89243146,0.39344915,0.99550352)"
       id="text896"
       style="font-style:normal;font-weight:normal;font-size:2.37752px;line-height:1.25;font-family:sans-serif;fill:#000000;fill-opacity:1;stroke:none;stroke-width:0.297556" />
    <path
       id="path901"
       style="color:#000000;font-style:normal;font-variant:normal;font-weight:normal;font-stretch:normal;font-size:medium;line-height:normal;font-family:sans-serif;font-variant-ligatures:normal;font-variant-position:normal;font-variant-caps:normal;font-variant-numeric:normal;font-variant-alternates:normal;font-variant-east-asian:normal;font-feature-settings:normal;font-variation-settings:normal;text-indent:0;text-align:start;text-decoration:none;text-decoration-line:none;text-decoration-style:solid;text-decoration-color:#000000;letter-spacing:normal;word-spacing:normal;text-transform:none;writing-mode:lr-tb;direction:ltr;text-orientation:mixed;dominant-baseline:auto;baseline-shift:baseline;text-anchor:start;white-space:normal;shape-padding:0;shape-margin:0;inline-size:0;clip-rule:nonzero;display:inline;overflow:visible;visibility:visible;opacity:1;isolation:auto;mix-blend-mode:normal;color-interpolation:sRGB;color-interpolation-filters:linearRGB;solid-color:#000000;solid-opacity:1;vector-effect:none;fill:#ffffff;fill-opacity:1;fill-rule:nonzero;stroke:none;stroke-width:1.51181;stroke-linecap:round;stroke-linejoin:miter;stroke-miterlimit:4;stroke-dasharray:none;stroke-dashoffset:0;stroke-opacity:1;color-rendering:auto;image-rendering:auto;shape-rendering:auto;text-rendering:auto;enable-background:accumulate;stop-color:#000000;stop-opacity:1"
       d="M 8.5449219 1.4335938 C 6.8173051 1.4335938 5.251459 1.6650005 4.0605469 2.0761719 C 3.4650909 2.2817575 2.9631556 2.5312518 2.5683594 2.8535156 C 2.1773816 3.1726631 1.8750023 3.6094382 1.8691406 4.1230469 L 1.8574219 4.1230469 L 1.8574219 4.75 L 1.8574219 20.390625 C 1.8565207 20.409636 1.8359715 20.424201 1.8359375 20.443359 C 1.8359378 20.458477 1.8569079 20.465502 1.8574219 20.480469 L 1.8574219 20.492188 L 1.8632812 20.492188 C 1.8855918 20.986743 2.1600895 21.418518 2.5410156 21.728516 C 2.936999 22.050766 3.4437687 22.298323 4.0410156 22.503906 C 5.2355096 22.915075 6.8042489 23.150332 8.5371094 23.150391 C 9.4044673 23.150441 10.231109 23.090787 10.990234 22.980469 L 10.990234 21.701172 C 10.249928 21.821424 9.421992 21.89654 8.5371094 21.896484 C 6.9341104 21.89643 5.4837027 21.665518 4.4921875 21.324219 C 3.9964303 21.15357 3.6176255 20.95254 3.4023438 20.777344 C 3.1877655 20.602721 3.1974541 20.378366 3.1972656 20.324219 L 3.1972656 19.308594 C 3.4068631 19.415781 3.6179146 19.522353 3.8574219 19.613281 C 5.0873319 20.080206 6.7035293 20.347656 8.484375 20.347656 C 9.3711846 20.347656 10.214258 20.282637 10.990234 20.158203 L 10.990234 18.871094 C 10.235162 19.008014 9.3893474 19.09375 8.484375 19.09375 C 6.854306 19.09375 5.3803645 18.832852 4.375 18.451172 C 3.8725247 18.260336 3.4856361 18.038872 3.2617188 17.837891 C 3.228089 17.807705 3.2217029 17.787559 3.1953125 17.759766 L 3.1933594 16.205078 C 3.3960116 16.307439 3.5978928 16.408685 3.828125 16.496094 C 5.058035 16.963019 6.6722793 17.232422 8.453125 17.232422 C 9.3513473 17.232422 10.205623 17.162701 10.990234 17.035156 L 10.990234 15.748047 C 10.226983 15.888494 9.3708152 15.976562 8.453125 15.976562 C 6.8230563 15.976562 5.3510677 15.715666 4.3457031 15.333984 C 3.8432289 15.143148 3.4563396 14.923639 3.2324219 14.722656 C 3.2117857 14.704137 3.209274 14.691452 3.1914062 14.673828 L 3.1894531 12.978516 C 3.3949593 13.082846 3.6019098 13.186549 3.8359375 13.275391 C 5.0658475 13.742316 6.680091 14.011719 8.4609375 14.011719 C 9.3567579 14.011719 10.207776 13.943293 10.990234 13.816406 L 10.990234 12.529297 C 10.228951 12.668836 9.3753649 12.755859 8.4609375 12.755859 C 6.8308677 12.755859 5.3569267 12.494961 4.3515625 12.113281 C 3.8490872 11.922446 3.462199 11.702935 3.2382812 11.501953 C 3.2120211 11.478407 3.2073411 11.461552 3.1855469 11.439453 L 3.1835938 9.4375 C 3.3959594 9.5466452 3.6122275 9.6537486 3.8554688 9.7460938 C 5.0853792 10.213019 6.6996226 10.480469 8.4804688 10.480469 C 9.3680713 10.480469 10.21326 10.413712 10.990234 10.289062 L 10.990234 9.0019531 C 10.23383 9.1392638 9.3868566 9.2265625 8.4804688 9.2265625 C 6.8503997 9.2265625 5.378411 8.9656649 4.3730469 8.5839844 C 3.8705727 8.3931477 3.4836834 8.1716856 3.2597656 7.9707031 C 3.2207685 7.9357047 3.2129395 7.9107148 3.1835938 7.8789062 L 3.1796875 5.8183594 C 3.4458464 5.9585458 3.7377274 6.0819011 4.0605469 6.1933594 C 5.251459 6.60453 6.8173051 6.8417969 8.5449219 6.8417969 C 10.272539 6.8417969 11.83448 6.6045308 13.025391 6.1933594 C 13.348741 6.0817197 13.641708 5.9588331 13.908203 5.8183594 L 13.908203 5.96875 C 14.331666 5.8175155 14.770111 5.6955226 15.232422 5.6171875 L 15.232422 4.1230469 L 15.226562 4.1230469 C 15.220616 3.6094291 14.910515 3.1726675 14.519531 2.8535156 C 14.124736 2.5312518 13.620847 2.2817574 13.025391 2.0761719 C 11.83448 1.6650008 10.272539 1.4335938 8.5449219 1.4335938 z M 8.5449219 2.6875 C 10.143071 2.6875 11.585656 2.914551 12.574219 3.2558594 C 13.068498 3.4265118 13.447463 3.6255699 13.662109 3.8007812 C 13.876756 3.9759926 13.908203 4.08467 13.908203 4.1386719 C 13.908203 4.1575695 13.892853 4.1891063 13.878906 4.2207031 L 13.785156 4.3125 C 13.51258 4.577827 12.81608 4.9218314 11.884766 5.1484375 C 10.953452 5.3750432 9.7902332 5.5098601 8.5605469 5.5097656 C 7.3311629 5.5097403 6.1692779 5.3750338 5.2382812 5.1484375 C 4.307285 4.9218408 3.6123258 4.5777605 3.3398438 4.3125 L 3.1894531 4.1679688 C 3.1882572 4.1598428 3.1796875 4.1453238 3.1796875 4.1386719 C 3.1796875 4.08467 3.2091956 3.9759926 3.4238281 3.8007812 C 3.6384728 3.6255631 4.0174378 3.4265134 4.5117188 3.2558594 C 5.5002806 2.914551 6.9467725 2.6874989 8.5449219 2.6875 z "
       transform="scale(0.26458333)" />
    <path
       id="path901-2"
       style="color:#000000;font-style:normal;font-variant:normal;font-weight:normal;font-stretch:normal;font-size:medium;line-height:normal;font-family:sans-serif;font-variant-ligatures:normal;font-variant-position:normal;font-variant-caps:normal;font-variant-numeric:normal;font-variant-alternates:normal;font-variant-east-asian:normal;font-feature-settings:normal;font-variation-settings:normal;text-indent:0;text-align:start;text-decoration:none;text-decoration-line:none;text-decoration-style:solid;text-decoration-color:#000000;letter-spacing:normal;word-spacing:normal;text-transform:none;writing-mode:lr-tb;direction:ltr;text-orientation:mixed;dominant-baseline:auto;baseline-shift:baseline;text-anchor:start;white-space:normal;shape-padding:0;shape-margin:0;inline-size:0;clip-rule:nonzero;display:inline;overflow:visible;visibility:visible;opacity:1;isolation:auto;mix-blend-mode:normal;color-interpolation:sRGB;color-interpolation-filters:linearRGB;solid-color:#000000;solid-opacity:1;vector-effect:none;fill:#ffffff;fill-opacity:1;fill-rule:nonzero;stroke:none;stroke-width:1.51181;stroke-linecap:round;stroke-linejoin:miter;stroke-miterlimit:4;stroke-dasharray:none;stroke-dashoffset:0;stroke-opacity:1;color-rendering:auto;image-rendering:auto;shape-rendering:auto;text-rendering:auto;enable-background:accumulate;stop-color:#000000;stop-opacity:1"
       d="M 17.779297 6.6503906 C 16.340835 6.6503906 15.038462 6.843195 14.046875 7.1855469 C 13.551082 7.3567217 13.131452 7.5637056 12.802734 7.8320312 C 12.477196 8.0977623 12.225584 8.4629801 12.220703 8.890625 L 12.210938 8.890625 L 12.210938 9.4121094 L 12.210938 22.435547 C 12.210188 22.451383 12.193397 22.462589 12.193359 22.478516 L 12.193359 22.480469 C 12.19336 22.493017 12.210484 22.499246 12.210938 22.511719 L 12.210938 22.519531 L 12.216797 22.519531 C 12.235392 22.931311 12.46408 23.290715 12.78125 23.548828 C 13.110957 23.817144 13.532012 24.024138 14.029297 24.195312 C 14.351254 24.306137 14.716261 24.394253 15.097656 24.472656 A 8.4298171 8.3242647 0 0 1 14.976562 23.375 C 14.773992 23.324776 14.576057 23.272014 14.404297 23.212891 C 13.991515 23.070804 13.677296 22.903685 13.498047 22.757812 C 13.319383 22.612417 13.328282 22.425944 13.328125 22.380859 L 13.326172 21.535156 C 13.500688 21.624402 13.677531 21.713355 13.876953 21.789062 C 14.21972 21.919191 14.609716 22.022397 15.017578 22.113281 A 8.4298171 8.3242647 0 0 1 15.197266 21.076172 C 14.87256 21.000683 14.56678 20.918331 14.308594 20.820312 C 13.890219 20.661417 13.567299 20.47789 13.380859 20.310547 C 13.352853 20.285413 13.346193 20.267279 13.324219 20.244141 L 13.324219 18.951172 C 13.492952 19.0364 13.661818 19.120581 13.853516 19.193359 C 14.385255 19.39523 15.004713 19.54975 15.683594 19.654297 A 8.4298171 8.3242647 0 0 1 16.210938 18.660156 C 15.465489 18.567706 14.795891 18.419247 14.283203 18.224609 C 13.864828 18.065714 13.541909 17.882186 13.355469 17.714844 C 13.338272 17.699423 13.337157 17.69045 13.322266 17.675781 L 13.320312 16.263672 C 13.491423 16.350537 13.664517 16.437742 13.859375 16.511719 C 14.821971 16.877161 16.071711 17.088281 17.449219 17.113281 A 8.4298171 8.3242647 0 0 1 18.818359 16.025391 C 18.461459 16.057457 18.092403 16.078125 17.708984 16.078125 C 16.351744 16.078125 15.126156 15.860764 14.289062 15.542969 C 13.870688 15.384074 13.547768 15.200545 13.361328 15.033203 C 13.339482 15.013587 13.336509 15.000809 13.318359 14.982422 L 13.316406 13.314453 C 13.493228 13.405332 13.67247 13.495379 13.875 13.572266 C 14.899057 13.96104 16.24378 14.183594 17.726562 14.183594 C 19.209343 14.183594 20.550161 13.961039 21.574219 13.572266 C 21.816785 13.480177 22.039771 13.378236 22.246094 13.265625 L 22.246094 14.767578 A 8.4298171 8.3242647 0 0 1 23.347656 14.689453 L 23.347656 8.890625 L 23.34375 8.890625 C 23.338787 8.4629726 23.07945 8.0977657 22.753906 7.8320312 C 22.425189 7.5637056 22.00556 7.3567228 21.509766 7.1855469 C 20.518181 6.8431942 19.217758 6.6503906 17.779297 6.6503906 z M 17.779297 7.6953125 C 19.10996 7.6953125 20.31166 7.8837868 21.134766 8.1679688 C 21.546316 8.3100563 21.862295 8.4771616 22.041016 8.6230469 C 22.219738 8.7689329 22.244141 8.8593356 22.244141 8.9042969 C 22.244141 8.9200197 22.232306 8.9463507 22.220703 8.9726562 L 22.142578 9.0488281 C 21.915633 9.2697449 21.335985 9.5554625 20.560547 9.7441406 C 19.785109 9.9328188 18.81684 10.045 17.792969 10.044922 C 16.769349 10.044901 15.802517 9.9328112 15.027344 9.7441406 C 14.252171 9.5554704 13.672188 9.2696912 13.445312 9.0488281 L 13.320312 8.9277344 C 13.319314 8.920969 13.3125 8.909815 13.3125 8.9042969 C 13.3125 8.8593356 13.336884 8.7689329 13.515625 8.6230469 C 13.69434 8.4771458 14.010323 8.3100608 14.421875 8.1679688 C 15.244979 7.8837861 16.448634 7.6953125 17.779297 7.6953125 z M 13.3125 10.300781 C 13.534109 10.417504 13.778087 10.522432 14.046875 10.615234 C 15.038462 10.957588 16.340835 11.154297 17.779297 11.154297 C 19.217758 11.154297 20.518181 10.957585 21.509766 10.615234 C 21.778993 10.522281 22.024202 10.417743 22.246094 10.300781 L 22.246094 11.886719 C 22.210831 11.947713 22.158451 12.014641 22.070312 12.09375 C 21.883884 12.261096 21.566985 12.444617 21.148438 12.603516 C 20.311342 12.921313 19.083803 13.138672 17.726562 13.138672 C 16.369322 13.138672 15.143735 12.921312 14.306641 12.603516 C 13.888267 12.444618 13.565346 12.261093 13.378906 12.09375 C 13.346428 12.064609 13.338887 12.044061 13.314453 12.017578 L 13.3125 10.300781 z "
       transform="scale(0.26458333)" />
    <path
       id="path1004"
       style="fill:#ffffff;stroke:none;stroke-width:1.51181;stroke-linecap:round;stroke-miterlimit:4;stroke-dasharray:none"
       d="M 23.28125 16.048828 A 7.0030556 7.0030556 0 0 0 16.375 23.050781 A 7.0030556 7.0030556 0 0 0 23.376953 30.054688 A 7.0030556 7.0030556 0 0 0 30.380859 23.050781 A 7.0030556 7.0030556 0 0 0 23.376953 16.048828 A 7.0030556 7.0030556 0 0 0 23.28125 16.048828 z M 18.773438 19.449219 L 20.837891 19.449219 C 21.528155 19.449219 22.032952 19.583886 22.353516 19.855469 C 22.676419 20.127051 22.837891 20.557476 22.837891 21.144531 C 22.837891 21.550533 22.754408 21.881969 22.585938 22.142578 C 22.419805 22.403188 22.167019 22.595304 21.830078 22.71875 C 22.01493 22.768128 22.181101 22.881074 22.326172 23.056641 C 22.473586 23.229466 22.621734 23.493777 22.771484 23.847656 L 23.505859 25.591797 L 22.066406 25.591797 L 21.427734 24.064453 C 21.299041 23.757208 21.168529 23.54802 21.035156 23.435547 C 20.904123 23.323073 20.727761 23.267578 20.507812 23.267578 L 20.125 23.267578 L 20.125 25.591797 L 18.773438 25.591797 L 18.773438 19.449219 z M 20.125 20.595703 L 20.125 22.171875 L 20.693359 22.171875 C 20.976485 22.171875 21.179108 22.109775 21.300781 21.986328 C 21.424795 21.862881 21.486328 21.661461 21.486328 21.378906 C 21.486328 21.099094 21.424795 20.898047 21.300781 20.777344 C 21.179108 20.656641 20.976485 20.595703 20.693359 20.595703 L 20.125 20.595703 z M 26.808594 20.871094 C 27.292949 20.871094 27.690749 21.098144 28.001953 21.550781 C 28.313157 22.000675 28.46875 22.580513 28.46875 23.291016 C 28.46875 24.001519 28.313157 24.584473 28.001953 25.037109 C 27.690749 25.487003 27.292949 25.710937 26.808594 25.710938 C 26.534828 25.710938 26.29262 25.647673 26.082031 25.521484 C 25.871444 25.392552 25.679012 25.19462 25.505859 24.925781 L 25.505859 27.34375 L 24.25 27.34375 L 24.25 20.982422 L 25.505859 20.982422 L 25.505859 21.658203 C 25.67901 21.389365 25.871442 21.190643 26.082031 21.064453 C 26.292619 20.935518 26.534827 20.871094 26.808594 20.871094 z M 26.341797 21.941406 C 26.072711 21.941406 25.865776 22.057839 25.720703 22.291016 C 25.577971 22.521448 25.505859 22.854838 25.505859 23.291016 C 25.505859 23.727193 25.577971 24.061745 25.720703 24.294922 C 25.865774 24.525355 26.072709 24.640625 26.341797 24.640625 C 26.610883 24.640625 26.814685 24.525355 26.955078 24.294922 C 27.097811 24.064489 27.169922 23.729937 27.169922 23.291016 C 27.169922 22.852095 27.097811 22.517543 26.955078 22.287109 C 26.814686 22.056677 26.610884 21.941407 26.341797 21.941406 z "
       transform="scale(0.26458333)" />
    <path
       id="path901-9"
       style="color:#000000;font-style:normal;font-variant:normal;font-weight:normal;font-stretch:normal;font-size:medium;line-height:normal;font-family:sans-serif;font-variant-ligatures:normal;font-variant-position:normal;font-variant-caps:normal;font-variant-numeric:normal;font-variant-alternates:normal;font-variant-east-asian:normal;font-feature-settings:normal;font-variation-settings:normal;text-indent:0;text-align:start;text-decoration:none;text-decoration-line:none;text-decoration-style:solid;text-decoration-color:#000000;letter-spacing:normal;word-spacing:normal;text-transform:none;writing-mode:lr-tb;direction:ltr;text-orientation:mixed;dominant-baseline:auto;baseline-shift:baseline;text-anchor:start;white-space:normal;shape-padding:0;shape-margin:0;inline-size:0;clip-rule:nonzero;display:inline;overflow:visible;visibility:visible;opacity:1;isolation:auto;mix-blend-mode:normal;color-interpolation:sRGB;color-interpolation-filters:linearRGB;solid-color:#000000;solid-opacity:1;vector-effect:none;fill:#ffffff;fill-opacity:1;fill-rule:nonzero;stroke:none;stroke-width:0.4;stroke-linecap:round;stroke-linejoin:miter;stroke-miterlimit:4;stroke-dasharray:none;stroke-dashoffset:0;stroke-opacity:1;color-rendering:auto;image-rendering:auto;shape-rendering:auto;text-rendering:auto;enable-background:accumulate;stop-color:#000000;stop-opacity:1"
       d="m -4.9280534,-0.02370925 c -0.4570986,0 -0.8710232,0.061292 -1.1861187,0.1700815 -0.1575477,0.054394 -0.2907657,0.1203744 -0.3952222,0.2056401 -0.1034462,0.084441 -0.1833985,0.2004149 -0.1849494,0.3363072 h -0.00317 v 0.1657973 4.13807745 c -2.385e-4,0.00503 -0.00542,0.00864 -0.00543,0.013709 v 4.234e-4 c 0,0.004 0.00529,0.00589 0.00543,0.00985 v 0.003 h 0.00181 c 0.0059,0.130851 0.078736,0.2448616 0.1795231,0.3268819 0.1047706,0.085262 0.2385571,0.1508175 0.3965787,0.2052116 0.3160432,0.1087882 0.7312501,0.1709227 1.1897361,0.1709383 0.4585778,2.67e-5 0.8740548,-0.06215 1.1901885,-0.1709383 0.1580663,-0.054392 0.2917769,-0.1199391 0.3965781,-0.2052087 0.1008166,-0.082027 0.173618,-0.196006 0.179523,-0.3268819 h 0.00497 v -0.00857 c 2.54e-5,-0.00172 0.00225,-0.00257 0.00225,-0.00429 v -4.234e-4 c -3.7e-6,-0.00206 -0.00222,-0.00351 -0.00225,-0.00557 V 0.68831845 h -0.00135 c -0.00158,-0.1358947 -0.083765,-0.251865 -0.1872123,-0.3363072 -0.1044562,-0.085266 -0.2376744,-0.1512456 -0.3952222,-0.2056401 -0.315095,-0.108789 -0.7285676,-0.1700815 -1.1856662,-0.1700815 z m 0,0.332023 c 0.4228436,0 0.8047286,0.06007 1.066286,0.1503744 0.130778,0.045152 0.2312588,0.098018 0.2880508,0.1443764 0.056792,0.046358 0.064664,0.074823 0.064664,0.089111 0,0.005 -0.00399,0.013489 -0.00768,0.021849 l -0.024871,0.02442 c -0.072119,0.070201 -0.2559902,0.16110657 -0.5024004,0.22106277 -0.2464101,0.0599561 -0.554173,0.095562 -0.8795275,0.095537 -0.3252745,-6.8e-6 -0.632749,-0.035583 -0.8790753,-0.095537 C -6.0489329,0.89955362 -6.232906,0.80862775 -6.3050002,0.73844425 l -0.039793,-0.038558 c -3.175e-4,-0.00215 -0.00271,-0.00595 -0.00271,-0.00771 0,-0.014288 0.00788,-0.042753 0.064664,-0.089111 0.056791,-0.04636 0.1572719,-0.099225 0.2880504,-0.1443778 0.261557,-0.090305 0.6438948,-0.1503743 1.0667385,-0.150374 z M -6.3475069,1.1364434 c 0.070421,0.037091 0.1479222,0.069903 0.2333348,0.099393 0.3150955,0.1087888 0.7290201,0.171795 1.1861187,0.171795 0.4570986,0 0.8705712,-0.063006 1.1856662,-0.171795 0.085553,-0.029538 0.1632768,-0.062226 0.2337872,-0.099393 v 0.5038181 c -0.011208,0.019382 -0.028066,0.040838 -0.056073,0.065977 -0.05924,0.053176 -0.1595715,0.111448 -0.2925728,0.1619409 -0.2660029,0.1009859 -0.65625,0.1700814 -1.0875392,0.1700814 -0.4312891,0 -0.8206322,-0.069095 -1.0866348,-0.1700814 -0.1329465,-0.050492 -0.2355888,-0.108765 -0.2948338,-0.1619416 -0.010318,-0.00926 -0.012585,-0.016004 -0.020349,-0.02442 z M -3.5086,2.0781035 v 0.4841109 c -0.01021,0.022345 -0.027333,0.047305 -0.061499,0.077972 -0.05924,0.053177 -0.1595718,0.1114486 -0.2925728,0.1619414 -0.266003,0.1009856 -0.65625,0.1700813 -1.0875392,0.1700813 -0.4312893,0 -0.8210845,-0.069095 -1.0870871,-0.1700813 -0.1329468,-0.050492 -0.235137,-0.1087649 -0.2943819,-0.1619414 -0.00695,-0.00623 -0.00825,-0.010432 -0.014018,-0.01628 l -4.524e-4,-0.5299513 c 0.056188,0.028878 0.1133567,0.057395 0.1777143,0.081828 0.3254138,0.1235407 0.7524689,0.1945013 1.2236511,0.1945013 0.4711818,0 0.8973329,-0.070961 1.2227468,-0.1945013 0.07708,-0.029262 0.1478746,-0.061893 0.2134382,-0.09768 z m 0,0.9313779 v 0.3984279 c -0.00919,0.023969 -0.025389,0.050363 -0.063308,0.084398 -0.05924,0.053177 -0.1595717,0.1114487 -0.292573,0.1619415 -0.2660029,0.1009859 -0.6562499,0.1700816 -1.0875394,0.1700816 -0.431289,0 -0.8210843,-0.069095 -1.087087,-0.1700816 -0.1329463,-0.050492 -0.2351364,-0.1087649 -0.2943813,-0.1619417 -0.00546,-0.0049 -0.00612,-0.00819 -0.010852,-0.012853 l -4.525e-4,-0.4485523 c 0.054373,0.027604 0.1090116,0.055322 0.1709314,0.078828 0.3254137,0.1235405 0.7524688,0.1945012 1.2236511,0.1945012 0.4711819,0 0.8968803,-0.070961 1.2222943,-0.1945012 0.079056,-0.030013 0.1524037,-0.06335 0.2193164,-0.1002484 z m 0,0.8516927 v 0.3902877 c -0.011224,0.019278 -0.027367,0.040593 -0.055168,0.065548 -0.059241,0.053177 -0.160024,0.1114482 -0.2930255,0.1619413 -0.2660027,0.1009856 -0.6557976,0.1700816 -1.087087,0.1700816 -0.4312891,0 -0.8210843,-0.069095 -1.087087,-0.1700816 -0.1329466,-0.050492 -0.235589,-0.1087652 -0.2948338,-0.1619414 -0.0089,-0.00799 -0.010654,-0.013639 -0.017636,-0.020992 l -4.525e-4,-0.4112799 c 0.053618,0.027083 0.1073026,0.053988 0.1682182,0.077115 0.3254137,0.1235408 0.7524689,0.1945013 1.223651,0.1945013 0.4711819,0 0.8973326,-0.070961 1.2227468,-0.1945013 0.079708,-0.030261 0.1533186,-0.063409 0.2206738,-0.1006787 z m 0,0.8277011 -0.00135,0.3063182 c 0,0.01429 -0.00406,0.053027 -0.061047,0.099393 -0.056982,0.046365 -0.1572836,0.09965 -0.288499,0.1448044 -0.2624396,0.090308 -0.6461541,0.1512581 -1.0703663,0.1512311 C -5.3539891,5.3906076 -5.7378795,5.3296929 -6.0002179,5.2393908 -6.131387,5.1942398 -6.2313089,5.1409398 -6.2882688,5.094586 -6.3450428,5.048384 -6.3424828,4.9889556 -6.3425328,4.9746292 L -6.3429853,4.706012 c 0.055456,0.02836 0.1116316,0.056485 0.1750012,0.080543 0.3254137,0.1235405 0.7529212,0.194501 1.2241033,0.194501 0.471182,0 0.8968803,-0.070961 1.2222945,-0.194501 0.076947,-0.029212 0.1475135,-0.061967 0.2129863,-0.09768 z" />
  </g>
</svg>
