<?xml version="1.0" encoding="UTF-8" standalone="no"?>
<svg
   xmlns:dc="http://purl.org/dc/elements/1.1/"
   xmlns:cc="http://creativecommons.org/ns#"
   xmlns:rdf="http://www.w3.org/1999/02/22-rdf-syntax-ns#"
   xmlns:svg="http://www.w3.org/2000/svg"
   xmlns="http://www.w3.org/2000/svg"
   xmlns:sodipodi="http://sodipodi.sourceforge.net/DTD/sodipodi-0.dtd"
   xmlns:inkscape="http://www.inkscape.org/namespaces/inkscape"
   width="32"
   height="32"
   viewBox="0 0 8.4666667 8.4666667"
   version="1.1"
   id="svg8"
   inkscape:version="1.0.1 (0767f8302a, 2020-10-17)"
   sodipodi:docname="icon-saldoawal-white.svg">
  <defs
     id="defs2" />
  <sodipodi:namedview
     id="base"
     pagecolor="#000000"
     bordercolor="#666666"
     borderopacity="1.0"
     inkscape:pageopacity="0"
     inkscape:pageshadow="2"
     inkscape:zoom="15.839192"
     inkscape:cx="13.427642"
     inkscape:cy="20.160828"
     inkscape:document-units="mm"
     inkscape:current-layer="layer1"
     inkscape:document-rotation="0"
     showgrid="false"
     inkscape:window-width="1874"
     inkscape:window-height="1016"
     inkscape:window-x="46"
     inkscape:window-y="27"
     inkscape:window-maximized="1"
     units="px"
     inkscape:snap-global="false" />
  <metadata
     id="metadata5">
    <rdf:RDF>
      <cc:Work
         rdf:about="">
        <dc:format>image/svg+xml</dc:format>
        <dc:type
           rdf:resource="http://purl.org/dc/dcmitype/StillImage" />
        <dc:title></dc:title>
      </cc:Work>
    </rdf:RDF>
  </metadata>
  <g
     inkscape:label="Layer 1"
     inkscape:groupmode="layer"
     id="layer1">
    <path
       id="rect1578"
       style="fill:#ffffff;stroke-width:3.64724;stroke-linecap:round;stroke-linejoin:round;stroke-miterlimit:4;stroke-dasharray:none"
       d="M 8.4785156 6.4804688 C 6.5577386 6.4804687 5.0117188 8.0264886 5.0117188 9.9472656 L 5.0117188 21.273438 C 5.0117187 23.194214 6.5577386 24.740234 8.4785156 24.740234 L 24.330078 24.740234 C 26.161928 24.740234 27.637326 23.329591 27.771484 21.533203 L 16.111328 21.533203 C 14.882571 21.533203 13.892578 20.54321 13.892578 19.314453 L 13.892578 12.068359 C 13.892578 10.839602 14.882571 9.8515625 16.111328 9.8515625 L 27.787109 9.8515625 C 27.735571 7.9764588 26.218079 6.4804688 24.330078 6.4804688 L 8.4785156 6.4804688 z M 17.664062 12.322266 L 17.664062 18.882812 L 29.824219 18.882812 L 29.824219 12.322266 L 17.664062 12.322266 z M 21.667969 14.042969 A 1.6104162 1.5208635 0 0 1 21.669922 14.042969 A 1.6104162 1.5208635 0 0 1 21.710938 14.042969 A 1.6104162 1.5208635 0 0 1 23.320312 15.564453 A 1.6104162 1.5208635 0 0 1 21.710938 17.083984 A 1.6104162 1.5208635 0 0 1 20.099609 15.564453 A 1.6104162 1.5208635 0 0 1 21.667969 14.042969 z "
       transform="scale(0.26458333)" />
  </g>
</svg>
