<?xml version="1.0" encoding="UTF-8" standalone="no"?>
<svg
   xmlns:dc="http://purl.org/dc/elements/1.1/"
   xmlns:cc="http://creativecommons.org/ns#"
   xmlns:rdf="http://www.w3.org/1999/02/22-rdf-syntax-ns#"
   xmlns:svg="http://www.w3.org/2000/svg"
   xmlns="http://www.w3.org/2000/svg"
   xmlns:sodipodi="http://sodipodi.sourceforge.net/DTD/sodipodi-0.dtd"
   xmlns:inkscape="http://www.inkscape.org/namespaces/inkscape"
   width="32"
   height="32"
   viewBox="0 0 8.4666667 8.4666667"
   version="1.1"
   id="svg8"
   inkscape:version="1.0.1 (0767f8302a, 2020-10-17)"
   sodipodi:docname="icon-stock-white.svg">
  <defs
     id="defs2" />
  <sodipodi:namedview
     id="base"
     pagecolor="#7a7a7a"
     bordercolor="#666666"
     borderopacity="1.0"
     inkscape:pageopacity="0"
     inkscape:pageshadow="2"
     inkscape:zoom="16"
     inkscape:cx="7.3962399"
     inkscape:cy="18.278749"
     inkscape:document-units="mm"
     inkscape:current-layer="layer1"
     inkscape:document-rotation="0"
     showgrid="false"
     inkscape:window-width="1874"
     inkscape:window-height="1016"
     inkscape:window-x="46"
     inkscape:window-y="27"
     inkscape:window-maximized="1"
     units="px"
     inkscape:snap-global="false"
     showguides="false" />
  <metadata
     id="metadata5">
    <rdf:RDF>
      <cc:Work
         rdf:about="">
        <dc:format>image/svg+xml</dc:format>
        <dc:type
           rdf:resource="http://purl.org/dc/dcmitype/StillImage" />
        <dc:title></dc:title>
      </cc:Work>
    </rdf:RDF>
  </metadata>
  <g
     inkscape:label="Layer 1"
     inkscape:groupmode="layer"
     id="layer1">
    <path
       id="rect5680"
       style="fill:#ffffff;fill-opacity:1;stroke:none;stroke-width:2.26772;stroke-linecap:round;stroke-linejoin:round"
       d="M 2.796875 18.871094 L 2.796875 29.849609 L 15.695312 29.849609 L 15.695312 18.871094 L 12.623047 18.871094 L 12.623047 23.892578 L 6.0605469 23.892578 L 6.0605469 18.871094 L 2.796875 18.871094 z M 7.1972656 18.871094 L 7.1972656 22.755859 L 11.486328 22.755859 L 11.486328 18.871094 L 7.1972656 18.871094 z "
       transform="scale(0.26458333)" />
    <path
       id="rect5680-9"
       style="fill:#ffffff;fill-opacity:1;stroke:none;stroke-width:2.26772;stroke-linecap:round;stroke-linejoin:round"
       d="M 17.769531 5.9179688 L 17.769531 29.828125 L 20.855469 29.828125 L 20.855469 21.699219 L 29.220703 21.699219 L 29.220703 5.9179688 L 17.769531 5.9179688 z M 20.21875 7.6777344 L 26.773438 7.6777344 L 26.773438 11.308594 L 20.21875 11.308594 L 20.21875 8.2382812 L 20.21875 7.6777344 z M 21.347656 8.8066406 L 21.347656 10.171875 L 25.644531 10.171875 L 25.644531 8.8066406 L 21.347656 8.8066406 z "
       transform="scale(0.26458333)" />
    <rect
       style="fill:#ffffff;fill-opacity:1;stroke:none;stroke-width:0.600001;stroke-linecap:round;stroke-linejoin:round"
       id="rect5680-1"
       width="2.2512343"
       height="1.0406913"
       x="1.6592404"
       y="3.7097216" />
    <rect
       style="fill:#ffffff;fill-opacity:1;stroke:none;stroke-width:0.600003;stroke-linecap:round;stroke-linejoin:round"
       id="rect5680-1-2"
       width="2.4309413"
       height="0.37964115"
       x="1.5625296"
       y="3.1041284" />
    <path
       id="rect5680-1-0-9"
       style="fill:#ffffff;fill-opacity:1;stroke:none;stroke-width:2.26772;stroke-linecap:round;stroke-linejoin:round"
       d="M 21.880859 22.535156 L 21.880859 31.509766 L 31.396484 31.509766 L 31.396484 22.535156 L 21.880859 22.535156 z M 27.123047 25.558594 L 29.923828 25.558594 L 29.923828 27.011719 L 27.123047 27.011719 L 27.123047 25.558594 z M 24.914062 28.091797 L 29.933594 28.091797 L 29.933594 29.544922 L 24.914062 29.544922 L 24.914062 28.091797 z "
       transform="scale(0.26458333)" />
  </g>
</svg>
