<?xml version="1.0" encoding="UTF-8" standalone="no"?>
<svg
   width="32"
   height="32"
   viewBox="0 0 8.4666667 8.4666667"
   version="1.1"
   id="svg8"
   inkscape:version="1.1.1 (1:1.1+202109281949+c3084ef5ed)"
   sodipodi:docname="icon-budgetdept-view-white.svg"
   xmlns:inkscape="http://www.inkscape.org/namespaces/inkscape"
   xmlns:sodipodi="http://sodipodi.sourceforge.net/DTD/sodipodi-0.dtd"
   xmlns="http://www.w3.org/2000/svg"
   xmlns:svg="http://www.w3.org/2000/svg"
   xmlns:rdf="http://www.w3.org/1999/02/22-rdf-syntax-ns#"
   xmlns:cc="http://creativecommons.org/ns#"
   xmlns:dc="http://purl.org/dc/elements/1.1/">
  <defs
     id="defs2" />
  <sodipodi:namedview
     id="base"
     pagecolor="#8c0000"
     bordercolor="#666666"
     borderopacity="1.0"
     inkscape:pageopacity="0"
     inkscape:pageshadow="2"
     inkscape:zoom="11.2"
     inkscape:cx="13.080357"
     inkscape:cy="24.151786"
     inkscape:document-units="mm"
     inkscape:current-layer="layer1"
     inkscape:document-rotation="0"
     showgrid="false"
     inkscape:window-width="1864"
     inkscape:window-height="1016"
     inkscape:window-x="56"
     inkscape:window-y="27"
     inkscape:window-maximized="1"
     units="px"
     inkscape:snap-global="false"
     inkscape:pagecheckerboard="0" />
  <metadata
     id="metadata5">
    <rdf:RDF>
      <cc:Work
         rdf:about="">
        <dc:format>image/svg+xml</dc:format>
        <dc:type
           rdf:resource="http://purl.org/dc/dcmitype/StillImage" />
      </cc:Work>
    </rdf:RDF>
  </metadata>
  <g
     inkscape:label="Layer 1"
     inkscape:groupmode="layer"
     id="layer1">
    <path
       style="fill:none;stroke:#ffffff;stroke-width:0.264583px;stroke-linecap:butt;stroke-linejoin:miter;stroke-opacity:1"
       d="m -2.9029411,14.455747 -4.527091,0.03685 c -1.089979,-0.229954 -1.010247,-0.673883 -1.2751506,-1.41529 l 4.6693889,-0.02322 c 0.5453303,2.467626 2.1734169,1.150391 2.0578726,0.02612 l 0.00938,-5.8042763 h -5.5499572 l -0.027786,1.2467675"
       id="path1953"
       sodipodi:nodetypes="ccccccc" />
    <path
       style="fill:none;stroke:#ffffff;stroke-width:0.264583px;stroke-linecap:butt;stroke-linejoin:miter;stroke-opacity:1"
       d="m -7.6033753,10.839663 0.033827,2.166074"
       id="path1963" />
    <rect
       style="fill:#ffffff;stroke:#ffffff;stroke-width:0.2"
       id="rect2984"
       width="2.03093"
       height="1.1240604"
       x="-8.3029079"
       y="10.778061" />
    <rect
       style="fill:#ffffff;stroke:#ffffff;stroke-width:0.2"
       id="rect2984-3"
       width="2.03093"
       height="1.1240604"
       x="-4.9256649"
       y="10.766064" />
    <rect
       style="fill:#ffffff;stroke:#ffffff;stroke-width:0.2"
       id="rect2984-6"
       width="2.03093"
       height="1.1240604"
       x="-6.5781879"
       y="8.1734133" />
    <path
       style="fill:none;stroke:#ffffff;stroke-width:0.264583px;stroke-linecap:butt;stroke-linejoin:miter;stroke-opacity:1"
       d="m -7.252832,11.055441 0.023624,-0.976443 3.4295733,0.0052 -0.02673,1.211758"
       id="path3007" />
    <path
       style="fill:none;stroke:#ffffff;stroke-width:0.264583px;stroke-linecap:butt;stroke-linejoin:miter;stroke-opacity:1"
       d="m -5.5177006,10.109536 7.673e-4,-1.0804983"
       id="path3009" />
    <path
       style="fill:#ffffff;stroke:#000000;stroke-width:0.264583px;stroke-linecap:butt;stroke-linejoin:miter;stroke-opacity:1"
       d="M 0.72367406,2.2674822 C 1.4549118,1.8996331 2.2744688,1.7754901 3.0282822,1.4601476 c 0.09252,-0.038704 0.1768125,-0.095169 0.2686814,-0.135394 0.1769187,-0.077464 0.4041685,-0.047247 0.5905878,-0.047247 0.074317,0 0.2454233,-0.024782 0.3071056,0.023624 0.00541,0.00425 0.00625,0.1099185 0,0.13255 -0.093613,0.3388598 -0.3689024,0.5630595 -0.5185537,0.8623619 -0.029887,0.059774 -0.1039868,0.2257415 -0.00364,0.2536349 0.2932454,0.081511 0.6043358,0.076073 0.9080733,0.095583 0.8162467,0.052428 1.2682881,0.067318 2.0938963,-0.00295 C 7.0539805,2.6100114 7.4303818,2.547776 7.8083634,2.5005721 8.1209361,2.4615366 8.4331354,2.4193748 8.7460972,2.383595 8.7525319,2.3828595 8.9243248,2.3584112 8.926042,2.3599714 8.9588463,2.3897763 8.882808,2.4461335 8.786461,2.5424805 8.5960658,2.7328757 8.3537532,2.8171857 8.1269305,2.9562986 7.8800787,3.1076953 7.648912,3.2380642 7.3762075,3.3417081 6.9726986,3.4950659 6.5962146,3.6618002 6.2024145,3.8341699 5.9711444,3.9353987 5.7255624,4.0191147 5.5033711,4.1412077 5.2803829,4.2637387 5.112854,4.4717874 4.8871626,4.584633 c -0.037941,0.018971 -0.071766,0.029658 -0.094494,0.07087 -2.911e-4,5.292e-4 0.03647,-4.498e-4 0.038551,0 0.079214,0.01673 0.09394,0.023275 0.1653646,0.047247 0.1052055,0.035309 0.2088991,0.075467 0.3155677,0.106073 0.3880782,0.111351 0.7680995,0.2054228 1.1400769,0.3687641 0.09187,0.040341 0.3934254,0.1573294 0.4265901,0.3065706 0.01025,0.046122 0,0.094494 0,0.141741 0,0.031498 0.01106,0.065002 0,0.094494 C 6.8294889,5.8519406 6.3386435,6.2752871 6.2248009,6.345393 6.157102,6.3870826 6.0824136,6.4161833 6.010903,6.4509316 5.6545199,6.6241048 5.431605,6.8680091 5.0451839,6.6361563 4.773215,6.4729751 4.6299892,6.1777559 4.4622381,5.9254209 4.4167626,5.8570158 4.3573033,5.7983556 4.3140965,5.7284953 4.2914403,5.6918619 4.290075,5.6443342 4.2662136,5.6084731 4.2662022,5.6084559 4.0751236,5.417385 4.0751103,5.4173699 4.0143607,5.3479974 3.9675982,5.2300203 3.8861222,5.1811348 3.644451,5.036132 3.0361313,5.2454407 2.9531535,5.2079707 2.9275206,5.1963952 3.0402072,5.0995778 3.0430726,5.096715 3.0987796,5.0410588 3.8206963,4.4008886 3.8230333,4.3432404 3.8251765,4.2905849 3.7518287,4.2650637 3.7112426,4.2314492 3.6705606,4.1977548 3.6142961,4.188575 3.5695016,4.1605784 3.3734547,4.0380491 3.2186409,3.9483728 2.9745826,3.9952138 2.8749926,4.0143273 2.7832431,4.0653663 2.6834975,4.08365 2.5035062,4.116643 2.3196842,4.1237833 2.1383702,4.1484944 1.9223946,4.1779293 1.7107984,4.2337894 1.4959733,4.2706959 c -0.2081113,0.035753 -0.423686,0.07791 -0.62717293,0.027039 -0.0229182,-0.00573 -0.0512146,0.013105 -0.0708705,0 -0.1431119,-0.095408 -0.11713503,-0.4517943 -0.0708705,-0.5905879 0.0735678,-0.2207035 0.0167291,0.016087 0.0944941,-0.1653646 0.0380197,-0.088713 0.0745517,-0.2546408 0.094494,-0.3543527 0.0142565,-0.071282 0.0140528,-0.2132182 0,-0.283482 C 0.89174594,2.7824401 0.78877006,2.6874798 0.75068281,2.5732182 c -0.00741,-0.022231 -0.009749,-0.078641 -0.0236236,-0.092968 -0.004963,-0.00512 -0.0166116,0.00529 -0.0214008,0 -0.0186391,-0.020575 0.0139073,-0.1859118 0.0180157,-0.212768 z"
       id="path902" />
  </g>
</svg>
