<?xml version="1.0" encoding="UTF-8" standalone="no"?>
<svg
   xmlns:dc="http://purl.org/dc/elements/1.1/"
   xmlns:cc="http://creativecommons.org/ns#"
   xmlns:rdf="http://www.w3.org/1999/02/22-rdf-syntax-ns#"
   xmlns:svg="http://www.w3.org/2000/svg"
   xmlns="http://www.w3.org/2000/svg"
   xmlns:sodipodi="http://sodipodi.sourceforge.net/DTD/sodipodi-0.dtd"
   xmlns:inkscape="http://www.inkscape.org/namespaces/inkscape"
   width="32"
   height="32"
   viewBox="0 0 8.4666667 8.4666667"
   version="1.1"
   id="svg8"
   inkscape:version="1.0.1 (0767f8302a, 2020-10-17)"
   sodipodi:docname="icon-asset-white.svg">
  <defs
     id="defs2" />
  <sodipodi:namedview
     id="base"
     pagecolor="#7a7a7a"
     bordercolor="#666666"
     borderopacity="1.0"
     inkscape:pageopacity="0"
     inkscape:pageshadow="2"
     inkscape:zoom="22.627417"
     inkscape:cx="1.1770499"
     inkscape:cy="12.835943"
     inkscape:document-units="mm"
     inkscape:current-layer="layer1"
     inkscape:document-rotation="0"
     showgrid="false"
     inkscape:window-width="1874"
     inkscape:window-height="1016"
     inkscape:window-x="46"
     inkscape:window-y="27"
     inkscape:window-maximized="1"
     units="px"
     inkscape:snap-global="false" />
  <metadata
     id="metadata5">
    <rdf:RDF>
      <cc:Work
         rdf:about="">
        <dc:format>image/svg+xml</dc:format>
        <dc:type
           rdf:resource="http://purl.org/dc/dcmitype/StillImage" />
        <dc:title></dc:title>
      </cc:Work>
    </rdf:RDF>
  </metadata>
  <g
     inkscape:label="Layer 1"
     inkscape:groupmode="layer"
     id="layer1">
    <path
       id="rect865"
       style="opacity:0.94;fill:#ffffff;fill-opacity:0.769944;stroke:none;stroke-width:2.5134;stroke-linecap:round"
       d="M 1 9.2148438 L 1 24.921875 L 14.576172 31.9375 L 14.576172 16.230469 L 1 9.2148438 z M 3.1152344 15.673828 L 7.9160156 18.003906 C 9.0576658 19.204927 9.858944 20.383445 10.578125 21.558594 L 10.837891 21.689453 C 12.462565 22.500362 13.771484 24.461263 13.771484 26.085938 C 13.771484 26.195646 13.749922 26.289919 13.738281 26.390625 L 12.595703 25.818359 A 2.2793514 1.3907052 52.006268 0 0 12.644531 25.425781 A 2.2793514 1.3907052 52.006268 0 0 10.865234 22.755859 A 2.2793514 1.3907052 52.006268 0 0 9.0859375 23.650391 A 2.2793514 1.3907052 52.006268 0 0 9.1367188 24.091797 L 5.6503906 22.353516 A 2.2793512 1.3907051 52.006268 0 0 5.6816406 22.029297 A 2.2793512 1.3907051 52.006268 0 0 3.9023438 19.361328 A 2.2793512 1.3907051 52.006268 0 0 2.1210938 20.251953 A 2.2793512 1.3907051 52.006268 0 0 2.15625 20.607422 L 1.3632812 20.212891 C 1.3516894 20.10059 1.3320312 19.986661 1.3320312 19.876953 C 1.3320312 19.240249 1.5368771 18.756242 1.8789062 18.447266 L 3.1152344 15.673828 z M 3.4980469 16.367188 L 2.890625 17.878906 L 5.1035156 18.972656 L 5.0527344 17.134766 L 3.4980469 16.367188 z M 5.6679688 17.433594 L 5.7304688 19.296875 L 9.7636719 21.259766 C 9.5693974 20.590901 8.6056924 19.443857 7.9003906 18.523438 L 5.6679688 17.433594 z M 3.1699219 19.548828 A 1.8071342 1.0780755 48.295662 0 1 3.8339844 19.703125 A 1.8071342 1.0780755 48.295662 0 1 3.8886719 19.730469 A 1.8071342 1.0780755 48.295662 0 1 5.3359375 21.798828 A 1.8071342 1.0780755 48.295662 0 1 3.8886719 22.421875 A 1.8071342 1.0780755 48.295662 0 1 2.4414062 20.353516 A 1.8071342 1.0780755 48.295662 0 1 3.1699219 19.548828 z M 3.6289062 20.480469 A 0.72889145 0.43483211 48.295653 0 0 3.3183594 20.804688 A 0.72889145 0.43483211 48.295653 0 0 3.9003906 21.638672 A 0.72889145 0.43483211 48.295653 0 0 4.484375 21.386719 A 0.72889145 0.43483211 48.295653 0 0 3.9003906 20.552734 A 0.72889145 0.43483211 48.295653 0 0 3.6289062 20.480469 z M 10.150391 22.96875 A 1.8071342 1.0780755 48.295662 0 1 10.816406 23.125 A 1.8071342 1.0780755 48.295662 0 1 10.871094 23.150391 A 1.8071342 1.0780755 48.295662 0 1 12.316406 25.21875 A 1.8071342 1.0780755 48.295662 0 1 10.871094 25.84375 A 1.8071342 1.0780755 48.295662 0 1 9.421875 23.775391 A 1.8071342 1.0780755 48.295662 0 1 10.150391 22.96875 z M 10.611328 23.900391 A 0.72889138 0.43483208 48.29566 0 0 10.298828 24.224609 A 0.72889138 0.43483208 48.29566 0 0 10.882812 25.058594 A 0.72889138 0.43483208 48.29566 0 0 11.464844 24.806641 A 0.72889138 0.43483208 48.29566 0 0 10.882812 23.974609 A 0.72889138 0.43483208 48.29566 0 0 10.611328 23.900391 z "
       transform="scale(0.26458333)" />
    <path
       id="rect865-3"
       style="opacity:0.94;fill:#ffffff;fill-opacity:0.443563;stroke:none;stroke-width:0.665004;stroke-linecap:round"
       d="M 8.1887261,2.4276978 4.5966973,4.2839151 V 8.439217 L 8.1887261,6.5835165 Z M 6.4260431,3.7836873 8.0145766,4.4348104 4.8369927,6.0295452 Z M 7.612534,4.806364 V 6.4713785 L 6.8453233,6.8426206 V 6.0571389 c 0,-0.2439842 -0.1953559,-0.3427913 -0.4376994,-0.221175 L 6.3032376,5.8881569 C 6.0608943,6.0097731 5.8655381,6.3045976 5.8655381,6.5485817 V 7.3345802 L 5.2586724,7.652185 V 5.9876871 Z"
       sodipodi:nodetypes="ccccccccccccsccscccc" />
    <rect
       style="opacity:0.94;fill:#ffffff;fill-opacity:1;stroke:none;stroke-width:0.744279;stroke-linecap:round"
       id="rect883"
       width="3.9301956"
       height="3.9112122"
       x="2.5050468"
       y="-2.1888685"
       transform="matrix(0.89647838,0.44308748,-0.89361617,0.44883198,0,0)" />
    <path
       id="path861"
       style="fill:#4d4d4d;stroke:none;stroke-width:0.600001;stroke-linecap:round;stroke-linejoin:round"
       inkscape:transform-center-y="-0.20378761"
       d="m -2.8241422,-0.31843263 -1.3508219,1.2226644 H -1.473837 Z M -3.8163296,1.0478924 v 1.4055989 h 0.2806031 V 1.7899658 c 0,-0.2060194 0.1660509,-0.3720703 0.3720702,-0.3720703 h 0.088883 c 0.2060194,0 0.3720703,0.1660509 0.3720703,0.3720703 v 0.6635255 h 0.8872843 V 1.0478924 Z" />
    <path
       id="rect5528"
       style="fill:#b3b3b3;stroke:none;stroke-width:0.600001;stroke-linecap:round;stroke-linejoin:round"
       d="m -3.4703247,3.4581861 -1.0929565,0.014986 -0.2816365,0.772046 c -0.077878,0.1092223 -0.1245402,0.2425993 -0.1245402,0.387573 0,0.02498 0.00459,0.048611 0.00723,0.072864 h 0.1803505 a 0.40539175,0.40539175 0 0 1 -0.00775,-0.076998 0.40539175,0.40539175 0 0 1 0.40566,-0.40566 0.40539175,0.40539175 0 0 1 0.4051433,0.40566 0.40539175,0.40539175 0 0 1 -0.00723,0.076998 h 0.79375 a 0.40539177,0.40539177 0 0 1 -0.011369,-0.095085 0.40539177,0.40539177 0 0 1 0.4051432,-0.4056599 0.40539177,0.40539177 0 0 1 0.4051433,0.4056599 0.40539177,0.40539177 0 0 1 -0.011369,0.095085 h 0.2604492 c 0.00265,-0.024253 0.00723,-0.047884 0.00723,-0.072864 0,-0.3699288 -0.2977308,-0.6676594 -0.6676595,-0.6676594 h -0.059428 C -3.0279172,3.7792898 -3.2103777,3.6019065 -3.4703247,3.4581861 Z m -0.00362,0.1198894 c 0.16059,0.1294188 0.3800284,0.2811266 0.4242635,0.4113445 L -3.9679687,4.0007886 -3.9819214,3.58376 Z m -0.6480224,0.00723 0.011369,0.4128948 -0.5038453,0.00258 0.1384927,-0.4134114 z m 1.3120645,0.7090008 a 0.32943048,0.30660506 0 0 0 -0.3172933,0.3064412 0.32943048,0.30660506 0 0 0 0.3296956,0.3064412 0.32943048,0.30660506 0 0 0 0.3291789,-0.3064412 0.32943048,0.30660506 0 0 0 -0.3291789,-0.3064412 0.32943048,0.30660506 0 0 0 -0.012402,0 z m -1.5895669,0.014469 a 0.32943048,0.30660506 0 0 0 -0.3172934,0.3064412 0.32943048,0.30660506 0 0 0 0.3296957,0.3064412 0.32943048,0.30660506 0 0 0 0.3291787,-0.3064412 0.32943048,0.30660506 0 0 0 -0.3291787,-0.3064412 0.32943048,0.30660506 0 0 0 -0.012402,0 z m 1.6045531,0.1715656 A 0.13287284,0.1236664 0 0 1 -2.662108,4.6038476 0.13287284,0.1236664 0 0 1 -2.7949164,4.7273543 0.13287284,0.1236664 0 0 1 -2.9277249,4.6038476 0.13287284,0.1236664 0 0 1 -2.7949164,4.4803409 Z m -1.5895671,0.01447 a 0.13287285,0.1236664 0 0 1 0.1328084,0.1235067 0.13287285,0.1236664 0 0 1 -0.1328084,0.1235067 0.13287285,0.1236664 0 0 1 -0.1328084,-0.1235067 0.13287285,0.1236664 0 0 1 0.1328084,-0.1235067 z" />
  </g>
</svg>
