<?xml version="1.0" encoding="UTF-8" standalone="no"?>
<svg
   xmlns:dc="http://purl.org/dc/elements/1.1/"
   xmlns:cc="http://creativecommons.org/ns#"
   xmlns:rdf="http://www.w3.org/1999/02/22-rdf-syntax-ns#"
   xmlns:svg="http://www.w3.org/2000/svg"
   xmlns="http://www.w3.org/2000/svg"
   xmlns:sodipodi="http://sodipodi.sourceforge.net/DTD/sodipodi-0.dtd"
   xmlns:inkscape="http://www.inkscape.org/namespaces/inkscape"
   width="32"
   height="32"
   viewBox="0 0 8.4666667 8.4666667"
   version="1.1"
   id="svg8"
   inkscape:version="1.0.1 (0767f8302a, 2020-10-17)"
   sodipodi:docname="icon-colltarget-white.svg">
  <defs
     id="defs2">
    <inkscape:path-effect
       effect="powerstroke"
       id="path-effect862"
       is_visible="true"
       lpeversion="1"
       offset_points="0,0.674052"
       sort_points="true"
       interpolator_type="CubicBezierJohan"
       interpolator_beta="0.2"
       start_linecap_type="zerowidth"
       linejoin_type="extrp_arc"
       miter_limit="4"
       scale_width="1"
       end_linecap_type="zerowidth" />
  </defs>
  <sodipodi:namedview
     id="base"
     pagecolor="#7a7a7a"
     bordercolor="#666666"
     borderopacity="1.0"
     inkscape:pageopacity="0"
     inkscape:pageshadow="2"
     inkscape:zoom="11.313709"
     inkscape:cx="-2.3588025"
     inkscape:cy="28.769698"
     inkscape:document-units="mm"
     inkscape:current-layer="layer1"
     inkscape:document-rotation="0"
     showgrid="true"
     inkscape:window-width="1874"
     inkscape:window-height="1016"
     inkscape:window-x="46"
     inkscape:window-y="27"
     inkscape:window-maximized="1"
     units="px"
     inkscape:snap-global="false"
     showguides="true"
     inkscape:guide-bbox="true"
     inkscape:snap-to-guides="false"
     inkscape:object-nodes="true">
    <inkscape:grid
       type="xygrid"
       id="grid60" />
  </sodipodi:namedview>
  <metadata
     id="metadata5">
    <rdf:RDF>
      <cc:Work
         rdf:about="">
        <dc:format>image/svg+xml</dc:format>
        <dc:type
           rdf:resource="http://purl.org/dc/dcmitype/StillImage" />
        <dc:title></dc:title>
      </cc:Work>
    </rdf:RDF>
  </metadata>
  <g
     inkscape:label="Layer 1"
     inkscape:groupmode="layer"
     id="layer1">
    <g
       aria-label="DOC"
       transform="matrix(0.88595284,0,0,0.89243146,0.39344915,0.99550352)"
       id="text896"
       style="font-style:normal;font-weight:normal;font-size:2.37752px;line-height:1.25;font-family:sans-serif;fill:#000000;fill-opacity:1;stroke:none;stroke-width:0.297556" />
    <path
       id="path901-9"
       style="color:#000000;font-style:normal;font-variant:normal;font-weight:normal;font-stretch:normal;font-size:medium;line-height:normal;font-family:sans-serif;font-variant-ligatures:normal;font-variant-position:normal;font-variant-caps:normal;font-variant-numeric:normal;font-variant-alternates:normal;font-variant-east-asian:normal;font-feature-settings:normal;font-variation-settings:normal;text-indent:0;text-align:start;text-decoration:none;text-decoration-line:none;text-decoration-style:solid;text-decoration-color:#000000;letter-spacing:normal;word-spacing:normal;text-transform:none;writing-mode:lr-tb;direction:ltr;text-orientation:mixed;dominant-baseline:auto;baseline-shift:baseline;text-anchor:start;white-space:normal;shape-padding:0;shape-margin:0;inline-size:0;clip-rule:nonzero;display:inline;overflow:visible;visibility:visible;opacity:1;isolation:auto;mix-blend-mode:normal;color-interpolation:sRGB;color-interpolation-filters:linearRGB;solid-color:#000000;solid-opacity:1;vector-effect:none;fill:#ffffff;fill-opacity:1;fill-rule:nonzero;stroke:none;stroke-width:0.4;stroke-linecap:round;stroke-linejoin:miter;stroke-miterlimit:4;stroke-dasharray:none;stroke-dashoffset:0;stroke-opacity:1;color-rendering:auto;image-rendering:auto;shape-rendering:auto;text-rendering:auto;enable-background:accumulate;stop-color:#000000;stop-opacity:1"
       d="m 19.551926,7.1259411 c -0.457098,0 -0.871023,0.061292 -1.186118,0.1700815 -0.157548,0.054394 -0.290766,0.1203744 -0.395223,0.2056401 -0.103446,0.084441 -0.183398,0.2004149 -0.184949,0.3363072 h -0.0032 v 0.1657973 4.1380778 c -2.38e-4,0.005 -0.0054,0.0086 -0.0054,0.01371 v 4.23e-4 c 0,0.004 0.0053,0.0059 0.0054,0.0099 v 0.003 h 0.0018 c 0.0059,0.130851 0.07874,0.244862 0.179523,0.326882 0.104771,0.08526 0.238557,0.150817 0.396579,0.205212 0.316043,0.108788 0.73125,0.170922 1.189736,0.170938 0.458578,2.7e-5 0.874055,-0.06215 1.190188,-0.170938 0.158067,-0.05439 0.291777,-0.11994 0.396579,-0.205209 0.100816,-0.08203 0.173618,-0.196006 0.179523,-0.326882 h 0.005 v -0.0086 c 2.5e-5,-0.0017 0.0023,-0.0026 0.0023,-0.0043 v -4.23e-4 c -4e-6,-0.0021 -0.0022,-0.0035 -0.0023,-0.0056 V 7.8379688 h -0.0013 C 21.318444,7.7020741 21.236259,7.5861038 21.132811,7.5016616 21.028355,7.4163956 20.895137,7.350416 20.737589,7.2960215 20.422494,7.1872325 20.009021,7.12594 19.551923,7.12594 Z m 0,0.332023 c 0.422844,0 0.804729,0.06007 1.066286,0.1503744 0.130778,0.045152 0.231259,0.098018 0.288051,0.1443764 0.05679,0.046358 0.06466,0.074823 0.06466,0.089111 0,0.005 -0.004,0.013489 -0.0077,0.021849 l -0.02487,0.02442 c -0.07212,0.070201 -0.25599,0.1611066 -0.5024,0.2210628 -0.24641,0.059956 -0.554173,0.095562 -0.879528,0.095537 -0.325274,-6.8e-6 -0.632749,-0.035583 -0.879075,-0.095537 C 18.431047,8.049204 18.247074,7.9582781 18.17498,7.8880946 l -0.03979,-0.038558 c -3.18e-4,-0.00215 -0.0027,-0.00595 -0.0027,-0.00771 0,-0.014288 0.0079,-0.042753 0.06466,-0.089111 0.05679,-0.04636 0.157271,-0.099225 0.28805,-0.1443778 0.261557,-0.090305 0.643895,-0.1503743 1.066738,-0.150374 z m -1.419453,0.8281297 c 0.07042,0.037091 0.147922,0.069903 0.233335,0.099393 0.315095,0.1087888 0.72902,0.171795 1.186118,0.171795 0.457099,0 0.870572,-0.063006 1.185667,-0.171795 0.08555,-0.029538 0.163276,-0.062226 0.233787,-0.099393 v 0.5038181 c -0.01121,0.019382 -0.02807,0.040838 -0.05607,0.065977 -0.05924,0.053176 -0.159572,0.111448 -0.292573,0.1619409 -0.266003,0.1009859 -0.65625,0.1700814 -1.087539,0.1700814 -0.431289,0 -0.820632,-0.069095 -1.086635,-0.1700814 -0.132947,-0.050492 -0.235589,-0.108765 -0.294834,-0.1619416 -0.01032,-0.00926 -0.01258,-0.016004 -0.02035,-0.02442 z m 2.838907,0.9416601 v 0.4841109 c -0.01021,0.022345 -0.02733,0.047305 -0.0615,0.077972 -0.05924,0.053177 -0.159572,0.1114486 -0.292573,0.1619414 -0.266003,0.1009858 -0.65625,0.1700808 -1.087539,0.1700808 -0.43129,0 -0.821085,-0.0691 -1.087087,-0.1700808 -0.132947,-0.050492 -0.235137,-0.1087649 -0.294382,-0.1619414 -0.0069,-0.00623 -0.0083,-0.010432 -0.01402,-0.01628 l -4.53e-4,-0.5299513 c 0.05619,0.028878 0.113357,0.057395 0.177715,0.081828 0.325413,0.1235407 0.752469,0.1945013 1.223651,0.1945013 0.471182,0 0.897333,-0.070961 1.222747,-0.1945013 0.07708,-0.029262 0.147874,-0.061893 0.213438,-0.09768 z m 0,0.9313781 v 0.398428 c -0.0092,0.02397 -0.02539,0.05036 -0.06331,0.0844 -0.05924,0.05318 -0.159572,0.111448 -0.292573,0.161941 -0.266003,0.100986 -0.65625,0.170082 -1.08754,0.170082 -0.431289,0 -0.821084,-0.0691 -1.087087,-0.170082 -0.132946,-0.05049 -0.235136,-0.108765 -0.294381,-0.161942 -0.0055,-0.0049 -0.0061,-0.0082 -0.01085,-0.01285 l -4.52e-4,-0.448552 c 0.05437,0.0276 0.109011,0.05532 0.170931,0.07883 0.325414,0.123541 0.752469,0.194501 1.223651,0.194501 0.471182,0 0.89688,-0.07096 1.222294,-0.194501 0.07906,-0.03001 0.152404,-0.06335 0.219317,-0.100248 z m 0,0.851692 v 0.390288 c -0.01122,0.01928 -0.02737,0.04059 -0.05517,0.06555 -0.05924,0.05318 -0.160024,0.111448 -0.293026,0.161941 -0.266002,0.100986 -0.655797,0.170082 -1.087087,0.170082 -0.431289,0 -0.821084,-0.0691 -1.087087,-0.170082 -0.132946,-0.05049 -0.235589,-0.108765 -0.294834,-0.161941 -0.0089,-0.008 -0.01065,-0.01364 -0.01764,-0.02099 l -4.52e-4,-0.41128 c 0.05362,0.02708 0.107303,0.05399 0.168218,0.07712 0.325414,0.123541 0.752469,0.194501 1.223651,0.194501 0.471182,0 0.897333,-0.07096 1.222747,-0.194501 0.07971,-0.03026 0.153319,-0.06341 0.220674,-0.100679 z m 0,0.827702 -0.0013,0.306318 c 0,0.01429 -0.0041,0.05303 -0.06105,0.09939 -0.05698,0.04636 -0.157284,0.09965 -0.288499,0.144804 -0.26244,0.09031 -0.646154,0.151258 -1.070367,0.151231 -0.424126,-1.4e-5 -0.808017,-0.06093 -1.070355,-0.151231 -0.131169,-0.04515 -0.231091,-0.09845 -0.288051,-0.144805 -0.05677,-0.0462 -0.05421,-0.10563 -0.05426,-0.119956 l -4.53e-4,-0.268618 c 0.05546,0.02836 0.111632,0.05648 0.175002,0.08054 0.325413,0.123541 0.752921,0.194501 1.224103,0.194501 0.471182,0 0.89688,-0.07096 1.222294,-0.194501 0.07695,-0.02921 0.147514,-0.06197 0.212987,-0.09768 z" />
    <circle
       style="fill:#ffffff;stroke:none;stroke-width:0.4;stroke-linecap:round;stroke-miterlimit:4;stroke-dasharray:none"
       id="path1235"
       cx="3.267941"
       cy="1.3162104"
       r="1.27371" />
    <path
       id="path1237"
       style="fill:#ffffff;stroke:none;stroke-width:0.264583px;stroke-linecap:butt;stroke-linejoin:miter;stroke-opacity:1"
       d="M 2.2241869,2.7130115 C 1.362494,3.2312398 0.96311455,3.8277961 1.0221931,4.5020497 v 2.8008627 l 2.0045287,-0.05426 1.1790471,0.031928 C 4.176851,6.9355894 4.1557979,6.5903602 4.434033,6.2360698 4.6723885,5.8501534 5.0521267,5.5806094 5.4041786,5.2882768 L 5.4168059,4.80185 C 5.416604,4.6613312 5.1086812,4.3924505 4.9017943,4.047664 4.9623659,3.9150736 5.1019933,3.8602695 5.2622901,3.739815 5.0772011,3.3729258 4.7267522,3.0340579 4.2101123,2.7233469 L 3.2524687,5.436685 Z"
       sodipodi:nodetypes="ccccccccccccc" />
    <path
       id="path1004"
       style="fill:#ffffff;stroke:none;stroke-width:0.4;stroke-linecap:round;stroke-miterlimit:4;stroke-dasharray:none"
       d="m 6.9515641,3.8638667 c -0.08752,0.00338 -0.178027,0.028643 -0.319001,0.183326 -0.141174,0.0083 -0.223886,-0.1301003 -0.430308,-0.1298559 -0.198711,2.346e-4 -0.07438,0.1772834 -0.3208202,0.1993307 C 5.738979,3.9853074 5.4265147,3.847501 5.2728941,4.0901145 c -0.00543,0.00858 0.318887,0.3919851 0.331733,0.4190312 0.1368635,0.2449953 0.1525111,0.4427586 0.1707833,0.6242356 0.3373167,0.1782025 0.6702197,0.1901097 1.2443057,-0.00102 -0.01091,-0.1269119 -0.01456,-0.219819 0.05225,-0.4151497 0.07812,-0.2045334 0.294778,-0.5560924 0.543431,-0.7002038 -0.05622,0.012555 -0.158162,0.013953 -0.293904,-0.058562 -0.06339,-0.033866 -0.148393,-0.095841 -0.281536,-0.094573 -0.03022,2.886e-4 -0.05922,-0.00113 -0.08839,0 z m 0.66383,0.1531354 c 0.05957,-0.013302 0.06767,-0.039044 0.0062,-0.00436 -0.0021,0.00119 -0.0041,0.00315 -0.0062,0.00436 z M 7.0607731,5.2829696 C 6.4945471,5.5359107 6.1185751,5.4144161 5.7227033,5.3320856 5.6495753,5.4625646 5.5748362,5.5924753 5.4268318,5.6965488 5.3642438,5.7521528 5.3001367,5.805504 5.2384133,5.858414 5.1128572,5.9803403 4.976826,6.113107 4.9659703,6.1348581 4.7673414,6.3709409 4.5018662,6.6076572 4.5018353,7.1147797 4.5017835,7.5380415 4.8117627,7.9677251 5.2926108,8.1918205 5.6300431,8.3490784 6.0751461,8.3728203 6.4554951,8.3609606 6.8294491,8.3610065 7.5502581,8.2789936 7.9442921,8.012132 8.3093671,7.7648822 8.5162481,7.5796482 8.3625951,6.9994736 8.3278921,6.5785963 8.0150901,6.2759254 7.8082521,6.0246442 7.7439691,5.9465492 7.5791281,5.7959471 7.3637591,5.6241641 7.3561591,5.6185441 7.1095461,5.3179604 7.0607731,5.2829696 Z M 5.5981543,6.3858402 h 0.3844755 c 0.1285523,0 0.2225643,0.02508 0.2822643,0.075658 0.06014,0.050578 0.09021,0.1307392 0.09021,0.2400698 0,0.075612 -0.01555,0.1373375 -0.04692,0.1858723 -0.03094,0.048535 -0.07802,0.084314 -0.140768,0.107304 0.03443,0.0092 0.06538,0.030231 0.09239,0.062927 0.02745,0.032186 0.05504,0.081411 0.08293,0.1473155 l 0.136767,0.3248219 H 6.2114241 L 6.0924801,7.245363 c -0.02397,-0.05722 -0.04827,-0.096178 -0.07311,-0.1171249 -0.024404,-0.020947 -0.057247,-0.031282 -0.09821,-0.031282 H 5.849865 V 7.5298094 H 5.5981553 Z M 5.849864,6.5993568 v 0.29354 h 0.1058489 c 0.052728,0 0.090464,-0.011565 0.1131242,-0.034555 0.02309,-0.02299 0.03456,-0.060502 0.03456,-0.1131239 0,-0.052111 -0.01146,-0.089553 -0.03456,-0.1120325 -0.02266,-0.02248 -0.06039,-0.033829 -0.1131242,-0.033829 z m 1.2447261,0.051288 c 0.0902,0 0.164289,0.042285 0.222246,0.1265822 0.05796,0.083786 0.08693,0.1917731 0.08693,0.3240943 0,0.1323213 -0.02898,0.2408885 -0.08693,0.3251856 -0.05796,0.083787 -0.132042,0.1254909 -0.222246,0.1254911 -0.05098,0 -0.09609,-0.011781 -0.135312,-0.035283 -0.03922,-0.024012 -0.07506,-0.060874 -0.107304,-0.1109414 v 0.450313 H 6.6180881 V 6.6713778 h 0.233886 v 0.1258548 c 0.03224,-0.050067 0.06809,-0.087077 0.107304,-0.1105777 0.03922,-0.024012 0.08433,-0.03601 0.135312,-0.03601 z m -0.08693,0.1993307 c -0.05012,0 -0.08865,0.021684 -0.11567,0.06511 -0.02658,0.042915 -0.04001,0.1050038 -0.04001,0.186236 0,0.081232 0.01343,0.1435377 0.04001,0.1869637 0.02702,0.042915 0.06556,0.064382 0.11567,0.064382 0.05012,0 0.08807,-0.021468 0.114215,-0.064382 0.02659,-0.042915 0.04001,-0.1052206 0.04001,-0.1869637 0,-0.081743 -0.01343,-0.1440483 -0.04001,-0.1869635 -0.02615,-0.042914 -0.0641,-0.064382 -0.114215,-0.064382 z"
       sodipodi:nodetypes="ccscscccccssccscccccccscscscccscsccccccccsccccccscscscscscsccccccccsscscscscs" />
  </g>
</svg>
