<?xml version="1.0" encoding="UTF-8" standalone="no"?>
<svg
   xmlns:dc="http://purl.org/dc/elements/1.1/"
   xmlns:cc="http://creativecommons.org/ns#"
   xmlns:rdf="http://www.w3.org/1999/02/22-rdf-syntax-ns#"
   xmlns:svg="http://www.w3.org/2000/svg"
   xmlns="http://www.w3.org/2000/svg"
   xmlns:sodipodi="http://sodipodi.sourceforge.net/DTD/sodipodi-0.dtd"
   xmlns:inkscape="http://www.inkscape.org/namespaces/inkscape"
   width="32"
   height="32"
   viewBox="0 0 8.4666667 8.4666667"
   version="1.1"
   id="svg8"
   inkscape:version="1.0.1 (0767f8302a, 2020-10-17)"
   sodipodi:docname="icon-logproof-white.svg">
  <defs
     id="defs2">
    <inkscape:path-effect
       effect="powerstroke"
       id="path-effect862"
       is_visible="true"
       lpeversion="1"
       offset_points="0,0.674052"
       sort_points="true"
       interpolator_type="CubicBezierJohan"
       interpolator_beta="0.2"
       start_linecap_type="zerowidth"
       linejoin_type="extrp_arc"
       miter_limit="4"
       scale_width="1"
       end_linecap_type="zerowidth" />
  </defs>
  <sodipodi:namedview
     id="base"
     pagecolor="#7a7a7a"
     bordercolor="#666666"
     borderopacity="1.0"
     inkscape:pageopacity="0"
     inkscape:pageshadow="2"
     inkscape:zoom="10.963399"
     inkscape:cx="17.468368"
     inkscape:cy="20.467362"
     inkscape:document-units="mm"
     inkscape:current-layer="layer1"
     inkscape:document-rotation="0"
     showgrid="true"
     inkscape:window-width="1874"
     inkscape:window-height="1016"
     inkscape:window-x="46"
     inkscape:window-y="27"
     inkscape:window-maximized="1"
     units="px"
     inkscape:snap-global="false"
     showguides="true"
     inkscape:guide-bbox="true"
     inkscape:snap-to-guides="false"
     inkscape:object-nodes="true">
    <inkscape:grid
       type="xygrid"
       id="grid60" />
  </sodipodi:namedview>
  <metadata
     id="metadata5">
    <rdf:RDF>
      <cc:Work
         rdf:about="">
        <dc:format>image/svg+xml</dc:format>
        <dc:type
           rdf:resource="http://purl.org/dc/dcmitype/StillImage" />
        <dc:title></dc:title>
      </cc:Work>
    </rdf:RDF>
  </metadata>
  <g
     inkscape:label="Layer 1"
     inkscape:groupmode="layer"
     id="layer1">
    <g
       aria-label="DOC"
       transform="matrix(0.88595284,0,0,0.89243146,0.39344915,0.99550352)"
       id="text896"
       style="font-style:normal;font-weight:normal;font-size:2.37752px;line-height:1.25;font-family:sans-serif;fill:#000000;fill-opacity:1;stroke:none;stroke-width:0.297556" />
    <path
       id="path1007"
       style="color:#000000;font-style:normal;font-variant:normal;font-weight:normal;font-stretch:normal;font-size:medium;line-height:normal;font-family:sans-serif;font-variant-ligatures:normal;font-variant-position:normal;font-variant-caps:normal;font-variant-numeric:normal;font-variant-alternates:normal;font-variant-east-asian:normal;font-feature-settings:normal;font-variation-settings:normal;text-indent:0;text-align:start;text-decoration:none;text-decoration-line:none;text-decoration-style:solid;text-decoration-color:#000000;letter-spacing:normal;word-spacing:normal;text-transform:none;writing-mode:lr-tb;direction:ltr;text-orientation:mixed;dominant-baseline:auto;baseline-shift:baseline;text-anchor:start;white-space:normal;shape-padding:0;shape-margin:0;inline-size:0;clip-rule:nonzero;display:inline;overflow:visible;visibility:visible;opacity:1;isolation:auto;mix-blend-mode:normal;color-interpolation:sRGB;color-interpolation-filters:linearRGB;solid-color:#000000;solid-opacity:1;vector-effect:none;fill:#ffffff;fill-opacity:1;fill-rule:nonzero;stroke:none;stroke-width:2.13543;stroke-linecap:round;stroke-linejoin:bevel;stroke-miterlimit:4;stroke-dasharray:none;stroke-dashoffset:0;stroke-opacity:1;color-rendering:auto;image-rendering:auto;shape-rendering:auto;text-rendering:auto;enable-background:accumulate;stop-color:#000000;stop-opacity:1"
       d="M 11.121094 1.9824219 L 11.121094 3.484375 L 7.8183594 3.484375 C 6.3310624 3.484375 5.1015625 4.7138749 5.1015625 6.2011719 L 5.1015625 25.814453 C 5.1015625 27.30175 6.331062 28.53125 7.8183594 28.53125 L 17.121094 28.53125 A 8.0554032 8.0554032 0 0 0 22.605469 30.6875 A 8.0554032 8.0554032 0 0 0 30.662109 22.632812 A 8.0554032 8.0554032 0 0 0 26.205078 15.425781 L 26.205078 6.2011719 C 26.205078 4.7138749 24.975578 3.484375 23.488281 3.484375 L 20.892578 3.484375 L 20.892578 1.9824219 L 11.121094 1.9824219 z M 7.8183594 5.6171875 L 11.121094 5.6171875 L 11.121094 7.0214844 L 20.892578 7.0214844 L 20.892578 5.6171875 L 23.488281 5.6171875 C 23.829486 5.6171875 24.072266 5.8599675 24.072266 6.2011719 L 24.072266 14.712891 A 8.0554032 8.0554032 0 0 0 22.605469 14.578125 A 8.0554032 8.0554032 0 0 0 14.550781 22.632812 A 8.0554032 8.0554032 0 0 0 15.486328 26.398438 L 7.8183594 26.398438 C 7.477155 26.398438 7.234375 26.155657 7.234375 25.814453 L 7.234375 6.2011719 C 7.234375 5.8599675 7.4771546 5.6171875 7.8183594 5.6171875 z M 10.046875 9.7363281 L 10.03125 11.494141 L 20.240234 11.574219 L 20.255859 9.8183594 L 10.046875 9.7363281 z M 14.734375 13.544922 L 10.03125 13.576172 L 10.046875 15.332031 L 14.742188 15.302734 L 14.734375 13.544922 z M 26.029297 17.294922 L 28.279297 19.111328 L 20.757812 28.449219 L 16.867188 22.507812 L 19.28125 20.919922 L 21.001953 23.541016 L 26.029297 17.294922 z M 13.220703 18.609375 L 10.158203 18.734375 L 10.195312 19.615234 L 10.230469 20.492188 L 13.294922 20.367188 L 13.257812 19.488281 L 13.220703 18.609375 z "
       transform="scale(0.26458333)" />
  </g>
</svg>
