<?xml version="1.0" encoding="UTF-8" standalone="no"?>
<svg
   xmlns:dc="http://purl.org/dc/elements/1.1/"
   xmlns:cc="http://creativecommons.org/ns#"
   xmlns:rdf="http://www.w3.org/1999/02/22-rdf-syntax-ns#"
   xmlns:svg="http://www.w3.org/2000/svg"
   xmlns="http://www.w3.org/2000/svg"
   xmlns:sodipodi="http://sodipodi.sourceforge.net/DTD/sodipodi-0.dtd"
   xmlns:inkscape="http://www.inkscape.org/namespaces/inkscape"
   width="32"
   height="32"
   viewBox="0 0 8.4666667 8.4666667"
   version="1.1"
   id="svg8"
   inkscape:version="1.0.1 (3bc2e813f5, 2020-09-07)"
   sodipodi:docname="icon-budgetcorp-approve-white.svg">
  <defs
     id="defs2" />
  <sodipodi:namedview
     id="base"
     pagecolor="#000000"
     bordercolor="#666666"
     borderopacity="1.0"
     inkscape:pageopacity="0"
     inkscape:pageshadow="2"
     inkscape:zoom="11.313709"
     inkscape:cx="18.002365"
     inkscape:cy="30.783398"
     inkscape:document-units="mm"
     inkscape:current-layer="layer1"
     inkscape:document-rotation="0"
     showgrid="false"
     inkscape:window-width="1874"
     inkscape:window-height="1016"
     inkscape:window-x="46"
     inkscape:window-y="27"
     inkscape:window-maximized="1"
     units="px"
     inkscape:snap-global="false" />
  <metadata
     id="metadata5">
    <rdf:RDF>
      <cc:Work
         rdf:about="">
        <dc:format>image/svg+xml</dc:format>
        <dc:type
           rdf:resource="http://purl.org/dc/dcmitype/StillImage" />
        <dc:title></dc:title>
      </cc:Work>
    </rdf:RDF>
  </metadata>
  <g
     inkscape:label="Layer 1"
     inkscape:groupmode="layer"
     id="layer1">
    <path
       id="path2095"
       style="color:#000000;font-style:normal;font-variant:normal;font-weight:normal;font-stretch:normal;font-size:medium;line-height:normal;font-family:sans-serif;font-variant-ligatures:normal;font-variant-position:normal;font-variant-caps:normal;font-variant-numeric:normal;font-variant-alternates:normal;font-variant-east-asian:normal;font-feature-settings:normal;font-variation-settings:normal;text-indent:0;text-align:start;text-decoration:none;text-decoration-line:none;text-decoration-style:solid;text-decoration-color:#000000;letter-spacing:normal;word-spacing:normal;text-transform:none;writing-mode:lr-tb;direction:ltr;text-orientation:mixed;dominant-baseline:auto;baseline-shift:baseline;text-anchor:start;white-space:normal;shape-padding:0;shape-margin:0;inline-size:0;clip-rule:nonzero;display:inline;overflow:visible;visibility:visible;opacity:1;isolation:auto;mix-blend-mode:normal;color-interpolation:sRGB;color-interpolation-filters:linearRGB;solid-color:#000000;solid-opacity:1;vector-effect:none;fill:#ffffff;fill-opacity:1;fill-rule:nonzero;stroke:none;stroke-width:0.264583px;stroke-linecap:butt;stroke-linejoin:miter;stroke-miterlimit:4;stroke-dasharray:none;stroke-dashoffset:0;stroke-opacity:1;color-rendering:auto;image-rendering:auto;shape-rendering:auto;text-rendering:auto;enable-background:accumulate;stop-color:#000000;stop-opacity:1"
       d="m 7.0907238,3.5500552 0.01189,-2.98294556 -5.782593,-0.021704 v 0.2645833 l 5.516976,0.020671 -0.01189,2.57883826 m -2.388454,4.1882245 -3.3615526,0.01705 0.00568,-3.5575605 H 0.81668863 l -0.00517,3.8231485 3.83025707,-0.01964"
       sodipodi:nodetypes="cccccccccccc" />
    <path
       style="fill:none;stroke:#ffffff;stroke-width:0.264583px;stroke-linecap:butt;stroke-linejoin:miter;stroke-opacity:1"
       d="m 3.3907909,1.6843108 h 2.267881"
       id="path1551" />
    <path
       style="fill:none;stroke:#ffffff;stroke-width:0.264583px;stroke-linecap:butt;stroke-linejoin:miter;stroke-opacity:1"
       d="M 3.379685,3.7417497 H 5.6007428"
       id="path1551-6" />
    <path
       style="fill:none;stroke:#ffffff;stroke-width:0.264583px;stroke-linecap:butt;stroke-linejoin:miter;stroke-opacity:1"
       d="M 3.5109307,3.8521081 V 1.5842271"
       id="path1551-2" />
    <path
       style="fill:none;stroke:#ffffff;stroke-width:0.264583px;stroke-linecap:butt;stroke-linejoin:miter;stroke-opacity:1"
       d="M 5.5402319,3.8445837 V 1.5767027"
       id="path1551-2-9" />
    <path
       style="fill:none;stroke:#ffffff;stroke-width:0.264583px;stroke-linecap:butt;stroke-linejoin:miter;stroke-opacity:1"
       d="M 0.29115883,1.7050918 H 2.5590398"
       id="path1551-1" />
    <path
       style="fill:none;stroke:#ffffff;stroke-width:0.264583px;stroke-linecap:butt;stroke-linejoin:miter;stroke-opacity:1"
       d="M 0.27834945,2.3205265 H 2.5462304"
       id="path1551-27" />
    <path
       style="fill:none;stroke:#ffffff;stroke-width:0.264583px;stroke-linecap:butt;stroke-linejoin:miter;stroke-opacity:1"
       d="M 0.27753192,2.9066293 H 2.5454129"
       id="path1551-0" />
    <path
       style="fill:none;stroke:#ffffff;stroke-width:0.264583px;stroke-linecap:butt;stroke-linejoin:miter;stroke-opacity:1"
       d="M 0.29768493,3.5212487 H 2.5655659"
       id="path1551-9" />
    <g
       aria-label="Rp"
       id="text1739"
       style="font-style:normal;font-weight:normal;font-size:10.5833px;line-height:1.25;font-family:sans-serif;fill:#ffffff;fill-opacity:1;stroke:none;stroke-width:1.67501"
       transform="matrix(0.15795907,0,0,0.15795907,2.2434067,4.9870782)">
      <path
         d="m -0.76691454,3.3475145 q 0.62528284,0 0.89399943,-0.2325432 0.27388422,-0.2325432 0.27388422,-0.7648088 0,-0.5270979 -0.27388422,-0.7544735 Q -0.1416317,1.3683134 -0.76691454,1.3683134 H -1.6040701 V 3.3475145 Z M -1.6040701,4.7221032 v 2.9197091 h -1.9895363 v -7.71526675 h 3.03856456 q 1.5244499,0 2.23241474,0.51159505 0.7131325,0.51159505 0.7131325,1.6174672 0,0.7648087 -0.3720691,1.2557333 Q 1.6515348,3.8022656 0.90739654,4.0348088 1.3156391,4.1278261 1.6360319,4.4585542 1.9615924,4.7841147 2.2923205,5.4507386 l 1.080034,2.1910737 H 1.2536275 L 0.31311946,5.7246228 Q 0.02889998,5.1458486 -0.26565474,4.9339759 -0.55504184,4.7221032 -1.0407988,4.7221032 Z"
         style="font-style:normal;font-variant:normal;font-weight:bold;font-stretch:normal;font-family:sans-serif;-inkscape-font-specification:'sans-serif Bold';fill:#ffffff;stroke-width:1.67501"
         id="path1741" />
      <path
         d="M 6.3179013,6.8046568 V 9.8432213 H 4.4678909 V 1.8540703 H 6.3179013 V 2.7015611 Q 6.7003057,2.1951337 7.1653921,1.9574229 7.6304785,1.7145444 8.2350908,1.7145444 q 1.0696988,0 1.7569932,0.8526584 0.687294,0.8474908 0.687294,2.1859062 0,1.3384153 -0.687294,2.1910737 -0.6872944,0.8474908 -1.7569932,0.8474908 -0.6046123,0 -1.0696987,-0.2377108 Q 6.7003057,7.3110842 6.3179013,6.8046568 Z M 7.5477965,3.0581274 q -0.5942771,0 -0.91467,0.4392483 -0.3152252,0.4340806 -0.3152252,1.2557333 0,0.8216526 0.3152252,1.2609009 0.3203929,0.4340806 0.91467,0.4340806 0.5942771,0 0.9043347,-0.4340806 0.3152252,-0.4340807 0.3152252,-1.2609009 0,-0.8268203 -0.3152252,-1.260901 Q 8.1420736,3.0581274 7.5477965,3.0581274 Z"
         style="font-style:normal;font-variant:normal;font-weight:bold;font-stretch:normal;font-family:sans-serif;-inkscape-font-specification:'sans-serif Bold';fill:#ffffff;stroke-width:1.67501"
         id="path1743" />
    </g>
    <path
       id="path2112"
       style="color:#000000;font-style:normal;font-variant:normal;font-weight:normal;font-stretch:normal;font-size:medium;line-height:normal;font-family:sans-serif;font-variant-ligatures:normal;font-variant-position:normal;font-variant-caps:normal;font-variant-numeric:normal;font-variant-alternates:normal;font-variant-east-asian:normal;font-feature-settings:normal;font-variation-settings:normal;text-indent:0;text-align:start;text-decoration:none;text-decoration-line:none;text-decoration-style:solid;text-decoration-color:#000000;letter-spacing:normal;word-spacing:normal;text-transform:none;writing-mode:lr-tb;direction:ltr;text-orientation:mixed;dominant-baseline:auto;baseline-shift:baseline;text-anchor:start;white-space:normal;shape-padding:0;shape-margin:0;inline-size:0;clip-rule:nonzero;display:inline;overflow:visible;visibility:visible;opacity:1;isolation:auto;mix-blend-mode:normal;color-interpolation:sRGB;color-interpolation-filters:linearRGB;solid-color:#000000;solid-opacity:1;vector-effect:none;fill:#ffffff;fill-opacity:1;fill-rule:nonzero;stroke:none;stroke-width:0.264583px;stroke-linecap:butt;stroke-linejoin:miter;stroke-miterlimit:4;stroke-dasharray:none;stroke-dashoffset:0;stroke-opacity:1;color-rendering:auto;image-rendering:auto;shape-rendering:auto;text-rendering:auto;enable-background:accumulate;stop-color:#000000;stop-opacity:1"
       d="M 6.4694609,3.831876 A 1.0941623,1.0941623 0 0 0 5.374954,4.9258659 1.0941623,1.0941623 0 0 0 5.6844959,5.6875767 l 0.00723,2.0598224 0.8164875,-0.6309693 0.8108034,0.7580934 -0.00568,-2.2530924 A 1.0941623,1.0941623 0 0 0 7.5634511,4.9258659 1.0941623,1.0941623 0 0 0 6.4694609,3.831876 Z M 7.1242015,4.38223 7.3562286,4.6783357 6.1645699,5.754756 5.7056831,4.9480869 6.0105742,4.6984896 6.2663726,5.1661613 Z M 7.0503045,5.8524243 7.0534045,7.263191 6.5257883,6.7707146 5.9557973,7.210481 5.9506297,5.8891146 A 1.0941623,1.0941623 0 0 0 6.4694609,6.019856 1.0941623,1.0941623 0 0 0 7.0503045,5.8524243 Z" />
  </g>
</svg>
