<?xml version="1.0" encoding="UTF-8" standalone="no"?>
<svg
   xmlns:dc="http://purl.org/dc/elements/1.1/"
   xmlns:cc="http://creativecommons.org/ns#"
   xmlns:rdf="http://www.w3.org/1999/02/22-rdf-syntax-ns#"
   xmlns:svg="http://www.w3.org/2000/svg"
   xmlns="http://www.w3.org/2000/svg"
   xmlns:sodipodi="http://sodipodi.sourceforge.net/DTD/sodipodi-0.dtd"
   xmlns:inkscape="http://www.inkscape.org/namespaces/inkscape"
   width="32"
   height="32"
   viewBox="0 0 8.4666667 8.4666667"
   version="1.1"
   id="svg8"
   inkscape:version="1.0.1 (0767f8302a, 2020-10-17)"
   sodipodi:docname="icon-banklink-white.svg">
  <defs
     id="defs2">
    <filter
       style="color-interpolation-filters:sRGB;"
       inkscape:label="Invert"
       id="filter3063">
      <feColorMatrix
         values="1 0 0 0 0 0 1 0 0 0 0 0 1 0 0 -0.21 -0.72 -0.07 2 0 "
         result="fbSourceGraphic"
         id="feColorMatrix3061" />
      <feColorMatrix
         result="fbSourceGraphicAlpha"
         in="fbSourceGraphic"
         values="0 0 0 -1 0 0 0 0 -1 0 0 0 0 -1 0 0 0 0 1 0"
         id="feColorMatrix3065" />
      <feColorMatrix
         id="feColorMatrix3067"
         values="1 0 0 0 0 0 1 0 0 0 0 0 1 0 0 -0.21 -0.72 -0.07 2 0 "
         result="color2"
         in="fbSourceGraphic" />
    </filter>
  </defs>
  <sodipodi:namedview
     id="base"
     pagecolor="#7a7a7a"
     bordercolor="#666666"
     borderopacity="1.0"
     inkscape:pageopacity="0"
     inkscape:pageshadow="2"
     inkscape:zoom="22.627417"
     inkscape:cx="16.681114"
     inkscape:cy="17.140851"
     inkscape:document-units="mm"
     inkscape:current-layer="layer1"
     inkscape:document-rotation="0"
     showgrid="false"
     inkscape:window-width="1874"
     inkscape:window-height="1016"
     inkscape:window-x="46"
     inkscape:window-y="27"
     inkscape:window-maximized="1"
     units="px"
     inkscape:snap-global="false" />
  <metadata
     id="metadata5">
    <rdf:RDF>
      <cc:Work
         rdf:about="">
        <dc:format>image/svg+xml</dc:format>
        <dc:type
           rdf:resource="http://purl.org/dc/dcmitype/StillImage" />
        <dc:title></dc:title>
      </cc:Work>
    </rdf:RDF>
  </metadata>
  <g
     inkscape:label="Layer 1"
     inkscape:groupmode="layer"
     id="layer1">
    <path
       id="rect5603"
       style="fill:#ffffff;stroke:none;stroke-width:2.26772;stroke-linecap:round;stroke-linejoin:round"
       d="m 8.3828125,2.4121094 c -1.1176532,0 -2.0175781,0.8999248 -2.0175781,2.0175781 v 2.25 H 29.558594 v -2.25 c 0,-1.1176533 -0.899925,-2.0175781 -2.017578,-2.0175781 z m -2.0175781,5.84375 v 8.7636716 c 0.8293353,0.12347 2.4522142,0.251578 2.9002189,0.920741 1.1621957,1.719969 0.6624226,3.060954 0.7614917,4.970523 2.273535,0.497841 5.782752,0.520578 5.753805,3.941495 l 11.760266,0.04419 c 1.117645,0.0042 2.017578,-0.899924 2.017578,-2.017578 V 8.2558594 Z M 10.53125,10.423828 h 2.0625 v 2.0625 h -2.0625 z m 15.398438,0.0059 h 2.0625 v 2.064453 h -2.0625 z m -11.884766,0.0098 h 10.52539 v 2.029297 h -10.52539 z m -3.460938,4.091797 h 2.0625 v 2.0625 h -2.0625 z m 15.398438,0.0059 h 2.0625 v 2.064453 h -2.0625 z m -11.884766,0.0098 h 10.525391 v 2.029297 H 14.097656 Z m -3.572265,4.144531 h 2.0625 v 2.0625 h -2.0625 z m 15.398437,0.0059 h 2.0625 v 2.064453 h -2.0625 z m -11.884766,0.0098 h 10.525391 v 2.029297 H 14.039062 Z"
       transform="scale(0.26458333)"
       sodipodi:nodetypes="ssccssscccccssccccccccccccccccccccccccccccccccccccccccccccccc" />
    <path
       id="path901-9"
       style="color:#000000;font-style:normal;font-variant:normal;font-weight:normal;font-stretch:normal;font-size:medium;line-height:normal;font-family:sans-serif;font-variant-ligatures:normal;font-variant-position:normal;font-variant-caps:normal;font-variant-numeric:normal;font-variant-alternates:normal;font-variant-east-asian:normal;font-feature-settings:normal;font-variation-settings:normal;text-indent:0;text-align:start;text-decoration:none;text-decoration-line:none;text-decoration-style:solid;text-decoration-color:#000000;letter-spacing:normal;word-spacing:normal;text-transform:none;writing-mode:lr-tb;direction:ltr;text-orientation:mixed;dominant-baseline:auto;baseline-shift:baseline;text-anchor:start;white-space:normal;shape-padding:0;shape-margin:0;inline-size:0;clip-rule:nonzero;display:inline;overflow:visible;visibility:visible;opacity:1;isolation:auto;mix-blend-mode:normal;color-interpolation:sRGB;color-interpolation-filters:linearRGB;solid-color:#000000;solid-opacity:1;vector-effect:none;fill:#ffffff;fill-opacity:1;fill-rule:nonzero;stroke:none;stroke-width:0.4;stroke-linecap:round;stroke-linejoin:miter;stroke-miterlimit:4;stroke-dasharray:none;stroke-dashoffset:0;stroke-opacity:1;color-rendering:auto;image-rendering:auto;shape-rendering:auto;text-rendering:auto;enable-background:accumulate;stop-color:#000000;stop-opacity:1"
       d="m 1.1591391,4.838234 c -0.27947492,0 -0.53288466,0.03354 -0.72553706,0.092501 -0.096326,0.02948 -0.1774632,0.064893 -0.2413291,0.1111041 -0.063248,0.045765 -0.112223,0.1087681 -0.1131713,0.1824178 h -0.00207 v 0.089917 2.2427573 c -1.458e-4,0.00273 -0.00309,0.00448 -0.0031,0.00723 v 5.292e-4 c 0,0.00217 0.00301,0.00302 0.0031,0.00517 v 0.00156 h 0.00103 c 0.00361,0.070918 0.048448,0.1327973 0.1100706,0.1772502 0.064058,0.04621 0.1457465,0.081624 0.2423626,0.1111041 0.193232,0.05896 0.44676434,0.093008 0.72708746,0.093017 0.075203,3.8e-6 0.1421585,-0.00824 0.2129067,-0.01292 l 0.00207,-0.1803505 c -0.070945,0.00531 -0.1384518,0.013442 -0.2149748,0.013437 -0.25931082,-2.73e-5 -0.49382266,-0.033244 -0.65421896,-0.082185 -0.0801981,-0.024471 -0.1413909,-0.053426 -0.1762167,-0.078548 -0.034712,-0.02504 -0.033042,-0.056832 -0.0330729,-0.064596 V 7.4019018 c 0.033906,0.01537 0.068226,0.030369 0.1069702,0.043408 0.1989611,0.066955 0.46018904,0.1054198 0.74827486,0.1054198 0.077689,0 0.1528384,-0.00287 0.2258258,-0.00827 l 0.00155,-0.1819011 c -0.073054,0.00617 -0.1484236,0.010336 -0.2273763,0.010336 -0.26369462,0 -0.50192236,-0.037253 -0.66455906,-0.091984 -0.081285,-0.027364 -0.1441286,-0.059029 -0.1803514,-0.087849 -0.00544,-0.00433 -0.00658,-0.00738 -0.010852,-0.011369 l -5.156e-4,-0.2232414 c 0.032783,0.014678 0.066108,0.029324 0.1033529,0.041858 0.1989611,0.066956 0.45967224,0.1054198 0.74775776,0.1054198 0.081281,0 0.159512,-0.0034 0.2356448,-0.0093 l 0.00207,-0.1819009 c -0.076224,0.00675 -0.1549762,0.011369 -0.2377117,0.011369 -0.26369432,0 -0.50192206,-0.037253 -0.66455876,-0.091984 -0.081285,-0.027365 -0.1436111,-0.05903 -0.1798341,-0.08785 -0.00334,-0.00266 -0.00382,-0.0047 -0.00672,-0.00723 l -5.17e-4,-0.2428791 c 0.033244,0.014961 0.067045,0.030152 0.1049033,0.042891 0.1989614,0.066955 0.45967234,0.1054198 0.74775806,0.10542 0.2880852,0 0.5487964,-0.038465 0.747758,-0.10542 0.048336,-0.016266 0.092931,-0.034263 0.1338419,-0.05426 v 0.040824 c 0.071425,-0.016305 0.1429044,-0.032905 0.2139405,-0.046509 V 5.2242569 H 2.2402092 C 2.2392413,5.1506059 2.1887371,5.0876046 2.1254884,5.0418391 2.0616228,4.9956275 1.9799689,4.9602152 1.8836426,4.930735 1.6909902,4.8717742 1.438614,4.838234 1.1591391,4.838234 Z m 0,0.1803509 c 0.258531,0 0.491721,0.032189 0.6516399,0.081132 0.079959,0.024471 0.1414933,0.053423 0.1762164,0.078548 0.034723,0.025125 0.039791,0.040315 0.039791,0.048059 0,0.00271 -0.00291,0.00735 -0.00517,0.011886 l -0.014986,0.013436 C 1.9625387,5.2896926 1.8503323,5.33904 1.6996746,5.3715348 1.5490169,5.4040288 1.3606481,5.4232254 1.161723,5.4232114 0.96284678,5.4232077 0.77489448,5.4040278 0.62428804,5.3715348 0.47368164,5.3390419 0.36089244,5.2896825 0.31681314,5.2516455 l -0.024288,-0.021187 c -1.939e-4,-0.00117 -0.00155,-0.00317 -0.00155,-0.00413 0,-0.00774 0.00507,-0.022934 0.039791,-0.048059 0.034723,-0.025126 0.096258,-0.054076 0.1762164,-0.078548 0.1599187,-0.048943 0.39362574,-0.081132 0.65215676,-0.081132 z M 0.29097494,5.4671362 c 0.043056,0.020102 0.090405,0.037761 0.1426271,0.053743 0.1926524,0.058961 0.44606214,0.093534 0.72553706,0.093534 0.2794749,0 0.5318511,-0.034573 0.7245035,-0.093534 0.052308,-0.016009 0.1000329,-0.0336 0.1431438,-0.053743 v 0.2733683 c -0.00685,0.010504 -0.016983,0.022032 -0.034106,0.035657 -0.03622,0.02882 -0.097482,0.060485 -0.1788006,0.08785 -0.1626368,0.054731 -0.4013809,0.091984 -0.6650755,0.091984 -0.26369462,0 -0.50192226,-0.037253 -0.66455906,-0.091984 -0.081285,-0.027365 -0.1441278,-0.05903 -0.1803508,-0.08785 -0.00631,-0.00502 -0.00765,-0.00887 -0.012402,-0.013436 z M 2.0267864,5.9776995 v 0.2619994 c -0.00624,0.01211 -0.016835,0.025754 -0.037724,0.042375 -0.03622,0.028821 -0.097483,0.060484 -0.1788004,0.08785 -0.1626369,0.054731 -0.4013811,0.091984 -0.6650757,0.091984 -0.26369482,0 -0.50192226,-0.037253 -0.66455896,-0.091984 -0.081285,-0.027365 -0.1436111,-0.05903 -0.1798342,-0.08785 -0.00425,-0.00338 -0.00525,-0.00561 -0.00878,-0.00878 V 5.9859677 c 0.034354,0.015651 0.069171,0.0312 0.1085207,0.044442 0.1989614,0.066956 0.46018904,0.1054198 0.74827476,0.1054198 0.2880852,0 0.5487964,-0.038465 0.7477578,-0.1054198 0.047127,-0.015859 0.090139,-0.033314 0.1302247,-0.05271 z" />
    <path
       id="path901-9-6"
       style="color:#000000;font-style:normal;font-variant:normal;font-weight:normal;font-stretch:normal;font-size:medium;line-height:normal;font-family:sans-serif;font-variant-ligatures:normal;font-variant-position:normal;font-variant-caps:normal;font-variant-numeric:normal;font-variant-alternates:normal;font-variant-east-asian:normal;font-feature-settings:normal;font-variation-settings:normal;text-indent:0;text-align:start;text-decoration:none;text-decoration-line:none;text-decoration-style:solid;text-decoration-color:#000000;letter-spacing:normal;word-spacing:normal;text-transform:none;writing-mode:lr-tb;direction:ltr;text-orientation:mixed;dominant-baseline:auto;baseline-shift:baseline;text-anchor:start;white-space:normal;shape-padding:0;shape-margin:0;inline-size:0;clip-rule:nonzero;display:inline;overflow:visible;visibility:visible;opacity:1;isolation:auto;mix-blend-mode:normal;color-interpolation:sRGB;color-interpolation-filters:linearRGB;solid-color:#000000;solid-opacity:1;vector-effect:none;fill:#ffffff;fill-opacity:1;fill-rule:nonzero;stroke:none;stroke-width:0.4;stroke-linecap:round;stroke-linejoin:miter;stroke-miterlimit:4;stroke-dasharray:none;stroke-dashoffset:0;stroke-opacity:1;color-rendering:auto;image-rendering:auto;shape-rendering:auto;text-rendering:auto;enable-background:accumulate;stop-color:#000000;stop-opacity:1"
       d="m 2.601729,6.6021366 c -0.2794748,0 -0.5325526,0.033218 -0.7252052,0.092179 -0.096326,0.02948 -0.1777771,0.06524 -0.2416429,0.1114513 -0.063248,0.045765 -0.1121317,0.1086193 -0.11308,0.1822691 h -0.00194 v 0.089858 l -0.0034,0.9243161 c -0.00472,0.0906 0.052065,0.1592932 0.096265,0.1795365 0.2093326,0.1015129 0.4102638,0.2045375 0.6038786,0.2274239 0.2632737,0.031121 0.4507588,0.039452 0.6660079,0.00313 0.230792,-0.038946 0.487382,-0.1269859 0.714752,-0.2241391 0.0211,-0.00901 0.08642,-0.087254 0.08404,-0.1314963 l 0.0022,-1.0686277 h -8.2e-4 C 3.6817954,6.9143847 3.6315474,6.851532 3.5682984,6.8057667 3.5044324,6.7595549 3.4229814,6.7237957 3.3266554,6.6943154 3.1340034,6.6353548 2.8812014,6.602136 2.6017268,6.602136 Z m 0,0.1799472 c 0.2585304,0 0.4920194,0.032556 0.6519384,0.081499 0.07996,0.024471 0.141394,0.053123 0.176117,0.078248 0.03472,0.025125 0.03954,0.040552 0.03954,0.048296 0,0.00271 -0.0024,0.00731 -0.0047,0.011842 l -0.01521,0.013235 c -0.04409,0.038047 -0.156515,0.087315 -0.307173,0.1198098 -0.150657,0.032494 -0.3388265,0.051792 -0.5377517,0.051778 C 2.4056135,7.186788 2.2176205,7.1675066 2.067014,7.1350136 1.9164077,7.1025206 1.8039246,7.0532406 1.7598456,7.0152036 l -0.02433,-0.020897 c -1.941e-4,-0.00117 -0.00166,-0.00322 -0.00166,-0.00418 0,-0.00774 0.00482,-0.023171 0.039536,-0.048296 0.034722,-0.025126 0.096157,-0.053777 0.1761157,-0.078249 0.1599187,-0.048943 0.393684,-0.081499 0.6522149,-0.081499 z M 1.7338605,7.2309071 c 0.043056,0.020102 0.090441,0.037885 0.1426633,0.053868 0.1926526,0.058961 0.4457304,0.093108 0.7252052,0.093108 0.2794744,0 0.5322764,-0.034147 0.7249284,-0.093108 0.05231,-0.016009 0.09983,-0.033725 0.14294,-0.053868 v 0.2730556 c -0.0068,0.010504 -0.01716,0.022132 -0.03428,0.035758 -0.03622,0.02882 -0.09756,0.060402 -0.178882,0.087767 -0.162637,0.054731 -0.401238,0.092179 -0.6649329,0.092179 -0.2636945,0 -0.5017429,-0.037448 -0.6643796,-0.092179 -0.081285,-0.027365 -0.1440414,-0.058948 -0.1802644,-0.087768 -0.00631,-0.00502 -0.00769,-0.00867 -0.012442,-0.013234 z m 1.7357369,0.5103538 v 0.2623745 c -0.0062,0.01211 -0.01671,0.025638 -0.0376,0.042259 -0.03622,0.028821 -0.09756,0.060402 -0.178882,0.087768 -0.162638,0.054731 -0.401239,0.092179 -0.6649336,0.092179 -0.2636947,0 -0.5020195,-0.037448 -0.6646562,-0.092179 -0.081285,-0.027365 -0.1437652,-0.058948 -0.1799881,-0.087768 -0.00425,-0.00338 -0.00504,-0.00565 -0.00857,-0.00882 l -2.778e-4,-0.287219 c 0.034354,0.01565 0.069307,0.031106 0.1086563,0.044348 0.1989614,0.066956 0.4600674,0.1054143 0.7481531,0.1054143 0.2880853,0 0.5486383,-0.038459 0.7476003,-0.1054143 0.04713,-0.015859 0.09041,-0.033544 0.130498,-0.05294 z"
       sodipodi:nodetypes="csscccccssscccssccssssccscsccscssscsssccssscsccccssscsccssscc" />
  </g>
</svg>
