<?xml version="1.0" encoding="UTF-8" standalone="no"?>
<svg
   xmlns:dc="http://purl.org/dc/elements/1.1/"
   xmlns:cc="http://creativecommons.org/ns#"
   xmlns:rdf="http://www.w3.org/1999/02/22-rdf-syntax-ns#"
   xmlns:svg="http://www.w3.org/2000/svg"
   xmlns="http://www.w3.org/2000/svg"
   xmlns:sodipodi="http://sodipodi.sourceforge.net/DTD/sodipodi-0.dtd"
   xmlns:inkscape="http://www.inkscape.org/namespaces/inkscape"
   width="32"
   height="32"
   viewBox="0 0 8.4666667 8.4666667"
   version="1.1"
   id="svg8"
   inkscape:version="1.0.1 (0767f8302a, 2020-10-17)"
   sodipodi:docname="icon-media-white.svg">
  <defs
     id="defs2">
    <inkscape:path-effect
       effect="powerstroke"
       id="path-effect862"
       is_visible="true"
       lpeversion="1"
       offset_points="0,0.674052"
       sort_points="true"
       interpolator_type="CubicBezierJohan"
       interpolator_beta="0.2"
       start_linecap_type="zerowidth"
       linejoin_type="extrp_arc"
       miter_limit="4"
       scale_width="1"
       end_linecap_type="zerowidth" />
  </defs>
  <sodipodi:namedview
     id="base"
     pagecolor="#7a7a7a"
     bordercolor="#666666"
     borderopacity="1.0"
     inkscape:pageopacity="0"
     inkscape:pageshadow="2"
     inkscape:zoom="16.000001"
     inkscape:cx="14.483088"
     inkscape:cy="19.803342"
     inkscape:document-units="mm"
     inkscape:current-layer="layer1"
     inkscape:document-rotation="0"
     showgrid="true"
     inkscape:window-width="1874"
     inkscape:window-height="1016"
     inkscape:window-x="46"
     inkscape:window-y="27"
     inkscape:window-maximized="1"
     units="px"
     inkscape:snap-global="true"
     showguides="true"
     inkscape:guide-bbox="true"
     inkscape:snap-to-guides="false"
     inkscape:object-nodes="true">
    <inkscape:grid
       type="xygrid"
       id="grid60" />
  </sodipodi:namedview>
  <metadata
     id="metadata5">
    <rdf:RDF>
      <cc:Work
         rdf:about="">
        <dc:format>image/svg+xml</dc:format>
        <dc:type
           rdf:resource="http://purl.org/dc/dcmitype/StillImage" />
        <dc:title></dc:title>
      </cc:Work>
    </rdf:RDF>
  </metadata>
  <g
     inkscape:label="Layer 1"
     inkscape:groupmode="layer"
     id="layer1">
    <g
       aria-label="DOC"
       transform="matrix(0.88595284,0,0,0.89243146,0.39344915,0.99550352)"
       id="text896"
       style="font-style:normal;font-weight:normal;font-size:2.37752px;line-height:1.25;font-family:sans-serif;fill:#000000;fill-opacity:1;stroke:none;stroke-width:0.297556" />
    <path
       id="rect866"
       style="opacity:1;fill:#ffffff;stroke:none;stroke-width:1.00157;stroke-linecap:round"
       d="M 10.585938,0.63476562 9.4121094,1.3652344 13.117188,7.2871094 C 12.695615,7.4780932 12.356763,7.7220396 12.126953,8 H 6 C 3.2299997,8 1,10.23 1,13 v 12 c 0,2.77 2.2299997,5 5,5 h 20 c 2.77,0 5,-2.23 5,-5 V 13 C 31,10.23 28.77,8 26,8 H 18.457031 C 18.255307,7.7555017 17.968941,7.5369073 17.615234,7.3574219 L 22.484375,2.4882812 21.511719,1.5136719 16.113281,6.9101562 c -0.268564,-0.037322 -0.54392,-0.056335 -0.820312,-0.056641 -0.265541,-2.321e-4 -0.530265,0.016805 -0.789063,0.050781 z M 6.8574219,10 18.060333,10 c 2.136858,0 3.857422,1.720564 3.857422,3.857422 v 8.217258 c 0,2.136858 -1.720564,3.857422 -3.857422,3.857422 l -11.2029111,0 C 4.7205643,25.932102 3,24.211538 3,22.07468 V 13.857422 C 3,11.720564 4.7205643,10 6.8574219,10 Z m 19.7812501,1.119141 c 1.334084,-4.87e-4 2.415877,1.049823 2.416016,2.345703 -1.39e-4,1.29588 -1.081932,2.34619 -2.416016,2.345703 -1.333321,-5.6e-4 -2.413924,-1.050564 -2.414063,-2.345703 1.39e-4,-1.295139 1.080742,-2.345143 2.414063,-2.345703 z m 0.257812,6.478515 c 0.901174,2.27e-4 1.631436,0.719994 1.63086,1.607422 -5.2e-4,0.886666 -0.730461,1.605243 -1.63086,1.605469 -0.900399,-2.27e-4 -1.630339,-0.718804 -1.630859,-1.605469 -5.76e-4,-0.887428 0.729686,-1.607195 1.630859,-1.607422 z m -0.03516,5.259766 c 0.0059,-4.2e-5 0.01172,-4.2e-5 0.01758,0 0.698509,-4.35e-4 1.265126,0.58367 1.265625,1.304687 5.47e-4,0.721781 -0.566377,1.307077 -1.265625,1.306641 -0.699248,4.36e-4 -1.266172,-0.58486 -1.265625,-1.306641 4.33e-4,-0.713986 0.556411,-1.295196 1.248047,-1.304687 z"
       transform="scale(0.26458333)"
       sodipodi:nodetypes="ccccssssssssccccccccsssssssssccccccccccccccccc" />
  </g>
</svg>
