<?xml version="1.0" encoding="UTF-8" standalone="no"?>
<svg
   xmlns:dc="http://purl.org/dc/elements/1.1/"
   xmlns:cc="http://creativecommons.org/ns#"
   xmlns:rdf="http://www.w3.org/1999/02/22-rdf-syntax-ns#"
   xmlns:svg="http://www.w3.org/2000/svg"
   xmlns="http://www.w3.org/2000/svg"
   xmlns:sodipodi="http://sodipodi.sourceforge.net/DTD/sodipodi-0.dtd"
   xmlns:inkscape="http://www.inkscape.org/namespaces/inkscape"
   width="32"
   height="32"
   viewBox="0 0 8.4666667 8.4666667"
   version="1.1"
   id="svg8"
   inkscape:version="1.0.1 (0767f8302a, 2020-10-17)"
   sodipodi:docname="icon-advance-white.svg">
  <defs
     id="defs2">
    <filter
       style="color-interpolation-filters:sRGB;"
       inkscape:label="Invert"
       id="filter3063">
      <feColorMatrix
         values="1 0 0 0 0 0 1 0 0 0 0 0 1 0 0 -0.21 -0.72 -0.07 2 0 "
         result="fbSourceGraphic"
         id="feColorMatrix3061" />
      <feColorMatrix
         result="fbSourceGraphicAlpha"
         in="fbSourceGraphic"
         values="0 0 0 -1 0 0 0 0 -1 0 0 0 0 -1 0 0 0 0 1 0"
         id="feColorMatrix3065" />
      <feColorMatrix
         id="feColorMatrix3067"
         values="1 0 0 0 0 0 1 0 0 0 0 0 1 0 0 -0.21 -0.72 -0.07 2 0 "
         result="color2"
         in="fbSourceGraphic" />
    </filter>
  </defs>
  <sodipodi:namedview
     id="base"
     pagecolor="#7a7a7a"
     bordercolor="#666666"
     borderopacity="1.0"
     inkscape:pageopacity="0"
     inkscape:pageshadow="2"
     inkscape:zoom="22.627417"
     inkscape:cx="16.681114"
     inkscape:cy="13.605317"
     inkscape:document-units="mm"
     inkscape:current-layer="layer1"
     inkscape:document-rotation="0"
     showgrid="false"
     inkscape:window-width="1874"
     inkscape:window-height="1016"
     inkscape:window-x="46"
     inkscape:window-y="27"
     inkscape:window-maximized="1"
     units="px"
     inkscape:snap-global="false" />
  <metadata
     id="metadata5">
    <rdf:RDF>
      <cc:Work
         rdf:about="">
        <dc:format>image/svg+xml</dc:format>
        <dc:type
           rdf:resource="http://purl.org/dc/dcmitype/StillImage" />
        <dc:title></dc:title>
      </cc:Work>
    </rdf:RDF>
  </metadata>
  <g
     inkscape:label="Layer 1"
     inkscape:groupmode="layer"
     id="layer1">
    <path
       style="fill:#ffffff;stroke:none;stroke-width:0.264583px;stroke-linecap:butt;stroke-linejoin:miter;stroke-opacity:1"
       d="m 0.23595331,5.4618298 0.89378559,0.00555 v -0.00384 c 0,0 0.3601775,-0.3808224 0.8703157,-0.440129 0.5455239,-0.070965 0.9360827,0.2363268 1.1811033,0.3010279 0.2616851,0.069102 0.7652904,0.014228 1.1143911,-0.00597 0.3347255,-7.779e-4 0.5150258,0.7323411 0.017224,0.7331128 -0.8377296,0.0013 -0.751405,0.02182 -1.1935851,0.011822 0,0 0.1786228,0.2323949 0.6946312,0.4607539 C 4.3298294,6.7525271 4.964618,6.7381285 5.2298596,6.7423126 5.4951012,6.7464926 6.0875025,6.6131676 6.297552,6.5264951 6.5076017,6.4398231 7.068997,6.081825 7.186435,6.0359484 7.3038727,5.990072 7.4876004,5.9625362 7.5929969,6.0137344 7.6983934,6.0649334 7.8259966,6.1143301 7.8511006,6.28653 7.8762042,6.4587297 7.8873956,6.6555762 7.7189071,6.7709872 7.5504186,6.8863982 6.9163848,7.2963232 6.6104744,7.4220812 6.3045639,7.547839 5.7022476,7.7727546 5.0657961,7.8672518 4.4293446,7.9617488 3.4593411,7.8975331 2.9506622,7.8653998 2.4419836,7.8332412 1.7139036,7.1615035 1.5337605,7.0838002 1.3536174,7.0060968 1.1359737,6.9306472 1.1359737,6.9306472 l -0.89946749,-0.00443 c 0.037778,-0.4551122 0.023299,-1.1523324 -5.529e-4,-1.4643892 z"
       id="path863"
       sodipodi:nodetypes="ccccscsccsssssssscsccc" />
    <path
       id="rect1277"
       style="fill:none;stroke:#ffffff;stroke-width:0.4;stroke-linecap:round;stroke-miterlimit:4;stroke-dasharray:none"
       d="M 2.3474376,0.48219313 H 7.9258499 V 4.353922 L 6.8705412,3.9976318 6.1021997,4.3202045 5.2892262,3.9924403 4.3326171,4.3670889 3.395892,4.0043332 2.3474376,4.353922 Z"
       sodipodi:nodetypes="cccccccccc" />
    <ellipse
       style="fill:#ffffff;stroke:none;stroke-width:0.4;stroke-linecap:round;stroke-miterlimit:4;stroke-dasharray:none"
       id="path1280"
       cx="3.1479664"
       cy="1.3864801"
       rx="0.24039908"
       ry="0.2382164" />
    <ellipse
       style="fill:#ffffff;stroke:none;stroke-width:0.4;stroke-linecap:round;stroke-miterlimit:4;stroke-dasharray:none"
       id="path1280-6"
       cx="4.1562061"
       cy="1.3916166"
       rx="0.24039908"
       ry="0.2382164" />
    <ellipse
       style="fill:#ffffff;stroke:none;stroke-width:0.4;stroke-linecap:round;stroke-miterlimit:4;stroke-dasharray:none"
       id="path1280-2"
       cx="5.1196337"
       cy="1.3924003"
       rx="0.24039908"
       ry="0.2382164" />
    <ellipse
       style="fill:#ffffff;stroke:none;stroke-width:0.4;stroke-linecap:round;stroke-miterlimit:4;stroke-dasharray:none"
       id="path1280-61"
       cx="6.0595784"
       cy="1.4001824"
       rx="0.24039908"
       ry="0.2382164" />
    <ellipse
       style="fill:#ffffff;stroke:none;stroke-width:0.4;stroke-linecap:round;stroke-miterlimit:4;stroke-dasharray:none"
       id="path1280-8"
       cx="7.0627737"
       cy="1.4012917"
       rx="0.24039908"
       ry="0.2382164" />
    <path
       style="fill:none;stroke:#ffffff;stroke-width:0.4;stroke-linecap:butt;stroke-linejoin:miter;stroke-miterlimit:4;stroke-dasharray:none;stroke-opacity:1"
       d="m 2.9183331,2.3039316 4.5262237,0.00267"
       id="path1315" />
    <path
       style="fill:none;stroke:#ffffff;stroke-width:0.4;stroke-linecap:butt;stroke-linejoin:miter;stroke-miterlimit:4;stroke-dasharray:none;stroke-opacity:1"
       d="m 2.9024492,3.1615573 2.2073227,0.00267"
       id="path1315-7" />
    <path
       style="fill:none;stroke:#ffffff;stroke-width:0.4;stroke-linecap:butt;stroke-linejoin:miter;stroke-miterlimit:4;stroke-dasharray:none;stroke-opacity:1"
       d="m 6.3420309,3.1492847 1.1032503,0.00267"
       id="path1315-7-9" />
  </g>
</svg>
