<?xml version="1.0" encoding="UTF-8" standalone="no"?>
<svg
   xmlns:dc="http://purl.org/dc/elements/1.1/"
   xmlns:cc="http://creativecommons.org/ns#"
   xmlns:rdf="http://www.w3.org/1999/02/22-rdf-syntax-ns#"
   xmlns:svg="http://www.w3.org/2000/svg"
   xmlns="http://www.w3.org/2000/svg"
   xmlns:sodipodi="http://sodipodi.sourceforge.net/DTD/sodipodi-0.dtd"
   xmlns:inkscape="http://www.inkscape.org/namespaces/inkscape"
   width="32"
   height="32"
   viewBox="0 0 8.4666667 8.4666667"
   version="1.1"
   id="svg8"
   inkscape:version="1.0.1 (0767f8302a, 2020-10-17)"
   sodipodi:docname="icon-reimburse-white.svg">
  <defs
     id="defs2">
    <filter
       style="color-interpolation-filters:sRGB;"
       inkscape:label="Invert"
       id="filter3063">
      <feColorMatrix
         values="1 0 0 0 0 0 1 0 0 0 0 0 1 0 0 -0.21 -0.72 -0.07 2 0 "
         result="fbSourceGraphic"
         id="feColorMatrix3061" />
      <feColorMatrix
         result="fbSourceGraphicAlpha"
         in="fbSourceGraphic"
         values="0 0 0 -1 0 0 0 0 -1 0 0 0 0 -1 0 0 0 0 1 0"
         id="feColorMatrix3065" />
      <feColorMatrix
         id="feColorMatrix3067"
         values="1 0 0 0 0 0 1 0 0 0 0 0 1 0 0 -0.21 -0.72 -0.07 2 0 "
         result="color2"
         in="fbSourceGraphic" />
    </filter>
  </defs>
  <sodipodi:namedview
     id="base"
     pagecolor="#7a7a7a"
     bordercolor="#666666"
     borderopacity="1.0"
     inkscape:pageopacity="0"
     inkscape:pageshadow="2"
     inkscape:zoom="11.313709"
     inkscape:cx="35.881864"
     inkscape:cy="25.961822"
     inkscape:document-units="mm"
     inkscape:current-layer="layer1"
     inkscape:document-rotation="0"
     showgrid="false"
     inkscape:window-width="1874"
     inkscape:window-height="1016"
     inkscape:window-x="46"
     inkscape:window-y="27"
     inkscape:window-maximized="1"
     units="px"
     inkscape:snap-global="false" />
  <metadata
     id="metadata5">
    <rdf:RDF>
      <cc:Work
         rdf:about="">
        <dc:format>image/svg+xml</dc:format>
        <dc:type
           rdf:resource="http://purl.org/dc/dcmitype/StillImage" />
        <dc:title></dc:title>
      </cc:Work>
    </rdf:RDF>
  </metadata>
  <g
     inkscape:label="Layer 1"
     inkscape:groupmode="layer"
     id="layer1">
    <path
       id="path901-9"
       style="color:#000000;font-style:normal;font-variant:normal;font-weight:normal;font-stretch:normal;font-size:medium;line-height:normal;font-family:sans-serif;font-variant-ligatures:normal;font-variant-position:normal;font-variant-caps:normal;font-variant-numeric:normal;font-variant-alternates:normal;font-variant-east-asian:normal;font-feature-settings:normal;font-variation-settings:normal;text-indent:0;text-align:start;text-decoration:none;text-decoration-line:none;text-decoration-style:solid;text-decoration-color:#000000;letter-spacing:normal;word-spacing:normal;text-transform:none;writing-mode:lr-tb;direction:ltr;text-orientation:mixed;dominant-baseline:auto;baseline-shift:baseline;text-anchor:start;white-space:normal;shape-padding:0;shape-margin:0;inline-size:0;clip-rule:nonzero;display:inline;overflow:visible;visibility:visible;opacity:1;isolation:auto;mix-blend-mode:normal;color-interpolation:sRGB;color-interpolation-filters:linearRGB;solid-color:#000000;solid-opacity:1;vector-effect:none;fill:#ffffff;fill-opacity:1;fill-rule:nonzero;stroke:none;stroke-width:0.4;stroke-linecap:round;stroke-linejoin:miter;stroke-miterlimit:4;stroke-dasharray:none;stroke-dashoffset:0;stroke-opacity:1;color-rendering:auto;image-rendering:auto;shape-rendering:auto;text-rendering:auto;enable-background:accumulate;stop-color:#000000;stop-opacity:1"
       d="m 3.7944299,3.1322985 c -0.279475,0 -0.5328847,0.03354 -0.7255371,0.092501 -0.096326,0.02948 -0.1774632,0.064893 -0.2413291,0.1111041 -0.063248,0.045765 -0.112223,0.1087681 -0.1131713,0.1824178 h -0.00207 v 0.089917 2.2427573 c -1.458e-4,0.00273 -0.00309,0.00448 -0.0031,0.00723 v 5.292e-4 c 0,0.00217 0.00301,0.00302 0.0031,0.00517 v 0.00156 h 0.00103 c 0.00361,0.070918 0.048448,0.1327973 0.1100706,0.1772502 0.064058,0.04621 0.1457465,0.081624 0.2423626,0.1111041 0.193232,0.05896 0.4467643,0.093008 0.7270875,0.093017 0.075203,3.8e-6 0.1421585,-0.00824 0.2129067,-0.01292 l 0.00207,-0.1803505 C 3.9369048,6.0588957 3.869398,6.0670277 3.792875,6.0670227 3.5335641,6.0669954 3.2990523,6.0337787 3.138656,5.9848377 3.0584579,5.9603667 2.9972651,5.9314117 2.9624393,5.9062897 2.9277273,5.8812497 2.9293973,5.8494577 2.9293664,5.8416937 V 5.6959663 c 0.033906,0.01537 0.068226,0.030369 0.1069702,0.043408 0.1989611,0.066955 0.460189,0.1054198 0.7482749,0.1054198 0.077689,0 0.1528384,-0.00287 0.2258258,-0.00827 L 4.0119873,5.654623 C 3.9389333,5.660793 3.8635637,5.664959 3.784611,5.664959 3.5209163,5.664959 3.2826886,5.627706 3.1200519,5.572975 3.0387669,5.545611 2.9759233,5.513946 2.9397005,5.485126 2.9342605,5.480796 2.9331205,5.477746 2.9288485,5.473757 L 2.9283329,5.2505156 c 0.032783,0.014678 0.066108,0.029324 0.1033529,0.041858 0.1989611,0.066956 0.4596722,0.1054198 0.7477578,0.1054198 0.081281,0 0.159512,-0.0034 0.2356448,-0.0093 l 0.00207,-0.1819009 c -0.076224,0.00675 -0.1549762,0.011369 -0.2377117,0.011369 -0.2636944,0 -0.5019221,-0.037253 -0.6645588,-0.091984 -0.081285,-0.027365 -0.1436111,-0.05903 -0.1798341,-0.08785 -0.00334,-0.00266 -0.00382,-0.0047 -0.00672,-0.00723 l -5.17e-4,-0.2428791 c 0.033244,0.014961 0.067045,0.030152 0.1049033,0.042891 0.1989614,0.066955 0.4596723,0.1054198 0.7477581,0.10542 0.2880852,0 0.5487964,-0.038465 0.747758,-0.10542 0.048336,-0.016266 0.092931,-0.034263 0.1338419,-0.05426 v 0.040824 c 0.071425,-0.016305 0.1429044,-0.032905 0.2139405,-0.046509 V 3.5183214 H 4.8755 C 4.8745321,3.4446704 4.8240279,3.3816691 4.7607792,3.3359036 4.6969136,3.289692 4.6152597,3.2542797 4.5189334,3.2247995 4.326281,3.1658387 4.0739048,3.1322985 3.7944299,3.1322985 Z m 0,0.1803509 c 0.258531,0 0.491721,0.032189 0.6516399,0.081132 0.079959,0.024471 0.1414933,0.053423 0.1762164,0.078548 0.034723,0.025125 0.039791,0.040315 0.039791,0.048059 0,0.00271 -0.00291,0.00735 -0.00517,0.011886 l -0.014986,0.013436 C 4.5978295,3.5837571 4.4856231,3.6331045 4.3349654,3.6655993 4.1843077,3.6980933 3.9959389,3.7172899 3.7970138,3.7172759 3.5981375,3.7172722 3.4101852,3.6980923 3.2595788,3.6655993 3.1089724,3.6331064 2.9961832,3.583747 2.9521039,3.54571 L 2.9278159,3.524523 c -1.939e-4,-0.00117 -0.00155,-0.00317 -0.00155,-0.00413 0,-0.00774 0.00507,-0.022934 0.039791,-0.048059 C 3.0007799,3.447208 3.0623149,3.418258 3.1422733,3.393786 3.302192,3.344843 3.535899,3.312654 3.7944301,3.312654 Z M 2.9262657,3.7612007 c 0.043056,0.020102 0.090405,0.037761 0.1426271,0.053743 0.1926524,0.058961 0.4460621,0.093534 0.7255371,0.093534 0.2794749,0 0.5318511,-0.034573 0.7245035,-0.093534 0.052308,-0.016009 0.1000329,-0.0336 0.1431438,-0.053743 V 4.034569 c -0.00685,0.010504 -0.016983,0.022032 -0.034106,0.035657 -0.03622,0.02882 -0.097482,0.060485 -0.1788006,0.08785 C 4.2865338,4.212807 4.0477897,4.25006 3.7840951,4.25006 3.5204004,4.25006 3.2821728,4.212807 3.119536,4.158076 3.038251,4.130711 2.9754082,4.099046 2.9391852,4.070226 2.9328752,4.065206 2.9315352,4.061356 2.9267832,4.05679 Z M 4.6620772,4.271764 v 0.2619994 c -0.00624,0.01211 -0.016835,0.025754 -0.037724,0.042375 -0.03622,0.028821 -0.097483,0.060484 -0.1788004,0.08785 -0.1626369,0.054731 -0.4013811,0.091984 -0.6650757,0.091984 -0.2636949,0 -0.5019223,-0.037253 -0.664559,-0.091984 -0.081285,-0.027365 -0.1436111,-0.05903 -0.1798342,-0.08785 -0.00425,-0.00338 -0.00525,-0.00561 -0.00878,-0.00878 V 4.2800322 c 0.034354,0.015651 0.069171,0.0312 0.1085207,0.044442 0.1989614,0.066956 0.460189,0.1054198 0.7482748,0.1054198 0.2880852,0 0.5487964,-0.038465 0.7477578,-0.1054198 0.047127,-0.015859 0.090139,-0.033314 0.1302247,-0.05271 z" />
    <path
       id="path901-9-6"
       style="color:#000000;font-style:normal;font-variant:normal;font-weight:normal;font-stretch:normal;font-size:medium;line-height:normal;font-family:sans-serif;font-variant-ligatures:normal;font-variant-position:normal;font-variant-caps:normal;font-variant-numeric:normal;font-variant-alternates:normal;font-variant-east-asian:normal;font-feature-settings:normal;font-variation-settings:normal;text-indent:0;text-align:start;text-decoration:none;text-decoration-line:none;text-decoration-style:solid;text-decoration-color:#000000;letter-spacing:normal;word-spacing:normal;text-transform:none;writing-mode:lr-tb;direction:ltr;text-orientation:mixed;dominant-baseline:auto;baseline-shift:baseline;text-anchor:start;white-space:normal;shape-padding:0;shape-margin:0;inline-size:0;clip-rule:nonzero;display:inline;overflow:visible;visibility:visible;opacity:1;isolation:auto;mix-blend-mode:normal;color-interpolation:sRGB;color-interpolation-filters:linearRGB;solid-color:#000000;solid-opacity:1;vector-effect:none;fill:#ffffff;fill-opacity:1;fill-rule:nonzero;stroke:none;stroke-width:0.4;stroke-linecap:round;stroke-linejoin:miter;stroke-miterlimit:4;stroke-dasharray:none;stroke-dashoffset:0;stroke-opacity:1;color-rendering:auto;image-rendering:auto;shape-rendering:auto;text-rendering:auto;enable-background:accumulate;stop-color:#000000;stop-opacity:1"
       d="m 5.2370198,4.8962011 c -0.2794748,0 -0.5325526,0.033218 -0.7252052,0.092179 -0.096326,0.02948 -0.1777771,0.06524 -0.2416429,0.1114513 -0.063248,0.045765 -0.1121317,0.1086193 -0.11308,0.1822691 h -0.00194 v 0.089858 l -0.0034,0.9243161 c -0.00472,0.0906 0.052065,0.1592932 0.096265,0.1795365 0.2093326,0.1015129 0.4102638,0.2045375 0.6038786,0.2274239 0.2632737,0.031121 0.4507588,0.039452 0.6660079,0.00313 0.230792,-0.038946 0.487382,-0.1269859 0.714752,-0.2241391 0.0211,-0.00901 0.08642,-0.087254 0.08404,-0.1314963 l 0.0022,-1.0686277 h -8.2e-4 C 6.3170862,5.2084492 6.2668382,5.1455965 6.2035892,5.0998312 6.1397232,5.0536194 6.0582722,5.0178602 5.9619462,4.9883799 5.7692942,4.9294193 5.5164922,4.8962005 5.2370176,4.8962005 Z m 0,0.1799472 c 0.2585304,0 0.4920194,0.032556 0.6519384,0.081499 0.07996,0.024471 0.141394,0.053123 0.176117,0.078248 0.03472,0.025125 0.03954,0.040552 0.03954,0.048296 0,0.00271 -0.0024,0.00731 -0.0047,0.011842 l -0.01521,0.013235 c -0.04409,0.038047 -0.156515,0.087315 -0.307173,0.1198098 -0.150657,0.032494 -0.3388265,0.051792 -0.5377517,0.051778 C 5.0409043,5.4808525 4.8529113,5.4615711 4.7023048,5.4290781 4.5516985,5.3965851 4.4392154,5.3473051 4.3951364,5.3092681 l -0.02433,-0.020897 c -1.941e-4,-0.00117 -0.00166,-0.00322 -0.00166,-0.00418 0,-0.00774 0.00482,-0.023171 0.039536,-0.048296 0.034722,-0.025126 0.096157,-0.053777 0.1761157,-0.078249 0.1599187,-0.048943 0.393684,-0.081499 0.6522149,-0.081499 z M 4.3691513,5.5249716 c 0.043056,0.020102 0.090441,0.037885 0.1426633,0.053868 0.1926526,0.058961 0.4457304,0.093108 0.7252052,0.093108 0.2794744,0 0.5322764,-0.034147 0.7249284,-0.093108 0.05231,-0.016009 0.09983,-0.033725 0.14294,-0.053868 v 0.2730556 c -0.0068,0.010504 -0.01716,0.022132 -0.03428,0.035758 -0.03622,0.02882 -0.09756,0.060402 -0.178882,0.087767 -0.162637,0.054731 -0.401238,0.092179 -0.6649329,0.092179 -0.2636945,0 -0.5017429,-0.037448 -0.6643796,-0.092179 -0.081285,-0.027365 -0.1440414,-0.058948 -0.1802644,-0.087768 -0.00631,-0.00502 -0.00769,-0.00867 -0.012442,-0.013234 z m 1.7357369,0.5103538 v 0.2623745 c -0.0062,0.01211 -0.01671,0.025638 -0.0376,0.042259 -0.03622,0.028821 -0.09756,0.060402 -0.178882,0.087768 -0.162638,0.054731 -0.401239,0.092179 -0.6649336,0.092179 -0.2636947,0 -0.5020195,-0.037448 -0.6646562,-0.092179 -0.081285,-0.027365 -0.1437652,-0.058948 -0.1799881,-0.087768 -0.00425,-0.00338 -0.00504,-0.00565 -0.00857,-0.00882 l -2.778e-4,-0.287219 c 0.034354,0.01565 0.069307,0.031106 0.1086563,0.044348 0.1989614,0.066956 0.4600674,0.1054143 0.7481531,0.1054143 0.2880853,0 0.5486383,-0.038459 0.7476003,-0.1054143 0.04713,-0.015859 0.09041,-0.033544 0.130498,-0.05294 z"
       sodipodi:nodetypes="csscccccssscccssccssssccscsccscssscsssccssscsccccssscsccssscc" />
    <path
       id="rect1277"
       style="fill:none;stroke:#ffffff;stroke-width:0.4;stroke-linecap:round;stroke-miterlimit:4;stroke-dasharray:none"
       d="m 1.6299726,0.43540471 h 6.008028 V 7.8218053 L 6.5014184,7.1420825 5.6739038,7.7574798 4.79832,7.1321783 3.7680386,7.8469248 2.7591726,7.1548674 l -1.1292,0.6669379 z"
       sodipodi:nodetypes="cccccccccc" />
    <path
       style="fill:#ffffff;stroke:none;stroke-width:0.264583px;stroke-linecap:butt;stroke-linejoin:miter;stroke-opacity:1"
       d="m 9.6423663,6.787948 0.8937857,0.00555 v -0.00384 c 0,0 0.360177,-0.3808224 0.870316,-0.440129 0.545523,-0.070965 0.936082,0.2363269 1.181103,0.3010278 0.261685,0.069102 0.76529,0.014227 1.114391,-0.00597 0.334725,-7.673e-4 0.515026,0.732341 0.01722,0.7331128 -0.83773,0.0013 -0.751405,0.02182 -1.193585,0.011822 0,0 0.178623,0.2323949 0.694631,0.4607539 0.516011,0.2283722 1.150799,0.2139735 1.416041,0.2181577 0.265242,0.00418 0.857643,-0.129145 1.067692,-0.2158175 0.21005,-0.086672 0.771445,-0.4446701 0.888883,-0.4905467 0.117438,-0.045876 0.301166,-0.073412 0.406562,-0.022214 0.105397,0.051199 0.233,0.1005959 0.258104,0.2727958 0.0251,0.1721995 0.03629,0.3690461 -0.132194,0.4844571 -0.168488,0.115411 -0.802522,0.525336 -1.108432,0.6510941 -0.305911,0.1257577 -0.908227,0.3506734 -1.544679,0.4451707 -0.636451,0.094497 -1.606455,0.030281 -2.115134,-0.00185 C 11.848397,9.1593595 11.120317,8.4876215 10.940173,8.4099184 10.76003,8.3322151 10.542387,8.2567654 10.542387,8.2567654 L 9.6429192,8.2523352 C 9.6806972,7.7972231 9.6662182,7.1000029 9.6423663,6.7879461 Z"
       id="path863"
       sodipodi:nodetypes="ccccscsccsssssssscsccc" />
    <path
       id="rect1277-6"
       style="fill:none;stroke:#ffffff;stroke-width:0.4;stroke-linecap:round;stroke-miterlimit:4;stroke-dasharray:none"
       d="m 11.753851,1.8083112 h 5.578412 v 3.871729 L 16.276954,5.3237499 15.508613,5.6463225 14.695639,5.3185585 13.73903,5.6932069 12.802305,5.3304513 11.753851,5.6800402 Z"
       sodipodi:nodetypes="cccccccccc" />
    <ellipse
       style="fill:#ffffff;stroke:none;stroke-width:0.4;stroke-linecap:round;stroke-miterlimit:4;stroke-dasharray:none"
       id="path1280"
       cx="2.6939678"
       cy="1.3177556"
       rx="0.24039908"
       ry="0.2382164" />
    <ellipse
       style="fill:#ffffff;stroke:none;stroke-width:0.4;stroke-linecap:round;stroke-miterlimit:4;stroke-dasharray:none"
       id="path1280-6"
       cx="3.7022076"
       cy="1.3228921"
       rx="0.24039908"
       ry="0.2382164" />
    <ellipse
       style="fill:#ffffff;stroke:none;stroke-width:0.4;stroke-linecap:round;stroke-miterlimit:4;stroke-dasharray:none"
       id="path1280-2"
       cx="4.6656351"
       cy="1.3236758"
       rx="0.24039908"
       ry="0.2382164" />
    <ellipse
       style="fill:#ffffff;stroke:none;stroke-width:0.4;stroke-linecap:round;stroke-miterlimit:4;stroke-dasharray:none"
       id="path1280-61"
       cx="5.6055794"
       cy="1.3314577"
       rx="0.24039908"
       ry="0.2382164" />
    <ellipse
       style="fill:#ffffff;stroke:none;stroke-width:0.4;stroke-linecap:round;stroke-miterlimit:4;stroke-dasharray:none"
       id="path1280-8"
       cx="6.6087751"
       cy="1.3325671"
       rx="0.24039908"
       ry="0.2382164" />
    <path
       style="fill:none;stroke:#ffffff;stroke-width:0.4;stroke-linecap:butt;stroke-linejoin:miter;stroke-miterlimit:4;stroke-dasharray:none;stroke-opacity:1"
       d="m 2.4643344,2.235207 4.526224,0.00267"
       id="path1315" />
    <path
       style="fill:none;stroke:#ffffff;stroke-width:0.4;stroke-linecap:butt;stroke-linejoin:miter;stroke-miterlimit:4;stroke-dasharray:none;stroke-opacity:1"
       d="m 5.8880324,3.0805602 1.10325,0.00267"
       id="path1315-7-9" />
  </g>
</svg>
