<?xml version="1.0" encoding="UTF-8" standalone="no"?>
<svg
   xmlns:dc="http://purl.org/dc/elements/1.1/"
   xmlns:cc="http://creativecommons.org/ns#"
   xmlns:rdf="http://www.w3.org/1999/02/22-rdf-syntax-ns#"
   xmlns:svg="http://www.w3.org/2000/svg"
   xmlns="http://www.w3.org/2000/svg"
   xmlns:sodipodi="http://sodipodi.sourceforge.net/DTD/sodipodi-0.dtd"
   xmlns:inkscape="http://www.inkscape.org/namespaces/inkscape"
   width="32"
   height="32"
   viewBox="0 0 8.4666667 8.4666667"
   version="1.1"
   id="svg8"
   inkscape:version="1.0.1 (0767f8302a, 2020-10-17)"
   sodipodi:docname="icon-receipt-white.svg">
  <defs
     id="defs2">
    <inkscape:path-effect
       effect="powerstroke"
       id="path-effect862"
       is_visible="true"
       lpeversion="1"
       offset_points="0,0.674052"
       sort_points="true"
       interpolator_type="CubicBezierJohan"
       interpolator_beta="0.2"
       start_linecap_type="zerowidth"
       linejoin_type="extrp_arc"
       miter_limit="4"
       scale_width="1"
       end_linecap_type="zerowidth" />
  </defs>
  <sodipodi:namedview
     id="base"
     pagecolor="#7a7a7a"
     bordercolor="#666666"
     borderopacity="1.0"
     inkscape:pageopacity="0"
     inkscape:pageshadow="2"
     inkscape:zoom="22.627417"
     inkscape:cx="4.4774374"
     inkscape:cy="18.387017"
     inkscape:document-units="mm"
     inkscape:current-layer="layer1"
     inkscape:document-rotation="0"
     showgrid="true"
     inkscape:window-width="1874"
     inkscape:window-height="1016"
     inkscape:window-x="46"
     inkscape:window-y="27"
     inkscape:window-maximized="1"
     units="px"
     inkscape:snap-global="false"
     showguides="true"
     inkscape:guide-bbox="true"
     inkscape:snap-to-guides="false"
     inkscape:object-nodes="true">
    <inkscape:grid
       type="xygrid"
       id="grid60" />
  </sodipodi:namedview>
  <metadata
     id="metadata5">
    <rdf:RDF>
      <cc:Work
         rdf:about="">
        <dc:format>image/svg+xml</dc:format>
        <dc:type
           rdf:resource="http://purl.org/dc/dcmitype/StillImage" />
        <dc:title></dc:title>
      </cc:Work>
    </rdf:RDF>
  </metadata>
  <g
     inkscape:label="Layer 1"
     inkscape:groupmode="layer"
     id="layer1">
    <g
       aria-label="DOC"
       transform="matrix(0.88595284,0,0,0.89243146,0.39344915,0.99550352)"
       id="text896"
       style="font-style:normal;font-weight:normal;font-size:2.37752px;line-height:1.25;font-family:sans-serif;fill:#000000;fill-opacity:1;stroke:none;stroke-width:0.297556" />
    <path
       id="path901-9"
       style="color:#000000;font-style:normal;font-variant:normal;font-weight:normal;font-stretch:normal;font-size:medium;line-height:normal;font-family:sans-serif;font-variant-ligatures:normal;font-variant-position:normal;font-variant-caps:normal;font-variant-numeric:normal;font-variant-alternates:normal;font-variant-east-asian:normal;font-feature-settings:normal;font-variation-settings:normal;text-indent:0;text-align:start;text-decoration:none;text-decoration-line:none;text-decoration-style:solid;text-decoration-color:#000000;letter-spacing:normal;word-spacing:normal;text-transform:none;writing-mode:lr-tb;direction:ltr;text-orientation:mixed;dominant-baseline:auto;baseline-shift:baseline;text-anchor:start;white-space:normal;shape-padding:0;shape-margin:0;inline-size:0;clip-rule:nonzero;display:inline;overflow:visible;visibility:visible;opacity:1;isolation:auto;mix-blend-mode:normal;color-interpolation:sRGB;color-interpolation-filters:linearRGB;solid-color:#000000;solid-opacity:1;vector-effect:none;fill:#ffffff;fill-opacity:1;fill-rule:nonzero;stroke:none;stroke-width:0.4;stroke-linecap:round;stroke-linejoin:miter;stroke-miterlimit:4;stroke-dasharray:none;stroke-dashoffset:0;stroke-opacity:1;color-rendering:auto;image-rendering:auto;shape-rendering:auto;text-rendering:auto;enable-background:accumulate;stop-color:#000000;stop-opacity:1"
       d="m 19.551926,7.1259411 c -0.457098,0 -0.871023,0.061292 -1.186118,0.1700815 -0.157548,0.054394 -0.290766,0.1203744 -0.395223,0.2056401 -0.103446,0.084441 -0.183398,0.2004149 -0.184949,0.3363072 h -0.0032 v 0.1657973 4.1380778 c -2.38e-4,0.005 -0.0054,0.0086 -0.0054,0.01371 v 4.23e-4 c 0,0.004 0.0053,0.0059 0.0054,0.0099 v 0.003 h 0.0018 c 0.0059,0.130851 0.07874,0.244862 0.179523,0.326882 0.104771,0.08526 0.238557,0.150817 0.396579,0.205212 0.316043,0.108788 0.73125,0.170922 1.189736,0.170938 0.458578,2.7e-5 0.874055,-0.06215 1.190188,-0.170938 0.158067,-0.05439 0.291777,-0.11994 0.396579,-0.205209 0.100816,-0.08203 0.173618,-0.196006 0.179523,-0.326882 h 0.005 v -0.0086 c 2.5e-5,-0.0017 0.0023,-0.0026 0.0023,-0.0043 v -4.23e-4 c -4e-6,-0.0021 -0.0022,-0.0035 -0.0023,-0.0056 V 7.8379688 h -0.0013 C 21.318444,7.7020741 21.236259,7.5861038 21.132811,7.5016616 21.028355,7.4163956 20.895137,7.350416 20.737589,7.2960215 20.422494,7.1872325 20.009021,7.12594 19.551923,7.12594 Z m 0,0.332023 c 0.422844,0 0.804729,0.06007 1.066286,0.1503744 0.130778,0.045152 0.231259,0.098018 0.288051,0.1443764 0.05679,0.046358 0.06466,0.074823 0.06466,0.089111 0,0.005 -0.004,0.013489 -0.0077,0.021849 l -0.02487,0.02442 c -0.07212,0.070201 -0.25599,0.1611066 -0.5024,0.2210628 -0.24641,0.059956 -0.554173,0.095562 -0.879528,0.095537 -0.325274,-6.8e-6 -0.632749,-0.035583 -0.879075,-0.095537 C 18.431047,8.049204 18.247074,7.9582781 18.17498,7.8880946 l -0.03979,-0.038558 c -3.18e-4,-0.00215 -0.0027,-0.00595 -0.0027,-0.00771 0,-0.014288 0.0079,-0.042753 0.06466,-0.089111 0.05679,-0.04636 0.157271,-0.099225 0.28805,-0.1443778 0.261557,-0.090305 0.643895,-0.1503743 1.066738,-0.150374 z m -1.419453,0.8281297 c 0.07042,0.037091 0.147922,0.069903 0.233335,0.099393 0.315095,0.1087888 0.72902,0.171795 1.186118,0.171795 0.457099,0 0.870572,-0.063006 1.185667,-0.171795 0.08555,-0.029538 0.163276,-0.062226 0.233787,-0.099393 v 0.5038181 c -0.01121,0.019382 -0.02807,0.040838 -0.05607,0.065977 -0.05924,0.053176 -0.159572,0.111448 -0.292573,0.1619409 -0.266003,0.1009859 -0.65625,0.1700814 -1.087539,0.1700814 -0.431289,0 -0.820632,-0.069095 -1.086635,-0.1700814 -0.132947,-0.050492 -0.235589,-0.108765 -0.294834,-0.1619416 -0.01032,-0.00926 -0.01258,-0.016004 -0.02035,-0.02442 z m 2.838907,0.9416601 v 0.4841109 c -0.01021,0.022345 -0.02733,0.047305 -0.0615,0.077972 -0.05924,0.053177 -0.159572,0.1114486 -0.292573,0.1619414 -0.266003,0.1009858 -0.65625,0.1700808 -1.087539,0.1700808 -0.43129,0 -0.821085,-0.0691 -1.087087,-0.1700808 -0.132947,-0.050492 -0.235137,-0.1087649 -0.294382,-0.1619414 -0.0069,-0.00623 -0.0083,-0.010432 -0.01402,-0.01628 l -4.53e-4,-0.5299513 c 0.05619,0.028878 0.113357,0.057395 0.177715,0.081828 0.325413,0.1235407 0.752469,0.1945013 1.223651,0.1945013 0.471182,0 0.897333,-0.070961 1.222747,-0.1945013 0.07708,-0.029262 0.147874,-0.061893 0.213438,-0.09768 z m 0,0.9313781 v 0.398428 c -0.0092,0.02397 -0.02539,0.05036 -0.06331,0.0844 -0.05924,0.05318 -0.159572,0.111448 -0.292573,0.161941 -0.266003,0.100986 -0.65625,0.170082 -1.08754,0.170082 -0.431289,0 -0.821084,-0.0691 -1.087087,-0.170082 -0.132946,-0.05049 -0.235136,-0.108765 -0.294381,-0.161942 -0.0055,-0.0049 -0.0061,-0.0082 -0.01085,-0.01285 l -4.52e-4,-0.448552 c 0.05437,0.0276 0.109011,0.05532 0.170931,0.07883 0.325414,0.123541 0.752469,0.194501 1.223651,0.194501 0.471182,0 0.89688,-0.07096 1.222294,-0.194501 0.07906,-0.03001 0.152404,-0.06335 0.219317,-0.100248 z m 0,0.851692 v 0.390288 c -0.01122,0.01928 -0.02737,0.04059 -0.05517,0.06555 -0.05924,0.05318 -0.160024,0.111448 -0.293026,0.161941 -0.266002,0.100986 -0.655797,0.170082 -1.087087,0.170082 -0.431289,0 -0.821084,-0.0691 -1.087087,-0.170082 -0.132946,-0.05049 -0.235589,-0.108765 -0.294834,-0.161941 -0.0089,-0.008 -0.01065,-0.01364 -0.01764,-0.02099 l -4.52e-4,-0.41128 c 0.05362,0.02708 0.107303,0.05399 0.168218,0.07712 0.325414,0.123541 0.752469,0.194501 1.223651,0.194501 0.471182,0 0.897333,-0.07096 1.222747,-0.194501 0.07971,-0.03026 0.153319,-0.06341 0.220674,-0.100679 z m 0,0.827702 -0.0013,0.306318 c 0,0.01429 -0.0041,0.05303 -0.06105,0.09939 -0.05698,0.04636 -0.157284,0.09965 -0.288499,0.144804 -0.26244,0.09031 -0.646154,0.151258 -1.070367,0.151231 -0.424126,-1.4e-5 -0.808017,-0.06093 -1.070355,-0.151231 -0.131169,-0.04515 -0.231091,-0.09845 -0.288051,-0.144805 -0.05677,-0.0462 -0.05421,-0.10563 -0.05426,-0.119956 l -4.53e-4,-0.268618 c 0.05546,0.02836 0.111632,0.05648 0.175002,0.08054 0.325413,0.123541 0.752921,0.194501 1.224103,0.194501 0.471182,0 0.89688,-0.07096 1.222294,-0.194501 0.07695,-0.02921 0.147514,-0.06197 0.212987,-0.09768 z" />
    <path
       id="rect1273"
       style="fill:#ffffff;stroke:none;stroke-width:0.4;stroke-linecap:round;stroke-miterlimit:4;stroke-dasharray:none"
       d="m 4.826243,5.2123795 v 1.144116 H 5.0779072 V 5.9234472 h 0.071313 c 0.040963,0 0.073781,0.010575 0.098185,0.031522 0.024839,0.020947 0.04941,0.060086 0.073381,0.1173057 L 5.4396418,6.3564951 H 5.7078425 L 5.5709003,6.0319676 c -0.02789,-0.065905 -0.055749,-0.1156086 -0.083199,-0.1477947 -0.02701,-0.032696 -0.057554,-0.053328 -0.091984,-0.062528 0.062748,-0.02299 0.1096198,-0.058952 0.1405599,-0.107487 0.03137,-0.048535 0.047026,-0.110423 0.047026,-0.1860351 0,-0.1093306 -0.030294,-0.1892007 -0.090434,-0.2397787 -0.0597,-0.050578 -0.153601,-0.075964 -0.2821533,-0.075964 z M 5.0779072,5.4263197 H 5.183844 c 0.052734,0 0.090511,0.01111 0.1131713,0.03359 0.023101,0.022479 0.034623,0.060027 0.034623,0.1121381 0,0.052622 -0.011533,0.090181 -0.034623,0.1131713 -0.022659,0.02299 -0.060443,0.034623 -0.1131713,0.034623 H 5.0779072 Z m 1.2448852,0.05116 c -0.050982,0 -0.096172,0.011644 -0.1353923,0.035657 -0.039214,0.0235 -0.075247,0.060521 -0.107487,0.1105876 V 5.4981501 H 5.8463358 V 6.6825738 H 6.0799131 V 6.232472 c 0.032244,0.050067 0.068267,0.087092 0.107487,0.1111044 0.039222,0.023503 0.084412,0.03514 0.1353923,0.03514 0.090204,-3e-7 0.1642486,-0.041787 0.2222088,-0.1255739 0.05795,-0.084297 0.086816,-0.1927233 0.086816,-0.3250446 0,-0.1323213 -0.028857,-0.2402252 -0.086816,-0.3240114 C 6.4870442,5.5197895 6.4129926,5.4774795 6.3227924,5.4774797 Z m -0.086816,0.199471 c 0.050115,5e-7 0.088055,0.021164 0.114205,0.064079 0.02658,0.042915 0.039791,0.1053259 0.039791,0.1870689 0,0.081743 -0.0132,0.1441537 -0.039791,0.1870686 -0.026146,0.042914 -0.064085,0.064079 -0.114205,0.064079 -0.05011,2e-7 -0.088735,-0.021164 -0.1157552,-0.064079 -0.02658,-0.043426 -0.040308,-0.1058367 -0.040308,-0.1870686 0,-0.081232 0.013727,-0.1431203 0.040308,-0.1860351 0.02702,-0.043426 0.065635,-0.065112 0.1157552,-0.065113 z"
       sodipodi:nodetypes="ccccsccccccccscsccscscsccsccccccccscscsscscscscs" />
    <path
       id="rect1277"
       style="fill:none;stroke:#ffffff;stroke-width:0.4;stroke-linecap:round;stroke-miterlimit:4;stroke-dasharray:none"
       d="m 1.3224927,0.44718531 h 6.008028 V 7.8335857 L 6.1939383,7.1538629 5.3664238,7.7692602 4.4908402,7.1439588 3.4605587,7.8587052 2.4516927,7.166648 l -1.1292,0.6669377 z"
       sodipodi:nodetypes="cccccccccc" />
    <ellipse
       style="fill:#ffffff;stroke:none;stroke-width:0.4;stroke-linecap:round;stroke-miterlimit:4;stroke-dasharray:none"
       id="path1280"
       cx="2.3213468"
       cy="1.3772902"
       rx="0.24039908"
       ry="0.2382164" />
    <ellipse
       style="fill:#ffffff;stroke:none;stroke-width:0.4;stroke-linecap:round;stroke-miterlimit:4;stroke-dasharray:none"
       id="path1280-6"
       cx="3.3295865"
       cy="1.3824267"
       rx="0.24039908"
       ry="0.2382164" />
    <ellipse
       style="fill:#ffffff;stroke:none;stroke-width:0.4;stroke-linecap:round;stroke-miterlimit:4;stroke-dasharray:none"
       id="path1280-2"
       cx="4.293014"
       cy="1.3832104"
       rx="0.24039908"
       ry="0.2382164" />
    <ellipse
       style="fill:#ffffff;stroke:none;stroke-width:0.4;stroke-linecap:round;stroke-miterlimit:4;stroke-dasharray:none"
       id="path1280-61"
       cx="5.2329588"
       cy="1.3909925"
       rx="0.24039908"
       ry="0.2382164" />
    <ellipse
       style="fill:#ffffff;stroke:none;stroke-width:0.4;stroke-linecap:round;stroke-miterlimit:4;stroke-dasharray:none"
       id="path1280-8"
       cx="6.2361541"
       cy="1.3921019"
       rx="0.24039908"
       ry="0.2382164" />
    <path
       style="fill:none;stroke:#ffffff;stroke-width:0.4;stroke-linecap:butt;stroke-linejoin:miter;stroke-opacity:1;stroke-miterlimit:4;stroke-dasharray:none"
       d="m 2.0917135,2.2947417 4.5262235,0.00267"
       id="path1315" />
    <path
       style="fill:none;stroke:#ffffff;stroke-width:0.4;stroke-linecap:butt;stroke-linejoin:miter;stroke-miterlimit:4;stroke-dasharray:none;stroke-opacity:1"
       d="m 2.0758296,3.1523674 2.2073227,0.00267"
       id="path1315-7" />
    <path
       style="fill:none;stroke:#ffffff;stroke-width:0.4;stroke-linecap:butt;stroke-linejoin:miter;stroke-miterlimit:4;stroke-dasharray:none;stroke-opacity:1"
       d="m 5.5154112,3.1400948 1.1032504,0.00267"
       id="path1315-7-9" />
    <path
       style="fill:none;stroke:#ffffff;stroke-width:0.4;stroke-linecap:butt;stroke-linejoin:miter;stroke-miterlimit:4;stroke-dasharray:none;stroke-opacity:1"
       d="m 2.0797844,4.0089439 2.6860433,0.00267"
       id="path1315-7-2" />
    <path
       style="fill:none;stroke:#ffffff;stroke-width:0.4;stroke-linecap:butt;stroke-linejoin:miter;stroke-miterlimit:4;stroke-dasharray:none;stroke-opacity:1"
       d="m 5.5208222,3.9966713 1.1032503,0.00267"
       id="path1315-7-9-0" />
  </g>
</svg>
