<?xml version="1.0" encoding="UTF-8" standalone="no"?>
<svg
   xmlns:dc="http://purl.org/dc/elements/1.1/"
   xmlns:cc="http://creativecommons.org/ns#"
   xmlns:rdf="http://www.w3.org/1999/02/22-rdf-syntax-ns#"
   xmlns:svg="http://www.w3.org/2000/svg"
   xmlns="http://www.w3.org/2000/svg"
   xmlns:sodipodi="http://sodipodi.sourceforge.net/DTD/sodipodi-0.dtd"
   xmlns:inkscape="http://www.inkscape.org/namespaces/inkscape"
   width="32"
   height="32"
   viewBox="0 0 8.4666667 8.4666667"
   version="1.1"
   id="svg8"
   inkscape:version="1.0.1 (0767f8302a, 2020-10-17)"
   sodipodi:docname="icon-receivable-white.svg">
  <defs
     id="defs2" />
  <sodipodi:namedview
     id="base"
     pagecolor="#7a7a7a"
     bordercolor="#666666"
     borderopacity="1.0"
     inkscape:pageopacity="0"
     inkscape:pageshadow="2"
     inkscape:zoom="11.313708"
     inkscape:cx="-5.215759"
     inkscape:cy="20.946642"
     inkscape:document-units="mm"
     inkscape:current-layer="layer1"
     inkscape:document-rotation="0"
     showgrid="false"
     inkscape:window-width="1874"
     inkscape:window-height="1016"
     inkscape:window-x="46"
     inkscape:window-y="27"
     inkscape:window-maximized="1"
     units="px"
     inkscape:snap-global="false" />
  <metadata
     id="metadata5">
    <rdf:RDF>
      <cc:Work
         rdf:about="">
        <dc:format>image/svg+xml</dc:format>
        <dc:type
           rdf:resource="http://purl.org/dc/dcmitype/StillImage" />
        <dc:title></dc:title>
      </cc:Work>
    </rdf:RDF>
  </metadata>
  <g
     inkscape:label="Layer 1"
     inkscape:groupmode="layer"
     id="layer1">
    <path
       style="fill:#ffffff;stroke:none;stroke-width:0.264583px;stroke-linecap:butt;stroke-linejoin:miter;stroke-opacity:1"
       d="m 0.47928749,5.3155177 0.89378551,0.00555 v -0.00384 c 0,0 0.3601776,-0.3808224 0.8703158,-0.440129 0.5455239,-0.070965 0.9360826,0.2363268 1.1811032,0.3010279 0.2616851,0.069102 0.7652903,0.014228 1.1143913,-0.00597 0.3347254,-7.783e-4 0.5150257,0.732341 0.017224,0.7331127 -0.8377296,0.0013 -0.7514051,0.02182 -1.1935851,0.011822 0,0 0.1786228,0.2323949 0.6946313,0.4607539 0.5160102,0.2283697 1.1507988,0.2139711 1.4160404,0.2181552 0.2652416,0.00418 0.8576429,-0.129145 1.0676924,-0.2158175 C 6.7509356,6.2935107 7.3123309,5.9355128 7.4297688,5.8896362 7.5472065,5.8437598 7.7309343,5.816224 7.8363308,5.8674219 7.9417273,5.9186211 8.0693305,5.9680176 8.0944345,6.1402175 8.1195381,6.3124173 8.1307294,6.5092638 7.9622409,6.6246748 7.7937524,6.7400858 7.1597187,7.1500108 6.8538082,7.2757688 6.5478978,7.4015266 5.9455816,7.6264421 5.3091301,7.7209393 4.6726786,7.8154363 3.7026749,7.7512207 3.1939962,7.719074 2.6853178,7.686929 1.9572378,7.0151913 1.7770947,6.937488 1.5969516,6.8597846 1.3793078,6.784335 1.3793078,6.784335 L 0.47984033,6.7799068 C 0.5176183,6.3247946 0.50313957,5.6275745 0.47928749,5.3155177 Z"
       id="path863"
       sodipodi:nodetypes="ccccscsccsssssssscsccc" />
    <path
       id="path901"
       style="color:#000000;font-style:normal;font-variant:normal;font-weight:normal;font-stretch:normal;font-size:medium;line-height:normal;font-family:sans-serif;font-variant-ligatures:normal;font-variant-position:normal;font-variant-caps:normal;font-variant-numeric:normal;font-variant-alternates:normal;font-variant-east-asian:normal;font-feature-settings:normal;font-variation-settings:normal;text-indent:0;text-align:start;text-decoration:none;text-decoration-line:none;text-decoration-style:solid;text-decoration-color:#000000;letter-spacing:normal;word-spacing:normal;text-transform:none;writing-mode:lr-tb;direction:ltr;text-orientation:mixed;dominant-baseline:auto;baseline-shift:baseline;text-anchor:start;white-space:normal;shape-padding:0;shape-margin:0;inline-size:0;clip-rule:nonzero;display:inline;overflow:visible;visibility:visible;opacity:1;isolation:auto;mix-blend-mode:normal;color-interpolation:sRGB;color-interpolation-filters:linearRGB;solid-color:#000000;solid-opacity:1;vector-effect:none;fill:#ffffff;fill-opacity:1;fill-rule:nonzero;stroke:none;stroke-width:0.4;stroke-linecap:round;stroke-linejoin:miter;stroke-miterlimit:4;stroke-dasharray:none;stroke-dashoffset:0;stroke-opacity:1;color-rendering:auto;image-rendering:auto;shape-rendering:auto;text-rendering:auto;enable-background:accumulate;stop-color:#000000;stop-opacity:1"
       d="m 3.4318985,0.18334868 c -0.3416099,0 -0.6512322,0.045251 -0.8867169,0.12565504 C 2.4274392,0.349206 2.3281891,0.39799387 2.2501242,0.461012 2.1728138,0.5234207 2.1130234,0.60883134 2.1118644,0.70926676 h -0.00232 V 0.83186637 3.8903647 c -1.78e-4,0.00372 -0.00424,0.00656 -0.00424,0.01031 0,0.00295 0.00414,0.00433 0.00424,0.00726 v 0.00229 h 0.00116 c 0.00441,0.096709 0.05869,0.1811423 0.1340116,0.2417619 0.078299,0.063015 0.1785056,0.1114249 0.2966022,0.1516263 0.236193,0.080403 0.5463874,0.1264075 0.8890341,0.126419 0.1715068,9.9e-6 0.3349626,-0.011654 0.4850681,-0.033228 V 4.1466399 C 3.7690377,4.1701549 3.605326,4.184844 3.4303539,4.184833 3.1133852,4.1848224 2.8265892,4.1396677 2.6305322,4.0729275 2.5325034,4.0395577 2.4576007,4.0002467 2.4150321,3.965987 2.3726029,3.9318396 2.3745186,3.8879674 2.3744807,3.8773791 V 3.6787753 c 0.041445,0.020961 0.083177,0.0418 0.130536,0.059581 0.2431959,0.091306 0.5627744,0.1436058 0.9149096,0.1436058 0.175353,0 0.342058,-0.012714 0.4954954,-0.037047 V 3.5932229 c -0.149304,0.026774 -0.3165509,0.04354 -0.4954954,0.04354 -0.3223214,0 -0.613771,-0.051018 -0.8125664,-0.125655 -0.099356,-0.037317 -0.1758582,-0.080625 -0.2201345,-0.1199261 -0.00665,-0.0059 -0.00791,-0.00985 -0.013131,-0.015278 L 2.3737085,3.0718864 c 0.040071,0.020017 0.07999,0.039816 0.1255153,0.056908 0.243196,0.091306 0.5623882,0.1439878 0.9145233,0.1439878 0.1776098,0 0.3465299,-0.013634 0.5016747,-0.038575 v -0.251692 c -0.1509213,0.027464 -0.3202153,0.044685 -0.5016747,0.044685 -0.3223213,0 -0.6133846,-0.051018 -0.8121802,-0.1256549 -0.099356,-0.037317 -0.1758581,-0.080242 -0.2201343,-0.1195441 -0.00408,-0.00362 -0.00458,-0.0061 -0.00811,-0.00955 L 2.3729387,2.4409364 c 0.040636,0.020401 0.081557,0.04068 0.1278324,0.058054 0.2431961,0.091306 0.5623882,0.1439877 0.9145234,0.1439877 0.1771349,0 0.3454107,-0.01338 0.5001298,-0.038193 v -0.251691 c -0.1505321,0.027287 -0.3193157,0.044304 -0.5001298,0.044304 -0.3223215,0 -0.6137709,-0.051018 -0.8125664,-0.1256552 -0.099356,-0.037317 -0.175858,-0.080242 -0.2201344,-0.1195444 -0.00519,-0.0046 -0.00613,-0.0079 -0.010425,-0.012222 L 2.3717813,1.748499 c 0.041991,0.021343 0.084756,0.042287 0.1328531,0.060346 0.243196,0.091306 0.5623881,0.1436059 0.9145233,0.1436059 0.1755099,0 0.3426331,-0.013056 0.4962679,-0.03743 V 1.6633287 c -0.1495674,0.026851 -0.3170436,0.043922 -0.4962679,0.043922 -0.3223214,0 -0.6133847,-0.051018 -0.8121802,-0.1256551 -0.099356,-0.037318 -0.1758581,-0.080625 -0.2201343,-0.1199264 -0.00771,-0.00684 -0.00926,-0.011731 -0.015062,-0.01795 L 2.3710119,1.0407823 c 0.052629,0.027413 0.1103437,0.051535 0.1741765,0.073331 0.2354847,0.080404 0.5451069,0.1268009 0.8867169,0.1268009 0.34161,0 0.65046,-0.046397 0.8859446,-0.1268009 0.063937,-0.021831 0.1218673,-0.045861 0.1745626,-0.073331 v 0.029409 c 0.083735,-0.029574 0.1704304,-0.05343 0.2618454,-0.068747 V 0.70926643 h -0.00117 C 4.751919,0.60882936 4.6906024,0.52342135 4.613291,0.4610117 4.5352266,0.39799328 4.4355897,0.34920533 4.3178475,0.30900343 4.0823629,0.22859962 3.7735127,0.18334839 3.4319028,0.18334839 Z m 0,0.24519929 c 0.3160097,0 0.6012589,0.0443995 0.7967321,0.11114168 0.097736,0.0333709 0.1726707,0.0722964 0.2151136,0.10655832 0.042444,0.0342619 0.048661,0.0555135 0.048661,0.0660742 0,0.00369 -0.00303,0.009858 -0.00579,0.0160405 l -0.01854,0.0179505 C 4.4141768,0.7981979 4.276455,0.86546766 4.0923021,0.90978007 3.9081487,0.95409237 3.67814,0.98045532 3.4349882,0.98043692 3.1918963,0.98043196 2.9621511,0.95409017 2.7780606,0.90978007 2.5939703,0.8654692 2.4565528,0.79818512 2.4026736,0.74631396 l -0.029738,-0.0282634 c -2.373e-4,-0.001586 -0.00193,-0.004428 -0.00193,-0.005728 0,-0.010563 0.00584,-0.0318112 0.048275,-0.0660742 0.042447,-0.0342638 0.117382,-0.0731871 0.2151185,-0.10655794 0.1954732,-0.0667419 0.481495,-0.11114161 0.7975047,-0.11114138 z" />
    <path
       id="path901-2"
       style="color:#000000;font-style:normal;font-variant:normal;font-weight:normal;font-stretch:normal;font-size:medium;line-height:normal;font-family:sans-serif;font-variant-ligatures:normal;font-variant-position:normal;font-variant-caps:normal;font-variant-numeric:normal;font-variant-alternates:normal;font-variant-east-asian:normal;font-feature-settings:normal;font-variation-settings:normal;text-indent:0;text-align:start;text-decoration:none;text-decoration-line:none;text-decoration-style:solid;text-decoration-color:#000000;letter-spacing:normal;word-spacing:normal;text-transform:none;writing-mode:lr-tb;direction:ltr;text-orientation:mixed;dominant-baseline:auto;baseline-shift:baseline;text-anchor:start;white-space:normal;shape-padding:0;shape-margin:0;inline-size:0;clip-rule:nonzero;display:inline;overflow:visible;visibility:visible;opacity:1;isolation:auto;mix-blend-mode:normal;color-interpolation:sRGB;color-interpolation-filters:linearRGB;solid-color:#000000;solid-opacity:1;vector-effect:none;fill:#ffffff;fill-opacity:1;fill-rule:nonzero;stroke:none;stroke-width:0.4;stroke-linecap:round;stroke-linejoin:miter;stroke-miterlimit:4;stroke-dasharray:none;stroke-dashoffset:0;stroke-opacity:1;color-rendering:auto;image-rendering:auto;shape-rendering:auto;text-rendering:auto;enable-background:accumulate;stop-color:#000000;stop-opacity:1"
       d="m 5.2578557,1.2034846 c -0.2844341,0 -0.5419586,0.037703 -0.7380296,0.1046484 -0.098035,0.033473 -0.1810113,0.073949 -0.24601,0.1264189 -0.064371,0.051964 -0.1141226,0.1233811 -0.1150878,0.2070063 h -0.00194 v 0.1019752 2.5467115 c -1.482e-4,0.0031 -0.00346,0.00529 -0.00347,0.0084 v 3.91e-4 c 2e-7,0.00246 0.00339,0.00367 0.00347,0.00611 v 0.00152 h 0.00117 c 0.00368,0.080523 0.048897,0.1508038 0.111612,0.2012773 0.065195,0.052469 0.1484518,0.092947 0.2467823,0.1264188 0.063662,0.021672 0.1358366,0.038902 0.2112517,0.054235 A 1.666868,1.6277962 0 0 1 4.7036573,4.473947 C 4.6636013,4.464127 4.6244633,4.453808 4.5905005,4.442247 4.5088785,4.414462 4.4467472,4.381782 4.4113033,4.353257 4.3759753,4.324825 4.3777353,4.28836 4.3777043,4.279544 L 4.37731,4.1141752 c 0.034508,0.017453 0.069476,0.034846 0.1089091,0.04965 0.067777,0.025447 0.1448928,0.045628 0.2255412,0.063401 A 1.666868,1.6277962 0 0 1 4.7472908,4.0244219 C 4.6830851,4.0096601 4.6226217,3.9935568 4.5715694,3.9743892 4.4888416,3.9433171 4.4249896,3.9074294 4.3881239,3.8747051 c -0.00554,-0.00491 -0.00685,-0.00846 -0.0112,-0.012986 V 3.6088812 c 0.033364,0.016667 0.066755,0.033127 0.1046602,0.047359 0.1051435,0.039476 0.2276317,0.069691 0.3618701,0.090136 A 1.666868,1.6277962 0 0 1 4.9477277,3.5519733 C 4.8003263,3.5338951 4.6679238,3.504864 4.5665475,3.4668031 4.4838197,3.435731 4.4199678,3.3998433 4.3831022,3.367119 c -0.0034,-0.00302 -0.00362,-0.00477 -0.00656,-0.00763 L 4.3761417,3.0833456 c 0.033834,0.016986 0.068062,0.03404 0.1065914,0.048505 0.1903386,0.071461 0.4374559,0.1127458 0.7098368,0.1176345 a 1.666868,1.6277962 0 0 1 0.2707267,-0.212735 c -0.070572,0.00628 -0.1435467,0.01031 -0.2193618,0.01031 -0.2683735,0 -0.510715,-0.042504 -0.6762376,-0.1046494 -0.082727,-0.031072 -0.1465795,-0.066961 -0.1834452,-0.099684 -0.00432,-0.00383 -0.00491,-0.00633 -0.0085,-0.00994 L 4.3753601,2.5066301 c 0.034963,0.017771 0.070406,0.03538 0.110454,0.050415 0.2024915,0.076024 0.4683901,0.1195442 0.7615878,0.1195442 0.2931971,0 0.5583237,-0.04352 0.7608154,-0.1195442 0.047963,-0.018008 0.092055,-0.037942 0.132853,-0.059963 V 2.7907864 A 1.666868,1.6277962 0 0 1 6.3588865,2.775508 V 1.6415588 H 6.3581167 C 6.3571601,1.5579317 6.3058807,1.4865165 6.2415087,1.4345525 6.17651,1.3820819 6.0935347,1.3416068 5.995499,1.3081336 5.7994281,1.241187 5.5422893,1.2034846 5.2578557,1.2034846 Z m 0,0.2043327 c 0.2631181,0 0.500736,0.036856 0.6634927,0.092427 0.081378,0.027785 0.1438578,0.060462 0.1791972,0.08899 0.03534,0.028528 0.040165,0.046206 0.040165,0.054998 0,0.00307 -0.00234,0.00823 -0.00463,0.013367 l -0.01545,0.014895 C 6.075753,1.7156946 5.9611368,1.771566 5.8078058,1.8084614 5.6544748,1.845357 5.4630143,1.8672936 5.2605594,1.8672793 5.0581541,1.8672757 4.8669781,1.8453564 4.7136992,1.808462 4.5604207,1.7715676 4.4457378,1.715684 4.4008766,1.6724949 l -0.024717,-0.023679 c -1.973e-4,-0.00132 -0.00154,-0.0035 -0.00154,-0.00458 0,-0.00879 0.00482,-0.02647 0.040165,-0.054998 0.035338,-0.028531 0.097819,-0.061204 0.1791971,-0.08899 0.1627563,-0.055572 0.4007609,-0.092427 0.6638792,-0.092427 z M 4.3746146,1.9173124 c 0.043819,0.022824 0.092062,0.043343 0.1452115,0.061491 0.196071,0.066947 0.4535955,0.1054128 0.7380296,0.1054128 0.2844336,0 0.5415724,-0.038467 0.7376433,-0.1054128 0.053235,-0.018176 0.101722,-0.038619 0.1455976,-0.061491 v 0.3101275 c -0.00697,0.011927 -0.017329,0.025015 -0.034759,0.040484 -0.036864,0.032724 -0.099526,0.068612 -0.1822866,0.099684 -0.1655229,0.062145 -0.4082502,0.1046484 -0.6766238,0.1046484 -0.2683736,0 -0.5107148,-0.042504 -0.6762374,-0.1046484 -0.082727,-0.031072 -0.1465798,-0.06696 -0.1834455,-0.099684 -0.00642,-0.00569 -0.00792,-0.00971 -0.012744,-0.014895 z" />
    <path
       id="path1004"
       style="fill:#ffffff;stroke:none;stroke-width:0.4;stroke-linecap:round;stroke-miterlimit:4;stroke-dasharray:none"
       d="M 6.3457829,3.0413334 A 1.3847476,1.3694358 0 0 0 4.9801774,4.4105537 1.3847476,1.3694358 0 0 0 6.3647068,5.7801561 1.3847476,1.3694358 0 0 0 7.7496225,4.4105537 1.3847476,1.3694358 0 0 0 6.3647068,3.0413334 a 1.3847476,1.3694358 0 0 0 -0.018924,0 z M 5.4544318,3.7062742 H 5.862646 c 0.1364891,0 0.2363051,0.026335 0.2996917,0.079441 0.063849,0.053108 0.095778,0.1372763 0.095778,0.252074 0,0.079393 -0.016506,0.1442048 -0.049819,0.1951664 -0.032851,0.050962 -0.082835,0.08853 -0.1494598,0.1126695 0.036552,0.00966 0.069409,0.031742 0.098094,0.066074 0.029149,0.033796 0.058443,0.085481 0.088054,0.1546816 L 6.390196,4.9074456 H 6.1055661 L 5.9792784,4.6087756 C 5.9538309,4.5486944 5.9280248,4.5077874 5.9016518,4.4857941 5.8757421,4.4638002 5.8408687,4.4529476 5.7973781,4.4529476 H 5.7216828 V 4.9074447 H 5.4544319 Z m 0.2672508,0.2241931 v 0.3082178 h 0.1123843 c 0.055984,0 0.09605,-0.012144 0.1201084,-0.036283 0.024522,-0.02414 0.036689,-0.063527 0.036689,-0.1187804 0,-0.054717 -0.012167,-0.094031 -0.036689,-0.1176344 -0.02406,-0.023603 -0.064124,-0.03552 -0.1201084,-0.03552 z m 1.321579,0.053853 c 0.095773,0 0.1744327,0.0444 0.2359686,0.1329116 0.061536,0.087976 0.092302,0.2013625 0.092302,0.3403001 0,0.1389376 -0.030766,0.2529333 -0.092302,0.3414456 -0.061536,0.087976 -0.1401948,0.1317659 -0.2359686,0.1317661 -0.054133,0 -0.102026,-0.01237 -0.1436668,-0.037047 -0.041641,-0.025214 -0.07969,-0.063919 -0.1139293,-0.1164903 V 5.2500366 H 6.5373386 V 4.0060895 h 0.2483269 v 0.1321479 c 0.034238,-0.05257 0.072288,-0.091431 0.1139293,-0.1161068 0.041641,-0.025213 0.089534,-0.037811 0.1436668,-0.03781 z m -0.092302,0.2092976 c -0.053208,0 -0.094126,0.022768 -0.1228118,0.068365 -0.028223,0.045061 -0.042482,0.1102543 -0.042482,0.1955484 0,0.085294 0.014259,0.1507147 0.042482,0.1963121 0.028686,0.045061 0.069604,0.067601 0.1228118,0.067601 0.053208,0 0.093507,-0.022541 0.121267,-0.067601 0.028223,-0.045061 0.042483,-0.1104818 0.042483,-0.1963121 0,-0.08583 -0.014259,-0.1512514 -0.042483,-0.1963124 -0.02776,-0.045061 -0.068059,-0.067602 -0.121267,-0.067601 z" />
  </g>
</svg>
