<?xml version="1.0" encoding="UTF-8" standalone="no"?>
<svg
   xmlns:dc="http://purl.org/dc/elements/1.1/"
   xmlns:cc="http://creativecommons.org/ns#"
   xmlns:rdf="http://www.w3.org/1999/02/22-rdf-syntax-ns#"
   xmlns:svg="http://www.w3.org/2000/svg"
   xmlns="http://www.w3.org/2000/svg"
   xmlns:sodipodi="http://sodipodi.sourceforge.net/DTD/sodipodi-0.dtd"
   xmlns:inkscape="http://www.inkscape.org/namespaces/inkscape"
   width="32"
   height="32"
   viewBox="0 0 8.4666667 8.4666667"
   version="1.1"
   id="svg8"
   inkscape:version="1.0.1 (0767f8302a, 2020-10-17)"
   sodipodi:docname="icon-jadwalanterima-white.svg">
  <defs
     id="defs2">
    <filter
       style="color-interpolation-filters:sRGB;"
       inkscape:label="Invert"
       id="filter3063">
      <feColorMatrix
         values="1 0 0 0 0 0 1 0 0 0 0 0 1 0 0 -0.21 -0.72 -0.07 2 0 "
         result="fbSourceGraphic"
         id="feColorMatrix3061" />
      <feColorMatrix
         result="fbSourceGraphicAlpha"
         in="fbSourceGraphic"
         values="0 0 0 -1 0 0 0 0 -1 0 0 0 0 -1 0 0 0 0 1 0"
         id="feColorMatrix3065" />
      <feColorMatrix
         id="feColorMatrix3067"
         values="1 0 0 0 0 0 1 0 0 0 0 0 1 0 0 -0.21 -0.72 -0.07 2 0 "
         result="color2"
         in="fbSourceGraphic" />
    </filter>
  </defs>
  <sodipodi:namedview
     id="base"
     pagecolor="#7a7a7a"
     bordercolor="#666666"
     borderopacity="1.0"
     inkscape:pageopacity="0"
     inkscape:pageshadow="2"
     inkscape:zoom="11.313709"
     inkscape:cx="35.881864"
     inkscape:cy="25.961822"
     inkscape:document-units="mm"
     inkscape:current-layer="layer1"
     inkscape:document-rotation="0"
     showgrid="false"
     inkscape:window-width="1874"
     inkscape:window-height="1016"
     inkscape:window-x="46"
     inkscape:window-y="27"
     inkscape:window-maximized="1"
     units="px"
     inkscape:snap-global="false" />
  <metadata
     id="metadata5">
    <rdf:RDF>
      <cc:Work
         rdf:about="">
        <dc:format>image/svg+xml</dc:format>
        <dc:type
           rdf:resource="http://purl.org/dc/dcmitype/StillImage" />
        <dc:title></dc:title>
      </cc:Work>
    </rdf:RDF>
  </metadata>
  <g
     inkscape:label="Layer 1"
     inkscape:groupmode="layer"
     id="layer1">
    <path
       id="rect1277"
       style="fill:none;stroke:#ffffff;stroke-width:0.4;stroke-linecap:round;stroke-miterlimit:4;stroke-dasharray:none"
       d="m 16.826737,7.844282 h 6.008028 v 7.386401 l -1.136582,-0.679723 -0.827515,0.615397 -0.875584,-0.625301 -1.030281,0.714746 -1.008866,-0.692057 -1.1292,0.666938 z"
       sodipodi:nodetypes="cccccccccc" />
    <path
       style="fill:#ffffff;stroke:none;stroke-width:0.264583px;stroke-linecap:butt;stroke-linejoin:miter;stroke-opacity:1"
       d="m 0.07486957,5.7598248 0.61430848,0.0052 v -0.0036 c 0,0 0.2475535,-0.3569306 0.59817755,-0.4125164 0.3749438,-0.066513 0.6433792,0.2215003 0.8117847,0.2821421 0.1798589,0.064767 0.525992,0.013334 0.7659329,-0.0056 0.23006,-7.191e-4 0.3539828,0.6863958 0.011836,0.6871192 -0.5757808,0.00122 -0.5164487,0.020451 -0.8203638,0.01108 0,0 0.1227695,0.2178151 0.4774273,0.4318474 0.3546599,0.2140448 0.7909565,0.2005494 0.9732602,0.2044711 0.1823036,0.00392 0.5894672,-0.1210428 0.7338361,-0.2022777 0.1443696,-0.081234 0.5302224,-0.4167726 0.6109388,-0.4597711 0.080716,-0.042998 0.2069946,-0.068806 0.2794344,-0.02082 0.07244,0.047987 0.1601434,0.094285 0.1773977,0.2556813 0.017252,0.1613961 0.024942,0.3458931 -0.090858,0.4540635 C 5.1021774,7.0950218 4.666399,7.4792292 4.4561438,7.5970976 4.2458879,7.7149655 3.8319097,7.9257706 3.3944694,8.0143394 2.9570298,8.1029079 2.2903357,8.0427206 1.9407152,8.0126055 1.5910981,7.9824601 1.0906809,7.3528652 0.966866,7.280037 0.84305179,7.2072086 0.69346343,7.1364924 0.69346343,7.1364924 L 0.07524959,7.1323424 C 0.10121481,6.7057808 0.09126324,6.0523024 0.07486957,5.7598232 Z"
       id="path863"
       sodipodi:nodetypes="ccccscsccsssssssscsccc" />
    <path
       id="rect1277-6"
       style="fill:none;stroke:#ffffff;stroke-width:0.4;stroke-linecap:round;stroke-miterlimit:4;stroke-dasharray:none"
       d="m 11.753851,1.8083112 h 5.578412 v 3.871729 L 16.276954,5.3237499 15.508613,5.6463225 14.695639,5.3185585 13.73903,5.6932069 12.802305,5.3304513 11.753851,5.6800402 Z"
       sodipodi:nodetypes="cccccccccc" />
    <path
       id="path1277"
       style="color:#000000;font-style:normal;font-variant:normal;font-weight:normal;font-stretch:normal;font-size:medium;line-height:normal;font-family:sans-serif;font-variant-ligatures:normal;font-variant-position:normal;font-variant-caps:normal;font-variant-numeric:normal;font-variant-alternates:normal;font-variant-east-asian:normal;font-feature-settings:normal;font-variation-settings:normal;text-indent:0;text-align:start;text-decoration:none;text-decoration-line:none;text-decoration-style:solid;text-decoration-color:#000000;letter-spacing:normal;word-spacing:normal;text-transform:none;writing-mode:lr-tb;direction:ltr;text-orientation:mixed;dominant-baseline:auto;baseline-shift:baseline;text-anchor:start;white-space:normal;shape-padding:0;shape-margin:0;inline-size:0;clip-rule:nonzero;display:inline;overflow:visible;visibility:visible;opacity:1;isolation:auto;mix-blend-mode:normal;color-interpolation:sRGB;color-interpolation-filters:linearRGB;solid-color:#000000;solid-opacity:1;vector-effect:none;fill:#ffffff;fill-opacity:1;fill-rule:nonzero;stroke:none;stroke-width:0.665001;stroke-linecap:round;stroke-linejoin:miter;stroke-miterlimit:4;stroke-dasharray:none;stroke-dashoffset:0;stroke-opacity:1;color-rendering:auto;image-rendering:auto;shape-rendering:auto;text-rendering:auto;enable-background:accumulate;stop-color:#000000;stop-opacity:1"
       d="m 4.1937862,0.17432645 c -2.0459672,4e-8 -3.73610921,1.53078335 -3.99613861,3.50676265 h 0.6702433 C 1.1209106,2.0679241 2.507972,0.83836865 4.1937862,0.8383686 c 1.8660584,0 3.3729204,1.5047953 3.3729204,3.3708537 0,1.4955597 -0.968536,2.7585379 -2.3135536,3.2018716 V 8.1004576 C 6.9657756,7.6331452 8.2312656,6.0675943 8.2312656,4.2092223 c 0,-2.2254511 -1.812028,-4.03489584 -4.0374794,-4.03489585 z" />
    <path
       style="fill:none;stroke:#ffffff;stroke-width:0.564999;stroke-linecap:round;stroke-linejoin:miter;stroke-miterlimit:4;stroke-dasharray:none;stroke-opacity:1"
       d="m 4.1768176,1.5565746 v 2.9104168 l 1.5875,0.79375"
       id="path1870" />
  </g>
</svg>
