<?xml version="1.0" encoding="UTF-8" standalone="no"?>
<svg
   xmlns:dc="http://purl.org/dc/elements/1.1/"
   xmlns:cc="http://creativecommons.org/ns#"
   xmlns:rdf="http://www.w3.org/1999/02/22-rdf-syntax-ns#"
   xmlns:svg="http://www.w3.org/2000/svg"
   xmlns="http://www.w3.org/2000/svg"
   xmlns:sodipodi="http://sodipodi.sourceforge.net/DTD/sodipodi-0.dtd"
   xmlns:inkscape="http://www.inkscape.org/namespaces/inkscape"
   width="32"
   height="32"
   viewBox="0 0 8.4666667 8.4666667"
   version="1.1"
   id="svg8"
   inkscape:version="1.0.1 (0767f8302a, 2020-10-17)"
   sodipodi:docname="icon-channel-white.svg">
  <defs
     id="defs2">
    <inkscape:path-effect
       effect="powerstroke"
       id="path-effect862"
       is_visible="true"
       lpeversion="1"
       offset_points="0,0.674052"
       sort_points="true"
       interpolator_type="CubicBezierJohan"
       interpolator_beta="0.2"
       start_linecap_type="zerowidth"
       linejoin_type="extrp_arc"
       miter_limit="4"
       scale_width="1"
       end_linecap_type="zerowidth" />
  </defs>
  <sodipodi:namedview
     id="base"
     pagecolor="#7a7a7a"
     bordercolor="#666666"
     borderopacity="1.0"
     inkscape:pageopacity="0"
     inkscape:pageshadow="2"
     inkscape:zoom="16.000001"
     inkscape:cx="14.160113"
     inkscape:cy="14.640719"
     inkscape:document-units="mm"
     inkscape:current-layer="layer1"
     inkscape:document-rotation="0"
     showgrid="true"
     inkscape:window-width="1874"
     inkscape:window-height="1016"
     inkscape:window-x="46"
     inkscape:window-y="27"
     inkscape:window-maximized="1"
     units="px"
     inkscape:snap-global="true"
     showguides="true"
     inkscape:guide-bbox="true"
     inkscape:snap-to-guides="false"
     inkscape:object-nodes="true">
    <inkscape:grid
       type="xygrid"
       id="grid60" />
  </sodipodi:namedview>
  <metadata
     id="metadata5">
    <rdf:RDF>
      <cc:Work
         rdf:about="">
        <dc:format>image/svg+xml</dc:format>
        <dc:type
           rdf:resource="http://purl.org/dc/dcmitype/StillImage" />
        <dc:title></dc:title>
      </cc:Work>
    </rdf:RDF>
  </metadata>
  <g
     inkscape:label="Layer 1"
     inkscape:groupmode="layer"
     id="layer1">
    <g
       aria-label="DOC"
       transform="matrix(0.88595284,0,0,0.89243146,0.39344915,0.99550352)"
       id="text896"
       style="font-style:normal;font-weight:normal;font-size:2.37752px;line-height:1.25;font-family:sans-serif;fill:#000000;fill-opacity:1;stroke:none;stroke-width:0.297556" />
    <path
       id="path1149"
       style="color:#000000;font-style:normal;font-variant:normal;font-weight:normal;font-stretch:normal;font-size:medium;line-height:normal;font-family:sans-serif;font-variant-ligatures:normal;font-variant-position:normal;font-variant-caps:normal;font-variant-numeric:normal;font-variant-alternates:normal;font-variant-east-asian:normal;font-feature-settings:normal;font-variation-settings:normal;text-indent:0;text-align:start;text-decoration:none;text-decoration-line:none;text-decoration-style:solid;text-decoration-color:#000000;letter-spacing:normal;word-spacing:normal;text-transform:none;writing-mode:lr-tb;direction:ltr;text-orientation:mixed;dominant-baseline:auto;baseline-shift:baseline;text-anchor:start;white-space:normal;shape-padding:0;shape-margin:0;inline-size:0;clip-rule:nonzero;display:inline;overflow:visible;visibility:visible;opacity:1;isolation:auto;mix-blend-mode:normal;color-interpolation:sRGB;color-interpolation-filters:linearRGB;solid-color:#000000;solid-opacity:1;vector-effect:none;fill:#ffffff;fill-opacity:1;fill-rule:nonzero;stroke:none;stroke-width:2.13543;stroke-linecap:round;stroke-linejoin:miter;stroke-miterlimit:4;stroke-dasharray:none;stroke-dashoffset:0;stroke-opacity:1;color-rendering:auto;image-rendering:auto;shape-rendering:auto;text-rendering:auto;enable-background:accumulate;stop-color:#000000;stop-opacity:1"
       d="M 17.695312 0.546875 C 15.768297 0.54687508 14.144531 2.082111 14.144531 4.0019531 C 14.144531 5.9217948 15.768297 7.4628906 17.695312 7.4628906 C 17.802736 7.4628906 17.904456 7.4410244 18.009766 7.4316406 L 18.623047 9.8867188 C 15.845978 11.100291 13.809977 13.66895 13.380859 16.742188 L 7.5625 15.289062 C 7.5456159 13.38332 5.932546 11.863281 4.015625 11.863281 C 2.0886102 11.863281 0.46484371 13.398518 0.46484375 15.318359 C 0.46484371 17.2382 2.0886102 18.779297 4.015625 18.779297 C 5.1877962 18.779297 6.242052 18.203385 6.8925781 17.324219 L 13.349609 18.939453 C 13.502971 20.276463 13.964218 21.520856 14.65625 22.609375 L 12.84375 23.818359 C 12.2221 23.449057 11.503549 23.222656 10.732422 23.222656 C 8.4699354 23.222656 6.5917969 25.051393 6.5917969 27.304688 C 6.5917973 29.557981 8.4699358 31.388672 10.732422 31.388672 C 12.994908 31.388671 14.867187 29.557981 14.867188 27.304688 C 14.867188 26.604885 14.670173 25.956721 14.353516 25.380859 L 16.015625 24.273438 C 17.627578 25.814379 19.81833 26.767578 22.226562 26.767578 C 27.141743 26.767578 31.166016 22.811153 31.166016 17.945312 C 31.166016 13.079472 27.141743 9.1308594 22.226562 9.1308594 C 21.69553 9.1308594 21.178158 9.1870433 20.671875 9.2753906 L 20.035156 6.7402344 L 19.736328 6.8144531 C 20.639457 6.1880492 21.244141 5.1687945 21.244141 4.0019531 C 21.244141 2.082111 19.622328 0.54687508 17.695312 0.546875 z M 17.695312 2.6796875 C 18.510693 2.6796875 19.111328 3.2802387 19.111328 4.0019531 C 19.111328 4.7236671 18.510693 5.3222656 17.695312 5.3222656 C 16.879932 5.3222656 16.285156 4.7236671 16.285156 4.0019531 C 16.285156 3.2802387 16.879932 2.6796875 17.695312 2.6796875 z M 22.226562 11.265625 C 22.398742 11.265625 22.567514 11.276877 22.736328 11.289062 C 24.116868 13.835006 24.387693 16.430739 23.939453 19.119141 L 21.998047 19.119141 A 0.87874016 0.87874016 0 0 0 21.119141 19.998047 A 0.87874016 0.87874016 0 0 0 21.998047 20.876953 L 23.548828 20.876953 C 23.216463 22.104187 22.758278 23.352661 22.207031 24.625 C 22.06597 24.62461 21.927896 24.614065 21.789062 24.605469 C 20.478086 21.575051 19.689086 18.684166 19.902344 15.878906 L 21.998047 15.878906 A 0.87874016 0.87874016 0 0 0 22.876953 15 A 0.87874016 0.87874016 0 0 0 21.998047 14.121094 L 20.175781 14.121094 C 20.397306 13.187514 20.73842 12.26229 21.230469 11.34375 C 21.556336 11.297142 21.886894 11.265625 22.226562 11.265625 z M 24.910156 11.802734 C 27.338517 12.822508 29.025391 15.185822 29.025391 17.945312 C 29.025391 18.346545 28.984385 18.737507 28.916016 19.119141 L 25.683594 19.119141 C 26.045231 16.656653 25.8752 14.199678 24.910156 11.802734 z M 18.990234 12.0625 C 18.73254 12.744359 18.53684 13.431044 18.400391 14.121094 L 16.644531 14.121094 C 17.250474 13.268367 18.051837 12.559244 18.990234 12.0625 z M 4.015625 13.996094 C 4.8310059 13.996094 5.4335938 14.596644 5.4335938 15.318359 C 5.4335938 16.040075 4.8310059 16.646484 4.015625 16.646484 C 3.2002439 16.646484 2.6054688 16.040075 2.6054688 15.318359 C 2.6054688 14.596644 3.2002439 13.996094 4.015625 13.996094 z M 15.765625 15.845703 A 0.87874016 0.87874016 0 0 0 15.996094 15.878906 L 18.175781 15.878906 C 18.002883 18.628476 18.654817 21.41382 19.724609 24.158203 C 17.196994 23.182044 15.419922 20.773124 15.419922 17.945312 C 15.419922 17.210914 15.544166 16.506309 15.765625 15.845703 z M 25.337891 20.876953 L 28.332031 20.876953 C 27.513412 22.527952 26.030757 23.797546 24.208984 24.337891 C 24.664494 23.189912 25.057428 22.034534 25.337891 20.876953 z M 10.732422 25.357422 C 11.860805 25.357422 12.734375 26.225789 12.734375 27.304688 C 12.734375 28.383585 11.860804 29.253906 10.732422 29.253906 C 9.6040386 29.253906 8.7324219 28.383585 8.7324219 27.304688 C 8.7324219 26.225789 9.6040386 25.357422 10.732422 25.357422 z "
       transform="scale(0.26458333)" />
  </g>
</svg>
