<?xml version="1.0" encoding="UTF-8" standalone="no"?>
<svg
   xmlns:dc="http://purl.org/dc/elements/1.1/"
   xmlns:cc="http://creativecommons.org/ns#"
   xmlns:rdf="http://www.w3.org/1999/02/22-rdf-syntax-ns#"
   xmlns:svg="http://www.w3.org/2000/svg"
   xmlns="http://www.w3.org/2000/svg"
   xmlns:sodipodi="http://sodipodi.sourceforge.net/DTD/sodipodi-0.dtd"
   xmlns:inkscape="http://www.inkscape.org/namespaces/inkscape"
   width="32"
   height="32"
   viewBox="0 0 8.4666667 8.4666667"
   version="1.1"
   id="svg8"
   inkscape:version="1.0.1 (0767f8302a, 2020-10-17)"
   sodipodi:docname="icon-neraca-white.svg">
  <defs
     id="defs2">
    <filter
       style="color-interpolation-filters:sRGB;"
       inkscape:label="Invert"
       id="filter3063">
      <feColorMatrix
         values="1 0 0 0 0 0 1 0 0 0 0 0 1 0 0 -0.21 -0.72 -0.07 2 0 "
         result="fbSourceGraphic"
         id="feColorMatrix3061" />
      <feColorMatrix
         result="fbSourceGraphicAlpha"
         in="fbSourceGraphic"
         values="0 0 0 -1 0 0 0 0 -1 0 0 0 0 -1 0 0 0 0 1 0"
         id="feColorMatrix3065" />
      <feColorMatrix
         id="feColorMatrix3067"
         values="1 0 0 0 0 0 1 0 0 0 0 0 1 0 0 -0.21 -0.72 -0.07 2 0 "
         result="color2"
         in="fbSourceGraphic" />
    </filter>
  </defs>
  <sodipodi:namedview
     id="base"
     pagecolor="#7a7a7a"
     bordercolor="#666666"
     borderopacity="1.0"
     inkscape:pageopacity="0"
     inkscape:pageshadow="2"
     inkscape:zoom="11.313709"
     inkscape:cx="4.3815978"
     inkscape:cy="23.73485"
     inkscape:document-units="mm"
     inkscape:current-layer="layer1"
     inkscape:document-rotation="0"
     showgrid="false"
     inkscape:window-width="1874"
     inkscape:window-height="1016"
     inkscape:window-x="46"
     inkscape:window-y="27"
     inkscape:window-maximized="1"
     units="px"
     inkscape:snap-global="false" />
  <metadata
     id="metadata5">
    <rdf:RDF>
      <cc:Work
         rdf:about="">
        <dc:format>image/svg+xml</dc:format>
        <dc:type
           rdf:resource="http://purl.org/dc/dcmitype/StillImage" />
        <dc:title></dc:title>
      </cc:Work>
    </rdf:RDF>
  </metadata>
  <g
     inkscape:label="Layer 1"
     inkscape:groupmode="layer"
     id="layer1">
    <path
       id="path3127"
       style="fill:#ffffff;stroke:none;stroke-width:0.600001;stroke-linecap:round;stroke-linejoin:round"
       d="m 4.2114491,0.9219489 c -0.146336,0 -0.2640666,0.1177306 -0.2640666,0.2640665 V 1.3575812 A 0.56972038,0.56972038 0 0 0 3.7499787,1.621131 H 1.86999 v 0.00103 c -0.020141,-3.962e-4 -0.041656,-0.002 -0.058911,0 C 1.6118869,1.645255 1.5908133,1.8249943 1.5284089,1.9425549 l -1.02371012,2.2851319 -0.013436,0.1131713 c 3.17e-5,0.7195931 0.58610222,1.3028871 1.30896402,1.3027628 0.7226601,-1.598e-4 1.3084157,-0.5833706 1.3084474,-1.3027628 4.16e-5,-0.025165 -6.384e-4,-0.050324 -0.00207,-0.075448 L 2.0777293,1.9957851 H 3.7448109 A 0.56972038,0.56972038 0 0 0 3.9473825,2.2748379 V 6.4306566 H 2.481839 c -0.1173296,0 -0.1603154,0.1064792 -0.2118734,0.2118733 L 1.8420847,7.5179287 C 1.7905267,7.6233228 1.9366287,7.729802 2.0539581,7.729802 h 4.4963663 c 0.1173295,0 0.2689638,-0.1093705 0.2118733,-0.2118733 L 6.2743722,6.6425299 C 6.2172817,6.5400269 6.1803448,6.4306566 6.0630156,6.4306566 H 4.6295114 V 2.2696702 A 0.56972038,0.56972038 0 0 0 4.8258819,1.9957851 H 6.500715 L 5.4692533,4.2705816 c -0.00142,0.025125 -0.00211,0.050283 -0.00207,0.075448 3.18e-5,0.7193923 0.5857883,1.3026044 1.3084471,1.3027628 0.7228622,1.239e-4 1.3089328,-0.5831702 1.3089643,-1.3027633 L 8.0711618,4.2333746 7.0474516,1.947726 C 6.9850473,1.8301655 6.9639737,1.6504265 6.7647817,1.6273322 c -0.00817,-9.479e-4 -0.019087,4.445e-4 -0.027905,0 v -0.0062 H 4.8207143 A 0.56972038,0.56972038 0 0 0 4.6295114,1.3622321 V 1.1860154 c 0,-0.1463359 -0.1177314,-0.2640665 -0.2640664,-0.2640665 z m 0.079582,0.631486 a 0.2533327,0.2533327 0 0 1 0.0062,0 A 0.2533327,0.2533327 0 0 1 4.5504456,1.8066494 0.2533327,0.2533327 0 0 1 4.2972311,2.0598639 0.2533327,0.2533327 0 0 1 4.0440167,1.8066494 0.2533327,0.2533327 0 0 1 4.2910311,1.5534349 Z M 1.7940258,2.2448655 2.6415192,4.0953986 0.94859928,4.1088346 Z m 4.9878091,0.00517 0.8454263,1.8639688 -1.6929198,-0.013436 z" />
  </g>
</svg>
