<?xml version="1.0" encoding="UTF-8" standalone="no"?>
<svg
   xmlns:dc="http://purl.org/dc/elements/1.1/"
   xmlns:cc="http://creativecommons.org/ns#"
   xmlns:rdf="http://www.w3.org/1999/02/22-rdf-syntax-ns#"
   xmlns:svg="http://www.w3.org/2000/svg"
   xmlns="http://www.w3.org/2000/svg"
   xmlns:sodipodi="http://sodipodi.sourceforge.net/DTD/sodipodi-0.dtd"
   xmlns:inkscape="http://www.inkscape.org/namespaces/inkscape"
   width="32"
   height="32"
   viewBox="0 0 8.4666667 8.4666667"
   version="1.1"
   id="svg8"
   inkscape:version="1.0.1 (0767f8302a, 2020-10-17)"
   sodipodi:docname="icon-mediapackage-white.svg">
  <defs
     id="defs2">
    <inkscape:path-effect
       effect="powerstroke"
       id="path-effect862"
       is_visible="true"
       lpeversion="1"
       offset_points="0,0.674052"
       sort_points="true"
       interpolator_type="CubicBezierJohan"
       interpolator_beta="0.2"
       start_linecap_type="zerowidth"
       linejoin_type="extrp_arc"
       miter_limit="4"
       scale_width="1"
       end_linecap_type="zerowidth" />
  </defs>
  <sodipodi:namedview
     id="base"
     pagecolor="#7a7a7a"
     bordercolor="#666666"
     borderopacity="1.0"
     inkscape:pageopacity="0"
     inkscape:pageshadow="2"
     inkscape:zoom="16"
     inkscape:cx="12.764012"
     inkscape:cy="17.362724"
     inkscape:document-units="mm"
     inkscape:current-layer="layer1"
     inkscape:document-rotation="0"
     showgrid="true"
     inkscape:window-width="1874"
     inkscape:window-height="1016"
     inkscape:window-x="46"
     inkscape:window-y="27"
     inkscape:window-maximized="1"
     units="px"
     inkscape:snap-global="true"
     showguides="true"
     inkscape:guide-bbox="true"
     inkscape:snap-to-guides="false"
     inkscape:object-nodes="true">
    <inkscape:grid
       type="xygrid"
       id="grid60" />
  </sodipodi:namedview>
  <metadata
     id="metadata5">
    <rdf:RDF>
      <cc:Work
         rdf:about="">
        <dc:format>image/svg+xml</dc:format>
        <dc:type
           rdf:resource="http://purl.org/dc/dcmitype/StillImage" />
        <dc:title></dc:title>
      </cc:Work>
    </rdf:RDF>
  </metadata>
  <g
     inkscape:label="Layer 1"
     inkscape:groupmode="layer"
     id="layer1">
    <g
       aria-label="DOC"
       transform="matrix(0.88595284,0,0,0.89243146,0.39344915,0.99550352)"
       id="text896"
       style="font-style:normal;font-weight:normal;font-size:2.37752px;line-height:1.25;font-family:sans-serif;fill:#000000;fill-opacity:1;stroke:none;stroke-width:0.297556" />
    <path
       id="path1965"
       style="color:#000000;font-style:normal;font-variant:normal;font-weight:normal;font-stretch:normal;font-size:medium;line-height:normal;font-family:sans-serif;font-variant-ligatures:normal;font-variant-position:normal;font-variant-caps:normal;font-variant-numeric:normal;font-variant-alternates:normal;font-variant-east-asian:normal;font-feature-settings:normal;font-variation-settings:normal;text-indent:0;text-align:start;text-decoration:none;text-decoration-line:none;text-decoration-style:solid;text-decoration-color:#000000;letter-spacing:normal;word-spacing:normal;text-transform:none;writing-mode:lr-tb;direction:ltr;text-orientation:mixed;dominant-baseline:auto;baseline-shift:baseline;text-anchor:start;white-space:normal;shape-padding:0;shape-margin:0;inline-size:0;clip-rule:nonzero;display:inline;overflow:visible;visibility:visible;opacity:1;isolation:auto;mix-blend-mode:normal;color-interpolation:sRGB;color-interpolation-filters:linearRGB;solid-color:#000000;solid-opacity:1;vector-effect:none;fill:#ffffff;fill-opacity:1;fill-rule:nonzero;stroke:none;stroke-width:2.13543;stroke-linecap:round;stroke-linejoin:round;stroke-miterlimit:4;stroke-dasharray:none;stroke-dashoffset:0;stroke-opacity:1;color-rendering:auto;image-rendering:auto;shape-rendering:auto;text-rendering:auto;enable-background:accumulate;stop-color:#000000;stop-opacity:1"
       d="M 16.072266 2.5371094 A 0.99605341 1.1447609 90 0 0 15.550781 2.6660156 L 2.6386719 9.125 A 0.99605341 1.1447609 90 0 0 2.0644531 9.9863281 L 2.0273438 22.939453 A 0.99605341 1.1447609 90 0 0 2.5976562 23.806641 L 15.474609 30.310547 A 0.99605341 1.1447609 90 0 0 16.617188 30.316406 L 29.53125 23.867188 A 0.99605341 1.1447609 90 0 0 30.103516 23.005859 L 30.140625 10.042969 A 0.99605341 1.1447609 90 0 0 29.572266 9.1757812 L 16.695312 2.671875 A 0.99605341 1.1447609 90 0 0 16.072266 2.5371094 z M 16.119141 4.6855469 L 26.697266 10.025391 L 23.384766 11.810547 A 1.823622 1.823622 0 0 0 22.876953 11.398438 L 13.220703 6.1328125 L 16.119141 4.6855469 z M 9.4785156 8.0019531 A 1.823622 1.823622 0 0 0 10.128906 8.5996094 L 19.675781 13.810547 L 16 15.791016 L 5.3613281 10.056641 L 9.4785156 8.0019531 z M 27.849609 11.830078 L 27.820312 22.419922 L 17.066406 27.789062 L 17.066406 17.634766 L 22.357422 14.787109 A 1.823622 1.823622 0 0 0 23.292969 14.283203 L 27.849609 11.830078 z M 4.34375 11.935547 L 14.933594 17.636719 L 14.933594 27.732422 L 4.3144531 22.373047 L 4.34375 11.935547 z "
       transform="scale(0.26458333)" />
  </g>
</svg>
