<?xml version="1.0" encoding="UTF-8" standalone="no"?>
<svg
   xmlns:dc="http://purl.org/dc/elements/1.1/"
   xmlns:cc="http://creativecommons.org/ns#"
   xmlns:rdf="http://www.w3.org/1999/02/22-rdf-syntax-ns#"
   xmlns:svg="http://www.w3.org/2000/svg"
   xmlns="http://www.w3.org/2000/svg"
   xmlns:sodipodi="http://sodipodi.sourceforge.net/DTD/sodipodi-0.dtd"
   xmlns:inkscape="http://www.inkscape.org/namespaces/inkscape"
   width="32"
   height="32"
   viewBox="0 0 8.4666667 8.4666667"
   version="1.1"
   id="svg8"
   inkscape:version="1.0.1 (0767f8302a, 2020-10-17)"
   sodipodi:docname="icon-items.svg">
  <defs
     id="defs2" />
  <sodipodi:namedview
     id="base"
     pagecolor="#7a7a7a"
     bordercolor="#666666"
     borderopacity="1.0"
     inkscape:pageopacity="0"
     inkscape:pageshadow="2"
     inkscape:zoom="16"
     inkscape:cx="19.288097"
     inkscape:cy="25.194758"
     inkscape:document-units="mm"
     inkscape:current-layer="layer1"
     inkscape:document-rotation="0"
     showgrid="false"
     inkscape:window-width="1874"
     inkscape:window-height="1016"
     inkscape:window-x="46"
     inkscape:window-y="27"
     inkscape:window-maximized="1"
     units="px"
     inkscape:snap-global="false" />
  <metadata
     id="metadata5">
    <rdf:RDF>
      <cc:Work
         rdf:about="">
        <dc:format>image/svg+xml</dc:format>
        <dc:type
           rdf:resource="http://purl.org/dc/dcmitype/StillImage" />
        <dc:title></dc:title>
      </cc:Work>
    </rdf:RDF>
  </metadata>
  <g
     inkscape:label="Layer 1"
     inkscape:groupmode="layer"
     id="layer1">
    <path
       id="path1422-3"
       style="fill:#ffffff;fill-opacity:0.347839;stroke:none;stroke-width:0.564999;stroke-linecap:butt;stroke-linejoin:miter;stroke-miterlimit:4;stroke-dasharray:none;stroke-opacity:0.71"
       d="m 15.538327,3.6959859 -2.917784,1.804724 0.01499,2.9729451 1.312582,-0.9069213 0.0021,-2.4840861 c 0.0466,-0.3355472 0.668289,-0.7035025 1.554427,-0.7472413 z"
       sodipodi:nodetypes="ccccccc" />
    <path
       id="path1445"
       style="color:#000000;font-style:normal;font-variant:normal;font-weight:normal;font-stretch:normal;font-size:medium;line-height:normal;font-family:sans-serif;font-variant-ligatures:normal;font-variant-position:normal;font-variant-caps:normal;font-variant-numeric:normal;font-variant-alternates:normal;font-variant-east-asian:normal;font-feature-settings:normal;font-variation-settings:normal;text-indent:0;text-align:start;text-decoration:none;text-decoration-line:none;text-decoration-style:solid;text-decoration-color:#000000;letter-spacing:normal;word-spacing:normal;text-transform:none;writing-mode:lr-tb;direction:ltr;text-orientation:mixed;dominant-baseline:auto;baseline-shift:baseline;text-anchor:start;white-space:normal;shape-padding:0;shape-margin:0;inline-size:0;clip-rule:nonzero;display:inline;overflow:visible;visibility:visible;opacity:1;isolation:auto;mix-blend-mode:normal;color-interpolation:sRGB;color-interpolation-filters:linearRGB;solid-color:#000000;solid-opacity:1;vector-effect:none;fill:#ffffff;fill-opacity:1;fill-rule:nonzero;stroke:none;stroke-width:0.564999;stroke-linecap:butt;stroke-linejoin:miter;stroke-miterlimit:4;stroke-dasharray:none;stroke-dashoffset:0;stroke-opacity:1;color-rendering:auto;image-rendering:auto;shape-rendering:auto;text-rendering:auto;enable-background:accumulate;stop-color:#000000;stop-opacity:1"
       d="m 12.150589,2.6726808 -2.9059011,1.1595806 -0.00585,2.5709619 3.3888003,2.0684518 0.06045,-3.0113313 2.855266,-1.7627202 z M 12.081467,2.9146455 14.755194,3.7539242 12.599557,4.9909757 11.252071,4.3463709 10.049279,3.7692924 Z M 9.6471785,4.0406394 12.264928,5.3290203 12.216177,7.6982324 9.6631689,6.1385045 Z"
       sodipodi:nodetypes="cccccccccccccccccc" />
    <ellipse
       style="opacity:0.94;fill:#ffffff;fill-opacity:1;stroke:none;stroke-width:0.564998;stroke-linecap:round;stroke-miterlimit:4;stroke-dasharray:none;stroke-opacity:1"
       id="path1448"
       cx="15.968102"
       cy="5.1605854"
       rx="1.702371"
       ry="0.56212509" />
    <path
       id="rect1450"
       style="opacity:0.94;fill:#ffffff;fill-opacity:0.624226;stroke:none;stroke-width:0.564999;stroke-linecap:round;stroke-miterlimit:4;stroke-dasharray:none;stroke-opacity:1"
       d="m 14.250685,5.4936909 v 0.9725504 h 0.0023 c 0.01434,0.3069899 0.771996,0.5533903 1.701812,0.5534546 0.940336,3.2e-6 1.70258,-0.2517394 1.702388,-0.5622396 -9.5e-5,-0.00913 -8.56e-4,-0.018267 -0.0023,-0.027389 V 5.4936909 c -0.118415,0.098473 -0.256952,0.191607 -0.422515,0.251446 -0.626874,0.2265701 -1.602699,0.2838347 -2.377783,0.06754 -0.246572,-0.068808 -0.27342,-0.066129 -0.603902,-0.3189862 z"
       sodipodi:nodetypes="cccccccssc" />
    <path
       id="rect1450-7"
       style="opacity:0.94;fill:#ffffff;fill-opacity:0.624226;stroke:none;stroke-width:0.564999;stroke-linecap:round;stroke-miterlimit:4;stroke-dasharray:none;stroke-opacity:1"
       d="M 14.261237,6.8703546 V 7.842905 h 0.0023 c 0.01434,0.3069899 0.771996,0.5533903 1.701812,0.5534546 0.940336,3.2e-6 1.70258,-0.2517394 1.702389,-0.5622396 -9.6e-5,-0.00913 -8.57e-4,-0.018267 -0.0023,-0.027389 V 6.8703546 c -0.118376,0.098473 -0.256913,0.191607 -0.422476,0.251446 -0.626874,0.2265701 -1.602699,0.2838347 -2.377783,0.06754 -0.246572,-0.068808 -0.27342,-0.066129 -0.603902,-0.3189862 z"
       sodipodi:nodetypes="cccccccssc" />
    <path
       id="rect1450-5"
       style="opacity:0.94;fill:#ffffff;fill-opacity:0.624226;stroke:none;stroke-width:0.564999;stroke-linecap:round;stroke-miterlimit:4;stroke-dasharray:none;stroke-opacity:1"
       d="m 14.253575,8.2049922 v 0.9725504 h 0.0023 c 0.01434,0.3069899 0.771996,0.5533903 1.701812,0.5534546 0.940336,3.2e-6 1.70258,-0.2517394 1.702388,-0.5622396 -9.4e-5,-0.00913 -8.56e-4,-0.018267 -0.0023,-0.027389 V 8.2049922 c -0.118374,0.098473 -0.256912,0.191607 -0.422475,0.251446 -0.626874,0.2265701 -1.602698,0.2838347 -2.377783,0.06754 -0.246572,-0.068808 -0.27342,-0.066129 -0.603902,-0.318986 z"
       sodipodi:nodetypes="cccccccssc" />
    <path
       id="rect1502"
       style="opacity:0.94;fill:#ffffff;fill-opacity:1;stroke:none;stroke-width:0.564999;stroke-linecap:round;stroke-miterlimit:4;stroke-dasharray:none;stroke-opacity:1"
       d="m 0.17192098,0.60232687 5.26712032,0 V 3.0026162 c 4.026121,-2.50696651 3.4751377,5.3698396 0,2.1931039 v 2.4732972 l -5.26712032,0 V 4.9653482 c 3.04784862,2.6994673 3.89018092,-4.15564603 0,-1.8418616 z"
       sodipodi:nodetypes="ccccccccc" />
  </g>
</svg>
