<?xml version="1.0" encoding="UTF-8" standalone="no"?>
<svg
   xmlns:dc="http://purl.org/dc/elements/1.1/"
   xmlns:cc="http://creativecommons.org/ns#"
   xmlns:rdf="http://www.w3.org/1999/02/22-rdf-syntax-ns#"
   xmlns:svg="http://www.w3.org/2000/svg"
   xmlns="http://www.w3.org/2000/svg"
   xmlns:sodipodi="http://sodipodi.sourceforge.net/DTD/sodipodi-0.dtd"
   xmlns:inkscape="http://www.inkscape.org/namespaces/inkscape"
   width="32"
   height="32"
   viewBox="0 0 8.4666667 8.4666667"
   version="1.1"
   id="svg8"
   inkscape:version="1.0.1 (3bc2e813f5, 2020-09-07)"
   sodipodi:docname="icon-accbudgetgroup-white.svg">
  <defs
     id="defs2" />
  <sodipodi:namedview
     id="base"
     pagecolor="#000000"
     bordercolor="#666666"
     borderopacity="1.0"
     inkscape:pageopacity="0"
     inkscape:pageshadow="2"
     inkscape:zoom="11.2"
     inkscape:cx="25.101104"
     inkscape:cy="19.690633"
     inkscape:document-units="mm"
     inkscape:current-layer="layer1"
     inkscape:document-rotation="0"
     showgrid="false"
     inkscape:window-width="1874"
     inkscape:window-height="1016"
     inkscape:window-x="46"
     inkscape:window-y="27"
     inkscape:window-maximized="1"
     units="px"
     inkscape:snap-global="false" />
  <metadata
     id="metadata5">
    <rdf:RDF>
      <cc:Work
         rdf:about="">
        <dc:format>image/svg+xml</dc:format>
        <dc:type
           rdf:resource="http://purl.org/dc/dcmitype/StillImage" />
        <dc:title></dc:title>
      </cc:Work>
    </rdf:RDF>
  </metadata>
  <g
     inkscape:label="Layer 1"
     inkscape:groupmode="layer"
     id="layer1">
    <rect
       style="fill:#ffffff;stroke:#ffffff;stroke-width:0.484867"
       id="rect898"
       width="2.5845706"
       height="0.8093574"
       x="5.47855"
       y="2.7024803"
       ry="0.4046787" />
    <rect
       style="fill:#ffffff;stroke:#ffffff;stroke-width:0.489458"
       id="rect898-7"
       width="2.6487834"
       height="0.80476546"
       x="5.4044251"
       y="4.6523433"
       ry="0.40238273" />
    <rect
       style="fill:#ffffff;stroke:#ffffff;stroke-width:0.299876"
       id="rect898-7-3"
       width="1.9480146"
       height="0.41074786"
       x="0.18916151"
       y="7.8805714"
       ry="0.1578199" />
    <g
       aria-label="Rp"
       id="text853-5"
       style="font-style:normal;font-weight:normal;font-size:2.20027px;line-height:1.25;font-family:sans-serif;fill:#000000;fill-opacity:1;stroke:none;stroke-width:0.0550071"
       transform="matrix(0.82170705,0,0,0.84541122,-0.21956729,-1.8717777)">
      <path
         d="m 4.3263631,5.9246962 q 0.069833,0.023636 0.1353681,0.100989 0.06661,0.077353 0.1332195,0.2127214 l 0.2202419,0.438335 H 4.5820585 L 4.3768575,6.2652653 Q 4.2973556,6.1041128 4.2221511,6.0514696 4.1480209,5.9988264 4.0190988,5.9988264 H 3.7827417 V 6.6767416 H 3.5657229 V 5.0727362 h 0.4899038 q 0.2750338,0 0.4104019,0.1149555 0.1353682,0.1149555 0.1353682,0.3470153 0,0.1514834 -0.070907,0.251398 Q 4.4606568,5.88602 4.3263631,5.9246962 Z M 3.7827417,5.2510784 v 0.5694058 h 0.272885 q 0.1568552,0 0.2363572,-0.071981 0.080576,-0.073056 0.080576,-0.2137957 0,-0.14074 -0.080576,-0.2116471 -0.079502,-0.071981 -0.2363572,-0.071981 z"
         style="fill:#ffffff;stroke-width:0.0550071"
         id="path855-6" />
      <path
         d="M 5.2782376,6.4962507 V 7.1344149 H 5.0794828 V 5.473469 H 5.2782376 V 5.6561086 Q 5.34055,5.5486735 5.4350928,5.4971047 5.53071,5.4444615 5.6628551,5.4444615 q 0.2191675,0 0.3556101,0.1740448 0.1375168,0.1740448 0.1375168,0.4576733 0,0.2836286 -0.1375168,0.4576734 -0.1364426,0.1740448 -0.3556101,0.1740448 -0.1321451,0 -0.2277623,-0.051569 Q 5.34055,6.6036858 5.2782376,6.4962507 Z M 5.9507811,6.0761796 q 0,-0.2180931 -0.090245,-0.3416434 -0.089171,-0.1246247 -0.2460262,-0.1246247 -0.1568552,0 -0.2471007,0.1246247 -0.089171,0.1235503 -0.089171,0.3416434 0,0.2180932 0.089171,0.3427179 0.090245,0.1235503 0.2471007,0.1235503 0.1568551,0 0.2460262,-0.1235503 0.090245,-0.1246247 0.090245,-0.3427179 z"
         style="fill:#ffffff;stroke-width:0.0550071"
         id="path857-2" />
    </g>
    <g
       aria-label="Rp"
       id="text853-5-9"
       style="font-style:normal;font-weight:normal;font-size:2.20027px;line-height:1.25;font-family:sans-serif;fill:#000000;fill-opacity:1;stroke:none;stroke-width:0.0550071"
       transform="matrix(0.75472159,0,0,0.79087967,0.04601948,0.50931123)">
      <path
         d="m 4.3263631,5.9246962 q 0.069833,0.023636 0.1353681,0.100989 0.06661,0.077353 0.1332195,0.2127214 l 0.2202419,0.438335 H 4.5820585 L 4.3768575,6.2652653 Q 4.2973556,6.1041128 4.2221511,6.0514696 4.1480209,5.9988264 4.0190988,5.9988264 H 3.7827417 V 6.6767416 H 3.5657229 V 5.0727362 h 0.4899038 q 0.2750338,0 0.4104019,0.1149555 0.1353682,0.1149555 0.1353682,0.3470153 0,0.1514834 -0.070907,0.251398 Q 4.4606568,5.88602 4.3263631,5.9246962 Z M 3.7827417,5.2510784 v 0.5694058 h 0.272885 q 0.1568552,0 0.2363572,-0.071981 0.080576,-0.073056 0.080576,-0.2137957 0,-0.14074 -0.080576,-0.2116471 -0.079502,-0.071981 -0.2363572,-0.071981 z"
         style="fill:#ffffff;stroke-width:0.0550071"
         id="path855-6-1" />
      <path
         d="M 5.2782376,6.4962507 V 7.1344149 H 5.0794828 V 5.473469 H 5.2782376 V 5.6561086 Q 5.34055,5.5486735 5.4350928,5.4971047 5.53071,5.4444615 5.6628551,5.4444615 q 0.2191675,0 0.3556101,0.1740448 0.1375168,0.1740448 0.1375168,0.4576733 0,0.2836286 -0.1375168,0.4576734 -0.1364426,0.1740448 -0.3556101,0.1740448 -0.1321451,0 -0.2277623,-0.051569 Q 5.34055,6.6036858 5.2782376,6.4962507 Z M 5.9507811,6.0761796 q 0,-0.2180931 -0.090245,-0.3416434 -0.089171,-0.1246247 -0.2460262,-0.1246247 -0.1568552,0 -0.2471007,0.1246247 -0.089171,0.1235503 -0.089171,0.3416434 0,0.2180932 0.089171,0.3427179 0.090245,0.1235503 0.2471007,0.1235503 0.1568551,0 0.2460262,-0.1235503 0.090245,-0.1246247 0.090245,-0.3427179 z"
         style="fill:#ffffff;stroke-width:0.0550071"
         id="path857-2-2" />
    </g>
    <rect
       style="fill:#ffffff;stroke:none;stroke-width:0.412043"
       id="rect987"
       width="2.1154883"
       height="0.64322507"
       x="0.052000809"
       y="0.010509753"
       ry="0.32161254" />
    <rect
       style="fill:#ffffff;stroke:none;stroke-width:0.660537"
       id="rect987-7"
       width="5.4365277"
       height="0.64322507"
       x="3.0079868"
       y="0.015571872"
       ry="0.32161254" />
    <rect
       style="fill:#ffffff;stroke:#ffffff;stroke-width:0.299876"
       id="rect898-7-3-0"
       width="1.9480146"
       height="0.41074786"
       x="3.3638864"
       y="7.8920789"
       ry="0.1578199" />
    <rect
       style="fill:#ffffff;stroke:#ffffff;stroke-width:0.269135"
       id="rect898-7-3-9"
       width="1.4926221"
       height="0.43179214"
       x="6.7640438"
       y="7.8925118"
       ry="0.16590564" />
    <rect
       style="fill:#ffffff;stroke:#ffffff;stroke-width:0.337467"
       id="rect898-7-3-0-3"
       width="1.9548416"
       height="0.51836163"
       x="1.5456393"
       y="-0.71626967"
       ry="0.19916788"
       transform="rotate(90)" />
    <rect
       style="fill:#ffffff;stroke:#ffffff;stroke-width:0.357004"
       id="rect898-7-3-0-3-6"
       width="2.3426161"
       height="0.4840928"
       x="4.5356927"
       y="-0.69769567"
       ry="0.18600093"
       transform="rotate(90)" />
  </g>
</svg>
