<?xml version="1.0" encoding="UTF-8" standalone="no"?>
<svg
   xmlns:dc="http://purl.org/dc/elements/1.1/"
   xmlns:cc="http://creativecommons.org/ns#"
   xmlns:rdf="http://www.w3.org/1999/02/22-rdf-syntax-ns#"
   xmlns:svg="http://www.w3.org/2000/svg"
   xmlns="http://www.w3.org/2000/svg"
   xmlns:sodipodi="http://sodipodi.sourceforge.net/DTD/sodipodi-0.dtd"
   xmlns:inkscape="http://www.inkscape.org/namespaces/inkscape"
   width="32"
   height="32"
   viewBox="0 0 8.4666667 8.4666667"
   version="1.1"
   id="svg8"
   inkscape:version="1.0.1 (0767f8302a, 2020-10-17)"
   sodipodi:docname="icon-schedule-white.svg">
  <defs
     id="defs2">
    <inkscape:path-effect
       effect="powerstroke"
       id="path-effect862"
       is_visible="true"
       lpeversion="1"
       offset_points="0,0.674052"
       sort_points="true"
       interpolator_type="CubicBezierJohan"
       interpolator_beta="0.2"
       start_linecap_type="zerowidth"
       linejoin_type="extrp_arc"
       miter_limit="4"
       scale_width="1"
       end_linecap_type="zerowidth" />
  </defs>
  <sodipodi:namedview
     id="base"
     pagecolor="#7a7a7a"
     bordercolor="#666666"
     borderopacity="1.0"
     inkscape:pageopacity="0"
     inkscape:pageshadow="2"
     inkscape:zoom="16.000001"
     inkscape:cx="14.160113"
     inkscape:cy="14.640719"
     inkscape:document-units="mm"
     inkscape:current-layer="layer1"
     inkscape:document-rotation="0"
     showgrid="true"
     inkscape:window-width="1874"
     inkscape:window-height="1016"
     inkscape:window-x="46"
     inkscape:window-y="27"
     inkscape:window-maximized="1"
     units="px"
     inkscape:snap-global="true"
     showguides="true"
     inkscape:guide-bbox="true"
     inkscape:snap-to-guides="false"
     inkscape:object-nodes="true">
    <inkscape:grid
       type="xygrid"
       id="grid60" />
  </sodipodi:namedview>
  <metadata
     id="metadata5">
    <rdf:RDF>
      <cc:Work
         rdf:about="">
        <dc:format>image/svg+xml</dc:format>
        <dc:type
           rdf:resource="http://purl.org/dc/dcmitype/StillImage" />
        <dc:title></dc:title>
      </cc:Work>
    </rdf:RDF>
  </metadata>
  <g
     inkscape:label="Layer 1"
     inkscape:groupmode="layer"
     id="layer1">
    <g
       aria-label="DOC"
       transform="matrix(0.88595284,0,0,0.89243146,0.39344915,0.99550352)"
       id="text896"
       style="font-style:normal;font-weight:normal;font-size:2.37752px;line-height:1.25;font-family:sans-serif;fill:#000000;fill-opacity:1;stroke:none;stroke-width:0.297556" />
    <path
       id="path1277"
       style="color:#000000;font-style:normal;font-variant:normal;font-weight:normal;font-stretch:normal;font-size:medium;line-height:normal;font-family:sans-serif;font-variant-ligatures:normal;font-variant-position:normal;font-variant-caps:normal;font-variant-numeric:normal;font-variant-alternates:normal;font-variant-east-asian:normal;font-feature-settings:normal;font-variation-settings:normal;text-indent:0;text-align:start;text-decoration:none;text-decoration-line:none;text-decoration-style:solid;text-decoration-color:#000000;letter-spacing:normal;word-spacing:normal;text-transform:none;writing-mode:lr-tb;direction:ltr;text-orientation:mixed;dominant-baseline:auto;baseline-shift:baseline;text-anchor:start;white-space:normal;shape-padding:0;shape-margin:0;inline-size:0;clip-rule:nonzero;display:inline;overflow:visible;visibility:visible;opacity:1;isolation:auto;mix-blend-mode:normal;color-interpolation:sRGB;color-interpolation-filters:linearRGB;solid-color:#000000;solid-opacity:1;vector-effect:none;fill:#ffffff;fill-opacity:1;fill-rule:nonzero;stroke:none;stroke-width:2.51339;stroke-linecap:round;stroke-linejoin:miter;stroke-miterlimit:4;stroke-dasharray:none;stroke-dashoffset:0;stroke-opacity:1;color-rendering:auto;image-rendering:auto;shape-rendering:auto;text-rendering:auto;enable-background:accumulate;stop-color:#000000;stop-opacity:1"
       d="M 15.996094 0.74609375 C 8.2633048 0.74609389 1.8753665 6.5317313 0.89257812 14 L 3.4257812 14 C 4.3820761 7.902998 9.6245128 3.2558595 15.996094 3.2558594 C 23.048913 3.2558594 28.74414 8.9432746 28.744141 15.996094 C 28.744141 21.648603 25.083533 26.422064 20 28.097656 L 20 30.703125 C 26.472904 28.936905 31.255859 23.019862 31.255859 15.996094 C 31.255859 7.58494 24.407248 0.74609379 15.996094 0.74609375 z "
       transform="scale(0.26458333)" />
    <path
       id="rect866"
       style="opacity:1;fill:#ffffff;stroke:none;stroke-width:0.264999;stroke-linecap:round"
       d="m 1.3937256,4.241916 -0.1373244,0.09148 0.4334516,0.7416254 c -0.049319,0.023918 -0.088961,0.054469 -0.1158466,0.089279 H 0.85722309 c -0.32405824,0 -0.58494256,0.2792739 -0.58494256,0.6261745 v 1.502819 c 0,0.3469007 0.26088432,0.6261746 0.58494256,0.6261746 H 3.1969936 c 0.3240582,0 0.5849425,-0.2792739 0.5849425,-0.6261746 V 5.7904748 c 0,-0.3469005 -0.2608843,-0.6261745 -0.5849425,-0.6261745 H 2.3145527 C 2.2909536,5.1336811 2.2574511,5.1063048 2.216072,5.0838268 L 2.7857057,4.4740405 2.6719166,4.351985 2.0403613,5.0278133 c -0.03142,-0.00468 -0.063633,-0.00705 -0.095967,-0.00709 -0.031066,-2.91e-5 -0.062036,0.0021 -0.092311,0.00636 z M 0.95753202,5.4147701 H 2.268144 c 0.2499879,0 0.4512742,0.2154747 0.4512742,0.4830839 v 1.0290876 c 0,0.2676092 -0.2012863,0.4830839 -0.4512742,0.4830839 H 0.95753202 c -0.24998784,0 -0.45127411,-0.2154747 -0.45127411,-0.4830839 V 5.897854 c 0,-0.2676092 0.20128627,-0.4830839 0.45127411,-0.4830839 z M 3.2717112,5.5549256 c 0.1560726,-6.09e-5 0.28263,0.1314745 0.2826461,0.2937639 C 3.5543412,6.010979 3.4277832,6.1425145 3.2717112,6.1424534 3.115728,6.1423833 2.9893097,6.0108862 2.9892936,5.8486895 2.9893097,5.6864929 3.1157275,5.5549958 3.2717112,5.5549256 Z m 0.030161,0.8113363 c 0.1054272,2.85e-5 0.1908592,0.090168 0.1907918,0.2013053 C 3.4926032,6.6786094 3.4072078,6.7685997 3.3018721,6.7686281 3.1965353,6.7685997 3.1111412,6.6786087 3.1110803,6.5675672 3.1110129,6.4564308 3.1964448,6.3662904 3.3018721,6.3662619 Z m -0.00411,0.6587063 c 6.898e-4,-5.2e-6 0.00138,-5.2e-6 0.00205,0 0.081717,-5.44e-5 0.1480045,0.073096 0.1480629,0.1633925 6.4e-5,0.090392 -0.06626,0.1636916 -0.1480635,0.1636371 -0.081807,5.45e-5 -0.1481311,-0.073245 -0.148067,-0.1636371 5.06e-5,-0.089417 0.065094,-0.1622039 0.1460071,-0.1633925 z"
       sodipodi:nodetypes="ccccssssssssccccccccsssssssssccccccccccccccccc" />
    <path
       style="fill:none;stroke:#ffffff;stroke-width:0.565;stroke-linecap:round;stroke-linejoin:miter;stroke-opacity:1;stroke-miterlimit:4;stroke-dasharray:none"
       d="m 4.2333333,1.3229166 v 2.9104167 l 1.5875,0.79375"
       id="path1870" />
  </g>
</svg>
