<?xml version="1.0" encoding="UTF-8" standalone="no"?>
<svg
   xmlns:dc="http://purl.org/dc/elements/1.1/"
   xmlns:cc="http://creativecommons.org/ns#"
   xmlns:rdf="http://www.w3.org/1999/02/22-rdf-syntax-ns#"
   xmlns:svg="http://www.w3.org/2000/svg"
   xmlns="http://www.w3.org/2000/svg"
   xmlns:sodipodi="http://sodipodi.sourceforge.net/DTD/sodipodi-0.dtd"
   xmlns:inkscape="http://www.inkscape.org/namespaces/inkscape"
   width="32"
   height="32"
   viewBox="0 0 8.4666667 8.4666667"
   version="1.1"
   id="svg8"
   inkscape:version="1.0.1 (0767f8302a, 2020-10-17)"
   sodipodi:docname="icon-projbudgetapprove-white.svg">
  <defs
     id="defs2">
    <inkscape:path-effect
       effect="powerstroke"
       id="path-effect862"
       is_visible="true"
       lpeversion="1"
       offset_points="0,0.674052"
       sort_points="true"
       interpolator_type="CubicBezierJohan"
       interpolator_beta="0.2"
       start_linecap_type="zerowidth"
       linejoin_type="extrp_arc"
       miter_limit="4"
       scale_width="1"
       end_linecap_type="zerowidth" />
  </defs>
  <sodipodi:namedview
     id="base"
     pagecolor="#7a7a7a"
     bordercolor="#666666"
     borderopacity="1.0"
     inkscape:pageopacity="0"
     inkscape:pageshadow="2"
     inkscape:zoom="32.000002"
     inkscape:cx="24.653299"
     inkscape:cy="22.606065"
     inkscape:document-units="mm"
     inkscape:current-layer="layer1"
     inkscape:document-rotation="0"
     showgrid="true"
     inkscape:window-width="1874"
     inkscape:window-height="1016"
     inkscape:window-x="46"
     inkscape:window-y="27"
     inkscape:window-maximized="1"
     units="px"
     inkscape:snap-global="true"
     showguides="true"
     inkscape:guide-bbox="true"
     inkscape:snap-to-guides="false"
     inkscape:object-nodes="true">
    <inkscape:grid
       type="xygrid"
       id="grid60" />
  </sodipodi:namedview>
  <metadata
     id="metadata5">
    <rdf:RDF>
      <cc:Work
         rdf:about="">
        <dc:format>image/svg+xml</dc:format>
        <dc:type
           rdf:resource="http://purl.org/dc/dcmitype/StillImage" />
        <dc:title></dc:title>
      </cc:Work>
    </rdf:RDF>
  </metadata>
  <g
     inkscape:label="Layer 1"
     inkscape:groupmode="layer"
     id="layer1">
    <path
       id="path890"
       style="color:#000000;font-style:normal;font-variant:normal;font-weight:normal;font-stretch:normal;font-size:medium;line-height:normal;font-family:sans-serif;font-variant-ligatures:normal;font-variant-position:normal;font-variant-caps:normal;font-variant-numeric:normal;font-variant-alternates:normal;font-variant-east-asian:normal;font-feature-settings:normal;font-variation-settings:normal;text-indent:0;text-align:start;text-decoration:none;text-decoration-line:none;text-decoration-style:solid;text-decoration-color:#000000;letter-spacing:normal;word-spacing:normal;text-transform:none;writing-mode:lr-tb;direction:ltr;text-orientation:mixed;dominant-baseline:auto;baseline-shift:baseline;text-anchor:start;white-space:normal;shape-padding:0;shape-margin:0;inline-size:0;clip-rule:nonzero;display:inline;overflow:visible;visibility:visible;opacity:1;isolation:auto;mix-blend-mode:normal;color-interpolation:sRGB;color-interpolation-filters:linearRGB;solid-color:#000000;solid-opacity:1;vector-effect:none;fill:#ffffff;fill-opacity:1;fill-rule:nonzero;stroke:none;stroke-width:0.529167;stroke-linecap:round;stroke-linejoin:miter;stroke-miterlimit:4;stroke-dasharray:none;stroke-dashoffset:0;stroke-opacity:1;color-rendering:auto;image-rendering:auto;shape-rendering:auto;text-rendering:auto;enable-background:accumulate;stop-color:#000000;stop-opacity:1"
       d="m -7.9374999,-3.7041666 v 3.17499992 h -0.79375 c -0.2931584,0 -0.5291667,0.23600833 -0.5291667,0.529166656666667 V 1.5875 c 0,0.2931583 0.2360083,0.5291666 0.5291667,0.5291666 h 0.79375 v 1.3239501 h 5.5572834 L -2.38125,-2.1166667 -4.2333333,-3.7041666 Z M -4.4979166,-3.175 v 0.6361369 0.6867798 h 1.5874999 l 0.00103,4.7635334 H -7.4083333 V 2.1166666 H -3.96875 c 0.2931583,0 0.5291667,-0.2360083 0.5291667,-0.5291666 V -2.3333333e-8 C -3.4395833,-0.29315835 -3.6755917,-0.52916668 -3.96875,-0.52916668 H -7.4083333 V -3.1744832 Z M -6.2817872,-2.3333333e-8 c 0.2468404,0 0.4399336,0.07114328333333 0.5798098,0.213423763333333 0.1398762,0.14228021 0.2098063,0.33891061 0.2098063,0.58962792 0,0.25002674 -0.06993,0.44579804 -0.2098063,0.58807774 -0.1398762,0.1422805 -0.3329694,0.2134237 -0.5798098,0.2134237 -0.246154,0 -0.4397642,-0.071143 -0.5803262,-0.2134237 -0.1398762,-0.1422797 -0.2098064,-0.338051 -0.2098064,-0.58807774 0,-0.25071731 0.06993,-0.44734771 0.2098064,-0.58962792 C -6.7215514,0.07114326 -6.5279412,-2.3333333e-8 -6.2817872,-2.3333333e-8 Z m 1.8319297,0 c 0.085708,0 0.1676448,0.0095990833333 0.2464964,0.02893880333333 0.078852,0.01933839 0.1546956,0.04831186 0.2273763,0.08629967 v 0.31987701 c -0.073366,-0.0504198 -0.1457314,-0.0871043 -0.2170408,-0.11058762 -0.071309,-0.0234815 -0.1464575,-0.0356566 -0.2253094,-0.0356566 -0.1412473,0 -0.252404,0.0457726 -0.3333128,0.13694251 -0.080909,0.0911699 -0.1209231,0.21699987 -0.1209231,0.37723789 0,0.15954745 0.040014,0.28451786 0.1209231,0.37568766 0.080909,0.09117 0.1920655,0.1369426 0.3333128,0.1369426 0.078852,0 0.1539999,-0.011658 0.2253094,-0.03514 0.071309,-0.023484 0.1436745,-0.060685 0.2170408,-0.1111043 v 0.3203937 c -0.072681,0.037987 -0.1485243,0.066444 -0.2273763,0.085783 -0.078852,0.019338 -0.160788,0.028939 -0.2464964,0.028939 -0.2557542,0 -0.4587562,-0.071829 -0.6082318,-0.2154906 -0.149475,-0.1443525 -0.2242756,-0.3394374 -0.2242756,-0.58601086 0,-0.24726397 0.074801,-0.44286566 0.2242756,-0.58652753 C -4.9086137,0.07217169 -4.7056117,-2.3333333e-8 -4.4498575,-2.3333333e-8 Z M -8.7317667,0.02790532 h 0.4175456 c 0.2331269,0 0.4065609,0.01679839 0.5203817,0.05064283 0.1145064,0.03315256 0.2124444,0.08989642 0.2940388,0.17001543 0.071995,0.0697587 0.1257446,0.15015977 0.1607138,0.24132884 0.034969,0.0911701 0.052193,0.19471481 0.052193,0.31005885 0,0.11672438 -0.017224,0.22078153 -0.052193,0.31264223 -0.034969,0.09117 -0.088719,0.1715701 -0.1607138,0.2413291 -0.08228,0.080118 -0.1809137,0.1372055 -0.2961059,0.1710489 -0.115192,0.033153 -0.2879303,0.049609 -0.5183146,0.049609 h -0.4175456 z m 2.4499795,0.26096594 c -0.1206767,0 -0.2140932,0.0450874 -0.2806028,0.13487532 -0.06651,0.0897887 -0.1002525,0.21630428 -0.1002525,0.37930508 0,0.16231023 0.033743,0.28848284 0.1002525,0.37827164 0.06651,0.089788 0.1599261,0.1343586 0.2806028,0.1343586 0.1213633,0 0.2151269,-0.04457 0.2816368,-0.1343586 0.06651,-0.089789 0.099735,-0.21596141 0.099735,-0.37827164 0,-0.1630008 -0.033226,-0.28951634 -0.099735,-0.37930508 -0.06651,-0.0897879 -0.1602735,-0.13487532 -0.2816368,-0.13487532 z m -2.054138,0.0408244 V 1.2733073 h 0.1421102 c 0.1618175,0 0.2849804,-0.04063 0.3700032,-0.1214396 0.085708,-0.08081 0.1286743,-0.19789533 0.1286743,-0.35191643 0,-0.15333133 -0.042618,-0.27024726 -0.1276407,-0.35036627 C -7.907801,0.36946573 -8.0313118,0.32969568 -8.193815,0.32969568 Z" />
    <rect
       style="fill:#fcffff;fill-opacity:1;stroke-width:0.365001;stroke-linecap:round"
       id="rect862-3"
       width="0.66015518"
       height="2.59532"
       x="-13.008258"
       y="4.6659803"
       ry="0.31491286" />
    <path
       style="fill:#ffffff;fill-opacity:1;stroke:none;stroke-width:0.264583px;stroke-linecap:butt;stroke-linejoin:miter;stroke-opacity:1"
       d="m -12.236369,5.2190956 0.01641,1.6519761 c 0,0 0.135648,-0.066108 0.546555,0.027853 0.410907,0.093947 0.316029,0.067125 0.781402,0.1486147 0.238055,0.041685 0.373362,0.2202021 1.1742429,0.3043088 0.687473,0.072197 1.1264936,-0.2169435 1.3278751,-0.3958712 0.2013818,-0.1789279 0.5470374,-0.4771686 0.8812223,-0.7557873 0.3341849,-0.2786186 0.6161118,-0.5409617 0.9961799,-0.8107896 0.3800681,-0.2698279 0.4867332,-0.4017164 0.5438544,-0.5849705 0.057121,-0.1832542 -0.080578,-0.3790194 -0.2357496,-0.3534995 -0.1551718,0.025519 -0.5205436,0.1987116 -0.7221405,0.3327873 -0.2015969,0.1340758 -0.4222393,0.2635895 -0.6229559,0.4127312 -0.1815133,0.1348727 -0.4492572,0.289744 -0.4492572,0.289744 0,0 0.024691,0.2839584 -0.027952,0.3852677 -0.052643,0.1013094 -0.2420856,0.2402729 -0.387302,0.2996027 -0.1866171,0.076244 -0.570001,0.051291 -0.8668241,0.055461 -0.3282032,0.00461 -0.9283743,0.0265 -0.9283743,0.0265 l 0.0039,-0.1198324 1.5065788,0.00292 c 0,0 0.7038086,-0.094276 0.6127698,-0.543404 -0.082489,-0.4069488 -0.5818163,-0.239556 -1.0684745,-0.233255 -0.4866581,0.0063 -0.5130108,-0.1128162 -1.0209711,-0.2078145 -0.50796,-0.094998 -0.531377,-0.1658702 -1.030779,-0.1310056 -0.499402,0.034865 -1.030177,0.1984582 -1.030177,0.1984582 z"
       id="path899"
       sodipodi:nodetypes="cccssssssssscssscccsssscc" />
    <g
       aria-label="DOC"
       transform="matrix(0.88595284,0,0,0.89243146,0.39344915,0.99550352)"
       id="text896"
       style="font-style:normal;font-weight:normal;font-size:2.37752px;line-height:1.25;font-family:sans-serif;fill:#000000;fill-opacity:1;stroke:none;stroke-width:0.297556" />
    <path
       id="rect843-3"
       style="fill:#ffffff;fill-opacity:0.486566;stroke:none;stroke-width:2;stroke-linecap:round;stroke-miterlimit:4;stroke-dasharray:none"
       d="M 2 2 L 2 18.037109 L 8 25 L 14 25 L 14 7 L 21 7 L 21 2 L 2 2 z M 5 4 L 19 4 L 19 6 L 5 6 L 5 4 z M 5 8 L 10 8 L 10 10 L 5 10 L 5 8 z M 7 12 L 12 12 L 12 14 L 7 14 L 7 12 z M 5 16 L 10 16 L 10 18 L 5 18 L 5 16 z "
       transform="scale(0.26458333)" />
    <path
       id="path911"
       style="color:#000000;font-style:normal;font-variant:normal;font-weight:normal;font-stretch:normal;font-size:medium;line-height:normal;font-family:sans-serif;font-variant-ligatures:normal;font-variant-position:normal;font-variant-caps:normal;font-variant-numeric:normal;font-variant-alternates:normal;font-variant-east-asian:normal;font-feature-settings:normal;font-variation-settings:normal;text-indent:0;text-align:start;text-decoration:none;text-decoration-line:none;text-decoration-style:solid;text-decoration-color:#000000;letter-spacing:normal;word-spacing:normal;text-transform:none;writing-mode:lr-tb;direction:ltr;text-orientation:mixed;dominant-baseline:auto;baseline-shift:baseline;text-anchor:start;white-space:normal;shape-padding:0;shape-margin:0;inline-size:0;clip-rule:nonzero;display:inline;overflow:visible;visibility:visible;opacity:1;isolation:auto;mix-blend-mode:normal;color-interpolation:sRGB;color-interpolation-filters:linearRGB;solid-color:#000000;solid-opacity:1;vector-effect:none;fill:#ffffff;fill-opacity:1;fill-rule:nonzero;stroke:none;stroke-width:2;stroke-linecap:round;stroke-linejoin:miter;stroke-miterlimit:4;stroke-dasharray:none;stroke-dashoffset:0;stroke-opacity:1;color-rendering:auto;image-rendering:auto;shape-rendering:auto;text-rendering:auto;enable-background:accumulate;stop-color:#000000;stop-opacity:1"
       d="M 13,6 V 6.9960938 29.998047 h 5.648438 c -0.689814,-0.566864 -1.278012,-1.242863 -1.740235,-2 H 15 V 25 h 0.835938 c -0.0498,-0.352733 -0.07525,-0.708359 -0.07617,-1.064453 C 15.760415,23.622837 15.77998,23.31044 15.818359,23 H 15 v -3.003906 h 1.833984 c 0.747473,-1.276014 1.843215,-2.32238 3.164063,-3.021485 v -1.976562 h 3.003906 v 1.070312 c 0.275108,-0.02823 0.551514,-0.04257 0.828125,-0.04297 0.392139,-6.02e-4 0.783802,0.02682 1.171875,0.08203 V 14.998047 H 28 v 2.166015 c 0.755552,0.446996 1.431187,1.012446 2,1.673829 V 6 Z m 2,2 h 13 v 4.998047 H 15 Z m 0,6.998047 h 2.996094 v 2.996094 H 15 Z"
       transform="scale(0.26458333)"
       sodipodi:nodetypes="ccccccccccccccccccccccccccccccccccc" />
    <path
       style="fill:#ffffff;stroke:none;stroke-width:0.264583px;stroke-linecap:butt;stroke-linejoin:miter;stroke-opacity:1"
       d="M 0.52916666,4.7624999 H 2.1166666 l 1e-7,1.8520834 L 0.52916667,4.7625"
       id="path939" />
    <path
       id="path992-5"
       style="fill:#ffffff;fill-opacity:1;stroke:none;stroke-width:2;stroke-linecap:round;stroke-miterlimit:4;stroke-dasharray:none"
       d="M 23.962891 18.064453 A 5.8238971 5.9792855 0 0 0 18.214844 24.042969 A 5.8238971 5.9792855 0 0 0 24.039062 30.023438 A 5.8238971 5.9792855 0 0 0 29.863281 24.042969 A 5.8238971 5.9792855 0 0 0 24.039062 18.064453 A 5.8238971 5.9792855 0 0 0 23.962891 18.064453 z M 23.953125 18.619141 A 2.6299769 2.5226917 0 0 1 26.582031 21.142578 A 2.6299769 2.5226917 0 0 1 25.001953 23.455078 L 25.001953 25.001953 L 28 25.001953 L 28 26.021484 L 28 27.003906 L 28 28.013672 L 19.998047 28.013672 L 19.998047 27.003906 L 19.998047 26.021484 L 19.998047 25.001953 L 23.001953 25.001953 L 23.001953 23.492188 A 2.6299769 2.5226917 0 0 1 21.322266 21.142578 A 2.6299769 2.5226917 0 0 1 23.953125 18.619141 z "
       transform="scale(0.26458333)" />
  </g>
</svg>
