<?xml version="1.0" encoding="UTF-8" standalone="no"?>
<svg
   xmlns:dc="http://purl.org/dc/elements/1.1/"
   xmlns:cc="http://creativecommons.org/ns#"
   xmlns:rdf="http://www.w3.org/1999/02/22-rdf-syntax-ns#"
   xmlns:svg="http://www.w3.org/2000/svg"
   xmlns="http://www.w3.org/2000/svg"
   xmlns:sodipodi="http://sodipodi.sourceforge.net/DTD/sodipodi-0.dtd"
   xmlns:inkscape="http://www.inkscape.org/namespaces/inkscape"
   width="32"
   height="32"
   viewBox="0 0 8.4666667 8.4666667"
   version="1.1"
   id="svg8"
   inkscape:version="1.0.1 (3bc2e813f5, 2020-09-07)"
   sodipodi:docname="icon-accbudgetmodel-white.svg">
  <defs
     id="defs2" />
  <sodipodi:namedview
     id="base"
     pagecolor="#000000"
     bordercolor="#666666"
     borderopacity="1.0"
     inkscape:pageopacity="0"
     inkscape:pageshadow="2"
     inkscape:zoom="11.2"
     inkscape:cx="25.101104"
     inkscape:cy="14.725673"
     inkscape:document-units="mm"
     inkscape:current-layer="layer1"
     inkscape:document-rotation="0"
     showgrid="false"
     inkscape:window-width="1874"
     inkscape:window-height="1016"
     inkscape:window-x="46"
     inkscape:window-y="27"
     inkscape:window-maximized="1"
     units="px"
     inkscape:snap-global="false" />
  <metadata
     id="metadata5">
    <rdf:RDF>
      <cc:Work
         rdf:about="">
        <dc:format>image/svg+xml</dc:format>
        <dc:type
           rdf:resource="http://purl.org/dc/dcmitype/StillImage" />
        <dc:title></dc:title>
      </cc:Work>
    </rdf:RDF>
  </metadata>
  <g
     inkscape:label="Layer 1"
     inkscape:groupmode="layer"
     id="layer1">
    <rect
       style="fill:#ffffff;stroke:#ffffff;stroke-width:0.373472"
       id="rect898"
       width="1.3478932"
       height="0.92075294"
       x="6.770925"
       y="2.6467824"
       ry="0.46037647" />
    <rect
       style="fill:#ffffff;stroke:#ffffff;stroke-width:0.517968"
       id="rect898-7"
       width="3.0752845"
       height="0.77625585"
       x="5.0532627"
       y="5.6425924"
       ry="0.38812792" />
    <rect
       style="fill:#ffffff;stroke:none;stroke-width:0.318295"
       id="rect987"
       width="1.2623646"
       height="0.64322507"
       x="0.13687922"
       y="-0.66961759"
       ry="0.32161254"
       transform="rotate(90)" />
    <rect
       style="fill:#ffffff;stroke:none;stroke-width:0.333776"
       id="rect987-7"
       width="1.3881558"
       height="0.64322507"
       x="7.0563588"
       y="0.015571872"
       ry="0.32161254" />
    <rect
       style="fill:#ffffff;stroke:#ffffff;stroke-width:0.229427"
       id="rect898-7-3-9"
       width="0.99331975"
       height="0.47150061"
       x="0.28373146"
       y="7.8726578"
       ry="0.18116266" />
    <g
       aria-label="Rp"
       id="text1093"
       style="font-style:normal;font-weight:normal;font-size:10.5833px;line-height:1.25;font-family:sans-serif;fill:#000000;fill-opacity:1;stroke:none;stroke-width:0.264583"
       transform="matrix(0.2936934,0,0,0.2936934,2.2933853,3.3982037)">
      <path
         d="m 0.54047257,-2.8815775 q 0.62528283,0 0.89399943,-0.2325432 0.2738842,-0.2325432 0.2738842,-0.7648088 0,-0.5270979 -0.2738842,-0.7544735 -0.2687166,-0.2273756 -0.89399943,-0.2273756 h -0.83715553 v 1.9792011 z m -0.83715553,1.3745887 V 1.4127203 H -2.2862193 v -7.7152668 h 3.03856457 q 1.52444993,0 2.23241473,0.5115951 0.7131325,0.511595 0.7131325,1.6174672 0,0.7648087 -0.3720691,1.2557333 -0.3669015,0.4909245 -1.1110398,0.7234677 0.4082426,0.093017 0.7286354,0.4237454 0.3255605,0.3255605 0.6562886,0.99218437 L 4.6797416,1.4127203 H 2.5610146 L 1.6205066,-0.50446921 Q 1.3362871,-1.0832434 1.0417324,-1.2951161 0.75234527,-1.5069888 0.26658835,-1.5069888 Z"
         style="font-style:normal;font-variant:normal;font-weight:bold;font-stretch:normal;font-family:sans-serif;-inkscape-font-specification:'sans-serif Bold';fill:#ffffff;stroke-width:0.264583"
         id="path1095" />
      <path
         d="M 7.6252884,0.57556478 V 3.6141293 H 5.775278 v -7.989151 h 1.8500104 v 0.8474908 q 0.3824044,-0.5064274 0.8474908,-0.7441382 0.4650864,-0.2428785 1.0696988,-0.2428785 1.069699,0 1.756993,0.8526584 0.687294,0.8474908 0.687294,2.1859062 0,1.33841529 -0.687294,2.19107371 -0.687294,0.84749079 -1.756993,0.84749079 -0.6046124,0 -1.0696988,-0.2377108 Q 8.0076928,1.0819922 7.6252884,0.57556478 Z M 8.8551836,-3.1709646 q -0.5942771,0 -0.9146699,0.4392482 -0.3152253,0.4340807 -0.3152253,1.2557334 0,0.82165261 0.3152253,1.26090089 0.3203928,0.43408065 0.9146699,0.43408065 0.5942771,0 0.9043347,-0.43408065 0.3152257,-0.43408065 0.3152257,-1.26090089 0,-0.8268203 -0.3152257,-1.260901 -0.3100576,-0.4340806 -0.9043347,-0.4340806 z"
         style="font-style:normal;font-variant:normal;font-weight:bold;font-stretch:normal;font-family:sans-serif;-inkscape-font-specification:'sans-serif Bold';fill:#ffffff;stroke-width:0.264583"
         id="path1097" />
    </g>
    <g
       aria-label="Rp"
       id="text1093-0"
       style="font-style:normal;font-weight:normal;font-size:10.5833px;line-height:1.25;font-family:sans-serif;fill:#000000;fill-opacity:1;stroke:none;stroke-width:0.264583"
       transform="matrix(0.18056955,0,0,0.18056955,2.0465178,6.3809569)">
      <path
         d="m 0.54047257,-2.8815775 q 0.62528283,0 0.89399943,-0.2325432 0.2738842,-0.2325432 0.2738842,-0.7648088 0,-0.5270979 -0.2738842,-0.7544735 -0.2687166,-0.2273756 -0.89399943,-0.2273756 h -0.83715553 v 1.9792011 z m -0.83715553,1.3745887 V 1.4127203 H -2.2862193 v -7.7152668 h 3.03856457 q 1.52444993,0 2.23241473,0.5115951 0.7131325,0.511595 0.7131325,1.6174672 0,0.7648087 -0.3720691,1.2557333 -0.3669015,0.4909245 -1.1110398,0.7234677 0.4082426,0.093017 0.7286354,0.4237454 0.3255605,0.3255605 0.6562886,0.99218437 L 4.6797416,1.4127203 H 2.5610146 L 1.6205066,-0.50446921 Q 1.3362871,-1.0832434 1.0417324,-1.2951161 0.75234527,-1.5069888 0.26658835,-1.5069888 Z"
         style="font-style:normal;font-variant:normal;font-weight:bold;font-stretch:normal;font-family:sans-serif;-inkscape-font-specification:'sans-serif Bold';fill:#ffffff;stroke-width:0.264583"
         id="path1095-6" />
      <path
         d="M 7.6252884,0.57556478 V 3.6141293 H 5.775278 v -7.989151 h 1.8500104 v 0.8474908 q 0.3824044,-0.5064274 0.8474908,-0.7441382 0.4650864,-0.2428785 1.0696988,-0.2428785 1.069699,0 1.756993,0.8526584 0.687294,0.8474908 0.687294,2.1859062 0,1.33841529 -0.687294,2.19107371 -0.687294,0.84749079 -1.756993,0.84749079 -0.6046124,0 -1.0696988,-0.2377108 Q 8.0076928,1.0819922 7.6252884,0.57556478 Z M 8.8551836,-3.1709646 q -0.5942771,0 -0.9146699,0.4392482 -0.3152253,0.4340807 -0.3152253,1.2557334 0,0.82165261 0.3152253,1.26090089 0.3203928,0.43408065 0.9146699,0.43408065 0.5942771,0 0.9043347,-0.43408065 0.3152257,-0.43408065 0.3152257,-1.26090089 0,-0.8268203 -0.3152257,-1.260901 -0.3100576,-0.4340806 -0.9043347,-0.4340806 z"
         style="font-style:normal;font-variant:normal;font-weight:bold;font-stretch:normal;font-family:sans-serif;-inkscape-font-specification:'sans-serif Bold';fill:#ffffff;stroke-width:0.264583"
         id="path1097-2" />
    </g>
    <rect
       style="fill:#ffffff;stroke:none;stroke-width:0.333777"
       id="rect987-7-6"
       width="1.3881559"
       height="0.64322513"
       x="5.0971227"
       y="0.032740112"
       ry="0.32161257" />
    <rect
       style="fill:#ffffff;stroke:none;stroke-width:0.333777"
       id="rect987-7-1"
       width="1.3881559"
       height="0.64322513"
       x="2.3621409"
       y="0.017435435"
       ry="0.32161257" />
    <rect
       style="fill:#ffffff;stroke:none;stroke-width:0.333777"
       id="rect987-7-8"
       width="1.3881559"
       height="0.64322513"
       x="0.034512799"
       y="0.015415385"
       ry="0.32161257" />
    <rect
       style="fill:#ffffff;stroke:none;stroke-width:0.318294"
       id="rect987-79"
       width="1.2623646"
       height="0.64322513"
       x="2.3524582"
       y="-0.61596131"
       ry="0.32161257"
       transform="rotate(90)" />
    <rect
       style="fill:#ffffff;stroke:none;stroke-width:0.318294"
       id="rect987-2"
       width="1.2623646"
       height="0.64322513"
       x="4.5260262"
       y="-0.65419668"
       ry="0.32161257"
       transform="rotate(90)" />
    <rect
       style="fill:#ffffff;stroke:none;stroke-width:0.318294"
       id="rect987-0"
       width="1.2623646"
       height="0.64322513"
       x="7.1312437"
       y="-0.69751537"
       ry="0.32161257"
       transform="rotate(90)" />
    <rect
       style="fill:#ffffff;stroke:none;stroke-width:0.333777"
       id="rect987-7-1-2"
       width="1.3881559"
       height="0.64322519"
       x="2.1301198"
       y="7.8070989"
       ry="0.3216126" />
    <rect
       style="fill:#ffffff;stroke:none;stroke-width:0.333777"
       id="rect987-7-1-2-3"
       width="1.3881559"
       height="0.64322519"
       x="4.2864599"
       y="7.81248"
       ry="0.3216126" />
    <rect
       style="fill:#ffffff;stroke:none;stroke-width:0.333777"
       id="rect987-7-1-2-7"
       width="1.3881559"
       height="0.64322519"
       x="7.0534811"
       y="7.7847552"
       ry="0.3216126" />
    <rect
       style="fill:#ffffff;stroke:none;stroke-width:0.318294"
       id="rect987-0-5"
       width="1.2623646"
       height="0.64322519"
       x="7.1408334"
       y="-8.470705"
       ry="0.3216126"
       transform="rotate(90)" />
    <rect
       style="fill:#ffffff;stroke:none;stroke-width:0.318294"
       id="rect987-9"
       width="1.2623646"
       height="0.64322513"
       x="0.025070215"
       y="-8.461956"
       ry="0.32161257"
       transform="rotate(90)" />
  </g>
</svg>
