<?xml version="1.0" encoding="UTF-8" standalone="no"?>
<svg
   xmlns:dc="http://purl.org/dc/elements/1.1/"
   xmlns:cc="http://creativecommons.org/ns#"
   xmlns:rdf="http://www.w3.org/1999/02/22-rdf-syntax-ns#"
   xmlns:svg="http://www.w3.org/2000/svg"
   xmlns="http://www.w3.org/2000/svg"
   xmlns:sodipodi="http://sodipodi.sourceforge.net/DTD/sodipodi-0.dtd"
   xmlns:inkscape="http://www.inkscape.org/namespaces/inkscape"
   width="32"
   height="32"
   viewBox="0 0 8.4666667 8.4666667"
   version="1.1"
   id="svg8"
   inkscape:version="1.0.1 (0767f8302a, 2020-10-17)"
   sodipodi:docname="icon-itemmanage-white.svg">
  <defs
     id="defs2" />
  <sodipodi:namedview
     id="base"
     pagecolor="#7a7a7a"
     bordercolor="#666666"
     borderopacity="1.0"
     inkscape:pageopacity="0"
     inkscape:pageshadow="2"
     inkscape:zoom="22.627417"
     inkscape:cx="11.196726"
     inkscape:cy="17.251827"
     inkscape:document-units="mm"
     inkscape:current-layer="layer1"
     inkscape:document-rotation="0"
     showgrid="false"
     inkscape:window-width="1874"
     inkscape:window-height="1016"
     inkscape:window-x="46"
     inkscape:window-y="27"
     inkscape:window-maximized="1"
     units="px"
     inkscape:snap-global="false" />
  <metadata
     id="metadata5">
    <rdf:RDF>
      <cc:Work
         rdf:about="">
        <dc:format>image/svg+xml</dc:format>
        <dc:type
           rdf:resource="http://purl.org/dc/dcmitype/StillImage" />
        <dc:title></dc:title>
      </cc:Work>
    </rdf:RDF>
  </metadata>
  <g
     inkscape:label="Layer 1"
     inkscape:groupmode="layer"
     id="layer1">
    <g
       id="g888"
       transform="matrix(0.714831,0,0,0.62070058,1.2374806,3.112931)"
       style="stroke-width:1.50127">
      <path
         id="rect865"
         style="opacity:0.94;fill:#ffffff;fill-opacity:0.76994407;stroke:none;stroke-width:0.998347;stroke-linecap:round"
         d="M 1.7239671,0.54815845 3.8342998,1.8149765 V 4.651454 L 1.7239671,3.384636 Z"
         sodipodi:nodetypes="ccccc" />
      <path
         id="rect865-3"
         style="opacity:0.94;fill:#ffffff;fill-opacity:0.44356295;stroke:none;stroke-width:0.998347;stroke-linecap:round"
         d="M 6.3611695,0.48859773 4.2508368,1.7554158 V 4.5918934 L 6.3611695,3.3250752 Z"
         sodipodi:nodetypes="ccccc" />
      <rect
         style="opacity:0.94;fill:#ffffff;fill-opacity:1;stroke:none;stroke-width:1.07208;stroke-linecap:round"
         id="rect883"
         width="2.3869128"
         height="2.3773751"
         x="1.41039"
         y="-3.2324591"
         transform="matrix(0.8671902,0.49797706,-0.86369744,0.50401065,0,0)" />
    </g>
    <path
       id="path2199"
       style="opacity:0.94;fill:#ffffff;fill-opacity:0.95991606;stroke:none;stroke-width:2.51339;stroke-linecap:round"
       d="M 14.212891 0.68164062 L 13.201172 5.1640625 A 11.167476 11.167476 0 0 0 9.8632812 6.4882812 L 6.0039062 4.0488281 L 3.9433594 6.109375 L 6.3164062 9.8652344 A 11.167476 11.167476 0 0 0 4.7441406 13.458984 L 0.40429688 14.4375 L 0.40429688 17.349609 L 4.6621094 18.3125 A 11.167476 11.167476 0 0 0 6.1464844 22.009766 L 3.7441406 25.808594 L 5.8046875 27.869141 L 9.5898438 25.478516 A 11.167476 11.167476 0 0 0 13.041016 26.9375 L 14.03125 31.333984 L 16.945312 31.333984 L 17.925781 26.992188 A 11.167476 11.167476 0 0 0 21.560547 25.513672 L 25.072266 27.732422 L 27.132812 25.673828 L 24.9375 22.197266 A 11.167476 11.167476 0 0 0 26.515625 18.4375 L 30.724609 17.488281 L 30.724609 14.574219 L 26.496094 13.619141 A 11.167476 11.167476 0 0 0 25.001953 10.042969 L 27.332031 6.359375 L 25.271484 4.2988281 L 21.572266 6.6328125 A 11.167476 11.167476 0 0 0 18.142578 5.1953125 L 17.126953 0.68164062 L 14.212891 0.68164062 z M 15.410156 6.1230469 A 9.8056396 9.8056396 0 0 1 15.541016 6.1230469 A 9.8056396 9.8056396 0 0 1 25.345703 15.927734 A 9.8056396 9.8056396 0 0 1 15.541016 25.734375 A 9.8056396 9.8056396 0 0 1 5.734375 15.927734 A 9.8056396 9.8056396 0 0 1 15.410156 6.1230469 z "
       transform="scale(0.26458333)" />
  </g>
</svg>
