<?xml version="1.0" encoding="UTF-8" standalone="no"?>
<svg
   xmlns:dc="http://purl.org/dc/elements/1.1/"
   xmlns:cc="http://creativecommons.org/ns#"
   xmlns:rdf="http://www.w3.org/1999/02/22-rdf-syntax-ns#"
   xmlns:svg="http://www.w3.org/2000/svg"
   xmlns="http://www.w3.org/2000/svg"
   xmlns:sodipodi="http://sodipodi.sourceforge.net/DTD/sodipodi-0.dtd"
   xmlns:inkscape="http://www.inkscape.org/namespaces/inkscape"
   width="16"
   height="16"
   viewBox="0 0 4.2333332 4.2333334"
   version="1.1"
   id="svg8"
   inkscape:version="1.0.1 (0767f8302a, 2020-10-17)"
   sodipodi:docname="minicon-close.svg">
  <defs
     id="defs2">
    <inkscape:path-effect
       effect="skeletal"
       id="path-effect1648"
       is_visible="true"
       lpeversion="1"
       pattern="#path1658"
       copytype="single_stretched"
       prop_scale="1"
       scale_y_rel="false"
       spacing="0"
       normal_offset="0"
       tang_offset="0"
       prop_units="false"
       vertical_pattern="false"
       hide_knot="false"
       fuse_tolerance="0" />
    <inkscape:path-effect
       effect="simplify"
       id="path-effect1640"
       is_visible="true"
       lpeversion="1"
       steps="1"
       threshold="0.021875"
       smooth_angles="360"
       helper_size="0"
       simplify_individual_paths="false"
       simplify_just_coalesce="false" />
    <inkscape:path-effect
       effect="skeletal"
       id="path-effect885"
       is_visible="true"
       lpeversion="1"
       pattern="M 0.87584393,3.7222263 H 4.496128 V 4.2913261 H 0.87584393 Z"
       copytype="single_stretched"
       prop_scale="1"
       scale_y_rel="false"
       spacing="0"
       normal_offset="0"
       tang_offset="0"
       prop_units="false"
       vertical_pattern="false"
       hide_knot="false"
       fuse_tolerance="0" />
    <inkscape:path-effect
       effect="simplify"
       id="path-effect876"
       is_visible="true"
       lpeversion="1"
       steps="1"
       threshold="0.021875"
       smooth_angles="360"
       helper_size="0"
       simplify_individual_paths="false"
       simplify_just_coalesce="false" />
  </defs>
  <sodipodi:namedview
     id="base"
     pagecolor="#ffffff"
     bordercolor="#666666"
     borderopacity="1.0"
     inkscape:pageopacity="0.0"
     inkscape:pageshadow="2"
     inkscape:zoom="31.678384"
     inkscape:cx="12.204108"
     inkscape:cy="12.284736"
     inkscape:document-units="mm"
     inkscape:current-layer="layer1"
     inkscape:document-rotation="0"
     showgrid="false"
     inkscape:window-width="1874"
     inkscape:window-height="1016"
     inkscape:window-x="46"
     inkscape:window-y="27"
     inkscape:window-maximized="1"
     units="px"
     inkscape:snap-global="false" />
  <metadata
     id="metadata5">
    <rdf:RDF>
      <cc:Work
         rdf:about="">
        <dc:format>image/svg+xml</dc:format>
        <dc:type
           rdf:resource="http://purl.org/dc/dcmitype/StillImage" />
        <dc:title></dc:title>
      </cc:Work>
    </rdf:RDF>
  </metadata>
  <g
     inkscape:label="Layer 1"
     inkscape:groupmode="layer"
     id="layer1">
    <path
       id="rect1746"
       style="fill:#000000;fill-opacity:0.6;stroke:none;stroke-width:3.77952;stroke-linecap:round"
       d="M 8.265625 2.0292969 C 8.2623353 2.6391278 8.2696691 3.495647 8.265625 4.1054688 C 8.265625 4.1054688 9.5275396 4.0014554 10.533203 4.8222656 C 11.538865 5.6430781 11.574219 7.3828125 11.574219 7.3828125 L 13.140625 7.4296875 C 13.140625 7.4296875 13.286601 5.8234643 11.994141 3.8261719 C 10.701685 1.828876 8.265625 2.0292969 8.265625 2.0292969 z M 7.8632812 2.0410156 C 7.1174675 2.0786212 5.5044977 2.3418734 4.5351562 3.8398438 C 3.2426966 5.837137 3.3886719 7.4433594 3.3886719 7.4433594 L 4.9550781 7.3945312 C 4.9550781 7.3945312 4.9904166 5.6547965 5.9960938 4.8339844 C 7.0017572 4.0131723 8.2636719 4.1191406 8.2636719 4.1191406 C 8.2596278 3.5093189 8.266962 2.6508471 8.2636719 2.0410156 C 8.2636719 2.0410156 8.1118861 2.0284827 7.8632812 2.0410156 z M 2.6582031 7.5429688 L 2.6582031 12.859375 C 2.4854364 16.462911 13.588467 17.008631 13.726562 12.859375 L 13.726562 7.5429688 L 2.6582031 7.5429688 z M 6.4433594 8.5292969 L 8.1875 10.337891 L 9.8789062 8.5859375 L 11.0625 9.7265625 L 9.3320312 11.525391 L 11.082031 13.339844 L 9.8964844 14.480469 L 8.1875 12.708984 L 6.4238281 14.539062 L 5.2402344 13.396484 L 7.0429688 11.525391 L 5.2558594 9.6699219 L 6.4433594 8.5292969 z "
       transform="scale(0.26458333)" />
  </g>
</svg>
